<?xml version="1.0" encoding="utf-8"?>
<!-- Generator: Adobe Illustrator 24.3.0, SVG Export Plug-In . SVG Version: 6.00 Build 0)  -->
<svg version="1.1" id="Layer_1" xmlns="http://www.w3.org/2000/svg" xmlns:xlink="http://www.w3.org/1999/xlink" x="0px" y="0px"
	 viewBox="0 0 1920 1920" style="enable-background:new 0 0 1920 1920;" xml:space="preserve">
<style type="text/css">
	.st0{fill:#8AC8C4;}
	.st1{fill:#C8E6FF;}
	.st2{fill:#C99178;}
	.st3{fill:#F8FDFF;}
	.st4{fill:#1F4BA0;}
	.st5{fill:#D7CEB0;}
	.st6{fill:#FCA9AA;}
	.st7{fill:#000066;}
</style>
<g transform="matrix( 1, 0, 0, 1, 0,0) ">
	<g>
		<g id="Layer2_0_FILL">
			<path class="st0" d="M1960.2,1960.2V-40.2H-40.2v2000.4H1960.2z"/>
		</g>
	</g>
</g>
<g transform="matrix( 1, 0, 0, 1, 0,0) ">
	<g>
		<g id="Layer1_0_FILL">
			<path class="st1" d="M1551.3,1551.3c163.3-163.3,244.9-360.4,244.9-591.3s-81.7-428-244.9-591.3
				C1388,205.4,1190.9,123.8,960,123.8s-428,81.6-591.3,244.9C205.4,532,123.8,729.1,123.8,960s81.6,428,244.9,591.3
				C532,1714.6,729.1,1796.2,960,1796.2S1388,1714.6,1551.3,1551.3z"/>
		</g>
	</g>
</g>
<g transform="matrix( 1, 0, 0, 1, 0,0) ">
	<g>
		<g id="Layer0_0_FILL">
			<path class="st0" d="M1454.3,1471c-0.1-12.4-6.3-25.2-18.5-38.6c-12.1-13.3-29.4-26.8-51.9-40.5c-22.5-13.6-49.4-27.1-80.7-40.3
				c-31.3-13.2-66.1-25.9-104.4-38c-38.3-12.2-79.4-23.4-123.2-33.8c-43.8-10.4-89.5-19.5-137.1-27.4
				c-47.6-7.8-93.3-13.7-137.1-17.8c-43.8-4.1-84.8-6.3-123.2-6.8c-38.3-0.5-73.1,0.7-104.3,3.7c-31.3,2.9-58.2,7.5-80.7,13.8
				c-22.5,6.2-39.9,14-52,23.3c-12.1,9.3-18.3,20.2-18.4,32.5c0.1,12.3,6.3,25.2,18.4,38.6c12.1,13.3,29.5,26.8,52,40.4
				c22.5,13.7,49.4,27.1,80.7,40.3c31.2,13.2,66,25.9,104.3,38.1c38.4,12.1,79.4,23.4,123.2,33.8c43.8,10.4,89.5,19.5,137.1,27.3
				c47.6,7.8,93.3,13.7,137.1,17.8c43.8,4.1,84.9,6.4,123.2,6.9c38.3,0.5,73.1-0.8,104.4-3.7c31.2-3,58.1-7.6,80.7-13.8
				c22.5-6.2,39.8-14,51.9-23.4C1448,1494.1,1454.2,1483.3,1454.3,1471z"/>
		</g>
	</g>
</g>
<g transform="matrix( 1, 0, 0, 1, 0,0) ">
	<g>
		<g id="Layer0_1_FILL">
			<path class="st2" d="M769.1,853c-0.3,0.1-0.6,0.2-0.8,0.2c-0.3,0.1-0.6,0.2-0.9,0.3c-2.9,1-5.7,1.9-8.5,2.9c-2.8,1-5.6,2-8.3,3
				c-0.2,0.1-0.5,0.2-0.7,0.2c-0.2,0.1-0.4,0.2-0.6,0.2c-3.4,1.3-6.8,2.8-10,4.3c-3.3,1.6-6.4,3.3-9.4,5.2c-4.4,2.8-8.5,6-12.2,9.8
				c-3.7,3.7-7,8.1-10,13.2c-0.2,0.4-0.5,0.8-0.6,1.2c-0.2,0.4-0.5,0.8-0.7,1.2c-0.1,0.2-0.2,0.6-0.4,1.1c-0.2,0.5-0.4,1-0.6,1.7
				c0.8,1.3,1.6,2.6,2.5,3.9c0.8,1.3,1.6,2.6,2.5,3.9c0.1,0.2,0.3,0.4,0.4,0.5c0.1,0.2,0.3,0.4,0.4,0.6l0.8,1.2
				c0.3,0.4,0.6,0.8,0.9,1.2c0.5-0.8,0.9-1.7,1.4-2.5c0.5-0.9,0.9-1.8,1.4-2.6c0.7-1.3,1.3-2.5,1.8-3.6c0.5-1,0.9-1.8,1.2-2.2
				c2.6-4.4,5.6-8.7,9.1-12.8c3.5-4.1,7.3-8,11.4-11.7c2.2-1.5,4.5-3,6.9-4.4c2.5-1.4,5.1-2.7,8-4c3.9-1.7,7.8-3.2,11.8-4.7
				c4-1.4,7.9-3,11.7-4.6c3.8-1.7,7.5-3.8,11-6.2c0.5-0.4,1.1-0.8,1.8-1.3c0.6-0.5,1.2-1,2-1.6c0.6-0.5,1.2-1,1.9-1.6
				c0.6-0.6,1.3-1.2,2-1.8l-0.9-1.2c-0.4-0.1-0.8-0.3-1.2-0.5c-0.4-0.1-0.7-0.3-1.1-0.4c-0.5,0.3-1.1,0.7-1.6,1
				c-0.6,0.3-1.1,0.7-1.7,1c-0.2,0.1-0.5,0.2-0.6,0.3c-0.2,0.1-0.5,0.2-0.7,0.4c0.4,0.6,0.3,1.2-0.3,1.8c-0.5,0.6-1.4,1-2.5,1.3
				c-0.2,0-0.5,0.1-0.7,0.2l-0.7,0.2c-1.6,0.4-3.2,1-4.8,1.6c-1.6,0.6-3.1,1.2-4.7,1.8c-0.9,0.4-1.8,0.7-2.7,1.1
				C771,852.3,770,852.6,769.1,853 M1100.9,1063.8l0.1,0.2L1100.9,1063.8L1100.9,1063.8 M1059.2,1268.4c-2-3.7-4-7.3-6.1-10.8
				c-2.1-3.6-4.2-7.1-6.4-10.4c-0.3,0.1-0.6,0.2-0.8,0.3c-0.2,0.1-0.4,0.2-0.6,0.2c-0.2,0.1-0.4,0.2-0.6,0.2
				c-0.2,0.1-0.3,0.2-0.5,0.3c1.8,3.2,3.6,6.3,5.3,9.5s3.4,6.4,5,9.6c6.1,12.2,12.6,23.8,19.6,34.8c7,10.9,14.6,21.5,22.7,31.7
				c3.2,4,6.4,7.9,9.8,11.8c3.3,3.9,6.8,7.8,10.4,11.7c2.8,3.1,5.7,6.2,8.7,9.2c2.9,3,5.9,5.9,8.9,8.8c4.3,4,8.6,7.9,13,11.7
				c4.4,3.8,8.9,7.5,13.4,11.1l2.3,1.8c2.3,1.8,4.7,3.6,7.1,5.3c2.3,1.8,4.7,3.5,7.1,5.2c5.3,3.8,10.7,7.6,16.2,11.2
				c5.5,3.7,11,7.2,16.6,10.7c2.1,1.3,4.2,2.6,6.4,3.8c2.2,1.2,4.3,2.4,6.5,3.6c3.6,1.9,7.2,3.8,10.9,5.5c3.6,1.8,7.2,3.7,10.8,5.6
				c1,0.5,1.9,1.1,2.9,1.6c1,0.5,1.9,1.1,2.9,1.7c2.5,1.4,4.9,2.9,7.2,4.4c2.4,1.5,4.7,3.2,6.9,4.9c2.4,1.8,4.6,3.7,6.5,5.7
				c1.9,1.9,3.3,3.9,4.4,5.9c0.3,0.5,0.6,1.1,0.8,1.6c0.2,0.5,0.4,1.1,0.6,1.6c0.2,0.4,0.3,0.7,0.5,1.1c0.2,0.4,0.3,0.7,0.5,1.1
				c1.4,0.5,2.9,0.9,4.5,1.2c1.6,0.3,3,0.6,4.3,0.7c1.3,0.1,2.3,0.2,3,0.1l0.5-0.1c-0.2-0.8-0.4-1.6-0.6-2.4
				c-0.2-0.8-0.4-1.6-0.7-2.4c-1-2.8-2.1-5.3-3.5-7.7c-1.4-2.3-2.7-4.2-4.1-5.6c-4-3.9-8.8-7.4-14.5-10.5
				c-5.6-3.1-11.5-5.9-17.5-8.5c-6-2.6-11.6-5.1-16.8-7.3c-5.6-3.2-11.3-6.3-17.2-9.2c-5.8-2.9-11.6-6-17.2-9.1
				c-0.7-0.4-1.3-0.7-2.1-1.1c-0.7-0.4-1.3-0.7-2-1.1c-5.1-3.8-10.3-7.6-15.5-11.4c-5.2-3.8-10.2-7.7-15-11.8
				c-7.2-6-14.4-12.1-21.6-18.2c-7.2-6-14.2-12.2-21-18.6c-0.5-0.4-0.9-0.9-1.4-1.4c-0.5-0.4-1-0.9-1.4-1.3
				c-3.8-4.6-7.6-9.2-11.4-13.8c-3.8-4.6-7.6-9.2-11.4-13.8c-7.1-9-13.7-18.5-19.6-28.3C1070.4,1288.7,1064.7,1278.7,1059.2,1268.4
				 M1305.1,1466.3c-0.2-0.9-0.5-1.8-1-2.7c-0.4-0.9-0.9-1.7-1.5-2.6c-1.2-1.7-2.6-3.2-4.2-4.6c-1.6-1.4-3.2-2.5-5-3.3
				c-1.7-0.8-3.3-1.3-4.8-1.3c0,0.3,0,0.5,0.1,0.8c0.1,0.3,0.3,0.5,0.5,0.8c0.3,0.4,0.7,0.7,1.1,1c0.4,0.3,0.7,0.5,0.9,0.7
				c1.2,1,2.5,2.1,3.7,3.2c1.2,1.1,2.2,2.2,3.2,3.5c0.3,0.4,0.6,0.8,0.9,1.2c0.3,0.4,0.6,0.9,0.8,1.3c0.7,0.5,1.5,1,2.4,1.3
				C1303.2,1466,1304.1,1466.2,1305.1,1466.3 M1304.2,1445c-0.4-0.2-0.9-0.4-1.5-0.7c-0.6-0.2-1.2-0.1-1.8,0.3l-0.2,0.4
				c-0.3,0.7-0.2,1.4,0.4,2.1c0.7,0.7,1.5,1.3,2.5,1.9c1,0.6,1.8,1.1,2.4,1.5l0.3,0.2c0.8,0.7,1.6,1.5,2.2,2.2
				c0.6,0.7,1.2,1.5,1.7,2.3c0.4,0.7,0.8,1.3,1,2c0.3,0.7,0.6,1.4,0.8,2.1c0.9,0,1.7,0,2.5,0c0.7,0,1.4-0.1,2.1-0.3
				c-0.2-0.7-0.5-1.5-0.8-2.2c-0.3-0.7-0.6-1.4-1-2.1c-1.2-2.2-2.7-4.1-4.4-5.8C1308.5,1447.3,1306.5,1446,1304.2,1445
				 M1319.8,1441.7c-0.8-0.6-1.6-1.1-2.4-1.6c-0.4-0.2-0.9-0.4-1.3-0.7c-0.4-0.2-0.8-0.3-1.3-0.4c-0.4-0.1-0.7-0.2-1.1-0.3
				c-0.4-0.1-0.7-0.1-1.1-0.2c-0.2-0.1-0.4-0.1-0.8-0.2c-0.4-0.1-0.7,0.1-0.9,0.4c-0.2,0.2-0.4,0.4-0.5,0.6c-0.1,0.2-0.1,0.5,0,0.8
				c0.2,0.4,0.6,0.7,1.1,0.8l0.7,0.2l0.3,0.1c1.4,0.9,2.7,1.7,3.8,2.4c1.1,0.8,2.1,1.6,2.9,2.3c0.4,0.4,0.8,0.7,1.2,1.1
				c0.3,0.4,0.7,0.7,1,1.1c0.1,0.1,0.1,0.2,0.2,0.3s0.2,0.2,0.2,0.3c0.6-0.3,1.1-0.6,1.7-1.1c0.6-0.4,1.2-0.8,1.7-1.3
				c-0.4-0.5-0.9-1-1.4-1.5c-0.5-0.5-0.9-1-1.4-1.4C1321.4,1442.8,1320.6,1442.2,1319.8,1441.7 M1323.8,1428.5
				c-0.5-0.2-1-0.4-1.6-0.5s-1.1-0.2-1.6-0.3c-0.2,0-0.5-0.1-0.7-0.1c-0.3,0-0.5,0-0.8,0c-0.2,0-0.5,0-0.9,0c-0.4,0-0.8,0.2-1.1,0.4
				c0,0.6,0.4,1.2,1.2,1.7c0.8,0.5,1.7,0.9,2.6,1.2l1.8,0.6c0.2,0.1,0.5,0.3,0.7,0.4c0.3,0.1,0.5,0.3,0.8,0.5
				c0.3,0.2,0.5,0.4,0.8,0.6c0.3,0.2,0.5,0.5,0.8,0.7c0.3,0.3,0.6,0.5,0.8,0.8c0.3,0.3,0.6,0.6,0.9,0.9c0.3-0.5,0.5-1.1,0.6-1.8
				c0.1-0.7,0.2-1.5,0.2-2.5c-0.7-0.5-1.4-1-2.2-1.5C1325.4,1429.2,1324.6,1428.8,1323.8,1428.5 M1178.7,1509.1
				c0.2-0.8,0.4-1.7,0.5-2.6l0.1-0.9c0.2-3.8-0.6-7.4-2.5-10.7c-1.8-3.3-4.4-5.9-7.6-7.8c-0.2-0.1-0.4-0.3-0.6-0.5
				c-0.2-0.2-0.5-0.4-0.8-0.5c-0.2-0.1-0.5-0.2-0.7-0.2c-0.2,0-0.5,0.2-0.7,0.4c-0.4,0.6-0.4,1.3,0,1.9c0.4,0.7,0.9,1.3,1.5,1.9
				s1.1,1.1,1.4,1.5c1.5,1.9,2.7,4,3.6,6.2c0.9,2.2,1.3,4.5,1.3,6.8l0,0.8c0,0.7-0.1,1.3-0.2,2c-0.1,0.6-0.3,1.3-0.6,1.9
				c0.7,0.4,1.4,0.7,2,1c0.6,0.3,1.1,0.4,1.4,0.5c0.2,0.1,0.4,0.1,0.6,0.2c0.2,0.1,0.4,0.1,0.5,0.2
				C1178.2,1510.5,1178.5,1509.8,1178.7,1509.1 M1210.4,1477.7c-0.3-0.2-0.7-0.4-1.1-0.6c-0.5-0.2-0.9-0.2-1.2-0.1l-0.4,0.2
				c-0.2,0.8,0,1.7,0.5,2.5c0.5,0.8,0.9,1.4,1.2,1.8c0.9,1.4,1.9,2.9,3,4.5c1.1,1.6,2.2,3.3,3.1,5c0.9,1.7,1.6,3.5,1.9,5.3
				c0.1,0.6,0.2,1.2,0.2,1.9c0,0.6,0,1.2-0.1,1.8c-0.1,0.6-0.3,1.3-0.5,1.9c-0.3,0.6-0.6,1.3-0.9,2c-0.5,0.8-0.9,1.5-1.1,2.1
				c-0.2,0.6-0.2,1-0.1,1.3c1.2-0.8,2.1-1.8,2.7-2.9c0.6-1.2,1-2.5,1.1-4c0.7,0.2,1.2,0.4,1.8,0.5c0.5,0.1,0.9,0.2,1.2,0.3
				c0.1-0.6,0.2-1.3,0.2-2c0-0.7,0-1.3,0-2c-0.2-2.6-0.8-5.1-1.9-7.6c-1.1-2.5-2.5-4.8-4.2-6.9
				C1214,1480.6,1212.3,1478.9,1210.4,1477.7 M1190.2,1481.9c-0.3-0.2-0.7-0.5-1.3-0.9c-0.6-0.4-1.1-0.5-1.5-0.2
				c0.1,0.7,0.4,1.5,0.9,2.3c0.5,0.8,0.9,1.4,1.1,1.7c1.3,2,2.5,3.9,3.7,5.7c1.2,1.8,2.2,3.6,2.9,5.4c0.7,1.8,1,3.6,0.9,5.6
				c0,0.5-0.1,0.9-0.2,1.4c-0.1,0.5-0.2,0.9-0.4,1.4c-0.1,0.2-0.2,0.4-0.2,0.7c-0.1,0.2-0.2,0.5-0.3,0.7c-0.2,0.5-0.4,1-0.8,1.5
				c-0.3,0.5-0.7,1.1-1,1.6l-0.3,0.5c0.5-0.5,1-1,1.3-1.6c0.4-0.6,0.7-1.2,1-1.9c0.6,0.3,1.2,0.6,1.9,0.9c0.7,0.3,1.4,0.5,2.2,0.7
				c0.4-0.7,0.7-1.4,0.9-2.2c0.3-0.7,0.5-1.4,0.6-2.2c0.5-2.7,0.2-5.4-0.7-8.1c-0.9-2.7-2.3-5.1-4.2-7.4
				C1194.8,1485.2,1192.7,1483.3,1190.2,1481.9 M1234.8,1472.1c-0.5-0.1-1-0.1-1.4,0.1l-0.3,0.2c-0.1,0.7,0.2,1.3,0.9,2
				c0.7,0.6,1.3,1.1,1.7,1.4c2.4,2.3,4.5,4.7,6.3,7.2c1.9,2.5,3.1,5.2,3.8,8c0.1,0.4,0.1,0.8,0.2,1.2c0,0.4,0.1,0.8,0.1,1.2
				c0,0.5,0,0.9,0,1.4c0,0.5-0.1,1-0.2,1.5c0.6,0.2,1.2,0.5,2,0.7c0.7,0.2,1.4,0.4,2.2,0.5c0.2-0.8,0.4-1.7,0.5-2.5
				c0.1-0.8,0.2-1.6,0.2-2.3v-0.3c0-2.9-0.6-5.7-1.9-8.5c-1.3-2.8-3-5.3-5.3-7.4c-2.2-2.1-4.8-3.5-7.6-4.1
				C1235.7,1472.3,1235.3,1472.2,1234.8,1472.1 M901.5,640.5c-0.3-0.3-0.5-0.5-0.8-0.7l-0.4-0.3c-1.1-1-2.3-1.9-3.5-2.8
				c-1.2-0.9-2.4-1.7-3.6-2.5c-0.8-0.6-1.6-1.1-2.4-1.7c-0.8-0.6-1.6-1.1-2.4-1.6l-0.7-0.5c-1.5-1-2.9-2-4.2-3.2
				c-1.4-1.1-2.7-2.3-4-3.5l-0.9-0.9c-3.9-2.9-7.6-6.1-11.1-9.6c-3.5-3.5-7.2-6.8-10.9-9.9c0.5,1,1,2,1.5,3c0.5,1,1,2.1,1.5,3.2
				c1.2,1.7,2.4,3.3,3.6,5c1.2,1.7,2.4,3.3,3.6,5l0.3,0.5c0.8,1.1,1.7,2.3,2.5,3.5c0.9,1.2,1.7,2.4,2.6,3.6c1.6,1.8,3.3,3.6,5,5.3
				c1.7,1.7,3.5,3.4,5.3,5c0.8,0.7,1.6,1.4,2.5,2.1c0.9,0.7,1.8,1.4,2.7,2.1c0.3-0.5,0.7-1,1-1.5l1-1.4c0.1-0.1,0.2-0.2,0.2-0.4
				c0.1-0.1,0.2-0.2,0.2-0.3c0.1-0.1,0.2-0.2,0.2-0.3c0.1-0.1,0.2-0.2,0.2-0.4c0.2-0.3,0.5-0.6,0.7-0.9c0.2-0.3,0.5-0.7,0.8-1
				l0.6-0.8c1.4,1.1,2.8,2.1,4.2,3.1C898.6,638.7,900.1,639.6,901.5,640.5z"/>
			<path class="st3" d="M831.8,856.7c-6.7-2.5-13.4-5.1-20-7.9c-2.5-1-5-2.1-7.5-3.1c-2.5-1-5.1-2-7.6-3l-0.8-0.3
				c-0.3-0.1-0.5-0.2-0.8-0.3l0.9,1.2c2,2.6,3.9,5.2,5.9,7.8c2,2.6,4,5.1,5.9,7.7c2.4,2.7,4.7,5.4,7.1,8.2c2.3,2.7,4.7,5.5,7,8.2
				c4.3-2.6,9-4.8,14.2-6.6c5.2-1.8,10.5-3.4,15.9-4.6C845.3,861.5,838.6,859.1,831.8,856.7 M746.8,653.5c-0.4-0.8-0.9-1.5-1.3-2.3
				c-0.4-0.8-0.8-1.5-1.2-2.4c-0.9,0.1-1.7,0.1-2.5,0.2c-0.9,0-1.7,0.1-2.6,0.1c-1.2,0-2.3,0-3.5,0c-1.1,0-2.3,0-3.4-0.1
				c-7.3-0.3-14.1-1.1-20.4-2.5s-12.1-3.6-17.5-6.5c-1-0.5-2-1.1-2.9-1.7c-0.9-0.6-1.9-1.2-2.8-1.8c-10.8,6.6-21,14-30.7,22.2
				c-9.7,8.2-18.6,17.1-26.7,26.7c-8.1,9.6-15.2,19.7-21.3,30.4c-9.2,16.4-16.9,32.9-23.2,49.6c-6.3,16.7-11.5,33.7-15.8,51
				c-4.3,17.3-8,35-11.2,53.2c-2.3,13-4.1,26-5.5,39.2c-1.3,13.2-2.6,26.4-3.8,39.6c-1,12.2-1.6,24.5-1.6,37c0,12.6,0,25,0,37.4
				c0.1,14.2,0.8,28.5,2.3,42.7c1.4,14.2,3.1,28.2,5,42.1c1,8.1,2.5,16.7,4.3,25.6c1.8,9,4,17.9,6.7,26.7c2.6,8.8,5.7,17,9.1,24.8
				c0.3-1.5,0.7-3,1-4.5c0.3-1.5,0.7-3.1,1-4.6c3.4-14.5,7.7-28.9,12.8-43.2c5.1-14.3,10.8-28.3,17.3-42s13.6-27,21.2-39.8
				c6.9-11.4,13.9-22.3,21.1-32.7c7.2-10.4,15-20.7,23.2-31c8.4-10.5,17.4-20.2,26.9-29.1c9.5-9,19.3-17.6,29.6-25.8
				c-0.7-0.9-1.4-1.7-2.1-2.6s-1.4-1.7-2.1-2.5c-2.5-3-4.8-6-7.1-8.9c-2.3-2.9-4.4-5.9-6.5-8.9c-0.3-0.4-0.6-0.8-0.9-1.2l-0.8-1.2
				c-0.1-0.2-0.3-0.4-0.4-0.6c-0.1-0.2-0.3-0.4-0.4-0.5c-0.9-1.3-1.7-2.6-2.5-3.9c-0.8-1.3-1.7-2.6-2.5-3.9
				c-0.3,0.9-0.5,1.9-0.8,2.9c-0.3,1-0.6,1.8-0.8,2.5c0.3,0.1,0.6,0.2,0.8,0.4c0.3,0.1,0.5,0.3,0.6,0.6c-0.4,1-1.1,1.7-2.2,2.2
				s-2.2,0.9-3.2,1.2c-0.5,0.1-0.8,0.2-1.1,0.2l-0.7,0.1c-3.9,0.1-7.1-0.6-9.6-2.3c-2.5-1.6-4.4-3.8-5.7-6.6c-1.2-2.8-1.8-5.8-1.8-9
				c-2.4,0.6-4.6,1-6.7,1c-2.1,0-3.8-0.6-5-2c-1.2-1.3-1.6-3.7-1.2-7c0.1-1,0.3-2,0.5-3c0.2-1,0.4-1.9,0.6-2.8
				c-2.7,0.7-5.3,0.8-7.9,0.3c-2.6-0.5-4.7-1.6-6.2-3.3c-1.6-1.8-2.3-4.3-2-7.5c0.2-1.7,0.5-3.4,1-5c0.5-1.7,1.2-3.4,2-5.2
				c-0.3,0-0.5,0-0.8-0.1c-0.3-0.1-0.6-0.2-0.9-0.2c-3-1-5.1-2.5-6.2-4.5c-1.1-2-1.5-4.4-1.2-7.1c0.4-2.7,1.2-5.5,2.5-8.5
				c-6.1-7.1-12.1-14.4-17.8-21.9c-5.7-7.5-11.4-15-16.9-22.7c-0.2-0.3-0.6-0.7-1-1.2c-0.5-0.6-0.9-1.1-1.2-1.8
				c-0.4-0.6-0.5-1.2-0.4-1.7c0.4-0.1,0.7-0.1,1,0.1c0.2,0.2,0.4,0.5,0.5,0.8c0.4,0.3,0.8,0.6,1.3,1l1,0.8c2.2,2.4,4.4,4.9,6.5,7.5
				c2.1,2.6,4.2,5.2,6.2,7.8c3.1,4.1,6.4,8.1,9.8,12c3.3,3.9,6.7,7.8,10.2,11.5c0.5,0.6,1,1.1,1.5,1.7c0.5,0.5,1,1.1,1.5,1.7
				c0.4-0.7,0.7-1.3,1.1-2c0.4-0.7,0.7-1.3,1.1-2c1.5-2.5,2.9-4.8,4.3-6.9c1.4-2.1,2.7-3.8,3.7-5.2c2.4-3.4,5.2-6.8,8.5-10.4
				c3.3-3.6,6.8-7.1,10.6-10.5c3.8-3.4,7.7-6.6,11.8-9.4c0-0.3,0-0.7,0.1-1c0.1-0.4,0.2-0.8,0.3-1.2c1.8-4.5,4.5-8.5,8.2-11.8
				c3.6-3.3,7.8-5.9,12.5-7.7c4.6-1.8,9.3-2.8,14.1-3h1.3c0.7,0,1.3,0,1.9,0c0.4-0.3,0.8-0.4,1.3-0.4c0.5,0,0.9,0,1.1,0
				c0.9,0,1.8,0,2.7,0c0.9,0,1.8,0.1,2.7,0.1c1.5,0.1,3,0.3,4.5,0.5c1.5,0.2,3,0.5,4.5,0.8c2.6,0.5,5.1,1.1,7.6,1.8
				c2.5,0.7,4.9,1.5,7.2,2.3l1.7,0.6c1,0.4,2.1,0.8,3.4,1.4c1.3,0.6,2.4,1.3,3.4,2.1c2.5,1.4,5,3.1,7.5,4.9c2.4,1.9,4.8,3.9,7.1,6.1
				c1.9,0.4,3.8,0.7,5.7,1.1c1.9,0.4,3.8,0.9,5.7,1.4c12.9,3.2,25.9,5.9,39,8.1c13.1,2.3,26.3,4.5,39.5,6.7
				c13.2,2.1,26.3,4.5,39.2,7.2c7.3,1.6,14.6,3.3,21.8,5.1c7.2,1.8,14.5,3.5,21.8,5.2c7.8,1.6,15.6,3.1,23.4,4.5
				c7.8,1.4,15.7,2.8,23.5,4.2l-0.2-0.7c-1.2-5-2.5-10-4-14.9c-1.5-4.9-3.1-9.8-4.8-14.7l0.4-0.2c-0.3-0.7-0.6-1.3-0.9-2
				c-0.3-0.7-0.6-1.3-0.9-1.9c-2.2-4.7-4.4-9.4-6.5-14.1c-2.2-4.7-4.3-9.4-6.5-14c-2.2-4.5-4.6-8.8-7.2-13c-2.5-4.2-4.9-8.5-7-12.8
				c-0.2-0.3-0.4-0.7-0.8-1.3c-0.4-0.6-0.7-1.3-1-2.1c-0.3-0.7-0.4-1.4-0.2-2.1c0.8-0.7,1.5-0.7,2,0c0.5,0.6,0.9,1.4,1.3,2.2
				c1.6,2.6,3.2,5.2,5,7.7c1.7,2.5,3.4,5,5,7.6c0.4,0.7,0.8,1.4,1.2,2.1s0.8,1.4,1.2,2.1c2.5,5,5,10.1,7.6,15.2
				c2.6,5.1,5.2,10.2,7.7,15.5c0.7,1.4,1.4,2.8,2,4.2c0.6,1.4,1.3,2.8,2,4.2c3.7-2.1,7.4-4.2,11-6.1c3.7-1.9,7.4-3.7,10.9-5.4
				c5.8-2.9,11.9-5.6,18.2-8.1c6.3-2.5,12.7-4.8,19.2-6.7c1.1-0.3,2.3-0.7,3.4-1c1.1-0.3,2.2-0.6,3.3-0.9c-0.8-0.9-1.5-1.9-2.3-2.9
				c-0.8-0.9-1.6-1.9-2.4-2.8c-5.6-6.6-11.3-12.8-17.3-18.8s-12.1-11.6-18.3-16.9c-8.7-7.5-17.7-14.7-26.8-21.6
				c-9.1-7-18.7-13.3-28.6-19c-2.4-1.3-4.6-2.4-6.5-3.5c-1.9-1-3.4-1.8-4.6-2.5l-1.3-0.7c-1.1-0.5-2.3-1.1-3.7-1.8
				c-1.4-0.6-2.9-1.2-4.6-1.9l-0.1,0l0-0.1c-1.3-0.5-2.7-1-4.2-1.5c-1.5-0.5-2.9-1.2-4.4-2c-3.1-1.8-7.1-3.6-12-5.5
				c-4.8-1.9-9.9-3.8-15.3-5.8c-5.4-2-10.4-3.9-15.2-5.9c-2.2-0.7-4.3-1.5-6.5-2.2c-2.2-0.8-4.3-1.5-6.5-2.2
				c-0.1,0.2-0.2,0.3-0.3,0.5l-0.3,0.5c-0.6,0.9-1.2,1.8-1.7,2.6c-0.6,0.9-1.2,1.7-1.7,2.6c0.1,0.3,0.1,0.5,0.2,0.6l0.1,0.2
				c3.6,9.1,7.5,18.9,11.7,29.2c4.2,10.3,7.4,20.8,9.8,31.4c2.4,10.6,2.7,20.9,1,30.9c-0.9,4.3-2.3,7.4-4.2,9.3
				c-1.9,1.9-4.4,3.1-7.3,3.7c-2.9,0.5-6.3,1-10.2,1.3c-3,0.3-6.4,0.2-10.2-0.2c-3.7-0.5-7.4-1.1-11-2c-3.6-0.9-6.9-1.8-9.8-2.8
				c-10.6-3.6-21-9-31.2-16.1c-10.2-7.1-19.8-15.3-29-24.5c-9.2-9.2-17.6-18.9-25.2-28.9C758.8,672.8,752.2,663,746.8,653.5z"/>
			<path class="st4" d="M982.4,947.2c8.1,1,16.2,2.1,24.3,3.3c8.1,1.2,16.2,2.5,24.2,4c6.3,1.1,12.6,2.2,18.9,3.2c6.3,1,12.7,2,19,3
				c1,0.2,2.1,0.3,3.1,0.5c1,0.2,2,0.3,3.1,0.5c0.2,0,0.4,0.1,0.6,0.1c0.2,0,0.3,0,0.5,0l-0.1-0.1l-0.2-0.7
				c-2.1-4.9-4.2-9.7-6.3-14.5c-2.2-4.8-4.3-9.6-6.4-14.5c-1.3-0.4-2.6-0.7-3.9-1.1c-1.3-0.4-2.5-0.7-3.8-1.1
				c-14.4-4.1-28.8-8.3-43.2-12.6c-14.4-4.3-28.8-8.6-43.1-13c-9.9-3-19.9-6.1-30-9.4c-10.1-3.3-20-6.7-29.6-10.3
				c-6.2-2.3-12.5-4.4-18.9-6.5c-6.4-2-12.6-4.2-18.8-6.6c-1.7-0.7-3.5-1.4-5.2-2c-1.7-0.7-3.5-1.3-5.2-2c-1.6-0.6-3.1-1.2-4.6-1.8
				c-1.5-0.6-3.1-1.1-4.7-1.7c-5.4,1.3-10.7,2.8-15.9,4.6c-5.2,1.8-10,4-14.2,6.6c0.6,0.7,1.2,1.4,1.8,2.1c0.6,0.7,1.2,1.4,1.8,2.1
				c4.5,5.5,9,11,13.4,16.5c4.4,5.5,8.7,11,12.9,16.5c2.6,3.5,5.2,7,7.8,10.6c2.6,3.6,5.3,7.3,7.9,11c4.1,0.4,8.2,0.7,12.3,1
				c4.1,0.3,8.2,0.6,12.3,1c10.7,1,21.4,2.2,32,3.5c10.6,1.4,21.1,2.8,31.7,4.2c-1.7-4.6-3.5-9.2-5.6-13.8
				c-2.1-4.5-4.2-9.1-6.2-13.6c-2.1-4.5-4-9.1-5.7-13.8c-0.2-0.6-0.4-1.6-0.7-3c-0.2-1.4-0.1-2.8,0.2-4c0.4-0.1,0.7-0.1,1,0.1
				c0.2,0.2,0.4,0.5,0.5,0.8c0.3,0.2,0.5,0.5,0.7,0.8l0.2,0.4l0.1,0.2c1.8,3.6,3.5,7.2,5,11c1.6,3.7,3.2,7.4,5,11
				c2.1,4.3,4,8.5,5.7,12.5c1.7,4,3.1,7.9,4.4,11.9c3.7,0.5,7.4,1,11.1,1.5C975.1,946.3,978.7,946.8,982.4,947.2 M578.3,1175.4
				c-0.4,1.5-0.7,3-1,4.6c-0.3,1.5-0.7,3-1,4.5c-0.4,1.7-0.7,3.5-1,5.2c-0.4,1.7-0.7,3.5-1,5.2l-0.2,1.2c-0.1,0.4-0.1,0.8-0.2,1.2
				c-0.2,5.1-0.2,10.1,0,15.1c0.2,5,0.5,9.9,1.1,14.8c1.3,10.8,3.5,21.4,6.8,31.8c3.2,10.4,7.3,20.6,12.4,30.7
				c4.9,10.1,9.8,18.4,14.5,24.9c4.7,6.6,10.3,12.2,16.8,16.9s14.9,9.2,25.2,13.7c16.8,7.2,32.6,11.6,47.4,12.9
				c14.8,1.4,29.5,0.3,44.2-3.2c14.6-3.5,30.1-9,46.5-16.5c11-4.9,22.5-10.9,34.5-18c12-7.1,23.8-14.9,35.5-23.2
				c11.6-8.3,22.4-16.8,32.2-25.3c-3-7.4-6.1-14.8-9.4-22.4c-3.3-7.5-6.4-15-9.4-22.6c-0.8-3.1-1.6-6.2-2.5-9.2
				c-0.8-3.1-1.6-6.2-2.5-9.3c-2.4-9.2-4.9-18.3-7.3-27.5c-2.4-9.2-4.9-18.4-7.5-27.5c0.2,0.4,0.3,0.8,0.5,1.2
				c0.1,0.4,0.2,0.6,0.2,0.8c2.8,5.1,5.8,10.1,8.9,14.9c3.1,4.8,6,9.8,8.7,14.9c4.7,9.3,9.6,18.5,14.6,27.5
				c5.1,9.1,10.2,18.2,15.2,27.2c1.5,2.7,3,5.5,4.5,8.2c1.5,2.7,2.9,5.5,4.4,8.3c0.3-0.2,0.5-0.4,0.4-0.6c-0.1-0.2,0-0.3,0.4-0.5
				c2.3,4.2,5,9.3,8.2,15.1c3.2,5.8,6.2,11.2,9,16.1l5.5,9.2c0.4,0.6,0.9,1.3,1.6,2.1c0.7,0.8,1.4,1.4,2.2,1.8
				c0.8,0.5,1.7,0.5,2.5,0.1c2-0.3,4.9-1.2,8.5-2.9c3.7-1.7,7.4-3.5,11-5.5c3.7-2,6.6-3.5,8.7-4.6c0.2-0.1,0.3-0.2,0.5-0.3
				c0.2-0.1,0.3-0.1,0.5-0.2l2-1c0.7-0.3,1.3-0.7,2-1c11.2-5.6,22.3-11.2,33.4-16.8c11.2-5.6,22.4-11.2,33.6-16.8
				c0.1-0.1,0.3-0.1,0.4-0.2c0.1-0.1,0.3-0.2,0.5-0.2c0.7-0.3,1.4-0.7,2.1-1.1c0.7-0.4,1.5-0.7,2.2-1c0.2-0.1,0.4-0.2,0.5-0.3
				c0.2-0.1,0.3-0.2,0.6-0.2c0.1-0.1,0.3-0.2,0.6-0.2c0.2-0.1,0.4-0.2,0.8-0.3c1.4-0.6,3.1-1.4,5-2.5c1.9-1,3.4-2.1,4.5-3.2
				c1.1-1.2,1.1-2.2,0-3.1c-0.2-0.6-0.4-1.2-0.7-2c-0.3-0.8-0.6-1.6-0.9-2.4c-0.6-0.4-1.1-1-1.6-1.8c-0.4-0.7-0.8-1.5-1.2-2.4
				c-0.3-0.8-0.6-1.6-0.8-2.4c-0.2-0.7-0.4-1.4-0.6-1.9l-0.6-1.9c-1.8-5.7-3.6-11.5-5.3-17.2c-1.8-5.7-3.8-11.4-5.9-17.1
				c-5.8-15.5-11.4-31.2-16.9-46.9c-5.5-15.7-11.4-31.3-17.5-46.7c-4.5-11.2-8.7-22.5-12.7-33.8c-4-11.3-8-22.7-12.1-34
				c-2.8,0.4-5.6,0.7-8.4,1c-2.8,0.3-5.7,0.5-8.5,0.7c-11,0.6-22,1.3-33.1,2.2c-11.1,0.8-22.1,1.3-33.2,1.4
				c-7.8,0-15.7,0.1-23.8,0.1c-8.1,0.1-16.2-0.2-24.2-0.8s-15.7-1.8-23.1-3.6l-0.2,0l-0.5-0.1c-0.4-0.1-0.9-0.2-1.4-0.4
				c-1,0.2-2.1-0.1-3.2-0.8c-1.1-0.7-2.2-1.6-3.2-2.6c-1-1-1.8-1.8-2.3-2.3c-8.3-8.5-16.7-17-25.1-25.5c-8.5-8.5-17-17-25.5-25.5
				c-5.6-5.7-10.9-11.5-15.9-17.6c-5-6.1-9.9-12.3-14.8-18.4c-0.5-0.6-1-1.2-1.5-1.8c-0.5-0.6-1-1.2-1.5-1.8
				c-10.3,8.2-20.1,16.8-29.6,25.8c-9.5,8.9-18.4,18.6-26.9,29.1c-8.2,10.3-16,20.6-23.2,31c-7.2,10.4-14.2,21.3-21.1,32.7
				c-7.7,12.8-14.8,26-21.2,39.8s-12.3,27.7-17.3,42C586,1146.5,581.8,1160.9,578.3,1175.4 M1004.8,339c-1.2-1.1-2.1-1.9-2.6-2.4
				c-6-5.5-13.2-10.5-21.8-14.8c-8.6-4.3-17.5-7.8-26.8-10.4c-9.3-2.6-18-3.9-26-4.1c-2.6-0.1-5.2-0.2-7.8-0.2
				c-2.6-0.1-5.2-0.2-7.9-0.1c-0.2,0-0.5,0-0.7,0c-0.2,0-0.5,0-0.7,0l-0.9,0.3c-0.5,0.1-1,0.1-1.4,0.1c-0.5,0-1,0-1.6,0h-1.1
				c-16.5,1.6-32.4,6.2-47.7,13.9c-15.3,7.7-28.7,17.8-40.2,30.4c-11.5,12.5-19.8,26.8-25,42.9c-1.5,4.7-2.8,9.6-3.8,14.6
				c-1,4.9-1.2,10-0.6,15c0.1,1.2,0.2,2.5,0.3,3.9c0,1.3,0,2.6,0,3.9v0.8c0,0.4,0,0.8-0.1,1.1c-0.3,0.1-0.8,0.2-1.3,0.2l-0.6,0.1
				h-0.4c-8.6,1.1-16.5,3.9-23.5,8.4c-7.1,4.5-12.9,10.3-17.4,17.4c-4.6,7-7.4,14.9-8.4,23.6c-0.1,0.9-0.1,2.1,0,3.6
				c0,1.5,0.2,3.2,0.3,4.9c0.2,1.7,0.4,3.2,0.8,4.6c-5.7,2.6-11.2,5.3-16.5,8.1c-5.3,2.7-10.5,5.8-15.5,9.2
				c-5,3.4-9.8,7.4-14.5,12.1c-6.1,6-11.5,12.5-16.4,19.7c-4.9,7.1-8.6,14.7-11.1,22.8c-2.5,8-3.3,16.4-2.3,25.1
				c0.8,6,2.2,11.2,4.2,15.7c2.1,4.5,4.7,8.3,7.9,11.4c2.2,3.3,4.5,6.3,7,8.9c2.5,2.6,5.1,5,7.9,7c0.9,0.7,1.8,1.3,2.8,1.8
				c0.9,0.6,1.9,1.2,2.9,1.7c5.3,2.9,11.2,5.1,17.5,6.5s13.1,2.2,20.4,2.5c1.2,0.1,2.3,0.1,3.4,0.1c1.2,0,2.3,0,3.5,0
				c0.8,0,1.7-0.1,2.6-0.1c0.8,0,1.7-0.1,2.5-0.2c6.7-0.5,13.2-1.8,19.7-3.8c6.4-1.9,12.5-4.6,18.3-8c5.8-3.4,11-7.5,15.8-12.2
				c1.1-1.1,2.2-2.4,3.3-3.9c1.2-1.5,2-3.1,2.6-4.6c2.6,0.1,5.2-0.3,7.9-1.2c2.7-1,5.2-2.3,7.6-3.8s4.3-3.1,5.9-4.8
				c4.7-4.8,8.8-10.4,12.3-16.8c3.5-6.3,6.3-12.9,8.3-19.8c0.8-2.4,1.4-4.7,2-7.1c0.5-2.4,1-4.7,1.4-7c0.1-0.7,0.3-1.7,0.5-3
				c0.2-1.2,0.4-2.5,0.6-3.7c0.2-1.2,0.2-2.1,0.2-2.8v-0.2l0.3-0.2c-0.2-0.6-0.5-1.2-1.2-1.8c-0.6-0.5-1.1-0.9-1.3-1.1
				c-0.8-0.7-1.6-1.5-2.3-2.2c-0.7-0.7-1.4-1.4-2-2.2c-1-2.5-2-5-2.8-7.7c-0.8-2.6-1.5-5-1.8-7.3c-0.5-2.9-0.7-6.2-0.8-9.7
				c-0.1-3.5,0-7,0.1-10.5c0.4-1.8,0.9-3.7,1.5-5.5c0.5-1.8,1.1-3.7,1.7-5.5c0.1-0.3,0.2-0.8,0.4-1.4c0.2-0.6,0.4-1.1,0.7-1.4
				c0.3,0.2,0.6,0.5,0.9,0.7l0.5,0.2l0.2,0.1c2,1.2,4.6,2.5,7.8,3.6c3.2,1.2,6.5,2.3,9.9,3.2c3.3,0.9,6.1,1.4,8.4,1.7l1.7,0.1l1-0.3
				c0.4-0.3,0.5-0.8,0.3-1.5c-0.2-0.7-0.3-1.5-0.5-2.4c-0.5-5,0.9-10.3,4.3-15.9c3.4-5.5,7.5-10.7,12.3-15.4
				c4.9-4.7,9.4-8.2,13.5-10.6c7.4-4.4,15-8.7,22.7-12.7c7.7-4,15.7-7.3,24-10c5-1.6,9.8-3.1,14.6-4.6c4.8-1.5,9.8-2.5,15-3
				c0.6-0.1,1.5-0.2,2.7-0.6c1.2-0.3,2.2-0.8,3-1.4c0.7-0.6,0.6-1.5-0.2-2.5l0.8-0.2l0.3,0.8c4,9.6,8.8,18.3,14.6,26
				c5.8,7.8,12.5,15.1,20.1,21.9c2,1.8,4.5,3.6,7.4,5.4c2.9,1.8,6,3.5,9.2,4.9c0.5,0.2,1.1,0.5,1.6,0.7c0.5,0.2,1.1,0.5,1.6,0.6
				c1.6,0.6,3.1,1.1,4.6,1.5c1.5,0.4,2.9,0.7,4.2,0.8c8,0.7,15.3-0.4,21.8-3.3c6.5-3,11.7-7.4,15.8-13.2c4.1-5.9,6.5-12.7,7.2-20.6
				c0.5-5.2,0.2-10.5-0.8-15.9s-2.7-10.4-5-15.1c-2.1-6.1-5.2-11.7-9.5-16.8c-4.2-5.1-8.9-9.9-14-14.2c-5.1-4.4-10.1-8.5-14.8-12.5
				c-3.6-3-7.5-5.8-11.7-8.4c-4.1-2.6-8.2-5.2-12.2-7.7c-2.2-1.4-4.5-2.7-7-3.9s-5-2.2-7.5-3.1c-0.9-1.2-2.1-2.5-3.5-3.8
				C1007.4,341.4,1006.1,340.1,1004.8,339 M1097,1028.7c-0.5-2.2-1.2-4.1-2.3-5.7l-0.2-0.2c-0.1-0.2-0.4-0.4-0.7-0.7
				c-0.3-0.3-0.7-0.5-1.1-0.5c-0.3,0-0.6,0-0.8,0c-0.3,0-0.5,0.1-0.7,0.2l-0.1-0.2c-0.2-0.4-0.5-0.7-0.8-0.9c-0.3-0.3-0.6-0.5-1-0.6
				l-0.1,0c-0.8-0.4-1.5-0.6-2.2-0.7c-0.8-0.1-1.4,0.2-1.9,0.8c-1.3,0-2.5,0.1-3.8,0.2c-1.3,0.1-2.5,0.1-3.8,0.2
				c-7.9,0.7-15.9,1.2-24,1.7c-8.1,0.4-16.1,0.8-24.1,1c-3.5,0.2-6.9,0.5-10.3,0.8c-3.4,0.4-6.9,0.6-10.3,0.8
				c-3.9,0.2-7.8,0.5-11.6,0.9c-3.9,0.4-7.7,0.9-11.5,1.5c2.5,6.6,4.9,13.2,7.2,19.8c2.4,6.6,4.7,13.2,7.1,19.8
				c4.6,12.6,9.4,25.2,14.4,37.8c4.9,12.6,9.5,25.2,13.8,37.9c2.8,8.2,5.7,16.4,8.8,24.6c3.1,8.2,6.2,16.4,9.2,24.6
				c3,8.2,5.6,16.5,7.9,24.8c0.1,0.5,0.3,1.1,0.6,1.9c0.3,0.8,0.6,1.8,1,2.9c0.3,0.9,0.7,1.9,1,2.9c0.3,1,0.6,2,0.8,3
				c6.3-3.1,12.5-6.3,18.8-9.7c6.2-3.3,12.4-6.5,18.8-9.4c0.6-0.2,1.1-0.5,1.7-0.7c0.6-0.3,1.1-0.5,1.7-0.8l1.7-0.7
				c6.6-2.9,13.2-5.9,19.8-8.9c6.6-3.1,13.2-6.1,19.8-9.2c0.3-0.1,0.7-0.3,1.1-0.6c0.4-0.2,0.8-0.4,1.1-0.6
				c-0.2-0.8-0.4-1.6-0.5-2.5c-0.2-0.8-0.4-1.7-0.6-2.6l-0.1-0.4c-0.1-0.3-0.1-0.6-0.2-0.9c-0.1-0.3-0.1-0.7-0.2-1
				c-0.8-3.7-1.9-7.9-3.2-12.6c-1.4-4.6-2.6-9.4-3.8-14.2c-2.3-7.7-4.6-15.4-6.9-23.2c-2.3-7.7-4.6-15.5-6.8-23.2
				c-2-6.9-4-13.9-6-20.8c-2-6.9-4.1-13.9-6.1-20.8c-1.5-5-2.9-9.9-4.4-14.9c-1.5-4.9-3-9.9-4.5-14.8
				C1098,1032.9,1097.5,1030.9,1097,1028.7 M1101,1064l-0.1-0.2h0L1101,1064z"/>
			<path class="st5" d="M615.5,788.2l-1-0.8c-0.5-0.4-0.9-0.7-1.3-1c-0.1-0.3-0.3-0.6-0.5-0.8c-0.2-0.2-0.5-0.2-1-0.1
				c-0.1,0.5,0,1.1,0.4,1.7c0.4,0.6,0.8,1.2,1.2,1.8c0.5,0.5,0.8,1,1,1.2c5.5,7.6,11.2,15.2,16.9,22.7c5.7,7.5,11.7,14.8,17.8,21.9
				c0.2-0.6,0.5-1.1,0.8-1.8c0.3-0.6,0.5-1.2,0.8-1.8c0.1-0.2,0.2-0.3,0.2-0.4l0.2-0.5c-0.5-0.6-1-1.1-1.5-1.7
				c-0.5-0.6-1-1.1-1.5-1.7c-3.5-3.8-6.9-7.6-10.2-11.5c-3.4-3.9-6.6-7.9-9.8-12c-2-2.6-4.1-5.2-6.2-7.8
				C619.9,793.1,617.7,790.6,615.5,788.2 M967.2,729.5c-0.5-0.7-1.1-0.7-2,0c-0.2,0.7-0.1,1.4,0.2,2.1c0.3,0.7,0.6,1.4,1,2.1
				c0.4,0.6,0.6,1.1,0.8,1.3c2.2,4.3,4.5,8.6,7,12.8c2.5,4.2,4.9,8.5,7.2,13c2.2,4.6,4.3,9.3,6.5,14c2.2,4.7,4.3,9.4,6.5,14.1
				c0.3,0.6,0.6,1.3,0.9,1.9c0.3,0.6,0.6,1.3,0.9,2c0.5-0.3,1-0.7,1.5-1l2-1.1c0.1-0.1,0.3-0.2,0.5-0.2c-0.7-1.4-1.3-2.8-2-4.2
				c-0.7-1.4-1.3-2.8-2-4.2c-2.5-5.2-5-10.3-7.7-15.5c-2.6-5.1-5.1-10.2-7.6-15.2c-0.4-0.7-0.8-1.4-1.2-2.1s-0.8-1.4-1.2-2.1
				c-1.6-2.6-3.3-5.1-5-7.6c-1.8-2.5-3.4-5.1-5-7.7C968.1,730.8,967.7,730.1,967.2,729.5z"/>
			<path class="st6" d="M727.5,759.3c-4.8,0.1-9.5,1.1-14.1,3c-4.7,1.8-8.8,4.4-12.5,7.7c-3.7,3.3-6.4,7.2-8.2,11.8
				c-0.2,0.4-0.3,0.8-0.3,1.2c-0.1,0.4-0.1,0.7-0.1,1c-4,2.8-8,6-11.8,9.4c-3.8,3.4-7.3,6.9-10.6,10.5c-3.3,3.6-6.1,7.1-8.5,10.4
				c-1,1.4-2.3,3.1-3.7,5.2c-1.4,2.1-2.9,4.4-4.3,6.9c-0.4,0.7-0.7,1.3-1.1,2c-0.4,0.7-0.7,1.3-1.1,2l-0.2,0.5
				c-0.1,0.1-0.2,0.3-0.2,0.4c-0.3,0.6-0.6,1.2-0.8,1.8c-0.3,0.6-0.5,1.2-0.8,1.8c-1.3,3-2.1,5.8-2.5,8.5c-0.3,2.7,0,5.1,1.2,7.1
				c1.1,2.1,3.2,3.6,6.2,4.5c0.3,0.1,0.6,0.2,0.9,0.2c0.3,0.1,0.5,0.1,0.8,0.1c-0.8,1.7-1.5,3.5-2,5.2c-0.5,1.7-0.9,3.4-1,5
				c-0.3,3.2,0.4,5.7,2,7.5c1.6,1.7,3.7,2.8,6.2,3.3c2.6,0.5,5.2,0.3,7.9-0.3c-0.2,0.9-0.4,1.9-0.6,2.8c-0.2,0.9-0.3,1.9-0.5,3
				c-0.4,3.4,0,5.8,1.2,7c1.2,1.3,2.9,2,5,2c2.1,0,4.3-0.3,6.7-1c0,3.2,0.6,6.2,1.8,9c1.2,2.8,3.1,5,5.7,6.6
				c2.5,1.7,5.7,2.4,9.6,2.3l0.7-0.1c0.3,0,0.7-0.1,1.1-0.2c1-0.2,2.1-0.6,3.2-1.2s1.9-1.3,2.2-2.2c-0.1-0.3-0.3-0.5-0.6-0.6
				c-0.2-0.2-0.5-0.3-0.8-0.4c0.2-0.7,0.5-1.6,0.8-2.5c0.3-1,0.6-2,0.8-2.9c0.2-0.7,0.4-1.2,0.6-1.7c0.2-0.5,0.3-0.9,0.4-1.1
				c0.2-0.4,0.5-0.8,0.7-1.2c0.2-0.4,0.4-0.8,0.6-1.2c2.9-5,6.2-9.4,10-13.2c3.7-3.7,7.8-7,12.2-9.8c3-1.9,6.1-3.6,9.4-5.2
				c3.2-1.6,6.6-3,10-4.3c0.2-0.1,0.4-0.2,0.6-0.2c0.2-0.1,0.5-0.2,0.7-0.2c2.7-1.1,5.5-2.1,8.3-3c2.8-1,5.6-1.9,8.5-2.9
				c0.3-0.1,0.6-0.2,0.9-0.3c0.3-0.1,0.5-0.2,0.8-0.2c0.9-0.3,1.9-0.7,2.8-1c0.9-0.4,1.8-0.7,2.7-1.1c1.6-0.6,3.1-1.2,4.7-1.8
				c1.6-0.6,3.2-1.2,4.8-1.6l0.7-0.2c0.2-0.1,0.5-0.1,0.7-0.2c1.2-0.3,2-0.8,2.5-1.3c0.6-0.6,0.7-1.2,0.3-1.8
				c0.2-0.1,0.4-0.2,0.7-0.4c0.2-0.1,0.4-0.2,0.6-0.3c0.6-0.3,1.1-0.6,1.7-1c0.5-0.3,1.1-0.7,1.6-1c0.4,0.1,0.7,0.3,1.1,0.4
				c0.4,0.2,0.8,0.3,1.2,0.5c0.3,0.1,0.5,0.2,0.8,0.3l0.8,0.3c2.5,1,5.1,2,7.6,3c2.5,1,5,2.1,7.5,3.1c6.6,2.8,13.3,5.4,20,7.9
				c6.7,2.5,13.5,4.9,20.2,7.3c1.6,0.6,3.1,1.1,4.7,1.7c1.5,0.6,3.1,1.1,4.6,1.8c1.7,0.7,3.5,1.3,5.2,2c1.7,0.7,3.5,1.3,5.2,2
				c6.2,2.4,12.4,4.6,18.8,6.6c6.4,2,12.7,4.2,18.9,6.5c9.7,3.6,19.6,7,29.6,10.3c10.1,3.2,20.1,6.4,30,9.4
				c14.3,4.4,28.7,8.8,43.1,13c14.4,4.3,28.8,8.5,43.2,12.6c1.3,0.4,2.5,0.7,3.8,1.1c1.3,0.4,2.6,0.7,3.9,1.1c0.7,0.2,1.3,0.4,2,0.5
				c0.7,0.2,1.4,0.4,2.1,0.6c6.2,1.8,12.4,3.2,18.4,4c6.1,0.8,12,0.6,17.9-0.6c5.8-1.2,11.5-3.8,17.1-8c1-0.8,1.8-1.7,2.4-2.6
				c0.6-1,1-1.9,1.2-2.8c1.7-1.8,3-4,4-6.5c1-2.5,1.7-5,2.1-7.7c0.4-2.7,0.6-5.2,0.6-7.5c-0.1-8.8-1.2-17.4-3.4-26
				c-2.2-8.5-5.1-16.9-8.7-25.1c-3.5-8.2-7.2-16.2-11.1-24c-5.4-11-11.6-22-18.6-32.8c-7-10.8-14.6-21.3-22.8-31.4
				c-1.1,0.3-2.2,0.6-3.3,0.9c-1.1,0.3-2.3,0.7-3.4,1c-6.5,1.9-12.9,4.2-19.2,6.7c-6.3,2.5-12.4,5.2-18.2,8.1
				c-3.5,1.7-7.1,3.5-10.9,5.4c-3.7,1.9-7.4,4-11,6.1c-0.2,0.1-0.3,0.2-0.5,0.2l-2,1.1c-0.5,0.3-1,0.6-1.5,1L996,793
				c1.7,4.9,3.3,9.8,4.8,14.7c1.5,4.9,2.8,9.9,4,14.9l0.2,0.7c-7.8-1.4-15.6-2.8-23.5-4.2c-7.8-1.4-15.6-2.9-23.4-4.5
				c-7.3-1.6-14.6-3.3-21.8-5.2c-7.2-1.9-14.5-3.6-21.8-5.1c-13-2.7-26.1-5.1-39.2-7.2c-13.2-2.1-26.3-4.3-39.5-6.7
				c-13.1-2.3-26.1-5-39-8.1c-1.9-0.5-3.8-0.9-5.7-1.4c-1.9-0.4-3.8-0.8-5.7-1.1c-2.3-2.1-4.7-4.2-7.1-6.1c-2.5-1.9-5-3.5-7.5-4.9
				c-1-0.8-2.1-1.5-3.4-2.1c-1.2-0.6-2.4-1.1-3.4-1.4l-1.7-0.6c-2.4-0.8-4.8-1.6-7.2-2.3c-2.5-0.7-5-1.3-7.6-1.8
				c-1.5-0.3-3-0.6-4.5-0.8c-1.5-0.2-3-0.4-4.5-0.5c-0.9-0.1-1.8-0.1-2.7-0.1c-0.9,0-1.8,0-2.7,0c-0.2,0-0.6,0-1.1,0
				c-0.5,0-0.9,0.1-1.3,0.4c-0.6,0-1.2,0-1.9,0H727.5 M1144.4,985.7c-2.1-2.3-4.7-4.3-7.6-5.9c-2.9-1.6-6-2.8-9.2-3.5
				c-2.4-1.3-5.2-2.6-8.5-3.8c-3.3-1.2-6.4-2.3-9.4-3.2c-2.9-0.9-5.1-1.5-6.4-1.8c-4.5-1.1-9-2.2-13.5-3c-4.6-0.9-9.1-1.8-13.7-2.6
				c-0.2,0-0.4,0-0.5,0c-0.2,0-0.3-0.1-0.6-0.1c-1-0.2-2.1-0.4-3.1-0.5c-1-0.2-2.1-0.3-3.1-0.5c-6.3-1-12.7-2-19-3
				c-6.3-1-12.6-2-18.9-3.2c-8-1.4-16.1-2.8-24.2-4c-8.1-1.2-16.2-2.3-24.3-3.3c-3.7-0.5-7.3-1-11-1.5c-3.7-0.5-7.4-1-11.1-1.5
				c-0.8-0.1-1.5-0.2-2.3-0.3c-0.8-0.1-1.5-0.2-2.3-0.3c-10.6-1.4-21.1-2.8-31.7-4.2c-10.6-1.3-21.2-2.5-32-3.5
				c-4.1-0.4-8.2-0.7-12.3-1c-4.1-0.3-8.2-0.6-12.3-1c-2.6-3.7-5.2-7.3-7.9-11c-2.6-3.6-5.2-7.1-7.8-10.6c-4.2-5.5-8.5-11-12.9-16.5
				c-4.4-5.5-8.9-11-13.4-16.5c-0.6-0.7-1.2-1.4-1.8-2.1c-0.6-0.7-1.2-1.4-1.8-2.1c-2.3-2.8-4.7-5.5-7-8.2c-2.3-2.7-4.7-5.5-7.1-8.2
				c-1.9-2.6-3.9-5.1-5.9-7.7c-2-2.6-3.9-5.2-5.9-7.8c-0.7,0.6-1.3,1.2-2,1.8c-0.7,0.6-1.3,1.1-1.9,1.6c-0.7,0.6-1.3,1.1-2,1.6
				c-0.6,0.5-1.2,0.9-1.8,1.3c-3.5,2.4-7.2,4.5-11,6.2c-3.8,1.7-7.7,3.2-11.7,4.6c-4,1.4-7.9,3-11.8,4.7c-2.9,1.3-5.5,2.6-8,4
				c-2.4,1.4-4.7,2.9-6.9,4.4c-4.2,3.7-8,7.6-11.4,11.7c-3.5,4.1-6.5,8.4-9.1,12.8c-0.3,0.4-0.7,1.2-1.2,2.2
				c-0.5,1.1-1.1,2.3-1.8,3.6c-0.5,0.8-0.9,1.7-1.4,2.6c-0.5,0.9-0.9,1.7-1.4,2.5c2.1,3,4.2,5.9,6.5,8.9c2.3,2.9,4.6,5.9,7.1,8.9
				c0.7,0.8,1.4,1.7,2.1,2.5s1.4,1.7,2.1,2.6c0.5,0.6,1,1.2,1.5,1.8c0.5,0.6,1,1.2,1.5,1.8c4.8,6.1,9.8,12.3,14.8,18.4
				c5,6.1,10.3,12,15.9,17.6c8.5,8.5,17,17,25.5,25.5c8.4,8.5,16.8,17,25.1,25.5c0.5,0.6,1.3,1.4,2.3,2.3c1,1,2.1,1.8,3.2,2.6
				c1.2,0.7,2.3,1,3.2,0.8c0.5,0.2,1,0.3,1.4,0.4l0.5,0.1l0.2,0c7.4,1.8,15.1,3,23.1,3.6s16.1,0.9,24.2,0.8c8.1,0,16-0.1,23.8-0.1
				c11-0.1,22.1-0.6,33.2-1.4c11.1-0.9,22.1-1.6,33.1-2.2c2.8-0.1,5.7-0.3,8.5-0.7c2.8-0.3,5.6-0.6,8.4-1c1-0.1,2-0.3,3-0.4
				c1-0.1,2-0.3,3-0.4c3.8-0.5,7.7-1,11.5-1.5c3.8-0.4,7.7-0.7,11.6-0.9c3.4-0.2,6.9-0.4,10.3-0.8c3.4-0.3,6.9-0.6,10.3-0.8
				c7.9-0.3,16-0.6,24.1-1c8.1-0.4,16.1-1,24-1.7c1.3-0.1,2.5-0.2,3.8-0.2c1.2-0.1,2.5-0.1,3.8-0.2c0.5-0.6,1.1-0.9,1.9-0.8
				c0.7,0.1,1.5,0.3,2.2,0.7l0.1,0c0.9,0,1.8,0,2.7,0c0.9,0,1.8-0.1,2.7-0.1l0.1,0.1l-0.8,0.4c-0.8,0.3-1.7,0.7-2.8,1.2l0.1,0.2
				c0.2-0.1,0.4-0.2,0.7-0.2c0.2,0,0.5,0,0.8,0c0.4,0.1,0.7,0.2,1.1,0.5c0.3,0.3,0.6,0.5,0.7,0.7l0.2,0.2c1.1,1.7,1.9,3.6,2.3,5.7
				c0.5,2.2,1,4.2,1.5,6.1c1.5,5,3,9.9,4.5,14.8c1.5,5,3,9.9,4.4,14.9c2,6.9,4.1,13.9,6.1,20.8c2,6.9,4,13.9,6,20.8
				c0.3,0.1,0.7,0.2,1.1,0.2c0.4,0,0.8-0.1,1.2-0.2l1.9-1.8l2.2-3.8c1.7-3.2,3.2-6.6,4.7-10.1s2.4-6,3-7.5
				c2.5-6.8,5.4-14.5,8.7-23.2c3.3-8.6,6.1-17.5,8.3-26.6c2.3-9.1,3.1-17.8,2.5-26C1152.5,998.9,1149.6,991.8,1144.4,985.7
				 M964.8,426.4c-4.8,1.5-9.7,3-14.6,4.6c-8.3,2.6-16.3,6-24,10c-7.7,4-15.3,8.3-22.7,12.7c-4.1,2.4-8.6,5.9-13.5,10.6
				c-4.9,4.7-9,9.8-12.3,15.4c-3.4,5.6-4.8,10.9-4.3,15.9c0.1,0.9,0.3,1.7,0.5,2.4c0.2,0.7,0.1,1.2-0.3,1.5l-1,0.3l-1.7-0.1
				c-2.3-0.3-5.1-0.8-8.4-1.7c-3.4-0.9-6.7-2-9.9-3.2c-3.2-1.2-5.8-2.4-7.8-3.6l-0.2-0.1l-0.5-0.2c-0.3-0.2-0.6-0.5-0.9-0.7
				c-0.3,0.3-0.5,0.8-0.7,1.4c-0.2,0.6-0.3,1.1-0.4,1.4c-0.6,1.8-1.2,3.7-1.7,5.5c-0.5,1.8-1,3.7-1.5,5.5c-0.2,3.5-0.2,7-0.1,10.5
				c0.1,3.5,0.3,6.7,0.8,9.7c0.4,2.3,1,4.8,1.8,7.3c0.8,2.6,1.8,5.2,2.8,7.7c0.6,0.7,1.3,1.5,2,2.2c0.7,0.7,1.5,1.5,2.3,2.2
				c0.3,0.2,0.7,0.6,1.3,1.1c0.6,0.5,1,1.1,1.2,1.8l-0.3,0.2v0.2c0.1,0.6,0,1.5-0.2,2.8c-0.2,1.2-0.4,2.5-0.6,3.7
				c-0.2,1.3-0.4,2.2-0.5,3c-0.4,2.3-0.9,4.6-1.4,7c-0.6,2.4-1.2,4.7-2,7.1c-2.1,6.8-4.8,13.4-8.3,19.8c-3.5,6.3-7.6,11.9-12.3,16.8
				c-1.6,1.6-3.6,3.2-5.9,4.8s-4.9,2.8-7.6,3.8c-2.7,1-5.3,1.4-7.9,1.2c-0.5,1.5-1.4,3.1-2.6,4.6c-1.2,1.5-2.3,2.8-3.3,3.9
				c-4.7,4.8-10,8.9-15.8,12.2c-5.8,3.4-11.9,6-18.3,8c-6.5,2-13,3.2-19.7,3.8c0.4,0.8,0.8,1.6,1.2,2.4c0.4,0.8,0.9,1.6,1.3,2.3
				c5.5,9.5,12,19.3,19.7,29.4c7.6,10,16,19.7,25.2,28.9c9.2,9.3,18.8,17.5,29,24.5c10.2,7.1,20.6,12.5,31.2,16.1
				c2.9,1,6.1,1.9,9.8,2.8c3.7,0.9,7.3,1.6,11,2c3.7,0.5,7.1,0.5,10.2,0.2c3.9-0.3,7.3-0.8,10.2-1.3c2.9-0.6,5.4-1.8,7.3-3.7
				c1.9-1.9,3.4-5,4.2-9.3c1.8-10,1.5-20.3-1-30.9c-2.4-10.6-5.7-21.1-9.8-31.4c-4.2-10.3-8.1-20.1-11.7-29.2l-0.1-0.2
				c-0.1-0.1-0.1-0.3-0.2-0.6c0.5-0.9,1.1-1.7,1.7-2.6c0.5-0.9,1.1-1.8,1.7-2.6l0.3-0.5c0.1-0.2,0.2-0.3,0.3-0.5l0-0.2
				c0.1-0.1,0.2-0.3,0.3-0.4c0.1-0.1,0.2-0.3,0.3-0.5c0.2-0.3,0.5-0.7,0.8-1l0.8-1.1c-0.9-0.7-1.8-1.4-2.7-2.1
				c-0.9-0.7-1.7-1.4-2.5-2.1c-1.9-1.6-3.6-3.3-5.3-5c-1.7-1.7-3.4-3.5-5-5.3c-0.9-1.2-1.7-2.4-2.6-3.6c-0.9-1.2-1.7-2.4-2.5-3.5
				l-0.3-0.5c-1.2-1.6-2.4-3.3-3.6-5c-1.2-1.6-2.4-3.3-3.6-5c-0.5-1.1-1-2.1-1.5-3.2c-0.5-1-1-2-1.5-3c3.7,3.1,7.4,6.4,10.9,9.9
				c3.5,3.5,7.2,6.7,11.1,9.6l0.9,0.9c1.3,1.3,2.6,2.4,4,3.5c1.4,1.1,2.8,2.2,4.2,3.2l0.7,0.5c0.8,0.5,1.6,1.1,2.4,1.6
				c0.8,0.5,1.6,1.1,2.4,1.7c1.2,0.8,2.4,1.7,3.6,2.5c1.2,0.9,2.3,1.8,3.5,2.8l0.4,0.3c0.2,0.2,0.5,0.4,0.8,0.7
				c4.4,2.7,9,4.8,13.7,6.2c4.7,1.5,9.4,2.3,14.2,2.4c1.1,0,2.2,0,3.3,0c1.1-0.1,2.2-0.2,3.3-0.4c3.6-0.5,7.2-1.6,10.7-3.1
				c3.5-1.6,7-3.7,10.4-6.4c0.4-0.3,0.7-0.6,1-0.9c0.4-0.3,0.7-0.6,1.1-0.9l0.2-0.2c0.2-0.2,0.5-0.4,0.8-0.7l0.8-0.8
				c3.9-3.7,7.5-7.7,11-12c3.5-4.3,6.8-8.7,10-13.3c3.2-4.5,6.3-9,9.2-13.3c3.7-5.4,7.2-10.9,10.7-16.7c3.4-5.7,6.7-11.3,9.8-16.8
				c5.2-8.8,10-18,14.4-27.8c4.4-9.7,8-19.3,10.8-29c0.8-2.8,1.7-5.8,2.7-9c1-3.2,1.7-6.5,2.1-9.8c0.4-3.2,0.2-6.3-0.7-9.2
				c-0.5-0.2-1.1-0.4-1.6-0.6c-0.6-0.2-1.1-0.5-1.6-0.7c-3.2-1.4-6.3-3.1-9.2-4.9c-2.9-1.8-5.4-3.6-7.4-5.4
				c-7.6-6.8-14.3-14-20.1-21.9c-5.8-7.8-10.7-16.4-14.6-26l-0.3-0.8l-0.8,0.2c0.8,1,0.9,1.9,0.2,2.5c-0.7,0.6-1.7,1.1-3,1.4
				c-1.2,0.3-2.1,0.5-2.7,0.6C974.6,423.9,969.6,424.9,964.8,426.4 M1322.2,1428c0.5,0.1,1.1,0.3,1.6,0.5c0.8,0.3,1.7,0.7,2.4,1.1
				c0.8,0.5,1.6,1,2.2,1.5l0.1-0.5c-0.2-3.8-2.2-7.2-6-10.2c-3.8-3-8-5.6-12.8-7.8c-4.8-2.2-8.7-4-11.8-5.3
				c-12.3-5.6-24.8-10.5-37.7-14.8c-12.8-4.3-25.4-9-37.8-13.9s-24.1-11.1-35.1-18.5c-11-7.4-20.7-17-29.3-28.8
				c-6.3-8.7-12.1-17.9-17.6-27.5c-5.5-9.6-10.2-19.5-14.1-29.7c-3.5-9.2-7.1-18.3-10.7-27.5c-3.6-9.2-7-18.4-10.3-27.6
				c-0.8-2.1-1.6-4.3-2.4-6.5c-0.8-2.2-1.6-4.4-2.5-6.5l-1.7,0.7c-0.6,0.2-1.1,0.5-1.7,0.8c-0.5,0.2-1.1,0.5-1.7,0.7
				c-6.3,2.9-12.6,6.1-18.8,9.4c-6.2,3.3-12.5,6.6-18.8,9.7c-0.8,0.4-1.6,0.7-2.4,1.1c-0.8,0.4-1.6,0.7-2.4,1.1
				c0.4,0.8,0.7,1.5,1.1,2.3c0.3,0.7,0.6,1.5,0.9,2.2c0.3,0.8,0.6,1.6,0.9,2.4c0.3,0.7,0.5,1.4,0.7,2c1.1,0.9,1.1,2,0,3.1
				c-1.1,1.1-2.6,2.2-4.5,3.2c-1.9,1-3.6,1.8-5,2.5c2.2,3.4,4.3,6.9,6.4,10.4c2,3.5,4.1,7.2,6.1,10.8c5.5,10.2,11.2,20.3,17.1,30.2
				c5.9,9.9,12.5,19.3,19.6,28.3c3.8,4.6,7.6,9.2,11.4,13.8c3.8,4.6,7.7,9.2,11.4,13.8c0.5,0.4,0.9,0.9,1.4,1.3
				c0.5,0.5,0.9,0.9,1.4,1.4c6.8,6.4,13.8,12.6,21,18.6c7.2,6.1,14.4,12.1,21.6,18.2c4.8,4,9.8,7.9,15,11.8
				c5.2,3.8,10.4,7.6,15.5,11.4c0.7,0.4,1.3,0.7,2,1.1c0.7,0.4,1.4,0.8,2.1,1.1c5.6,3.1,11.3,6.2,17.2,9.1c5.8,3,11.6,6,17.2,9.2
				c5.2,2.3,10.8,4.7,16.8,7.3c6,2.6,11.9,5.4,17.5,8.5c5.6,3.1,10.5,6.6,14.5,10.5c1.4,1.4,2.8,3.3,4.1,5.6
				c1.3,2.4,2.5,4.9,3.5,7.7c0.3,0.8,0.5,1.6,0.7,2.4c0.2,0.8,0.4,1.6,0.6,2.4c3-0.5,5.4-1.7,7-3.6c1.6-1.9,2.6-4.1,3-6.7
				c0.3-2.6,0.1-5.1-0.8-7.7c-0.3-0.4-0.6-0.9-0.8-1.3c-0.3-0.4-0.6-0.8-0.9-1.2c-1-1.2-2.1-2.4-3.2-3.5c-1.2-1.1-2.4-2.2-3.7-3.2
				c-0.2-0.2-0.5-0.4-0.9-0.7c-0.4-0.3-0.8-0.6-1.1-1c-0.2-0.3-0.4-0.5-0.5-0.8c-0.1-0.3-0.1-0.6-0.1-0.8c1.5,0.1,3.2,0.5,4.8,1.3
				c1.7,0.8,3.3,1.9,5,3.3c1.6,1.4,3,2.9,4.2,4.6c0.6,0.9,1.1,1.7,1.5,2.6c0.4,0.9,0.8,1.8,1,2.7c0.8,0.1,1.5,0.1,2.2,0
				c0.7-0.1,1.4-0.3,2-0.6c1.2-0.6,2-1.5,2.3-2.6c0.3-1.1,0.2-2.3-0.3-3.7h0.7c-0.2-0.7-0.5-1.4-0.8-2.1c-0.3-0.7-0.7-1.3-1-2
				c-0.5-0.8-1-1.6-1.7-2.3c-0.7-0.8-1.4-1.5-2.2-2.2l-0.3-0.2c-0.6-0.4-1.4-0.8-2.4-1.5c-1-0.6-1.8-1.2-2.5-1.9
				c-0.6-0.7-0.8-1.4-0.4-2.1l0.2-0.4c0.5-0.4,1.1-0.5,1.8-0.3c0.6,0.2,1.1,0.4,1.5,0.7c2.3,1,4.3,2.3,6.2,3.9
				c1.8,1.7,3.3,3.6,4.4,5.8c0.4,0.7,0.7,1.4,1,2.1c0.3,0.8,0.6,1.5,0.8,2.2c2.7-0.7,4.4-1.9,5.1-3.8c0.7-1.8,0.6-4-0.2-6.4l0.2-0.1
				c-0.1-0.1-0.2-0.2-0.2-0.3s-0.1-0.2-0.2-0.3c-0.3-0.4-0.7-0.8-1-1.1c-0.4-0.4-0.8-0.7-1.2-1.1c-0.8-0.8-1.8-1.5-2.9-2.3
				c-1.1-0.8-2.3-1.6-3.8-2.4l-0.3-0.1l-0.7-0.2c-0.5-0.1-0.9-0.4-1.1-0.8c-0.1-0.3-0.1-0.5,0-0.8c0.1-0.2,0.3-0.4,0.5-0.6
				c0.2-0.3,0.5-0.5,0.9-0.4c0.4,0.1,0.7,0.1,0.8,0.2c0.4,0.1,0.7,0.1,1.1,0.2c0.4,0.1,0.7,0.2,1.1,0.3c0.5,0.1,0.9,0.3,1.3,0.4
				c0.4,0.2,0.9,0.4,1.3,0.7c0.8,0.5,1.6,1,2.4,1.6c0.8,0.6,1.6,1.2,2.3,1.8c0.5,0.4,1,0.9,1.4,1.4c0.5,0.5,1,1,1.4,1.5
				c0.7-0.6,1.3-1.3,1.8-1.9c0.5-0.6,0.8-1.1,0.9-1.6c0.3-1.1,0.4-2.2,0.3-3.4c-0.1-1.1-0.4-2.3-0.9-3.4c0.1-0.1,0.1-0.2,0.2-0.3
				c0.1-0.1,0.1-0.2,0.2-0.3c-0.3-0.3-0.6-0.6-0.9-0.9c-0.3-0.3-0.5-0.5-0.8-0.8c-0.3-0.2-0.5-0.5-0.8-0.7c-0.3-0.2-0.5-0.4-0.8-0.6
				c-0.2-0.2-0.5-0.3-0.8-0.5c-0.2-0.2-0.5-0.3-0.7-0.4l-1.8-0.6c-0.9-0.3-1.8-0.7-2.6-1.2c-0.8-0.5-1.2-1.1-1.2-1.7
				c0.3-0.3,0.6-0.4,1.1-0.4c0.4,0,0.7,0,0.9,0c0.2,0,0.5,0,0.8,0c0.2,0,0.5,0.1,0.7,0.1C1321.1,1427.8,1321.7,1427.9,1322.2,1428
				 M967.8,1286.7c-0.2,0.1-0.3,0.2-0.5,0.3c2,4,4.2,8,6.6,11.9s4.6,7.8,6.7,11.5c4.7,8.1,9.1,15.9,13.2,23.3c4.1,7.4,7.1,15,9.2,23
				c2.1,8,2.6,16.9,1.4,26.8c-1.3,7.8-2.4,15.2-3.4,22.1c-1,6.9-0.5,13.5,1.5,19.6c2,6.1,6.8,11.8,14.4,17.1c4.4,2.9,9,5.3,13.8,7.1
				c4.8,1.8,9.7,3.5,14.6,5c5,1.5,9.8,3.3,14.6,5.3c0.7,0.3,1.6,0.6,2.5,1c0.9,0.4,1.9,0.7,2.8,1c0.4,0.2,0.8,0.3,1.2,0.5
				c0.4,0.1,0.7,0.2,0.9,0.3c8.2,3.4,16.2,7.4,23.9,12c7.8,4.6,15.2,9.5,22.4,14.7c5.5,4.1,10.5,7.9,15.1,11.5
				c4.6,3.6,9.6,6.5,14.9,8.8c5.3,2.3,11.7,3.4,19.2,3.5c2.3,0,4.2-0.4,5.8-1.1c1.6-0.7,2.9-1.7,3.8-3l0.9,0.5
				c0.2-0.6,0.4-1.3,0.6-1.9c0.1-0.7,0.2-1.3,0.2-2l0-0.8c0-2.3-0.4-4.6-1.3-6.8c-0.9-2.2-2.1-4.3-3.6-6.2c-0.3-0.4-0.8-0.9-1.4-1.5
				s-1.1-1.2-1.5-1.9c-0.4-0.7-0.4-1.3,0-1.9c0.2-0.2,0.4-0.3,0.7-0.4c0.2,0,0.5,0.1,0.7,0.2c0.3,0.1,0.6,0.3,0.8,0.5
				c0.3,0.2,0.5,0.4,0.6,0.5c3.2,1.9,5.8,4.5,7.6,7.8c1.9,3.3,2.7,6.9,2.5,10.7l-0.1,0.9c-0.1,0.9-0.3,1.8-0.5,2.6
				c-0.2,0.8-0.5,1.5-0.8,2.1c3,0.7,5.9,1,8.8,0.7c2.8-0.3,5.2-1.2,7-2.7l0.3-0.5c0.4-0.5,0.8-1.1,1-1.6c0.3-0.5,0.6-1,0.8-1.5
				c0.1-0.2,0.2-0.5,0.3-0.7c0.1-0.2,0.2-0.4,0.2-0.7c0.2-0.5,0.3-1,0.4-1.4c0.1-0.5,0.2-0.9,0.2-1.4c0.1-1.9-0.2-3.8-0.9-5.6
				c-0.7-1.8-1.7-3.6-2.9-5.4c-1.2-1.8-2.4-3.7-3.7-5.7c-0.2-0.3-0.6-0.9-1.1-1.7c-0.5-0.8-0.8-1.6-0.9-2.3c0.5-0.2,1-0.1,1.5,0.2
				c0.6,0.4,1,0.7,1.3,0.9c2.4,1.4,4.6,3.3,6.5,5.5c1.9,2.2,3.2,4.7,4.2,7.4c0.9,2.7,1.2,5.4,0.7,8.1c-0.1,0.7-0.3,1.5-0.6,2.2
				c-0.3,0.7-0.6,1.4-0.9,2.2c2.4,0.6,4.8,1,7.1,1.2c2.3,0.2,4,0.1,5-0.1c0.5-0.1,1-0.3,1.4-0.4c0.4-0.2,0.8-0.4,1.2-0.7
				c-0.1-0.3-0.1-0.7,0.1-1.3c0.2-0.6,0.5-1.3,1.1-2.1c0.4-0.7,0.7-1.3,0.9-2c0.2-0.7,0.4-1.3,0.5-1.9c0.1-0.6,0.1-1.2,0.1-1.8
				c0-0.6-0.1-1.3-0.2-1.9c-0.3-1.8-1-3.6-1.9-5.3c-0.9-1.7-1.9-3.4-3.1-5c-1.1-1.6-2.1-3.1-3-4.5c-0.3-0.4-0.7-0.9-1.2-1.8
				c-0.5-0.8-0.7-1.6-0.5-2.5l0.4-0.2c0.4-0.2,0.8-0.2,1.2,0.1c0.4,0.2,0.8,0.4,1.1,0.6c1.9,1.3,3.6,2.9,5.3,5
				c1.7,2.1,3.1,4.4,4.2,6.9c1.1,2.5,1.7,5,1.9,7.6c0,0.7,0,1.3,0,2c0,0.7-0.1,1.3-0.2,2l0.2,0c2.8,0.8,5.8,1.5,8.8,1.9
				c3.1,0.4,6,0.2,8.6-0.7c2.6-0.9,4.6-3,6-6.2l0.7,0.2c0.1-0.5,0.1-1,0.2-1.5c0-0.5,0-0.9,0-1.4c0-0.4-0.1-0.8-0.1-1.2
				c-0.1-0.4-0.1-0.8-0.2-1.2c-0.6-2.8-1.9-5.5-3.8-8c-1.9-2.5-4-4.9-6.3-7.2c-0.4-0.3-0.9-0.8-1.7-1.4c-0.7-0.6-1-1.3-0.9-2
				l0.3-0.2c0.4-0.2,0.9-0.3,1.4-0.1c0.5,0.1,0.9,0.2,1.2,0.3c2.8,0.6,5.4,2,7.6,4.1c2.3,2.1,4,4.6,5.3,7.4c1.3,2.8,1.9,5.7,1.9,8.5
				v0.3c0,0.8-0.1,1.5-0.2,2.3c-0.1,0.8-0.3,1.7-0.5,2.5c2.1,0.3,4.2,0.5,6.4,0.5c2.2,0,4.2-0.2,6-0.5c1.9-0.3,3.3-0.8,4.4-1.3
				c4.4-2.5,7.5-5.1,9.2-7.8c1.8-2.7,2.4-5.5,1.9-8.3l0.5,0.2c-0.1-0.4-0.3-0.7-0.5-1.1c-0.2-0.4-0.3-0.7-0.5-1.1
				c-0.2-0.5-0.4-1.1-0.6-1.6c-0.2-0.5-0.4-1.1-0.8-1.6c-1.1-2-2.6-4-4.4-5.9c-1.9-2-4-3.9-6.5-5.7c-2.3-1.7-4.6-3.3-6.9-4.9
				c-2.4-1.5-4.8-3-7.2-4.4c-1-0.6-1.9-1.1-2.9-1.7c-1-0.5-2-1.1-2.9-1.6c-3.6-1.9-7.2-3.8-10.8-5.6c-3.6-1.8-7.3-3.7-10.9-5.5
				c-2.2-1.1-4.4-2.3-6.5-3.6c-2.2-1.2-4.3-2.5-6.4-3.8c-5.6-3.5-11.1-7-16.6-10.7c-5.5-3.6-10.9-7.3-16.2-11.2
				c-2.4-1.7-4.8-3.5-7.1-5.2c-2.4-1.8-4.7-3.5-7.1-5.3l-2.3-1.8c-4.5-3.6-9-7.3-13.4-11.1c-4.4-3.8-8.7-7.7-13-11.7
				c-3-2.9-6-5.8-8.9-8.8c-3-3-5.9-6-8.7-9.2c-3.6-3.9-7.1-7.8-10.4-11.7c-3.4-3.9-6.6-7.8-9.8-11.8c-8.1-10.2-15.7-20.8-22.7-31.7
				c-7-11-13.5-22.6-19.6-34.8c-1.6-3.2-3.3-6.4-5-9.6s-3.5-6.4-5.3-9.5c-0.7,0.3-1.5,0.7-2.2,1c-0.7,0.4-1.4,0.7-2.1,1.1
				c-0.2,0.1-0.3,0.2-0.5,0.2c-0.1,0.1-0.3,0.1-0.4,0.2c-11.2,5.5-22.4,11.1-33.6,16.8c-11.1,5.6-22.3,11.2-33.4,16.8
				c-0.7,0.3-1.3,0.7-2,1l-2,1C968.1,1286.5,967.9,1286.6,967.8,1286.7z"/>
			<path class="st7" d="M939.2,896.5c-0.1-0.3-0.3-0.6-0.5-0.8c-0.2-0.2-0.5-0.2-1-0.1c-0.3,1.2-0.4,2.5-0.2,4
				c0.2,1.4,0.5,2.4,0.7,3c1.7,4.7,3.6,9.3,5.7,13.8c2.1,4.5,4.2,9.1,6.2,13.6c2.1,4.5,3.9,9.1,5.6,13.8c0.8,0.1,1.5,0.2,2.3,0.3
				c0.8,0.1,1.5,0.2,2.3,0.3c-1.3-4-2.8-7.9-4.4-11.9c-1.7-4-3.6-8.1-5.7-12.5c-1.7-3.7-3.4-7.4-5-11c-1.6-3.7-3.3-7.3-5-11
				l-0.1-0.2l-0.2-0.4C939.7,897,939.5,896.7,939.2,896.5 M985.7,1027.2c-1,0.1-2,0.3-3,0.4c-1,0.1-2,0.3-3,0.4
				c4.1,11.3,8.1,22.6,12.1,34c4,11.3,8.2,22.6,12.7,33.8c6.1,15.4,12,31,17.5,46.7c5.5,15.7,11.1,31.4,16.9,46.9
				c2.1,5.7,4,11.4,5.9,17.1c1.8,5.7,3.6,11.5,5.3,17.2l0.6,1.9c0.2,0.6,0.3,1.2,0.6,1.9c0.2,0.8,0.5,1.6,0.8,2.4
				c0.3,0.9,0.7,1.7,1.2,2.4c0.4,0.7,1,1.3,1.6,1.8c-0.3-0.7-0.6-1.5-0.9-2.2c-0.3-0.8-0.7-1.5-1.1-2.3c0.8-0.4,1.6-0.7,2.4-1.1
				c0.8-0.4,1.6-0.7,2.4-1.1c-0.3-1-0.6-2-0.8-3c-0.3-1-0.6-2-1-2.9c-0.4-1.1-0.7-2.1-1-2.9c-0.3-0.8-0.5-1.5-0.6-1.9
				c-2.3-8.3-5-16.6-7.9-24.8c-3-8.2-6.1-16.4-9.2-24.6c-3.1-8.2-6.1-16.4-8.8-24.6c-4.3-12.7-8.9-25.3-13.8-37.9
				c-5-12.6-9.8-25.2-14.4-37.8c-2.4-6.6-4.7-13.2-7.1-19.8C990.6,1040.3,988.2,1033.7,985.7,1027.2 M852.7,1154.7
				c-0.1-0.4-0.3-0.8-0.5-1.2c2.6,9.1,5.1,18.3,7.5,27.5c2.4,9.2,4.9,18.3,7.3,27.5c0.8,3.1,1.6,6.2,2.5,9.3
				c0.8,3.1,1.7,6.2,2.5,9.2c3,7.6,6.1,15.1,9.4,22.6c3.3,7.5,6.4,15,9.4,22.4c1.9-1.6,3.7-3.3,5.5-4.9c1.8-1.6,3.5-3.2,5.2-4.8
				c1-0.9,1.9-1.8,2.9-2.5c1-0.8,1.9-1.4,2.9-2c0.3-0.2,0.7-0.4,1-0.6c0.3-0.2,0.6-0.4,1-0.5c-1.4-2.8-2.9-5.6-4.4-8.3
				c-1.5-2.8-3-5.5-4.5-8.2c-5.1-9.1-10.1-18.2-15.2-27.2c-5.1-9-10-18.2-14.6-27.5c-2.7-5.1-5.6-10.1-8.7-14.9
				c-3.1-4.8-6.1-9.8-8.9-14.9C852.9,1155.3,852.8,1155.1,852.7,1154.7z"/>
		</g>
	</g>
</g>
<g transform="matrix( 1, 0, 0, 1, 0,0) ">
	<g>
		<g id="Layer0_2_FILL">
			<path class="st4" d="M1009,550.5c-0.2-0.5-0.4-0.8-0.8-1c-0.5-0.2-1-0.2-1.6-0.2h-0.7l-0.4,0c-0.4-0.1-0.8-0.1-1.2-0.2
				s-0.7-0.3-1.1-0.5l-0.9-0.9c-0.5-0.5-1-0.8-1.5-0.8c-0.6,1-0.6,2,0,3c0.6,1,2,1.6,4.2,2l2.2,0.2l1.3-0.3
				C1009,551.3,1009.2,550.9,1009,550.5 M1024.8,536c0-2.6-1.2-4.4-3.7-5.4c-2.4-1-5.2-1.5-8.3-1.5c-3.1,0-5.6,0.1-7.6,0.3
				c-0.8-0.1-1.6,0-2.4,0.2c-0.8,0.3-1.3,0.8-1.5,1.6c0.3,0.7,0.7,1.1,1.4,1.3c0.7,0.2,1.4,0.3,2.1,0.2c0.7,0,1.3-0.1,1.7-0.1
				c1.1,0,2.2,0,3.3,0.1c1.1,0.1,2.1,0.2,3.2,0.3h-0.7l-0.8,0.1c-0.6,0.1-1.2,0.2-1.8,0.3c-0.9,0.3-1.5,0.9-1.8,1.7
				c-0.4,0.8-0.2,1.6,0.6,2.5c1.1,1,2.5,1.4,4.2,1.1c1.7-0.3,3.1-0.9,4.3-1.8c1.2-0.9,1.7-1.8,1.4-2.6c0.4,0.1,0.7,0.3,1.1,0.4
				c0.4,0.2,0.7,0.3,1,0.5c0.3,0.2,0.9,0.4,1.7,0.6C1023,536.1,1023.9,536.1,1024.8,536 M1023.5,491.7l-0.9-0.2
				c-0.5-0.1-1.1-0.2-1.8-0.2c-0.7,0-1.2,0.1-1.5,0.4c-0.9,0.8-0.9,1.8-0.1,2.8c0.8,1,2,2,3.3,3c1.4,1,2.4,1.8,3.2,2.4l3.6,4
				c1.9,2.1,3.8,3.6,5.6,4.8c1.9,1.1,3,0.6,3.3-1.6c0-1.5-1-3.3-2.9-5.5c-1.9-2.2-4-4.2-6.4-6.1
				C1026.7,493.4,1024.9,492.2,1023.5,491.7 M959.8,608.3c-1.4-0.3-2.7-0.7-4-1.2c-1.3-0.5-2.9-1.2-4.9-2.1
				c-1.9-0.7-4.2-0.8-6.9-0.3c-2.7,0.5-5.4,1.2-8.2,2.2c-2.7,1-5,1.9-6.9,2.6l-1.6,0.5c-0.8,0.3-1.3,0.7-1.7,1.2
				c0.2,0.8,0.6,1.3,1.2,1.5c0.7,0.2,1.5,0.1,2.3-0.1c0.6,0.3,1.2,0.4,2,0.2c0.8-0.1,1.6-0.2,2.2-0.4l1-0.3c1.5-0.2,3.3-0.4,5.3-0.6
				c2-0.1,3.9,0,5.8,0.2c1.9,0.3,3.5,1,4.7,2.1c0.2,0.1,0.4,0.3,0.5,0.4c0.2,0.1,0.3,0.3,0.5,0.4c0.4-0.1,0.8-0.1,1.2-0.2
				c0.4-0.1,0.8-0.1,1.2-0.1c0.4,0,0.7,0,1,0c0.4,0,0.7,0,1,0c1,0.1,1.9,0.2,2.9,0.4c0.9,0.2,1.8,0.4,2.8,0.7h0v0
				c0.3,0.1,0.7,0.2,1,0.3c0.3,0.1,0.6,0.2,0.9,0.4c0.2,0.1,0.5,0.2,0.6,0.3c0.2,0.1,0.4,0.2,0.6,0.3c0.1,0.1,0.3,0.1,0.4,0.2
				c0.1,0.1,0.2,0.1,0.4,0.2c0.4,0.2,0.7,0.4,1,0.6c0.3,0.2,0.7,0.5,1,0.7c0.2,0.1,0.3,0.3,0.5,0.4c0.2,0.1,0.3,0.3,0.5,0.4
				c0.6-0.9,1.1-2,1.5-3.2c0.4-1.3,0.5-2.6,0.3-4l-0.2-0.5c-0.1-0.3-0.2-0.6-0.2-0.9c-0.3-0.6-0.8-1-1.5-1.3c-0.7-0.3-1.4-0.4-2-0.5
				l-1,0C963,608.8,961.2,608.6,959.8,608.3 M968,592.5c-0.7,0.1-1.1,0.5-1.3,1.2c1.9,1.3,4,2,6.3,2.2c2.3,0.2,4.6-0.2,6.7-1.2
				c2.2-1.1,3.9-2.9,5.3-5.5c1.7-3.6,2.5-7.4,2.5-11.4c0-4-0.3-8.1-0.8-12.1c-0.5-4.1-0.6-8-0.3-11.8c0.1-1,0.2-1.9,0.4-2.9
				c0.2-0.9,0.4-1.9,0.6-2.8c0.1-0.3,0.2-0.8,0.4-1.5c0.2-0.7,0.2-1.2,0.1-1.4l-0.8-0.9l-0.4,0.1c-0.1,0.4-0.3,0.8-0.7,1.3
				c-0.2,0.4-0.4,0.8-0.6,1.3l-0.4,1c-0.7,2.4-1,4.8-1,7.2c0.1,2.4,0,4.9-0.3,7.4c-0.5,4.5-0.6,8.9-0.5,13c0.1,4.2-0.6,7.7-2.2,10.6
				c-1.7,2.9-5.4,4.8-11.2,5.7C969.3,592.2,968.7,592.3,968,592.5 M960.8,585.4c-0.9-0.5-1.7-0.9-2.5-1.2c-0.8-0.2-1.4,0-1.8,0.7
				c-0.3,1,0.2,2,1.4,3.1c1.3,1.1,2.7,1.8,4.2,2.3c1.6,0.4,2.6,0.2,3.2-0.6c0.1-0.2,0.1-0.5-0.1-0.8c-0.2-0.3-0.4-0.7-0.5-1
				c-0.4-0.3-0.8-0.5-1.2-0.8l-0.8-0.5C962.3,586.4,961.6,585.9,960.8,585.4 M936.2,529.9c-0.6-0.3-1.1-0.4-1.7-0.2
				c0.1,1.5,1,2.6,2.8,3.5c1.8,0.9,3.7,1.6,5.7,2l3.9,0.7c0.4,0.1,0.9,0.1,1.4,0.2c0.5,0,0.9-0.1,1.3-0.4c0.3-0.3,0.4-0.6,0.3-1
				c-0.1-0.3-0.3-0.6-0.7-0.7c-0.4-0.1-0.9-0.2-1.4-0.4l-0.6-0.2l-0.3,0c-1.6-0.4-3.2-0.8-4.8-1.2c-1.6-0.5-3.1-1-4.6-1.7
				C937.1,530.5,936.7,530.2,936.2,529.9 M963.9,518.2c-2.2-1-4.9-1.9-7.9-2.6c-3-0.7-6-1.2-9.1-1.5c-3.1-0.3-5.9-0.5-8.4-0.5
				l-1.7,0c-0.8,0-1.5,0.1-2,0.5c-1.1,0.1-2.3,0.2-3.6,0.3c-1.3,0.2-2.2,0.7-2.9,1.5c0.1,0.6,0.5,0.9,1.2,1c0.8,0.1,1.6,0.2,2.5,0.1
				c0.9-0.1,1.5-0.1,2-0.1c3.8,0,7,0.2,9.8,0.7c2.7,0.4,5.4,1,8,1.8l-1.8,0.1c-0.8,0.1-1.5,0.2-2.2,0.3c-0.8,0.2-1.7,0.5-2.7,0.8
				s-1.5,0.8-1.7,1.5c-0.1,0.6,0,1,0.1,1.3s0.3,0.6,0.6,0.7c0.3,0.8,1,1.4,2.2,1.7c1.1,0.4,2.3,0.5,3.5,0.3c0.3,0.3,0.8,0.6,1.2,0.7
				c0.5,0.1,1.1,0.2,1.8,0c2-0.4,3.3-1.3,3.8-2.6c0.5-1.3,0.2-2.5-1-3.6c0.9,0.3,1.9,0.6,2.8,1c1,0.3,2,0.7,3.2,1
				c1.7,0.5,3.1,0.6,4,0.2c0.9-0.5,1.3-1.1,1.2-2C966.5,519.8,965.5,519,963.9,518.2 M928.5,473.5c-2.2,0.6-4.1,1.3-5.8,2l-1.2,0.5
				c-0.6,0.2-1,0.6-1.4,1.1c0.4,0.8,1.3,1.1,3,1c1.6-0.1,3.2-0.3,4.7-0.7l2.5-0.7c6.9-1.7,13.8-2.4,20.8-2.1
				c7,0.3,13.9,1.3,20.7,3.2c2.4,0.6,4.1,0.5,5,0c1-0.6,1.2-1.4,0.6-2.5c-0.6-1-1.9-2-4.1-2.8c-4.2-1.4-8.6-2.3-13.2-2.7
				c-4.5-0.4-9.1-0.4-13.6,0.2l-0.4,0h-0.6c-0.5,0-1,0-1.5,0c-0.5,0.2-1.1,0.3-1.8,0.4l-1.2,0.1c-1.8,0.3-3.8,0.7-6,1.2
				C932.8,472.3,930.6,472.9,928.5,473.5z"/>
		</g>
	</g>
</g>
</svg>
