<?xml version="1.0" encoding="utf-8"?>
<!-- Generator: Adobe Illustrator 24.3.0, SVG Export Plug-In . SVG Version: 6.00 Build 0)  -->
<svg version="1.1" xmlns="http://www.w3.org/2000/svg" xmlns:xlink="http://www.w3.org/1999/xlink" x="0px" y="0px"
	 viewBox="0 0 500 500" style="enable-background:new 0 0 500 500;" xml:space="preserve">
<style type="text/css">
	.st0{fill:#8AC8C4;}
	.st1{clip-path:url(#SVGID_2_);}
	.st2{fill:#C8E6FF;}
	.st3{opacity:0.25;clip-path:url(#SVGID_4_);fill:#FFFFFF;enable-background:new    ;}
	.st4{opacity:0.25;clip-path:url(#SVGID_8_);fill:#FFFFFF;enable-background:new    ;}
	.st5{opacity:0.25;clip-path:url(#SVGID_10_);fill:#FFFFFF;enable-background:new    ;}
	.st6{opacity:0.25;clip-path:url(#SVGID_12_);fill:#FFFFFF;enable-background:new    ;}
	.st7{opacity:0.25;clip-path:url(#SVGID_14_);fill:#FFFFFF;enable-background:new    ;}
	.st8{opacity:0.25;clip-path:url(#SVGID_16_);fill:#FFFFFF;enable-background:new    ;}
	.st9{opacity:0.25;clip-path:url(#SVGID_18_);fill:#FFFFFF;enable-background:new    ;}
	.st10{opacity:0.25;clip-path:url(#SVGID_20_);fill:#FFFFFF;enable-background:new    ;}
	.st11{opacity:0.25;clip-path:url(#SVGID_22_);fill:#FFFFFF;enable-background:new    ;}
	.st12{opacity:0.25;clip-path:url(#SVGID_24_);fill:#FFFFFF;enable-background:new    ;}
	.st13{opacity:0.25;clip-path:url(#SVGID_26_);fill:#FFFFFF;enable-background:new    ;}
	.st14{opacity:0.25;clip-path:url(#SVGID_28_);fill:#FFFFFF;enable-background:new    ;}
	.st15{clip-path:url(#SVGID_32_);fill:#FFFFFF;}
	.st16{opacity:0.25;clip-path:url(#SVGID_34_);fill:#FFFFFF;enable-background:new    ;}
	.st17{opacity:0.25;clip-path:url(#SVGID_36_);fill:#FFFFFF;enable-background:new    ;}
	.st18{opacity:0.25;clip-path:url(#SVGID_38_);fill:#FFFFFF;enable-background:new    ;}
	.st19{opacity:0.25;clip-path:url(#SVGID_40_);fill:#FFFFFF;enable-background:new    ;}
	.st20{opacity:0.25;clip-path:url(#SVGID_42_);fill:#FFFFFF;enable-background:new    ;}
	.st21{clip-path:url(#SVGID_44_);fill:#FFFFFF;}
	.st22{opacity:0.25;clip-path:url(#SVGID_46_);fill:#FFFFFF;enable-background:new    ;}
	.st23{opacity:0.25;clip-path:url(#SVGID_48_);fill:#FFFFFF;enable-background:new    ;}
	.st24{opacity:0.25;clip-path:url(#SVGID_50_);fill:#FFFFFF;enable-background:new    ;}
	.st25{opacity:0.25;clip-path:url(#SVGID_52_);fill:#FFFFFF;enable-background:new    ;}
	.st26{fill:#FCA9AA;}
	.st27{opacity:0.16;clip-path:url(#SVGID_56_);fill:#D68085;enable-background:new    ;}
	.st28{opacity:0.16;clip-path:url(#SVGID_58_);fill:#D68085;enable-background:new    ;}
	.st29{opacity:0.23;clip-path:url(#SVGID_60_);fill:#D68085;enable-background:new    ;}
	.st30{fill:#EA98A1;}
	.st31{fill:#1F4BA0;}
	.st32{opacity:0.27;clip-path:url(#SVGID_62_);fill:#C8E6FF;enable-background:new    ;}
	.st33{opacity:0.27;clip-path:url(#SVGID_64_);fill:#C8E6FF;enable-background:new    ;}
	.st34{opacity:0.27;clip-path:url(#SVGID_66_);fill:#C8E6FF;enable-background:new    ;}
	.st35{fill:none;stroke:#FFFFFF;stroke-width:0.4862;stroke-miterlimit:10;}
	.st36{fill:#FCC3CB;}
	.st37{opacity:0.2;fill:#1F4BA0;enable-background:new    ;}
	.st38{fill:#FFFFFF;}
	.st39{clip-path:url(#SVGID_68_);fill:#FCC3CB;}
	.st40{fill:none;}
	.st41{fill:#3EA1DE;}
	.st42{opacity:0.5;clip-path:url(#SVGID_70_);fill:#3EA1DE;enable-background:new    ;}
	.st43{clip-path:url(#SVGID_72_);fill:#FFFFFF;}
	.st44{clip-path:url(#SVGID_74_);}
	.st45{fill:#D7CEB0;}
	.st46{opacity:0.47;clip-path:url(#SVGID_76_);fill:#D7CEB0;enable-background:new    ;}
	.st47{clip-path:url(#SVGID_78_);fill:#D7CEB0;}
	.st48{clip-path:url(#SVGID_80_);fill:#D7CEB0;}
	.st49{clip-path:url(#SVGID_82_);}
	.st50{fill:#FFC6BA;}
	.st51{fill:none;stroke:#453E6B;stroke-linecap:round;stroke-linejoin:round;}
	.st52{fill:none;stroke:#453E6B;stroke-miterlimit:10;}
	.st53{fill:#453E6B;}
	.st54{clip-path:url(#SVGID_88_);fill:#DD7362;}
	.st55{clip-path:url(#SVGID_90_);}
	.st56{opacity:0.47;fill:#8B7560;enable-background:new    ;}
	.st57{clip-path:url(#SVGID_92_);fill:#FFC6BA;}
	.st58{clip-path:url(#SVGID_94_);fill:#D7CEB0;}
	.st59{fill:#DD7362;}
	.st60{clip-path:url(#SVGID_96_);fill:#DD7362;}
	.st61{clip-path:url(#SVGID_98_);fill:#DD7362;}
	.st62{clip-path:url(#SVGID_100_);fill:#DD7362;}
	.st63{clip-path:url(#SVGID_102_);fill:#DD7362;}
	.st64{clip-path:url(#SVGID_104_);fill:#DD7362;}
	.st65{clip-path:url(#SVGID_106_);fill:#DD7362;}
	.st66{clip-path:url(#SVGID_108_);fill:#DD7362;}
	.st67{clip-path:url(#SVGID_110_);fill:#DD7362;}
	.st68{clip-path:url(#SVGID_112_);fill:#DD7362;}
	.st69{clip-path:url(#SVGID_114_);fill:#DD7362;}
	.st70{clip-path:url(#SVGID_116_);fill:#DD7362;}
	.st71{clip-path:url(#SVGID_118_);fill:#DD7362;}
	.st72{clip-path:url(#SVGID_120_);fill:#DD7362;}
	.st73{clip-path:url(#SVGID_122_);fill:#DD7362;}
	.st74{clip-path:url(#SVGID_124_);fill:#DD7362;}
	.st75{clip-path:url(#SVGID_126_);fill:#DD7362;}
	.st76{clip-path:url(#SVGID_128_);fill:#DD7362;}
	.st77{clip-path:url(#SVGID_130_);fill:#DD7362;}
	.st78{clip-path:url(#SVGID_132_);fill:#DD7362;}
	.st79{clip-path:url(#SVGID_134_);fill:#DD7362;}
	.st80{clip-path:url(#SVGID_136_);fill:#DD7362;}
	.st81{clip-path:url(#SVGID_138_);fill:#DD7362;}
	.st82{clip-path:url(#SVGID_140_);fill:#DD7362;}
	.st83{clip-path:url(#SVGID_142_);fill:#DD7362;}
	.st84{clip-path:url(#SVGID_144_);fill:#DD7362;}
	.st85{clip-path:url(#SVGID_146_);fill:#DD7362;}
	.st86{clip-path:url(#SVGID_148_);fill:#DD7362;}
	.st87{clip-path:url(#SVGID_150_);fill:#DD7362;}
	.st88{clip-path:url(#SVGID_152_);fill:#DD7362;}
	.st89{clip-path:url(#SVGID_154_);fill:#DD7362;}
	.st90{clip-path:url(#SVGID_156_);fill:#DD7362;}
	.st91{clip-path:url(#SVGID_158_);fill:#DD7362;}
	.st92{clip-path:url(#SVGID_160_);fill:#DD7362;}
	.st93{clip-path:url(#SVGID_162_);fill:#DD7362;}
	.st94{clip-path:url(#SVGID_164_);fill:#DD7362;}
	.st95{clip-path:url(#SVGID_166_);fill:#DD7362;}
	.st96{clip-path:url(#SVGID_168_);fill:#DD7362;}
	.st97{clip-path:url(#SVGID_170_);fill:#DD7362;}
	.st98{clip-path:url(#SVGID_172_);fill:#DD7362;}
	.st99{clip-path:url(#SVGID_174_);fill:#DD7362;}
	.st100{clip-path:url(#SVGID_176_);fill:#DD7362;}
	.st101{clip-path:url(#SVGID_178_);fill:#DD7362;}
	.st102{clip-path:url(#SVGID_180_);fill:#DD7362;}
	.st103{clip-path:url(#SVGID_182_);fill:#DD7362;}
	.st104{clip-path:url(#SVGID_184_);fill:#DD7362;}
	.st105{clip-path:url(#SVGID_186_);fill:#DD7362;}
	.st106{clip-path:url(#SVGID_188_);fill:#DD7362;}
	.st107{clip-path:url(#SVGID_190_);fill:#DD7362;}
	.st108{clip-path:url(#SVGID_192_);fill:#DD7362;}
	.st109{clip-path:url(#SVGID_194_);fill:#DD7362;}
	.st110{clip-path:url(#SVGID_196_);fill:#DD7362;}
	.st111{clip-path:url(#SVGID_198_);fill:#DD7362;}
	.st112{clip-path:url(#SVGID_200_);fill:#DD7362;}
	.st113{clip-path:url(#SVGID_202_);fill:#DD7362;}
	.st114{clip-path:url(#SVGID_204_);fill:#DD7362;}
	.st115{clip-path:url(#SVGID_206_);fill:#DD7362;}
	.st116{clip-path:url(#SVGID_208_);fill:#DD7362;}
	.st117{clip-path:url(#SVGID_210_);fill:#DD7362;}
	.st118{clip-path:url(#SVGID_212_);fill:#DD7362;}
	.st119{clip-path:url(#SVGID_214_);fill:#DD7362;}
	.st120{clip-path:url(#SVGID_216_);fill:#DD7362;}
	.st121{clip-path:url(#SVGID_218_);fill:#DD7362;}
	.st122{clip-path:url(#SVGID_220_);fill:#DD7362;}
	.st123{clip-path:url(#SVGID_222_);fill:#DD7362;}
	.st124{clip-path:url(#SVGID_224_);fill:#DD7362;}
	.st125{clip-path:url(#SVGID_226_);fill:#DD7362;}
	.st126{clip-path:url(#SVGID_228_);fill:#DD7362;}
	.st127{clip-path:url(#SVGID_230_);fill:#DD7362;}
	.st128{clip-path:url(#SVGID_232_);fill:#DD7362;}
	.st129{clip-path:url(#SVGID_234_);fill:#DD7362;}
	.st130{clip-path:url(#SVGID_236_);fill:#DD7362;}
	.st131{clip-path:url(#SVGID_238_);fill:#DD7362;}
	.st132{clip-path:url(#SVGID_240_);fill:#DD7362;}
	.st133{clip-path:url(#SVGID_242_);fill:#DD7362;}
	.st134{clip-path:url(#SVGID_244_);fill:#DD7362;}
	.st135{clip-path:url(#SVGID_246_);fill:#DD7362;}
	.st136{clip-path:url(#SVGID_248_);fill:#DD7362;}
	.st137{clip-path:url(#SVGID_250_);fill:#DD7362;}
	.st138{clip-path:url(#SVGID_252_);fill:#DD7362;}
	.st139{clip-path:url(#SVGID_254_);fill:#DD7362;}
	.st140{clip-path:url(#SVGID_256_);fill:#DD7362;}
	.st141{clip-path:url(#SVGID_258_);fill:#DD7362;}
	.st142{clip-path:url(#SVGID_260_);fill:#DD7362;}
	.st143{clip-path:url(#SVGID_262_);fill:#DD7362;}
	.st144{clip-path:url(#SVGID_264_);fill:#DD7362;}
	.st145{clip-path:url(#SVGID_266_);fill:#DD7362;}
	.st146{clip-path:url(#SVGID_268_);fill:#DD7362;}
	.st147{clip-path:url(#SVGID_270_);fill:#DD7362;}
	.st148{clip-path:url(#SVGID_272_);fill:#DD7362;}
	.st149{clip-path:url(#SVGID_274_);fill:#DD7362;}
	.st150{clip-path:url(#SVGID_276_);fill:#DD7362;}
	.st151{clip-path:url(#SVGID_278_);fill:#DD7362;}
	.st152{clip-path:url(#SVGID_280_);fill:#DD7362;}
	.st153{clip-path:url(#SVGID_282_);fill:#DD7362;}
	.st154{clip-path:url(#SVGID_284_);fill:#DD7362;}
	.st155{clip-path:url(#SVGID_286_);fill:#DD7362;}
	.st156{clip-path:url(#SVGID_288_);fill:#DD7362;}
	.st157{clip-path:url(#SVGID_290_);fill:#DD7362;}
	.st158{clip-path:url(#SVGID_292_);fill:#DD7362;}
	.st159{clip-path:url(#SVGID_294_);fill:#DD7362;}
</style>
<g id="OBJECTS">
	<g id="Layer_34">
		<g id="Layer_4">
			<path class="st0" d="M499.9,500H122.2C55,500,0,445,0,377.8V0h499.9V500z"/>
		</g>
	</g>
</g>
<g id="Layer_33">
	<g id="Layer_3">
		<g>
			<g>
				<defs>
					<rect id="SVGID_1_" width="500" height="500"/>
				</defs>
				<clipPath id="SVGID_2_">
					<use xlink:href="#SVGID_1_"  style="overflow:visible;"/>
				</clipPath>
				<g class="st1">
					<g>
						<g>
							<ellipse id="XMLID_6_" class="st2" cx="250.6" cy="262.2" rx="200.1" ry="200.1"/>
						</g>
						<g>
							<defs>
								<circle id="SVGID_3_" cx="250.6" cy="262.2" r="200.1"/>
							</defs>
							<clipPath id="SVGID_4_">
								<use xlink:href="#SVGID_3_"  style="overflow:visible;"/>
							</clipPath>
							<path class="st3" d="M262,147.6c0.9,1.7,0.1,3.8-1.6,4.7s-3.8,0.1-4.7-1.6c-0.9-1.7-0.1-3.8,1.6-4.7
								C259.1,145.2,261.2,145.9,262,147.6z"/>
						</g>
						<g>
							<defs>
								<circle id="SVGID_6_" cx="250.6" cy="262.2" r="200.1"/>
							</defs>
							<clipPath id="SVGID_8_">
								<use xlink:href="#SVGID_6_"  style="overflow:visible;"/>
							</clipPath>
							<path class="st4" d="M179.5,163.7c2,4,0.3,8.9-3.7,10.9s-8.9,0.3-10.9-3.7s-0.3-8.9,3.7-10.9S177.5,159.6,179.5,163.7z"/>
						</g>
						<g>
							<defs>
								<circle id="SVGID_9_" cx="250.6" cy="262.2" r="200.1"/>
							</defs>
							<clipPath id="SVGID_10_">
								<use xlink:href="#SVGID_9_"  style="overflow:visible;"/>
							</clipPath>
							<path class="st5" d="M456,282.6c2,4,0.3,8.9-3.7,10.9s-8.9,0.3-10.9-3.7s-0.3-8.9,3.7-10.9S454,278.6,456,282.6z"/>
						</g>
						<g>
							<defs>
								<circle id="SVGID_11_" cx="250.6" cy="262.2" r="200.1"/>
							</defs>
							<clipPath id="SVGID_12_">
								<use xlink:href="#SVGID_11_"  style="overflow:visible;"/>
							</clipPath>
							<path class="st6" d="M168.3,102.9c1.7,3.5,0.3,7.6-3.2,9.3c-3.5,1.7-7.6,0.3-9.3-3.2s-0.3-7.6,3.2-9.3
								C162.4,98,166.6,99.4,168.3,102.9z"/>
						</g>
						<g>
							<defs>
								<circle id="SVGID_13_" cx="250.6" cy="262.2" r="200.1"/>
							</defs>
							<clipPath id="SVGID_14_">
								<use xlink:href="#SVGID_13_"  style="overflow:visible;"/>
							</clipPath>
							<path class="st7" d="M395.8,381.2c1.1,2.3,0.2,5.1-2.1,6.2c-2.3,1.1-5.1,0.2-6.2-2.1c-1.1-2.3-0.2-5.1,2.1-6.2
								C391.8,377.9,394.6,378.9,395.8,381.2z"/>
						</g>
						<g>
							<defs>
								<circle id="SVGID_15_" cx="302.8" cy="331.6" r="200.1"/>
							</defs>
							<clipPath id="SVGID_16_">
								<use xlink:href="#SVGID_15_"  style="overflow:visible;"/>
							</clipPath>
							
								<ellipse transform="matrix(0.9466 -0.3225 0.3225 0.9466 -18.9149 164.2393)" class="st8" cx="486.2" cy="139.2" rx="9.3" ry="9.3"/>
						</g>
						<g>
							<defs>
								<circle id="SVGID_17_" cx="250.6" cy="262.2" r="200.1"/>
							</defs>
							<clipPath id="SVGID_18_">
								<use xlink:href="#SVGID_17_"  style="overflow:visible;"/>
							</clipPath>
							<path class="st9" d="M247.4,83c1.1,2.3,0.2,5.1-2.1,6.2s-5.1,0.2-6.2-2.1c-1.1-2.3-0.2-5.1,2.1-6.2
								C243.5,79.7,246.3,80.7,247.4,83z"/>
						</g>
						<g>
							<defs>
								<circle id="SVGID_19_" cx="250.6" cy="262.2" r="200.1"/>
							</defs>
							<clipPath id="SVGID_20_">
								<use xlink:href="#SVGID_19_"  style="overflow:visible;"/>
							</clipPath>
							<path class="st10" d="M287,423.2c1.1,2.3,0.2,5.1-2.1,6.2c-2.3,1.1-5.1,0.2-6.2-2.1c-1.1-2.3-0.2-5.1,2.1-6.2
								C283.1,419.9,285.9,420.9,287,423.2z"/>
						</g>
						<g>
							<defs>
								<circle id="SVGID_21_" cx="250.6" cy="262.2" r="200.1"/>
							</defs>
							<clipPath id="SVGID_22_">
								<use xlink:href="#SVGID_21_"  style="overflow:visible;"/>
							</clipPath>
							<path class="st11" d="M269.3,327.5c0.9,1.7,0.1,3.8-1.6,4.7c-1.7,0.9-3.8,0.1-4.7-1.6c-0.9-1.7-0.1-3.8,1.6-4.7
								C266.3,325.1,268.4,325.8,269.3,327.5z"/>
						</g>
						<g>
							<defs>
								<circle id="SVGID_23_" cx="250.6" cy="262.2" r="200.1"/>
							</defs>
							<clipPath id="SVGID_24_">
								<use xlink:href="#SVGID_23_"  style="overflow:visible;"/>
							</clipPath>
							<path class="st12" d="M450.5,219.1c1.1,2.3,0.2,5.1-2.1,6.2c-2.3,1.1-5.1,0.2-6.2-2.1s-0.2-5.1,2.1-6.2
								C446.6,215.9,449.4,216.8,450.5,219.1z"/>
						</g>
						<g>
							<defs>
								<circle id="SVGID_25_" cx="250.6" cy="262.2" r="200.1"/>
							</defs>
							<clipPath id="SVGID_26_">
								<use xlink:href="#SVGID_25_"  style="overflow:visible;"/>
							</clipPath>
							<path class="st13" d="M419.9,330.3c1.7,3.5,0.3,7.6-3.2,9.3c-3.5,1.7-7.6,0.3-9.3-3.2c-1.7-3.5-0.3-7.6,3.2-9.3
								C414,325.4,418.2,326.8,419.9,330.3z"/>
						</g>
						<g>
							<defs>
								<circle id="SVGID_27_" cx="250.6" cy="262.2" r="200.1"/>
							</defs>
							<clipPath id="SVGID_28_">
								<use xlink:href="#SVGID_27_"  style="overflow:visible;"/>
							</clipPath>
							<path class="st14" d="M499.9,340c1.1,2.3,0.2,5.1-2.1,6.2c-2.3,1.1-5.1,0.2-6.2-2.1c-1.1-2.3-0.2-5.1,2.1-6.2
								C496,336.7,498.8,337.7,499.9,340z"/>
						</g>
						<g>
							<defs>
								<circle id="SVGID_29_" cx="250.6" cy="262.2" r="200.1"/>
							</defs>
							<clipPath id="SVGID_30_">
								<use xlink:href="#SVGID_29_"  style="overflow:visible;"/>
							</clipPath>
						</g>
						<g>
							<defs>
								<circle id="SVGID_31_" cx="250.6" cy="262.2" r="200.1"/>
							</defs>
							<clipPath id="SVGID_32_">
								<use xlink:href="#SVGID_31_"  style="overflow:visible;"/>
							</clipPath>
							<path class="st15" d="M95.5,407.5c3.3,0.6,5.4,3.8,4.8,7.1s-3.8,5.4-7.1,4.8c-3.3-0.6-5.4-3.8-4.8-7.1
								C89.1,409,92.3,406.9,95.5,407.5z"/>
						</g>
						<g>
							<defs>
								<circle id="SVGID_33_" cx="250.6" cy="262.2" r="200.1"/>
							</defs>
							<clipPath id="SVGID_34_">
								<use xlink:href="#SVGID_33_"  style="overflow:visible;"/>
							</clipPath>
							<path class="st16" d="M160.6,254.9c3.3,0.6,5.4,3.8,4.8,7.1c-0.6,3.3-3.8,5.4-7.1,4.8s-5.4-3.8-4.8-7.1
								C154.1,256.4,157.3,254.3,160.6,254.9z"/>
						</g>
						<g>
							<defs>
								<circle id="SVGID_35_" cx="250.6" cy="262.2" r="200.1"/>
							</defs>
							<clipPath id="SVGID_36_">
								<use xlink:href="#SVGID_35_"  style="overflow:visible;"/>
							</clipPath>
							<path class="st17" d="M27,348.9c2.8,0.5,4.7,3.3,4.1,6.1c-0.5,2.8-3.3,4.7-6.1,4.1c-2.8-0.5-4.7-3.3-4.1-6.1
								C21.4,350.2,24.2,348.4,27,348.9z"/>
						</g>
						<g>
							<defs>
								<circle id="SVGID_37_" cx="250.6" cy="262.2" r="200.1"/>
							</defs>
							<clipPath id="SVGID_38_">
								<use xlink:href="#SVGID_37_"  style="overflow:visible;"/>
							</clipPath>
							<path class="st18" d="M191.8,334.9c1.9,0.4,3.1,2.2,2.7,4.1c-0.4,1.9-2.2,3.1-4.1,2.7c-1.9-0.4-3.1-2.2-2.7-4.1
								C188.1,335.8,189.9,334.6,191.8,334.9z"/>
						</g>
						<g>
							<defs>
								<circle id="SVGID_39_" cx="191.8" cy="18.9" r="200.1"/>
							</defs>
							<clipPath id="SVGID_40_">
								<use xlink:href="#SVGID_39_"  style="overflow:visible;"/>
							</clipPath>
							
								<ellipse transform="matrix(8.041662e-02 -0.9968 0.9968 8.041662e-02 -89.7188 247.5229)" class="st19" cx="89.3" cy="172.4" rx="6.9" ry="6.9"/>
						</g>
						<g>
							<defs>
								<circle id="SVGID_41_" cx="250.6" cy="262.2" r="200.1"/>
							</defs>
							<clipPath id="SVGID_42_">
								<use xlink:href="#SVGID_41_"  style="overflow:visible;"/>
							</clipPath>
							<path class="st20" d="M47.6,333.5c1.9,0.4,3.1,2.2,2.7,4.1c-0.4,1.9-2.2,3.1-4.1,2.7c-1.9-0.4-3.1-2.2-2.7-4.1
								C43.9,334.4,45.7,333.1,47.6,333.5z"/>
						</g>
						<g>
							<defs>
								<circle id="SVGID_43_" cx="250.6" cy="262.2" r="200.1"/>
							</defs>
							<clipPath id="SVGID_44_">
								<use xlink:href="#SVGID_43_"  style="overflow:visible;"/>
							</clipPath>
							<path class="st21" d="M167.6,418.2c1.9,0.4,3.1,2.2,2.7,4.1c-0.4,1.9-2.2,3.1-4.1,2.7c-1.9-0.4-3.1-2.2-2.7-4.1
								C164,419.1,165.8,417.9,167.6,418.2z"/>
						</g>
						<g>
							<defs>
								<circle id="SVGID_45_" cx="250.6" cy="262.2" r="200.1"/>
							</defs>
							<clipPath id="SVGID_46_">
								<use xlink:href="#SVGID_45_"  style="overflow:visible;"/>
							</clipPath>
							<path class="st22" d="M103.1,385.6c1.4,0.3,2.3,1.6,2.1,3c-0.3,1.4-1.6,2.3-3,2.1c-1.4-0.3-2.3-1.6-2.1-3
								C100.3,386.3,101.6,385.4,103.1,385.6z"/>
						</g>
						<g>
							<defs>
								<circle id="SVGID_47_" cx="250.6" cy="262.2" r="200.1"/>
							</defs>
							<clipPath id="SVGID_48_">
								<use xlink:href="#SVGID_47_"  style="overflow:visible;"/>
							</clipPath>
							<path class="st23" d="M120.5,229.5c1.9,0.4,3.1,2.2,2.7,4.1c-0.4,1.9-2.2,3.1-4.1,2.7c-1.9-0.4-3.1-2.2-2.7-4.1
								C116.8,230.4,118.7,229.2,120.5,229.5z"/>
						</g>
						<g>
							<defs>
								<circle id="SVGID_49_" cx="250.6" cy="262.2" r="200.1"/>
							</defs>
							<clipPath id="SVGID_50_">
								<use xlink:href="#SVGID_49_"  style="overflow:visible;"/>
							</clipPath>
							<path class="st24" d="M172.5,297.7c2.8,0.5,4.7,3.3,4.1,6.1c-0.5,2.8-3.3,4.7-6.1,4.1c-2.8-0.5-4.7-3.3-4.1-6.1
								C167,299,169.7,297.2,172.5,297.7z"/>
						</g>
						<g>
							<defs>
								<circle id="SVGID_51_" cx="250.6" cy="262.2" r="200.1"/>
							</defs>
							<clipPath id="SVGID_52_">
								<use xlink:href="#SVGID_51_"  style="overflow:visible;"/>
							</clipPath>
							<path class="st25" d="M214.3,254.7c1.9,0.4,3.1,2.2,2.7,4.1c-0.4,1.9-2.2,3.1-4.1,2.7c-1.9-0.4-3.1-2.2-2.7-4.1
								C210.6,255.6,212.5,254.4,214.3,254.7z"/>
						</g>
					</g>
				</g>
			</g>
			<g>
				<defs>
					<rect id="SVGID_53_" width="500" height="500"/>
				</defs>
				<clipPath id="SVGID_54_">
					<use xlink:href="#SVGID_53_"  style="overflow:visible;"/>
				</clipPath>
			</g>
		</g>
	</g>
</g>
<g id="Layer_32">
	<g>
		<g>
			<path id="XMLID_1_" class="st26" d="M91.4,547.1c0,0,76-110.7,68-125.9c-7.9-15.2-44.7-72.4-23.3-111.4
				c24.8-45.2,16.5-89,21.4-95.3c3.9-5.1,24.2,6,26.3,32.6c2.9,38.4-19.4,67.1-9.7,72c9.8,4.9,81.4-42.3,109.9-11.2
				s8.5,113.9-13.9,127.9c-41.5,25.8-43.5,126.9-43.5,126.9S120.6,578.9,91.4,547.1z"/>
		</g>
		<g>
			<defs>
				<path id="SVGID_55_" d="M91.4,547.1c0,0,76-110.7,68-125.9c-7.9-15.2-44.7-72.4-23.3-111.4c24.8-45.2,16.5-89,21.4-95.3
					c3.9-5.1,24.2,6,26.3,32.6c2.9,38.4-19.4,67.1-9.7,72c9.8,4.9,81.4-42.3,109.9-11.2s8.5,113.9-13.9,127.9
					c-41.5,25.8-43.5,126.9-43.5,126.9S120.6,578.9,91.4,547.1z"/>
			</defs>
			<clipPath id="SVGID_56_">
				<use xlink:href="#SVGID_55_"  style="overflow:visible;"/>
			</clipPath>
			<path class="st27" d="M174.1,218.4c0,0-5.3,32.6-2.9,59.3s-20,131.3,4.8,139.1S280.1,409,283,444s61.3-43.3,61.3-43.3l-5.8-31.6
				C338.4,369.2,189.1,205.8,174.1,218.4z"/>
		</g>
		<g>
			<defs>
				<path id="SVGID_57_" d="M91.4,547.1c0,0,76-110.7,68-125.9c-7.9-15.2-44.7-72.4-23.3-111.4c24.8-45.2,16.5-89,21.4-95.3
					c3.9-5.1,24.2,6,26.3,32.6c2.9,38.4-19.4,67.1-9.7,72c9.8,4.9,81.4-42.3,109.9-11.2s8.5,113.9-13.9,127.9
					c-41.5,25.8-43.5,126.9-43.5,126.9S120.6,578.9,91.4,547.1z"/>
			</defs>
			<clipPath id="SVGID_58_">
				<use xlink:href="#SVGID_57_"  style="overflow:visible;"/>
			</clipPath>
			<path class="st28" d="M158.1,430c0.4,2.4-75.4,149.7,76.3,111.8s18.5,56.4,18.5,56.4l-147.3-31.1l-52.6-38
				C53,529.1,140.1,414,158.1,430"/>
		</g>
	</g>
</g>
<g id="Layer_31">
	<g>
		<g>
			<path id="XMLID_2_" class="st26" d="M284.3,221.1c0,0,40.3-57.6,60.3-53c23.2,5.3,3.3,36.4-49,76.8
				C243.2,285.4,284.3,221.1,284.3,221.1z"/>
		</g>
		<g>
			<defs>
				<path id="SVGID_59_" d="M284.3,221.1c0,0,40.3-57.6,60.3-53c23.2,5.3,3.3,36.4-49,76.8C243.2,285.4,284.3,221.1,284.3,221.1z"/>
			</defs>
			<clipPath id="SVGID_60_">
				<use xlink:href="#SVGID_59_"  style="overflow:visible;"/>
			</clipPath>
			<path class="st29" d="M317.5,173.2c0,0,2.9,63.2,36.5,19.4s-10.7,32.1-10.7,32.1l-33.9,9.1l-3-21.3L317.5,173.2z"/>
		</g>
	</g>
</g>
<g id="Layer_30">
	<path class="st30" d="M338.4,236.1c0,0-23-6.3-38.2,14.2C284.9,270.8,321,269.5,338.4,236.1z"/>
</g>
<g id="Layer_29">
	<path class="st30" d="M339.5,282.6c0,0-19.9-9.1-36.7,7.3C286,306.4,318.9,310.5,339.5,282.6z"/>
</g>
<g id="Layer_28">
	<path class="st30" d="M336,322c0,0-19.8-9.5-36.6,6.9C282.6,345.3,315.3,349.8,336,322z"/>
</g>
<g id="Layer_27">
	<g>
		<path class="st31" d="M308.2,417.1H186.8c-6.5,0-11.8-5.3-11.8-11.8V170.6c0-6.5,5.3-11.8,11.8-11.8h121.4
			c6.5,0,11.8,5.3,11.8,11.8v234.7C319.9,411.8,314.7,417.1,308.2,417.1z"/>
		<path class="st31" d="M317,239.8L317,239.8v-37.9l0,0c2.1,0,3.9,1.7,3.9,3.9v30.1C320.9,238.1,319.2,239.8,317,239.8z"/>
		<path class="st31" d="M177.9,224.8L177.9,224.8v37.9l0,0c-2.1,0-3.9-1.7-3.9-3.9v-30.1C174.1,226.5,175.8,224.8,177.9,224.8z"/>
		<path class="st31" d="M318.1,284.6H317v-19.9h1.1c1.6,0,2.8,1.3,2.8,2.8v14.3C320.9,283.3,319.6,284.6,318.1,284.6z"/>
	</g>
</g>
<g id="Layer_26">
	<g>
		<g>
			<path id="XMLID_5_" class="st2" d="M304.6,395.4H190.4c-5.9,0-10.8-4.8-10.8-10.8V175.3c0-5.9,4.8-10.8,10.8-10.8h114.1
				c5.9,0,10.8,4.8,10.8,10.8v209.4C315.3,390.6,310.5,395.4,304.6,395.4z"/>
		</g>
		<g>
			<defs>
				<path id="SVGID_61_" d="M304.6,395.4H190.4c-5.9,0-10.8-4.8-10.8-10.8V175.3c0-5.9,4.8-10.8,10.8-10.8h114.1
					c5.9,0,10.8,4.8,10.8,10.8v209.4C315.3,390.6,310.5,395.4,304.6,395.4z"/>
			</defs>
			<clipPath id="SVGID_62_">
				<use xlink:href="#SVGID_61_"  style="overflow:visible;"/>
			</clipPath>
			<polygon class="st32" points="147.8,307.4 282,114.9 333.1,117.8 152.2,359.9 			"/>
		</g>
		<g>
			<defs>
				<path id="SVGID_63_" d="M304.6,395.4H190.4c-5.9,0-10.8-4.8-10.8-10.8V175.3c0-5.9,4.8-10.8,10.8-10.8h114.1
					c5.9,0,10.8,4.8,10.8,10.8v209.4C315.3,390.6,310.5,395.4,304.6,395.4z"/>
			</defs>
			<clipPath id="SVGID_64_">
				<use xlink:href="#SVGID_63_"  style="overflow:visible;"/>
			</clipPath>
			<polygon class="st33" points="164.4,367.8 344.2,141.6 359.8,155.7 164.4,385.9 			"/>
		</g>
		<g>
			<defs>
				<path id="SVGID_65_" d="M304.6,395.4H190.4c-5.9,0-10.8-4.8-10.8-10.8V175.3c0-5.9,4.8-10.8,10.8-10.8h114.1
					c5.9,0,10.8,4.8,10.8,10.8v209.4C315.3,390.6,310.5,395.4,304.6,395.4z"/>
			</defs>
			<clipPath id="SVGID_66_">
				<use xlink:href="#SVGID_65_"  style="overflow:visible;"/>
			</clipPath>
			<path class="st34" d="M197.9,412c2.4-3.4,177.5-191.1,177.5-191.1l19,37.4L319,349.7l-110.1,69.8l-14.2-2.4"/>
		</g>
	</g>
</g>
<g id="Layer_25">
	<path class="st35" d="M252.8,406.4c0,3-2.4,5.3-5.3,5.3c-3,0-5.3-2.4-5.3-5.3c0-3,2.4-5.3,5.3-5.3
		C250.4,401,252.8,403.4,252.8,406.4z"/>
</g>
<g id="Layer_24">
	<g>
		<path class="st26" d="M324,242.3c0,0-15.9,18.5-14.6,37.8c1.3,19.2,29.8-8.6,33.8-23.8C347.2,241,338.6,226.4,324,242.3z"/>
		<path class="st26" d="M325.6,286.2c0,0-17.1,14.5-18.7,32.1s28.3-3.5,34.1-16.7S341.1,273.9,325.6,286.2z"/>
		<path class="st26" d="M326,324c0,0-15.7,9.3-19.4,23.3c-3.7,13.9,23.2,1.1,29.7-8.8C342.8,328.6,340.2,316.2,326,324z"/>
		<path class="st36" d="M325.3,281.9c-4.7,5.5-11.1,7.7-14.2,5c-3.2-2.7-1.9-9.3,2.8-14.8c4.7-5.5,9.2-5.5,12.3-2.8
			S330,276.5,325.3,281.9z"/>
		<path class="st36" d="M322.8,320.6c-4.4,5.1-10.3,7.1-13.2,4.6c-2.9-2.5-1.8-8.7,2.6-13.8c4.4-5.1,8.5-5.1,11.5-2.6
			C326.6,311.4,327.2,315.5,322.8,320.6z"/>
		<path class="st36" d="M318.7,349.7c-3.5,4-8.2,5.7-10.5,3.7s-1.4-6.9,2.1-10.9s6.8-4,9.1-2C321.7,342.4,322.2,345.7,318.7,349.7z"
			/>
	</g>
</g>
<g id="Layer_23">
	<path class="st37" d="M259.9,341H149c-2,0-3.7,1.6-3.7,3.7v17.5c0,2,1.6,3.7,3.7,3.7h78.3l5.1,6.3l6-6.3h21.4c2,0,3.7-1.6,3.7-3.7
		v-17.5C263.5,342.6,261.9,341,259.9,341z"/>
</g>
<g id="Layer_22">
	<path class="st38" d="M259.9,337.6H149c-2,0-3.7,1.6-3.7,3.7v17.5c0,2,1.6,3.7,3.7,3.7h78.3l5.1,6.3l6-6.3h21.4
		c2,0,3.7-1.6,3.7-3.7v-17.5C263.5,339.2,261.9,337.6,259.9,337.6z"/>
</g>
<g id="Layer_61">
	<g>
		<defs>
			<path id="SVGID_67_" d="M133.7,289.5c3.9,3.7,202.3,0,202.3,0V58H133.7V289.5z"/>
		</defs>
		<clipPath id="SVGID_68_">
			<use xlink:href="#SVGID_67_"  style="overflow:visible;"/>
		</clipPath>
		<path class="st39" d="M155.6,239.8c0,0-3.4-14.6,0.5-26.3c0,0,5.8-3.4,5.8,3.9C161.9,224.8,155.6,239.8,155.6,239.8z"/>
	</g>
</g>
<g id="Layer_62">
	<g id="Layer_35">
		<g id="Layer_42">
			<g id="Layer_37">
				<path class="st40" d="M133.7,289.5c3.9,3.7,202.3,0,202.3,0V58H133.7V289.5z"/>
			</g>
		</g>
		<g id="Layer_41">
			<g id="Layer_36">
				<g>
					<g>
						<path id="XMLID_3_" class="st41" d="M215.3,284.6c-3.8,10.3-6.9,17.8-1.5,27.4l69.4,0.3c11-10.8,6.3-22.6-0.4-38.4l-41.4-4.9
							C241.5,269,222.4,267.3,215.3,284.6z"/>
					</g>
					<g>
						<defs>
							<path id="SVGID_69_" d="M221.2,284.1l2.9,29.7h44.7l5.3-39.9l-31.6-4.9C242.6,269,215.9,266.6,221.2,284.1z"/>
						</defs>
						<clipPath id="SVGID_70_">
							<use xlink:href="#SVGID_69_"  style="overflow:visible;"/>
						</clipPath>
						<path class="st42" d="M215.9,271.9c-0.6,1.9,56.9,8.3,66.1-2.4C297.3,251.8,219.8,258.8,215.9,271.9z"/>
					</g>
				</g>
			</g>
		</g>
	</g>
</g>
<g id="Layer_60">
	<g>
		<defs>
			<path id="SVGID_71_" d="M133.7,289.5c3.9,3.7,202.3,0,202.3,0V58H133.7V289.5z"/>
		</defs>
		<clipPath id="SVGID_72_">
			<use xlink:href="#SVGID_71_"  style="overflow:visible;"/>
		</clipPath>
		<path class="st43" d="M249.5,156.6c0,0-18.2,8-19.1,14.8c-1,6.8,0,101.1,0,101.1s32.2,3.9,37.1,0s12.9-108.6,8.5-112
			c-4.4-3.4-9.5-6.7-9.5-6.7L249.5,156.6z"/>
	</g>
</g>
<g id="Layer_59">
	<g>
		<defs>
			<path id="SVGID_73_" d="M133.7,289.5c3.9,3.7,202.3,0,202.3,0V58H133.7V289.5z"/>
		</defs>
		<clipPath id="SVGID_74_">
			<use xlink:href="#SVGID_73_"  style="overflow:visible;"/>
		</clipPath>
		<g class="st44">
			<g>
				<path id="XMLID_4_" class="st45" d="M269.4,154.7c0,0-27.4,37.6-26.4,60.4c1,22.9,4.2,103.8,4.2,103.8l49.6-8.5l-17.8-65.9
					c-0.2-1.7-0.1-5.3,0-7l7-60.7C286.1,176.9,282.3,163.6,269.4,154.7z"/>
			</g>
			<g>
				<defs>
					<path id="SVGID_75_" d="M269.4,154.7c0,0-10.5,20.2-9.5,43c1,22.9,1.9,119.1,1.9,119.1l29.7-5.8L276,258.2
						c-0.4-4.7-0.5-9.4-0.1-14.1l10.2-67.2C286.1,176.9,282.3,163.6,269.4,154.7z"/>
				</defs>
				<use xlink:href="#SVGID_75_"  style="overflow:visible;fill:#D7CEB0;"/>
				<clipPath id="SVGID_76_">
					<use xlink:href="#SVGID_75_"  style="overflow:visible;"/>
				</clipPath>
				<path class="st46" d="M259.6,237.4l31.6-2.9l-7.8-47.2c0,0,10.7,27.7-25.8,31.6c-36.8,3.9,3,15.4,3,15.4"/>
			</g>
		</g>
	</g>
</g>
<g id="Layer_58">
	<g>
		<defs>
			<path id="SVGID_77_" d="M133.3,290.6c3.9,3.7,202.3,0,202.3,0V59.1H133.3V290.6z"/>
		</defs>
		<clipPath id="SVGID_78_">
			<use xlink:href="#SVGID_77_"  style="overflow:visible;"/>
		</clipPath>
		<path class="st47" d="M244.4,157.9c0,0-3.5,19.5,0.7,56.5c3.2,37.8-6.7,102.4-6.7,102.4l-35.6-12.4c0,0,17.7-31.1,20.1-59.9
			c3-36.2,1.3-61,4.1-66.2C232.2,168,244.4,157.9,244.4,157.9z"/>
	</g>
</g>
<g id="Layer_57">
	<g>
		<defs>
			<path id="SVGID_79_" d="M136.9,289.5c3.9,3.7,202.3,0,202.3,0V58H136.9V289.5z"/>
		</defs>
		<clipPath id="SVGID_80_">
			<use xlink:href="#SVGID_79_"  style="overflow:visible;"/>
		</clipPath>
		<path class="st48" d="M246.8,156.6c0,0-12.3,9.2-18.6,14.1c-6.3,4.9-23.6,36.4-26.1,35.9c-2.4-0.5-21.5-21.1-24.9-22.5
			c0,0-4.3,8.3-6.7,8.8c0,0,22.1,27.7,30.9,33.1c8.8,5.3,24.8-20,24.8-20L246.8,156.6z"/>
	</g>
</g>
<g id="Layer_53">
	<g>
		<defs>
			<path id="SVGID_81_" d="M137.9,289.5c3.9,3.7,202.3,0,202.3,0V58H137.9V289.5z"/>
		</defs>
		<clipPath id="SVGID_82_">
			<use xlink:href="#SVGID_81_"  style="overflow:visible;"/>
		</clipPath>
		<g class="st49">
			<path class="st50" d="M172.2,180.7c0,0-3.3-3.5-3.9-6.3c-0.1-0.4-0.6-0.5-0.9-0.1c-0.9,1.5-1.9,4.3,0.8,6.6
				C172.2,184.3,172.2,180.7,172.2,180.7z"/>
			<path class="st50" d="M176.5,187.2c-0.5,0-2.4-6.3-5.8-6.8c-3.4-0.5-10.2,0-11.2,0s-9.2-5.3-13.1-2.4c0,0,10.2,3.4,11.7,5.3
				c1.5,1.9,8.3,6.8,15.1,7.8"/>
			<path class="st50" d="M143.7,173.4"/>
		</g>
	</g>
</g>
<g id="Layer_52">
	<g>
		<defs>
			<path id="SVGID_83_" d="M133.7,289.5c3.9,3.7,202.3,0,202.3,0V58H133.7V289.5z"/>
		</defs>
		<clipPath id="SVGID_84_">
			<use xlink:href="#SVGID_83_"  style="overflow:visible;"/>
		</clipPath>
	</g>
</g>
<g id="Layer_51">
	<g>
		<defs>
			<path id="SVGID_85_" d="M133.7,289.5c3.9,3.7,202.3,0,202.3,0V58H133.7V289.5z"/>
		</defs>
		<clipPath id="SVGID_86_">
			<use xlink:href="#SVGID_85_"  style="overflow:visible;"/>
		</clipPath>
	</g>
</g>
<g id="Layer_68">
	<g transform="matrix( 1, 0, 0, 1, 0,0) ">
		<g>
			<g id="Layer0_0_FILL">
				<path class="st50" d="M266.6,114.9c-1.7-3.8-4.2-7.1-7.7-9.7c-3.5-2.6-7.2-3.9-11.2-3.8c-4,0.1-7.7,2.2-11.1,6.5h-0.9l-0.6,2.8
					c-0.4,1.6-0.8,3.7-1.1,6.4c-0.3,2.6-0.4,5.6-0.2,9c0.2,3.3,0.8,6.9,1.9,10.6c1.1,3.4,2.5,5.7,4,7c1.6,1.3,3.1,1.9,4.6,1.8
					c1.5,0,2.8-0.3,3.8-0.8l1.6-0.8l-0.5,2.1c-0.3,1.3-0.7,3-1.1,4.9c-0.5,1.9-0.9,3.8-1.4,5.6c-0.5,1.8-0.9,3.2-1.3,4.1l3.4,7.3
					l19.4-12.3l-1.4-1.8c-0.8-1.2-1.6-3-2.4-5.5c-0.8-2.4-1-5.5-0.8-9.2c0.2-3.7,1.3-8,3.4-13C268.4,122.5,268.3,118.7,266.6,114.9z
					"/>
			</g>
		</g>
	</g>
	<g transform="matrix( 1, 0, 0, 1, 0,0) ">
		<g>
			<g id="Layer0_6_FILL">
				<path class="st31" d="M240.4,139.4C240.4,139.3,240.4,139.3,240.4,139.4c-0.1,0-0.1,0-0.1,0c0,0.1,0,0.1,0.1,0.2
					c0.1,0.1,0.2,0.1,0.3,0.2l0.1,0.1c0.4,0.2,0.8,0.4,1.3,0.5c0.5,0.1,1,0.1,1.5,0.1c0.5-0.1,0.9-0.2,1.3-0.5l0.2-0.2l0.1-0.2
					c0-0.1-0.1-0.1-0.2-0.2c-0.1,0-0.3,0-0.5,0c-0.3,0.1-0.7,0.2-1,0.3c-0.3,0.1-0.6,0.1-1,0.1c-0.3,0-0.6,0-0.9-0.1
					c-0.3,0-0.5-0.1-0.9-0.3l-0.1,0C240.5,139.4,240.5,139.4,240.4,139.4 M239.3,136.9l0.2,0c0.2,0,0.4,0.1,0.7,0.1
					c0.2,0,0.4,0,0.7,0c0.2,0,0.3,0.1,0.5,0.2c0.2,0.1,0.3,0.2,0.5,0.3c0.2,0,0.5,0,0.6,0c0.2-0.1,0.4-0.2,0.5-0.2
					c0.2-0.1,0.4-0.1,0.6-0.2c0.5,0,1,0,1.4,0c0.5,0,0.9,0,1.4-0.2c0.1,0,0.2-0.1,0.4-0.1c0.2,0,0.3-0.1,0.4-0.2
					c0.1-0.1,0.1-0.2,0-0.3c0,0,0,0-0.1,0c0,0-0.1,0-0.1,0l0,0c-0.1,0-0.2-0.1-0.4-0.1l-0.3,0c-0.2,0-0.4,0-0.6,0
					c-0.2,0-0.3-0.1-0.5-0.1c-0.3-0.1-0.6-0.2-0.8-0.4c-0.3-0.1-0.6-0.2-0.9-0.2h0c0,0,0,0,0,0l0,0c0,0-0.1,0-0.1,0s-0.1,0-0.1,0
					l-0.1,0c-0.2,0.1-0.4,0.2-0.5,0.3c-0.1,0.1-0.3,0.2-0.5,0.4c-0.1-0.1-0.2-0.1-0.3-0.2c-0.1-0.1-0.2-0.1-0.3-0.1
					c-0.1-0.1-0.2-0.1-0.3-0.1c-0.1,0-0.2,0-0.3,0h-0.1c0,0-0.1,0-0.1,0c0,0-0.1,0-0.1,0h-0.1c-0.2,0.1-0.4,0.2-0.6,0.3
					c-0.2,0.1-0.4,0.2-0.6,0.2c-0.1,0-0.2,0-0.4,0c-0.2,0-0.3,0-0.4,0c-0.1,0-0.2,0.1-0.2,0.2c0,0.1,0,0.1,0.1,0.2
					c0.1,0,0.2,0.1,0.3,0.1c0,0,0.1,0,0.2,0.1C239,136.8,239.2,136.9,239.3,136.9 M250.1,121.8c-0.3-0.2-0.7-0.3-1-0.5
					c-0.3-0.1-0.7-0.2-1.1-0.2l-0.1,0c-0.1,0-0.2,0-0.2,0c-0.1,0-0.1,0-0.2,0l-0.1,0l-0.4,0.1c-0.2,0.1-0.4,0.2-0.6,0.4
					c-0.2,0.2-0.3,0.3-0.3,0.5c0.1,0.1,0.2,0.1,0.3,0c0.1,0,0.2-0.1,0.3-0.2l0.2-0.1c0.5-0.3,1-0.3,1.5-0.2c0.5,0.1,0.9,0.3,1.4,0.6
					c0.2,0.1,0.4,0.2,0.6,0.1c0.1,0,0.2-0.1,0.1-0.3C250.5,122.1,250.3,122,250.1,121.8 M236,121.5l-0.1,0.1l-0.3,0.2
					c-0.2,0.1-0.3,0.3-0.5,0.5c-0.1,0.2-0.2,0.4-0.1,0.6c0.1,0,0.2,0,0.3-0.1c0.1-0.1,0.2-0.1,0.2-0.2c0.3-0.3,0.7-0.5,1-0.6
					c0.3,0,0.7,0,1.1,0.3c0.3,0.2,0.5,0.2,0.7,0.2c0.2,0,0.2-0.1,0.2-0.3c0-0.2-0.2-0.3-0.5-0.5c-0.2-0.1-0.4-0.2-0.6-0.3
					c-0.2-0.1-0.4-0.1-0.7,0h0l-0.1,0c-0.1,0-0.2,0-0.2,0C236.1,121.4,236.1,121.4,236,121.5 M247.3,117.1L247.3,117.1l-0.1,0
					c-0.1,0-0.3,0.1-0.5,0.2s-0.4,0.2-0.5,0.3c-0.1,0.1-0.1,0.3,0,0.5c0.1,0.1,0.2,0.1,0.3,0c0.1,0,0.2-0.1,0.3-0.2
					c0.1-0.1,0.2-0.1,0.3-0.1c0.4-0.1,0.8-0.2,1.2-0.1c0.4,0,0.7,0.2,1.1,0.5c0.1,0.1,0.2,0.1,0.3,0.2c0.1,0.1,0.2,0.1,0.3,0.1
					c0.1,0,0.2-0.1,0.2-0.2c0-0.2,0-0.4-0.2-0.6c-0.2-0.2-0.5-0.3-0.7-0.5c-0.3-0.1-0.5-0.2-0.7-0.2c-0.1,0-0.1,0-0.2,0
					c-0.1,0-0.1,0-0.2,0l-0.2,0c-0.1,0-0.2,0-0.3,0C247.5,117.1,247.4,117.1,247.3,117.1 M237.1,117.8c0.1,0,0.1,0.1,0.3,0.1
					c0.1,0,0.2,0.1,0.4,0c0-0.3-0.1-0.5-0.3-0.7c-0.2-0.2-0.5-0.3-0.8-0.4c-0.3-0.1-0.6,0-0.8,0c0,0-0.1,0.1-0.2,0.1l-0.1,0
					l-0.4,0.3c-0.2,0.2-0.4,0.3-0.6,0.6c-0.2,0.2-0.2,0.5-0.1,0.7c0.1,0.1,0.2,0.1,0.3,0c0.1-0.1,0.2-0.1,0.2-0.2
					c0.1-0.1,0.1-0.2,0.2-0.2c0.3-0.3,0.6-0.6,0.9-0.6C236.4,117.4,236.7,117.5,237.1,117.8 M240.2,129c-0.1,0.4-0.2,0.9-0.4,1.2
					c-0.1,0.4-0.3,0.8-0.6,1.2c-0.2,0.3-0.2,0.5-0.1,0.7c0.1,0.2,0.2,0.3,0.5,0.5c0.2,0.1,0.5,0.2,0.7,0.3c0.3,0.1,0.6,0.1,0.9,0.1
					c0.2,0,0.5-0.1,0.8-0.3l0.4-0.2l0.1-0.2c0-0.1-0.2-0.1-0.4-0.1c-0.2,0-0.5,0-0.6,0.1c-0.2,0.1-0.5,0.1-0.7,0.1
					c-0.2,0-0.4-0.1-0.6-0.2l-0.1,0L240,132c-0.1,0-0.1-0.1-0.2-0.2c0,0,0-0.1,0.1-0.1l0.1-0.1c0.2-0.4,0.5-0.9,0.7-1.5
					c0.2-0.6,0.4-1.2,0.5-1.8c0.1-0.6,0.2-1.2,0.2-1.6l0-0.4l0-0.2c0-0.1-0.1-0.1-0.2,0c0,0.1-0.1,0.1-0.1,0.2l0,0.1
					c-0.2,0.4-0.3,0.8-0.4,1.3C240.4,128.2,240.3,128.6,240.2,129 M247.4,122L247.4,122c-0.2,0.2-0.3,0.4-0.3,0.6s0,0.4,0.2,0.6
					c0.1,0.2,0.3,0.2,0.6,0.2c0.2,0,0.4-0.2,0.4-0.4c0.1-0.2,0-0.4,0-0.6c-0.1-0.2-0.3-0.4-0.5-0.5l-0.1,0c0,0-0.1,0-0.1,0
					C247.5,121.9,247.5,122,247.4,122 M236.3,122.1c-0.2,0.2-0.3,0.4-0.3,0.6c0,0.2,0,0.4,0.2,0.6c0.1,0.1,0.2,0.2,0.4,0.3
					c0.2,0,0.3,0,0.4-0.2c0.1-0.2,0.1-0.4,0.1-0.7c0-0.3-0.1-0.5-0.3-0.6c0,0-0.1,0-0.2,0C236.5,122,236.4,122,236.3,122.1z"/>
			</g>
		</g>
	</g>
	<g transform="matrix( 1, 0, 0, 1, 0,0) ">
		<g>
			<path id="Layer0_1_1_STROKES" class="st51" d="M240,123.1c-0.1-1-0.3-1.8-0.7-2.6c-0.4-0.8-0.9-1.4-1.6-1.8
				c-0.6-0.4-1.4-0.6-2.1-0.6c-0.8,0-1.5,0.3-2.1,0.8s-1.1,1.1-1.4,1.9c-0.3,0.8-0.5,1.6-0.5,2.6c0.1,1,0.3,1.8,0.7,2.6
				c0.4,0.8,0.9,1.4,1.6,1.8c0.6,0.4,1.4,0.6,2.1,0.6c0.8,0,1.5-0.3,2.1-0.8c0.6-0.5,1.1-1.1,1.4-1.9
				C239.9,124.9,240.1,124.1,240,123.1z"/>
		</g>
	</g>
	<g transform="matrix( 1, 0, 0, 1, 0,0) ">
		<g>
			<path id="Layer0_2_1_STROKES" class="st51" d="M239.7,121.5l0.2-0.1l0.4-0.2c0.4-0.2,0.9-0.3,1.5-0.4c0.6-0.1,1.3,0.1,2,0.5"/>
		</g>
	</g>
	<g transform="matrix( 1, 0, 0, 1, 0,0) ">
		<g>
			<path id="Layer0_3_1_STROKES" class="st51" d="M252,122.2l16.1,2.9"/>
		</g>
	</g>
	<g transform="matrix( 1, 0, 0, 1, 0,0) ">
		<g>
			<path id="Layer0_4_1_STROKES" class="st51" d="M252.1,123.4c0-0.9-0.3-1.8-0.7-2.5c-0.4-0.7-0.9-1.3-1.6-1.7
				c-0.7-0.4-1.4-0.6-2.2-0.6c-0.8,0-1.5,0.3-2.1,0.7c-0.6,0.5-1.1,1.1-1.4,1.8c-0.3,0.8-0.5,1.6-0.5,2.5c0.1,0.9,0.3,1.7,0.7,2.5
				c0.4,0.7,0.9,1.3,1.6,1.7c0.6,0.4,1.4,0.6,2.1,0.6c0.8,0,1.5-0.3,2.1-0.7c0.6-0.5,1.1-1.1,1.5-1.8
				C252,125.1,252.2,124.3,252.1,123.4z"/>
		</g>
	</g>
	<g transform="matrix( 1, 0, 0, 1, 0,0) ">
		<g>
			<g id="Layer0_5_FILL">
				<path class="st31" d="M272.9,116.3c-0.4-1.8-1-3.3-1.8-4.6c-0.8-1.3-1.5-2.2-2.2-2.9l-0.8-0.7l-0.3-0.2c0.8-3.2,0.5-5.4-0.9-6.6
					c-1.4-1.2-3.5-1.9-6.3-2.1c-2.8-0.2-5.8-0.4-9-0.6s-6.2-0.9-8.9-2.2c-1.6-0.6-3.3-0.7-5-0.3c-1.8,0.4-3.3,1.3-4.6,2.6
					c-1.3,1.3-2,2.9-2.2,4.7c-0.2,1.9,0.5,3.9,2.1,6.2c1.2,1.5,2.7,2.4,4.5,2.7c1.8,0.4,3.7,0.4,5.5,0.1c1.8-0.3,3.4-0.6,4.7-1
					l2-0.7c1.1,2.6,2.3,4.6,3.6,6.1c1.2,1.5,2.4,2.5,3.4,3.2c1.1,0.7,1.9,1.1,2.6,1.2l0.7,0.2l0.3,0l0.1,2.4
					c0.1,1.6,0.1,3.7,0.2,6.3c0.1,2.6,0.1,5.4,0.1,8.5c0,5.2,0.8,9.2,2.3,12.1c1.5,2.8,3.4,4.4,5.9,4.8s5.1-0.6,8-2.9
					c0.6-0.5,1.2-1.5,1.7-3c0.5-1.4,0.7-3.1,0.7-5.1c0-1.9-0.5-3.9-1.3-5.9c-1.3-2.9-2.3-5.5-3.1-7.9c-0.8-2.4-1.3-4.4-1.7-5.9
					l-0.4-2.5C273.2,120.1,273.3,118.1,272.9,116.3z"/>
			</g>
		</g>
	</g>
</g>
<g id="Layer_43">
	<g id="Layer_38">
		<g id="Layer_40">
			<path class="st40" d="M133.7,289.5c3.9,3.7,202.3,0,202.3,0V58H133.7V289.5z"/>
		</g>
		<g id="Layer_39">
			<path class="st50" d="M265.2,129.5c-1.2,2.4-3.3,3.7-4.8,2.9c-1.5-0.7-1.8-3.2-0.6-5.6c1.2-2.4,3.3-3.7,4.8-2.9
				C266.1,124.6,266.4,127.1,265.2,129.5z"/>
		</g>
	</g>
</g>
<g id="Layer_66">
	<path class="st52" d="M246.8,155.5c-4.7,3.8-9.9,28.4-0.5,28.7c13.2,0.5,22.8-26.1,18.6-31.1"/>
	<path class="st52" d="M246.3,184.2c-4.2,30.4-4.9,48.9-4.2,77.4"/>
	<circle class="st53" cx="242.6" cy="256.9" r="5.6"/>
</g>
<g id="Layer_50">
	<g>
		<defs>
			<path id="SVGID_87_" d="M133.7,289.5c3.9,3.7,202.3,0,202.3,0V58H133.7V289.5z"/>
		</defs>
		<clipPath id="SVGID_88_">
			<use xlink:href="#SVGID_87_"  style="overflow:visible;"/>
		</clipPath>
		<polygon class="st54" points="193.5,195.8 234.4,195.8 249.4,245.9 208.6,245.9 		"/>
	</g>
</g>
<g id="Layer_63">
	<defs>
		<path id="SVGID_89_" d="M270.4,247.6l-0.7-12.2l7.8-1.1l7-33.5c-0.1,0.5-0.2,1-0.4,1.5l0.6-7.6l0.1,0.8l0.1-0.9
			c0-0.4-0.1-0.8-0.1-1.2l1.4-16.6c0,0-3.8-13.3-16.7-22.2c0,0-27.4,37.6-26.4,60.4c1,22.9,4.2,103.8,4.2,103.8l38.9-7.9l-15.4-58.5
			C270.5,250.9,270.2,249.2,270.4,247.6z"/>
	</defs>
	<clipPath id="SVGID_90_">
		<use xlink:href="#SVGID_89_"  style="overflow:visible;opacity:0.47;enable-background:new    ;"/>
	</clipPath>
	<g id="Layer_65" class="st55">
		<path class="st56" d="M291.2,234.5l-7.8-47.2c0,0,10.7,27.7-25.8,31.6c-36.8,3.9,3,15.4,3,15.4"/>
	</g>
</g>
<g id="Layer_49">
	<g>
		<defs>
			<path id="SVGID_91_" d="M133.7,289.5c3.9,3.7,202.3,0,202.3,0V58H133.7V289.5z"/>
		</defs>
		<clipPath id="SVGID_92_">
			<use xlink:href="#SVGID_91_"  style="overflow:visible;"/>
		</clipPath>
		<path class="st57" d="M250.6,225.2c0,0-3.5-5.3-9.3-6.1l1.3,4.4c0,0-10.1-2.2-12.5-4.2c-2.4-1.9-1.5,7.3,1,9.2
			c2.4,1.9,6.3,4.4,7.8,5.3c1.5,1,12-2,12-2L250.6,225.2z"/>
	</g>
</g>
<g id="Layer_48">
	<g>
		<defs>
			<path id="SVGID_93_" d="M130.5,289.5c3.9,3.7,202.3,0,202.3,0V58H130.5V289.5z"/>
		</defs>
		<clipPath id="SVGID_94_">
			<use xlink:href="#SVGID_93_"  style="overflow:visible;"/>
		</clipPath>
		<path class="st58" d="M268.8,155.6c0,0,11.7,6.6,17.7,14.7c9.5,12,10.7,50.2,7.8,55.5c-2.9,5.3-39.4,7.5-43.3,7.5
			c0,0,0.4-9.7-3-11.7c0,0,30.7-5.4,32.1-8.8C281.6,209.4,270.5,185.4,268.8,155.6z"/>
	</g>
</g>
<g id="Layer_20">
	<g>
		<path class="st38" d="M291.2,387.2h-90c-3.8,0-6.8-3-6.8-6.8l0,0c0-3.8,3-6.8,6.8-6.8h90c3.8,0,6.8,3,6.8,6.8l0,0
			C298,384.1,295,387.2,291.2,387.2z"/>
		<path class="st31" d="M208.1,380.4c0,3-2.4,5.3-5.3,5.3c-3,0-5.3-2.4-5.3-5.3c0-3,2.4-5.3,5.3-5.3
			C205.7,375,208.1,377.4,208.1,380.4z"/>
	</g>
</g>
<g id="Layer_19">
	<g>
		<path class="st59" d="M168.7,346.9c0-2.2-1.8-4.4-4-4.4c-2.1,0-3.8,1.7-4,3.7l0,0l0,0c-0.1-2.1-1.8-3.7-4-3.7s-4,2.2-4,4.4
			c0,0.3,0,0.5,0.1,0.8l0,0c0,0,0.9,6,7.9,8.8c7-2.8,7.9-8.8,7.9-8.8l0,0C168.7,347.4,168.7,347.2,168.7,346.9z"/>
	</g>
</g>
<g id="Layer_18">
	<rect x="175" y="344.4" class="st31" width="74.4" height="1.5"/>
</g>
<g id="Layer_17">
	<rect x="175" y="347.1" class="st31" width="74.4" height="1.5"/>
</g>
<g id="Layer_16">
	<rect x="175" y="349.9" class="st31" width="74.4" height="1.5"/>
</g>
<g id="Layer_15">
	<rect x="175" y="352.6" class="st31" width="26.7" height="1.5"/>
</g>
<g id="Layer_14">
	<path class="st37" d="M186.5,298.2h110.8c2,0,3.7,1.6,3.7,3.7v17.5c0,2-1.6,3.7-3.7,3.7H219l-5.1,6.3l-6-6.3h-21.4
		c-2,0-3.7-1.6-3.7-3.7v-17.5C182.8,299.8,184.5,298.2,186.5,298.2z"/>
</g>
<g id="Layer_13">
	<path class="st38" d="M186.5,294.8h110.8c2,0,3.7,1.6,3.7,3.7V316c0,2-1.6,3.7-3.7,3.7H219l-5.1,6.3l-6-6.3h-21.4
		c-2,0-3.7-1.6-3.7-3.7v-17.5C182.8,296.4,184.5,294.8,186.5,294.8z"/>
</g>
<g id="Layer_12">
	<rect x="196.9" y="301.5" class="st31" width="74.4" height="1.5"/>
</g>
<g id="Layer_11">
	<rect x="196.9" y="304.3" class="st31" width="74.4" height="1.5"/>
</g>
<g id="Layer_10">
	<rect x="196.9" y="307" class="st31" width="74.4" height="1.5"/>
</g>
<g id="Layer_9">
	<rect x="244.6" y="309.8" class="st31" width="26.7" height="1.5"/>
</g>
<g id="Layer_8">
	<g id="Layer_5">
		<g id="Layer_7">
			<g>
				<g>
					<g>
						<path id="SVGID_5_" class="st59" d="M289.2,301.9c0,1.6-1.3,3-3,3c-1.6,0-3-1.3-3-3c0-1.6,1.3-3,3-3
							C287.9,298.9,289.2,300.2,289.2,301.9z"/>
					</g>
					<g>
						<defs>
							<circle id="SVGID_95_" cx="286.2" cy="301.9" r="3"/>
						</defs>
						<clipPath id="SVGID_96_">
							<use xlink:href="#SVGID_95_"  style="overflow:visible;"/>
						</clipPath>
						<rect x="283.3" y="298.9" class="st60" width="5.9" height="5.9"/>
					</g>
					<g>
						<defs>
							<circle id="SVGID_97_" cx="286.2" cy="301.9" r="3"/>
						</defs>
						<clipPath id="SVGID_98_">
							<use xlink:href="#SVGID_97_"  style="overflow:visible;"/>
						</clipPath>
						<path class="st61" d="M289.2,301.9c0,1.6-1.3,3-3,3c-1.6,0-3-1.3-3-3c0-1.6,1.3-3,3-3C287.9,298.9,289.2,300.2,289.2,301.9z"
							/>
					</g>
					<g>
						<defs>
							<circle id="SVGID_99_" cx="286.2" cy="301.9" r="3"/>
						</defs>
						<clipPath id="SVGID_100_">
							<use xlink:href="#SVGID_99_"  style="overflow:visible;"/>
						</clipPath>
						<path class="st62" d="M289.1,301.9c0,1.6-1.3,2.9-2.9,2.9s-2.9-1.3-2.9-2.9s1.3-2.9,2.9-2.9
							C287.8,299,289.1,300.3,289.1,301.9z"/>
					</g>
					<g>
						<defs>
							<circle id="SVGID_101_" cx="286.2" cy="301.9" r="3"/>
						</defs>
						<clipPath id="SVGID_102_">
							<use xlink:href="#SVGID_101_"  style="overflow:visible;"/>
						</clipPath>
						<path class="st63" d="M289.1,301.9c0,1.6-1.3,2.8-2.8,2.8c-1.6,0-2.8-1.3-2.8-2.8c0-1.6,1.3-2.8,2.8-2.8
							C287.8,299,289.1,300.3,289.1,301.9z"/>
					</g>
					<g>
						<defs>
							<circle id="SVGID_103_" cx="286.2" cy="301.9" r="3"/>
						</defs>
						<clipPath id="SVGID_104_">
							<use xlink:href="#SVGID_103_"  style="overflow:visible;"/>
						</clipPath>
						<path class="st64" d="M289,301.9c0,1.5-1.2,2.8-2.8,2.8c-1.5,0-2.8-1.2-2.8-2.8c0-1.5,1.2-2.8,2.8-2.8S289,300.3,289,301.9z"
							/>
					</g>
					<g>
						<defs>
							<circle id="SVGID_105_" cx="286.2" cy="301.9" r="3"/>
						</defs>
						<clipPath id="SVGID_106_">
							<use xlink:href="#SVGID_105_"  style="overflow:visible;"/>
						</clipPath>
						<path class="st65" d="M289,301.9c0,1.5-1.2,2.7-2.7,2.7s-2.7-1.2-2.7-2.7s1.2-2.7,2.7-2.7C287.7,299.2,289,300.4,289,301.9z"
							/>
					</g>
					<g>
						<defs>
							<circle id="SVGID_107_" cx="286.2" cy="301.9" r="3"/>
						</defs>
						<clipPath id="SVGID_108_">
							<use xlink:href="#SVGID_107_"  style="overflow:visible;"/>
						</clipPath>
						<path class="st66" d="M288.9,301.9c0,1.5-1.2,2.7-2.7,2.7s-2.7-1.2-2.7-2.7s1.2-2.7,2.7-2.7
							C287.7,299.2,288.9,300.4,288.9,301.9z"/>
					</g>
					<g>
						<defs>
							<circle id="SVGID_109_" cx="286.2" cy="301.9" r="3"/>
						</defs>
						<clipPath id="SVGID_110_">
							<use xlink:href="#SVGID_109_"  style="overflow:visible;"/>
						</clipPath>
						<path class="st67" d="M288.8,301.9c0,1.4-1.2,2.6-2.6,2.6s-2.6-1.2-2.6-2.6s1.2-2.6,2.6-2.6
							C287.7,299.3,288.8,300.4,288.8,301.9z"/>
					</g>
					<g>
						<defs>
							<circle id="SVGID_111_" cx="286.2" cy="301.9" r="3"/>
						</defs>
						<clipPath id="SVGID_112_">
							<use xlink:href="#SVGID_111_"  style="overflow:visible;"/>
						</clipPath>
						<path class="st68" d="M288.8,301.9c0,1.4-1.1,2.5-2.5,2.5s-2.5-1.1-2.5-2.5s1.1-2.5,2.5-2.5
							C287.6,299.3,288.8,300.5,288.8,301.9z"/>
					</g>
					<g>
						<defs>
							<circle id="SVGID_113_" cx="286.2" cy="301.9" r="3"/>
						</defs>
						<clipPath id="SVGID_114_">
							<use xlink:href="#SVGID_113_"  style="overflow:visible;"/>
						</clipPath>
						<path class="st69" d="M288.7,301.9c0,1.4-1.1,2.5-2.5,2.5s-2.5-1.1-2.5-2.5s1.1-2.5,2.5-2.5S288.7,300.5,288.7,301.9z"/>
					</g>
					<g>
						<defs>
							<circle id="SVGID_115_" cx="286.2" cy="301.9" r="3"/>
						</defs>
						<clipPath id="SVGID_116_">
							<use xlink:href="#SVGID_115_"  style="overflow:visible;"/>
						</clipPath>
						<path class="st70" d="M288.7,301.9c0,1.3-1.1,2.4-2.4,2.4s-2.4-1.1-2.4-2.4s1.1-2.4,2.4-2.4S288.7,300.5,288.7,301.9z"/>
					</g>
					<g>
						<defs>
							<circle id="SVGID_117_" cx="286.2" cy="301.9" r="3"/>
						</defs>
						<clipPath id="SVGID_118_">
							<use xlink:href="#SVGID_117_"  style="overflow:visible;"/>
						</clipPath>
						<path class="st71" d="M288.6,301.9c0,1.3-1.1,2.4-2.4,2.4s-2.4-1.1-2.4-2.4s1.1-2.4,2.4-2.4S288.6,300.6,288.6,301.9z"/>
					</g>
					<g>
						<defs>
							<circle id="SVGID_119_" cx="286.2" cy="301.9" r="3"/>
						</defs>
						<clipPath id="SVGID_120_">
							<use xlink:href="#SVGID_119_"  style="overflow:visible;"/>
						</clipPath>
						<path class="st72" d="M288.5,301.9c0,1.3-1,2.3-2.3,2.3s-2.3-1-2.3-2.3s1-2.3,2.3-2.3S288.5,300.6,288.5,301.9z"/>
					</g>
					<g>
						<defs>
							<circle id="SVGID_121_" cx="286.2" cy="301.9" r="3"/>
						</defs>
						<clipPath id="SVGID_122_">
							<use xlink:href="#SVGID_121_"  style="overflow:visible;"/>
						</clipPath>
						<path class="st73" d="M288.5,301.9c0,1.2-1,2.2-2.2,2.2s-2.2-1-2.2-2.2s1-2.2,2.2-2.2C287.5,299.6,288.5,300.6,288.5,301.9z"
							/>
					</g>
					<g>
						<defs>
							<circle id="SVGID_123_" cx="286.2" cy="301.9" r="3"/>
						</defs>
						<clipPath id="SVGID_124_">
							<use xlink:href="#SVGID_123_"  style="overflow:visible;"/>
						</clipPath>
						<path class="st74" d="M288.4,301.9c0,1.2-1,2.2-2.2,2.2s-2.2-1-2.2-2.2s1-2.2,2.2-2.2C287.4,299.7,288.4,300.7,288.4,301.9z"
							/>
					</g>
					<g>
						<defs>
							<circle id="SVGID_125_" cx="286.2" cy="301.9" r="3"/>
						</defs>
						<clipPath id="SVGID_126_">
							<use xlink:href="#SVGID_125_"  style="overflow:visible;"/>
						</clipPath>
						<path class="st75" d="M288.4,301.9c0,1.2-0.9,2.1-2.1,2.1s-2.1-0.9-2.1-2.1s0.9-2.1,2.1-2.1
							C287.4,299.8,288.4,300.7,288.4,301.9z"/>
					</g>
					<g>
						<defs>
							<circle id="SVGID_127_" cx="286.2" cy="301.9" r="3"/>
						</defs>
						<clipPath id="SVGID_128_">
							<use xlink:href="#SVGID_127_"  style="overflow:visible;"/>
						</clipPath>
						<path class="st76" d="M288.3,301.9c0,1.1-0.9,2.1-2.1,2.1c-1.1,0-2.1-0.9-2.1-2.1c0-1.1,0.9-2.1,2.1-2.1
							S288.3,300.7,288.3,301.9z"/>
					</g>
					<g>
						<defs>
							<circle id="SVGID_129_" cx="286.2" cy="301.9" r="3"/>
						</defs>
						<clipPath id="SVGID_130_">
							<use xlink:href="#SVGID_129_"  style="overflow:visible;"/>
						</clipPath>
						<path class="st77" d="M288.2,301.9c0,1.1-0.9,2-2,2s-2-0.9-2-2s0.9-2,2-2S288.2,300.8,288.2,301.9z"/>
					</g>
					<g>
						<defs>
							<circle id="SVGID_131_" cx="286.2" cy="301.9" r="3"/>
						</defs>
						<clipPath id="SVGID_132_">
							<use xlink:href="#SVGID_131_"  style="overflow:visible;"/>
						</clipPath>
						<path class="st78" d="M288.2,301.9c0,1.1-0.9,1.9-1.9,1.9c-1.1,0-1.9-0.9-1.9-1.9s0.9-1.9,1.9-1.9
							C287.3,299.9,288.2,300.8,288.2,301.9z"/>
					</g>
					<g>
						<defs>
							<circle id="SVGID_133_" cx="286.2" cy="301.9" r="3"/>
						</defs>
						<clipPath id="SVGID_134_">
							<use xlink:href="#SVGID_133_"  style="overflow:visible;"/>
						</clipPath>
						<path class="st79" d="M288.1,301.9c0,1-0.8,1.9-1.9,1.9c-1,0-1.9-0.8-1.9-1.9c0-1,0.8-1.9,1.9-1.9
							C287.3,300,288.1,300.8,288.1,301.9z"/>
					</g>
					<g>
						<defs>
							<circle id="SVGID_135_" cx="286.2" cy="301.9" r="3"/>
						</defs>
						<clipPath id="SVGID_136_">
							<use xlink:href="#SVGID_135_"  style="overflow:visible;"/>
						</clipPath>
						<path class="st80" d="M288.1,301.9c0,1-0.8,1.8-1.8,1.8s-1.8-0.8-1.8-1.8s0.8-1.8,1.8-1.8
							C287.2,300.1,288.1,300.9,288.1,301.9z"/>
					</g>
					<g>
						<defs>
							<circle id="SVGID_137_" cx="286.2" cy="301.9" r="3"/>
						</defs>
						<clipPath id="SVGID_138_">
							<use xlink:href="#SVGID_137_"  style="overflow:visible;"/>
						</clipPath>
						<path class="st81" d="M288,301.9c0,1-0.8,1.8-1.8,1.8s-1.8-0.8-1.8-1.8s0.8-1.8,1.8-1.8S288,300.9,288,301.9z"/>
					</g>
					<g>
						<defs>
							<circle id="SVGID_139_" cx="286.2" cy="301.9" r="3"/>
						</defs>
						<clipPath id="SVGID_140_">
							<use xlink:href="#SVGID_139_"  style="overflow:visible;"/>
						</clipPath>
						<path class="st82" d="M287.9,301.9c0,0.9-0.8,1.7-1.7,1.7c-0.9,0-1.7-0.8-1.7-1.7s0.8-1.7,1.7-1.7
							C287.2,300.2,287.9,301,287.9,301.9z"/>
					</g>
					<g>
						<defs>
							<circle id="SVGID_141_" cx="286.2" cy="301.9" r="3"/>
						</defs>
						<clipPath id="SVGID_142_">
							<use xlink:href="#SVGID_141_"  style="overflow:visible;"/>
						</clipPath>
						<path class="st83" d="M287.9,301.9c0,0.9-0.7,1.6-1.6,1.6s-1.6-0.7-1.6-1.6s0.7-1.6,1.6-1.6
							C287.1,300.3,287.9,301,287.9,301.9z"/>
					</g>
					<g>
						<defs>
							<circle id="SVGID_143_" cx="286.2" cy="301.9" r="3"/>
						</defs>
						<clipPath id="SVGID_144_">
							<use xlink:href="#SVGID_143_"  style="overflow:visible;"/>
						</clipPath>
						<circle class="st84" cx="286.2" cy="301.9" r="1.6"/>
					</g>
					<g>
						<defs>
							<circle id="SVGID_145_" cx="286.2" cy="301.9" r="3"/>
						</defs>
						<clipPath id="SVGID_146_">
							<use xlink:href="#SVGID_145_"  style="overflow:visible;"/>
						</clipPath>
						<path class="st85" d="M287.8,301.9c0,0.8-0.7,1.5-1.5,1.5s-1.5-0.7-1.5-1.5s0.7-1.5,1.5-1.5
							C287.1,300.4,287.8,301.1,287.8,301.9z"/>
					</g>
					<g>
						<defs>
							<circle id="SVGID_147_" cx="286.2" cy="301.9" r="3"/>
						</defs>
						<clipPath id="SVGID_148_">
							<use xlink:href="#SVGID_147_"  style="overflow:visible;"/>
						</clipPath>
						<path class="st86" d="M287.7,301.9c0,0.8-0.7,1.5-1.5,1.5s-1.5-0.7-1.5-1.5s0.7-1.5,1.5-1.5S287.7,301.1,287.7,301.9z"/>
					</g>
					<g>
						<defs>
							<circle id="SVGID_149_" cx="286.2" cy="301.9" r="3"/>
						</defs>
						<clipPath id="SVGID_150_">
							<use xlink:href="#SVGID_149_"  style="overflow:visible;"/>
						</clipPath>
						<path class="st87" d="M287.6,301.9c0,0.8-0.6,1.4-1.4,1.4s-1.4-0.6-1.4-1.4s0.6-1.4,1.4-1.4S287.6,301.1,287.6,301.9z"/>
					</g>
					<g>
						<defs>
							<circle id="SVGID_151_" cx="286.2" cy="301.9" r="3"/>
						</defs>
						<clipPath id="SVGID_152_">
							<use xlink:href="#SVGID_151_"  style="overflow:visible;"/>
						</clipPath>
						<path class="st88" d="M287.6,301.9c0,0.7-0.6,1.3-1.3,1.3c-0.7,0-1.3-0.6-1.3-1.3c0-0.7,0.6-1.3,1.3-1.3
							S287.6,301.2,287.6,301.9z"/>
					</g>
					<g>
						<defs>
							<circle id="SVGID_153_" cx="286.2" cy="301.9" r="3"/>
						</defs>
						<clipPath id="SVGID_154_">
							<use xlink:href="#SVGID_153_"  style="overflow:visible;"/>
						</clipPath>
						<path class="st89" d="M287.5,301.9c0,0.7-0.6,1.3-1.3,1.3c-0.7,0-1.3-0.6-1.3-1.3c0-0.7,0.6-1.3,1.3-1.3
							S287.5,301.2,287.5,301.9z"/>
					</g>
					<g>
						<defs>
							<circle id="SVGID_155_" cx="286.2" cy="301.9" r="3"/>
						</defs>
						<clipPath id="SVGID_156_">
							<use xlink:href="#SVGID_155_"  style="overflow:visible;"/>
						</clipPath>
						<path class="st90" d="M287.5,301.9c0,0.7-0.5,1.2-1.2,1.2s-1.2-0.5-1.2-1.2s0.5-1.2,1.2-1.2
							C286.9,300.7,287.5,301.2,287.5,301.9z"/>
					</g>
					<g>
						<defs>
							<circle id="SVGID_157_" cx="286.2" cy="301.9" r="3"/>
						</defs>
						<clipPath id="SVGID_158_">
							<use xlink:href="#SVGID_157_"  style="overflow:visible;"/>
						</clipPath>
						<path class="st91" d="M287.4,301.9c0,0.6-0.5,1.2-1.2,1.2c-0.6,0-1.2-0.5-1.2-1.2s0.5-1.2,1.2-1.2
							C286.9,300.7,287.4,301.3,287.4,301.9z"/>
					</g>
					<g>
						<defs>
							<circle id="SVGID_159_" cx="286.2" cy="301.9" r="3"/>
						</defs>
						<clipPath id="SVGID_160_">
							<use xlink:href="#SVGID_159_"  style="overflow:visible;"/>
						</clipPath>
						<path class="st92" d="M287.3,301.9c0,0.6-0.5,1.1-1.1,1.1s-1.1-0.5-1.1-1.1s0.5-1.1,1.1-1.1S287.3,301.3,287.3,301.9z"/>
					</g>
					<g>
						<defs>
							<circle id="SVGID_161_" cx="286.2" cy="301.9" r="3"/>
						</defs>
						<clipPath id="SVGID_162_">
							<use xlink:href="#SVGID_161_"  style="overflow:visible;"/>
						</clipPath>
						<path class="st93" d="M287.3,301.9c0,0.6-0.5,1-1,1c-0.6,0-1-0.5-1-1c0-0.6,0.5-1,1-1S287.3,301.3,287.3,301.9z"/>
					</g>
					<g>
						<defs>
							<circle id="SVGID_163_" cx="286.2" cy="301.9" r="3"/>
						</defs>
						<clipPath id="SVGID_164_">
							<use xlink:href="#SVGID_163_"  style="overflow:visible;"/>
						</clipPath>
						<path class="st94" d="M287.2,301.9c0,0.5-0.4,1-1,1c-0.5,0-1-0.4-1-1s0.4-1,1-1C286.8,300.9,287.2,301.4,287.2,301.9z"/>
					</g>
					<g>
						<defs>
							<circle id="SVGID_165_" cx="286.2" cy="301.9" r="3"/>
						</defs>
						<clipPath id="SVGID_166_">
							<use xlink:href="#SVGID_165_"  style="overflow:visible;"/>
						</clipPath>
						<path class="st95" d="M287.1,301.9c0,0.5-0.4,0.9-0.9,0.9s-0.9-0.4-0.9-0.9s0.4-0.9,0.9-0.9S287.1,301.4,287.1,301.9z"/>
					</g>
					<g>
						<defs>
							<circle id="SVGID_167_" cx="286.2" cy="301.9" r="3"/>
						</defs>
						<clipPath id="SVGID_168_">
							<use xlink:href="#SVGID_167_"  style="overflow:visible;"/>
						</clipPath>
						<path class="st96" d="M287.1,301.9c0,0.5-0.4,0.8-0.8,0.8c-0.5,0-0.8-0.4-0.8-0.8s0.4-0.8,0.8-0.8
							C286.7,301,287.1,301.4,287.1,301.9z"/>
					</g>
					<g>
						<defs>
							<circle id="SVGID_169_" cx="286.2" cy="301.9" r="3"/>
						</defs>
						<clipPath id="SVGID_170_">
							<use xlink:href="#SVGID_169_"  style="overflow:visible;"/>
						</clipPath>
						<path class="st97" d="M287,301.9c0,0.4-0.4,0.8-0.8,0.8s-0.8-0.4-0.8-0.8s0.4-0.8,0.8-0.8C286.7,301.1,287,301.5,287,301.9z"
							/>
					</g>
					<g>
						<defs>
							<circle id="SVGID_171_" cx="286.2" cy="301.9" r="3"/>
						</defs>
						<clipPath id="SVGID_172_">
							<use xlink:href="#SVGID_171_"  style="overflow:visible;"/>
						</clipPath>
						<path class="st98" d="M287,301.9c0,0.4-0.3,0.7-0.7,0.7c-0.4,0-0.7-0.3-0.7-0.7c0-0.4,0.3-0.7,0.7-0.7
							C286.6,301.2,287,301.5,287,301.9z"/>
					</g>
					<g>
						<defs>
							<circle id="SVGID_173_" cx="286.2" cy="301.9" r="3"/>
						</defs>
						<clipPath id="SVGID_174_">
							<use xlink:href="#SVGID_173_"  style="overflow:visible;"/>
						</clipPath>
						<path class="st99" d="M286.9,301.9c0,0.4-0.3,0.7-0.7,0.7c-0.4,0-0.7-0.3-0.7-0.7c0-0.4,0.3-0.7,0.7-0.7
							C286.6,301.2,286.9,301.5,286.9,301.9z"/>
					</g>
					<g>
						<defs>
							<circle id="SVGID_175_" cx="286.2" cy="301.9" r="3"/>
						</defs>
						<clipPath id="SVGID_176_">
							<use xlink:href="#SVGID_175_"  style="overflow:visible;"/>
						</clipPath>
						<path class="st100" d="M286.8,301.9c0,0.3-0.3,0.6-0.6,0.6c-0.3,0-0.6-0.3-0.6-0.6c0-0.3,0.3-0.6,0.6-0.6
							C286.6,301.3,286.8,301.6,286.8,301.9z"/>
					</g>
					<g>
						<defs>
							<circle id="SVGID_177_" cx="286.2" cy="301.9" r="3"/>
						</defs>
						<clipPath id="SVGID_178_">
							<use xlink:href="#SVGID_177_"  style="overflow:visible;"/>
						</clipPath>
						<path class="st101" d="M286.8,301.9c0,0.3-0.2,0.5-0.5,0.5s-0.5-0.2-0.5-0.5s0.2-0.5,0.5-0.5
							C286.5,301.3,286.8,301.6,286.8,301.9z"/>
					</g>
					<g>
						<defs>
							<circle id="SVGID_179_" cx="286.2" cy="301.9" r="3"/>
						</defs>
						<clipPath id="SVGID_180_">
							<use xlink:href="#SVGID_179_"  style="overflow:visible;"/>
						</clipPath>
						<path class="st102" d="M286.7,301.9c0,0.3-0.2,0.5-0.5,0.5s-0.5-0.2-0.5-0.5s0.2-0.5,0.5-0.5S286.7,301.6,286.7,301.9z"/>
					</g>
					<g>
						<defs>
							<circle id="SVGID_181_" cx="286.2" cy="301.9" r="3"/>
						</defs>
						<clipPath id="SVGID_182_">
							<use xlink:href="#SVGID_181_"  style="overflow:visible;"/>
						</clipPath>
						<path class="st103" d="M286.7,301.9c0,0.2-0.2,0.4-0.4,0.4c-0.2,0-0.4-0.2-0.4-0.4s0.2-0.4,0.4-0.4S286.7,301.7,286.7,301.9z"
							/>
					</g>
					<g>
						<defs>
							<circle id="SVGID_183_" cx="286.2" cy="301.9" r="3"/>
						</defs>
						<clipPath id="SVGID_184_">
							<use xlink:href="#SVGID_183_"  style="overflow:visible;"/>
						</clipPath>
						<path class="st104" d="M286.6,301.9c0,0.2-0.2,0.4-0.4,0.4c-0.2,0-0.4-0.2-0.4-0.4c0-0.2,0.2-0.4,0.4-0.4
							S286.6,301.7,286.6,301.9z"/>
					</g>
					<g>
						<defs>
							<circle id="SVGID_185_" cx="286.2" cy="301.9" r="3"/>
						</defs>
						<clipPath id="SVGID_186_">
							<use xlink:href="#SVGID_185_"  style="overflow:visible;"/>
						</clipPath>
						<path class="st105" d="M286.5,301.9c0,0.2-0.1,0.3-0.3,0.3c-0.2,0-0.3-0.1-0.3-0.3s0.1-0.3,0.3-0.3S286.5,301.7,286.5,301.9z"
							/>
					</g>
					<g>
						<defs>
							<circle id="SVGID_187_" cx="286.2" cy="301.9" r="3"/>
						</defs>
						<clipPath id="SVGID_188_">
							<use xlink:href="#SVGID_187_"  style="overflow:visible;"/>
						</clipPath>
						<path class="st106" d="M286.5,301.9c0,0.1-0.1,0.2-0.2,0.2s-0.2-0.1-0.2-0.2s0.1-0.2,0.2-0.2
							C286.4,301.6,286.5,301.8,286.5,301.9z"/>
					</g>
					<g>
						<defs>
							<circle id="SVGID_189_" cx="286.2" cy="301.9" r="3"/>
						</defs>
						<clipPath id="SVGID_190_">
							<use xlink:href="#SVGID_189_"  style="overflow:visible;"/>
						</clipPath>
						<path class="st107" d="M286.4,301.9c0,0.1-0.1,0.2-0.2,0.2s-0.2-0.1-0.2-0.2s0.1-0.2,0.2-0.2
							C286.3,301.7,286.4,301.8,286.4,301.9z"/>
					</g>
					<g>
						<defs>
							<circle id="SVGID_191_" cx="286.2" cy="301.9" r="3"/>
						</defs>
						<clipPath id="SVGID_192_">
							<use xlink:href="#SVGID_191_"  style="overflow:visible;"/>
						</clipPath>
						<path class="st108" d="M286.4,301.9c0,0.1-0.1,0.1-0.1,0.1c-0.1,0-0.1-0.1-0.1-0.1c0-0.1,0.1-0.1,0.1-0.1
							S286.4,301.8,286.4,301.9z"/>
					</g>
					<g>
						<defs>
							<circle id="SVGID_193_" cx="286.2" cy="301.9" r="3"/>
						</defs>
						<clipPath id="SVGID_194_">
							<use xlink:href="#SVGID_193_"  style="overflow:visible;"/>
						</clipPath>
						<path class="st109" d="M286.3,301.9C286.3,301.9,286.3,302,286.3,301.9c-0.1,0.1-0.1,0-0.1,0S286.2,301.8,286.3,301.9
							C286.3,301.8,286.3,301.9,286.3,301.9z"/>
					</g>
				</g>
			</g>
		</g>
		<g id="Layer_6">
			<g>
				<g>
					<g>
						<path id="SVGID_7_" class="st59" d="M291.7,312c0-3-2.4-5.4-5.4-5.4s-5.4,2.4-5.4,5.4H291.7z"/>
					</g>
					<g>
						<defs>
							<path id="SVGID_195_" d="M291.7,312c0-3-2.4-5.4-5.4-5.4s-5.4,2.4-5.4,5.4H291.7z"/>
						</defs>
						<clipPath id="SVGID_196_">
							<use xlink:href="#SVGID_195_"  style="overflow:visible;"/>
						</clipPath>
						<rect x="280.9" y="306.7" class="st110" width="10.8" height="5.4"/>
					</g>
					<g>
						<defs>
							<path id="SVGID_197_" d="M291.7,312c0-3-2.4-5.4-5.4-5.4s-5.4,2.4-5.4,5.4H291.7z"/>
						</defs>
						<clipPath id="SVGID_198_">
							<use xlink:href="#SVGID_197_"  style="overflow:visible;"/>
						</clipPath>
						<path class="st111" d="M290.6,309.3c0,2.4-1.9,4.3-4.3,4.3s-4.3-1.9-4.3-4.3s1.9-4.3,4.3-4.3
							C288.7,305.1,290.6,307,290.6,309.3z"/>
					</g>
					<g>
						<defs>
							<path id="SVGID_199_" d="M291.7,312c0-3-2.4-5.4-5.4-5.4s-5.4,2.4-5.4,5.4H291.7z"/>
						</defs>
						<clipPath id="SVGID_200_">
							<use xlink:href="#SVGID_199_"  style="overflow:visible;"/>
						</clipPath>
						<path class="st112" d="M290.5,309.3c0,2.3-1.9,4.2-4.2,4.2c-2.3,0-4.2-1.9-4.2-4.2c0-2.3,1.9-4.2,4.2-4.2
							C288.6,305.2,290.5,307,290.5,309.3z"/>
					</g>
					<g>
						<defs>
							<path id="SVGID_201_" d="M291.7,312c0-3-2.4-5.4-5.4-5.4s-5.4,2.4-5.4,5.4H291.7z"/>
						</defs>
						<clipPath id="SVGID_202_">
							<use xlink:href="#SVGID_201_"  style="overflow:visible;"/>
						</clipPath>
						<path class="st113" d="M290.4,309.3c0,2.3-1.8,4.1-4.1,4.1c-2.3,0-4.1-1.8-4.1-4.1c0-2.3,1.8-4.1,4.1-4.1
							C288.6,305.3,290.4,307.1,290.4,309.3z"/>
					</g>
					<g>
						<defs>
							<path id="SVGID_203_" d="M291.7,312c0-3-2.4-5.4-5.4-5.4s-5.4,2.4-5.4,5.4H291.7z"/>
						</defs>
						<clipPath id="SVGID_204_">
							<use xlink:href="#SVGID_203_"  style="overflow:visible;"/>
						</clipPath>
						<path class="st114" d="M290.3,309.3c0,2.2-1.8,4-4,4s-4-1.8-4-4s1.8-4,4-4S290.3,307.1,290.3,309.3z"/>
					</g>
					<g>
						<defs>
							<path id="SVGID_205_" d="M291.7,312c0-3-2.4-5.4-5.4-5.4s-5.4,2.4-5.4,5.4H291.7z"/>
						</defs>
						<clipPath id="SVGID_206_">
							<use xlink:href="#SVGID_205_"  style="overflow:visible;"/>
						</clipPath>
						<path class="st115" d="M290.2,309.3c0,2.2-1.8,3.9-3.9,3.9c-2.2,0-3.9-1.8-3.9-3.9c0-2.2,1.8-3.9,3.9-3.9
							C288.5,305.4,290.2,307.2,290.2,309.3z"/>
					</g>
					<g>
						<defs>
							<path id="SVGID_207_" d="M291.7,312c0-3-2.4-5.4-5.4-5.4s-5.4,2.4-5.4,5.4H291.7z"/>
						</defs>
						<clipPath id="SVGID_208_">
							<use xlink:href="#SVGID_207_"  style="overflow:visible;"/>
						</clipPath>
						<path class="st116" d="M290.2,309.3c0,2.1-1.7,3.8-3.8,3.8c-2.1,0-3.8-1.7-3.8-3.8c0-2.1,1.7-3.8,3.8-3.8
							C288.4,305.5,290.2,307.2,290.2,309.3z"/>
					</g>
					<g>
						<defs>
							<path id="SVGID_209_" d="M291.7,312c0-3-2.4-5.4-5.4-5.4s-5.4,2.4-5.4,5.4H291.7z"/>
						</defs>
						<clipPath id="SVGID_210_">
							<use xlink:href="#SVGID_209_"  style="overflow:visible;"/>
						</clipPath>
						<path class="st117" d="M290.1,309.3c0,2.1-1.7,3.7-3.7,3.7c-2.1,0-3.7-1.7-3.7-3.7c0-2.1,1.7-3.7,3.7-3.7
							C288.4,305.6,290.1,307.3,290.1,309.3z"/>
					</g>
					<g>
						<defs>
							<path id="SVGID_211_" d="M291.7,312c0-3-2.4-5.4-5.4-5.4s-5.4,2.4-5.4,5.4H291.7z"/>
						</defs>
						<clipPath id="SVGID_212_">
							<use xlink:href="#SVGID_211_"  style="overflow:visible;"/>
						</clipPath>
						<path class="st118" d="M290,309.3c0,2-1.6,3.7-3.7,3.7c-2,0-3.7-1.6-3.7-3.7c0-2,1.6-3.7,3.7-3.7
							C288.3,305.7,290,307.3,290,309.3z"/>
					</g>
					<g>
						<defs>
							<path id="SVGID_213_" d="M291.7,312c0-3-2.4-5.4-5.4-5.4s-5.4,2.4-5.4,5.4H291.7z"/>
						</defs>
						<clipPath id="SVGID_214_">
							<use xlink:href="#SVGID_213_"  style="overflow:visible;"/>
						</clipPath>
						<path class="st119" d="M289.9,309.3c0,2-1.6,3.6-3.6,3.6s-3.6-1.6-3.6-3.6s1.6-3.6,3.6-3.6
							C288.3,305.8,289.9,307.4,289.9,309.3z"/>
					</g>
					<g>
						<defs>
							<path id="SVGID_215_" d="M291.7,312c0-3-2.4-5.4-5.4-5.4s-5.4,2.4-5.4,5.4H291.7z"/>
						</defs>
						<clipPath id="SVGID_216_">
							<use xlink:href="#SVGID_215_"  style="overflow:visible;"/>
						</clipPath>
						<path class="st120" d="M289.8,309.3c0,1.9-1.6,3.5-3.5,3.5s-3.5-1.6-3.5-3.5s1.6-3.5,3.5-3.5
							C288.3,305.9,289.8,307.4,289.8,309.3z"/>
					</g>
					<g>
						<defs>
							<path id="SVGID_217_" d="M291.7,312c0-3-2.4-5.4-5.4-5.4s-5.4,2.4-5.4,5.4H291.7z"/>
						</defs>
						<clipPath id="SVGID_218_">
							<use xlink:href="#SVGID_217_"  style="overflow:visible;"/>
						</clipPath>
						<path class="st121" d="M289.7,309.3c0,1.9-1.5,3.4-3.4,3.4s-3.4-1.5-3.4-3.4s1.5-3.4,3.4-3.4
							C288.2,306,289.7,307.5,289.7,309.3z"/>
					</g>
					<g>
						<defs>
							<path id="SVGID_219_" d="M291.7,312c0-3-2.4-5.4-5.4-5.4s-5.4,2.4-5.4,5.4H291.7z"/>
						</defs>
						<clipPath id="SVGID_220_">
							<use xlink:href="#SVGID_219_"  style="overflow:visible;"/>
						</clipPath>
						<path class="st122" d="M289.6,309.3c0,1.8-1.5,3.3-3.3,3.3s-3.3-1.5-3.3-3.3s1.5-3.3,3.3-3.3
							C288.2,306,289.6,307.5,289.6,309.3z"/>
					</g>
					<g>
						<defs>
							<path id="SVGID_221_" d="M291.7,312c0-3-2.4-5.4-5.4-5.4s-5.4,2.4-5.4,5.4H291.7z"/>
						</defs>
						<clipPath id="SVGID_222_">
							<use xlink:href="#SVGID_221_"  style="overflow:visible;"/>
						</clipPath>
						<path class="st123" d="M289.5,309.3c0,1.8-1.4,3.2-3.2,3.2c-1.8,0-3.2-1.4-3.2-3.2c0-1.8,1.4-3.2,3.2-3.2
							C288.1,306.1,289.5,307.6,289.5,309.3z"/>
					</g>
					<g>
						<defs>
							<path id="SVGID_223_" d="M291.7,312c0-3-2.4-5.4-5.4-5.4s-5.4,2.4-5.4,5.4H291.7z"/>
						</defs>
						<clipPath id="SVGID_224_">
							<use xlink:href="#SVGID_223_"  style="overflow:visible;"/>
						</clipPath>
						<path class="st124" d="M289.5,309.3c0,1.7-1.4,3.1-3.1,3.1s-3.1-1.4-3.1-3.1s1.4-3.1,3.1-3.1
							C288.1,306.2,289.5,307.6,289.5,309.3z"/>
					</g>
					<g>
						<defs>
							<path id="SVGID_225_" d="M291.7,312c0-3-2.4-5.4-5.4-5.4s-5.4,2.4-5.4,5.4H291.7z"/>
						</defs>
						<clipPath id="SVGID_226_">
							<use xlink:href="#SVGID_225_"  style="overflow:visible;"/>
						</clipPath>
						<path class="st125" d="M289.4,309.3c0,1.7-1.4,3-3,3c-1.7,0-3-1.4-3-3c0-1.7,1.4-3,3-3S289.4,307.7,289.4,309.3z"/>
					</g>
					<g>
						<defs>
							<path id="SVGID_227_" d="M291.7,312c0-3-2.4-5.4-5.4-5.4s-5.4,2.4-5.4,5.4H291.7z"/>
						</defs>
						<clipPath id="SVGID_228_">
							<use xlink:href="#SVGID_227_"  style="overflow:visible;"/>
						</clipPath>
						<path class="st126" d="M289.3,309.3c0,1.6-1.3,3-3,3c-1.6,0-3-1.3-3-3c0-1.6,1.3-3,3-3C288,306.4,289.3,307.7,289.3,309.3z"/>
					</g>
					<g>
						<defs>
							<path id="SVGID_229_" d="M291.7,312c0-3-2.4-5.4-5.4-5.4s-5.4,2.4-5.4,5.4H291.7z"/>
						</defs>
						<clipPath id="SVGID_230_">
							<use xlink:href="#SVGID_229_"  style="overflow:visible;"/>
						</clipPath>
						<path class="st127" d="M289.2,309.3c0,1.6-1.3,2.9-2.9,2.9s-2.9-1.3-2.9-2.9s1.3-2.9,2.9-2.9
							C287.9,306.5,289.2,307.8,289.2,309.3z"/>
					</g>
					<g>
						<defs>
							<path id="SVGID_231_" d="M291.7,312c0-3-2.4-5.4-5.4-5.4s-5.4,2.4-5.4,5.4H291.7z"/>
						</defs>
						<clipPath id="SVGID_232_">
							<use xlink:href="#SVGID_231_"  style="overflow:visible;"/>
						</clipPath>
						<path class="st128" d="M289.1,309.3c0,1.5-1.2,2.8-2.8,2.8c-1.5,0-2.8-1.2-2.8-2.8c0-1.5,1.2-2.8,2.8-2.8
							C287.9,306.6,289.1,307.8,289.1,309.3z"/>
					</g>
					<g>
						<defs>
							<path id="SVGID_233_" d="M291.7,312c0-3-2.4-5.4-5.4-5.4s-5.4,2.4-5.4,5.4H291.7z"/>
						</defs>
						<clipPath id="SVGID_234_">
							<use xlink:href="#SVGID_233_"  style="overflow:visible;"/>
						</clipPath>
						<path class="st129" d="M289,309.3c0,1.5-1.2,2.7-2.7,2.7s-2.7-1.2-2.7-2.7s1.2-2.7,2.7-2.7C287.8,306.6,289,307.9,289,309.3z"
							/>
					</g>
					<g>
						<defs>
							<path id="SVGID_235_" d="M291.7,312c0-3-2.4-5.4-5.4-5.4s-5.4,2.4-5.4,5.4H291.7z"/>
						</defs>
						<clipPath id="SVGID_236_">
							<use xlink:href="#SVGID_235_"  style="overflow:visible;"/>
						</clipPath>
						<path class="st130" d="M288.9,309.3c0,1.4-1.2,2.6-2.6,2.6s-2.6-1.2-2.6-2.6s1.2-2.6,2.6-2.6
							C287.8,306.7,288.9,307.9,288.9,309.3z"/>
					</g>
					<g>
						<defs>
							<path id="SVGID_237_" d="M291.7,312c0-3-2.4-5.4-5.4-5.4s-5.4,2.4-5.4,5.4H291.7z"/>
						</defs>
						<clipPath id="SVGID_238_">
							<use xlink:href="#SVGID_237_"  style="overflow:visible;"/>
						</clipPath>
						<path class="st131" d="M288.9,309.3c0,1.4-1.1,2.5-2.5,2.5s-2.5-1.1-2.5-2.5s1.1-2.5,2.5-2.5
							C287.7,306.8,288.9,308,288.9,309.3z"/>
					</g>
					<g>
						<defs>
							<path id="SVGID_239_" d="M291.7,312c0-3-2.4-5.4-5.4-5.4s-5.4,2.4-5.4,5.4H291.7z"/>
						</defs>
						<clipPath id="SVGID_240_">
							<use xlink:href="#SVGID_239_"  style="overflow:visible;"/>
						</clipPath>
						<path class="st132" d="M288.8,309.3c0,1.3-1.1,2.4-2.4,2.4s-2.4-1.1-2.4-2.4s1.1-2.4,2.4-2.4
							C287.7,306.9,288.8,308,288.8,309.3z"/>
					</g>
					<g>
						<defs>
							<path id="SVGID_241_" d="M291.7,312c0-3-2.4-5.4-5.4-5.4s-5.4,2.4-5.4,5.4H291.7z"/>
						</defs>
						<clipPath id="SVGID_242_">
							<use xlink:href="#SVGID_241_"  style="overflow:visible;"/>
						</clipPath>
						<path class="st133" d="M288.7,309.3c0,1.3-1.1,2.4-2.4,2.4s-2.4-1.1-2.4-2.4s1.1-2.4,2.4-2.4C287.6,307,288.7,308,288.7,309.3
							z"/>
					</g>
					<g>
						<defs>
							<path id="SVGID_243_" d="M291.7,312c0-3-2.4-5.4-5.4-5.4s-5.4,2.4-5.4,5.4H291.7z"/>
						</defs>
						<clipPath id="SVGID_244_">
							<use xlink:href="#SVGID_243_"  style="overflow:visible;"/>
						</clipPath>
						<path class="st134" d="M288.6,309.3c0,1.3-1,2.3-2.3,2.3s-2.3-1-2.3-2.3s1-2.3,2.3-2.3C287.6,307.1,288.6,308.1,288.6,309.3z"
							/>
					</g>
					<g>
						<defs>
							<path id="SVGID_245_" d="M291.7,312c0-3-2.4-5.4-5.4-5.4s-5.4,2.4-5.4,5.4H291.7z"/>
						</defs>
						<clipPath id="SVGID_246_">
							<use xlink:href="#SVGID_245_"  style="overflow:visible;"/>
						</clipPath>
						<path class="st135" d="M288.5,309.3c0,1.2-1,2.2-2.2,2.2s-2.2-1-2.2-2.2s1-2.2,2.2-2.2C287.5,307.2,288.5,308.1,288.5,309.3z"
							/>
					</g>
					<g>
						<defs>
							<path id="SVGID_247_" d="M291.7,312c0-3-2.4-5.4-5.4-5.4s-5.4,2.4-5.4,5.4H291.7z"/>
						</defs>
						<clipPath id="SVGID_248_">
							<use xlink:href="#SVGID_247_"  style="overflow:visible;"/>
						</clipPath>
						<path class="st136" d="M288.4,309.3c0,1.2-0.9,2.1-2.1,2.1s-2.1-0.9-2.1-2.1s0.9-2.1,2.1-2.1
							C287.5,307.3,288.4,308.2,288.4,309.3z"/>
					</g>
					<g>
						<defs>
							<path id="SVGID_249_" d="M291.7,312c0-3-2.4-5.4-5.4-5.4s-5.4,2.4-5.4,5.4H291.7z"/>
						</defs>
						<clipPath id="SVGID_250_">
							<use xlink:href="#SVGID_249_"  style="overflow:visible;"/>
						</clipPath>
						<path class="st137" d="M288.3,309.3c0,1.1-0.9,2-2,2s-2-0.9-2-2s0.9-2,2-2S288.3,308.2,288.3,309.3z"/>
					</g>
					<g>
						<defs>
							<path id="SVGID_251_" d="M291.7,312c0-3-2.4-5.4-5.4-5.4s-5.4,2.4-5.4,5.4H291.7z"/>
						</defs>
						<clipPath id="SVGID_252_">
							<use xlink:href="#SVGID_251_"  style="overflow:visible;"/>
						</clipPath>
						<path class="st138" d="M288.2,309.3c0,1.1-0.9,1.9-1.9,1.9c-1.1,0-1.9-0.9-1.9-1.9c0-1.1,0.9-1.9,1.9-1.9
							C287.4,307.4,288.2,308.3,288.2,309.3z"/>
					</g>
					<g>
						<defs>
							<path id="SVGID_253_" d="M291.7,312c0-3-2.4-5.4-5.4-5.4s-5.4,2.4-5.4,5.4H291.7z"/>
						</defs>
						<clipPath id="SVGID_254_">
							<use xlink:href="#SVGID_253_"  style="overflow:visible;"/>
						</clipPath>
						<path class="st139" d="M288.2,309.3c0,1-0.8,1.8-1.8,1.8s-1.8-0.8-1.8-1.8s0.8-1.8,1.8-1.8
							C287.3,307.5,288.2,308.3,288.2,309.3z"/>
					</g>
					<g>
						<defs>
							<path id="SVGID_255_" d="M291.7,312c0-3-2.4-5.4-5.4-5.4s-5.4,2.4-5.4,5.4H291.7z"/>
						</defs>
						<clipPath id="SVGID_256_">
							<use xlink:href="#SVGID_255_"  style="overflow:visible;"/>
						</clipPath>
						<path class="st140" d="M288.1,309.3c0,1-0.8,1.7-1.7,1.7c-1,0-1.7-0.8-1.7-1.7c0-1,0.8-1.7,1.7-1.7
							C287.3,307.6,288.1,308.4,288.1,309.3z"/>
					</g>
					<g>
						<defs>
							<path id="SVGID_257_" d="M291.7,312c0-3-2.4-5.4-5.4-5.4s-5.4,2.4-5.4,5.4H291.7z"/>
						</defs>
						<clipPath id="SVGID_258_">
							<use xlink:href="#SVGID_257_"  style="overflow:visible;"/>
						</clipPath>
						<path class="st141" d="M288,309.3c0,0.9-0.7,1.7-1.7,1.7c-0.9,0-1.7-0.7-1.7-1.7c0-0.9,0.7-1.7,1.7-1.7
							C287.2,307.7,288,308.4,288,309.3z"/>
					</g>
					<g>
						<defs>
							<path id="SVGID_259_" d="M291.7,312c0-3-2.4-5.4-5.4-5.4s-5.4,2.4-5.4,5.4H291.7z"/>
						</defs>
						<clipPath id="SVGID_260_">
							<use xlink:href="#SVGID_259_"  style="overflow:visible;"/>
						</clipPath>
						<path class="st142" d="M287.9,309.3c0,0.9-0.7,1.6-1.6,1.6s-1.6-0.7-1.6-1.6s0.7-1.6,1.6-1.6
							C287.2,307.8,287.9,308.5,287.9,309.3z"/>
					</g>
					<g>
						<defs>
							<path id="SVGID_261_" d="M291.7,312c0-3-2.4-5.4-5.4-5.4s-5.4,2.4-5.4,5.4H291.7z"/>
						</defs>
						<clipPath id="SVGID_262_">
							<use xlink:href="#SVGID_261_"  style="overflow:visible;"/>
						</clipPath>
						<path class="st143" d="M287.8,309.3c0,0.8-0.7,1.5-1.5,1.5s-1.5-0.7-1.5-1.5s0.7-1.5,1.5-1.5
							C287.1,307.9,287.8,308.5,287.8,309.3z"/>
					</g>
					<g>
						<defs>
							<path id="SVGID_263_" d="M291.7,312c0-3-2.4-5.4-5.4-5.4s-5.4,2.4-5.4,5.4H291.7z"/>
						</defs>
						<clipPath id="SVGID_264_">
							<use xlink:href="#SVGID_263_"  style="overflow:visible;"/>
						</clipPath>
						<path class="st144" d="M287.7,309.3c0,0.8-0.6,1.4-1.4,1.4s-1.4-0.6-1.4-1.4s0.6-1.4,1.4-1.4
							C287.1,308,287.7,308.6,287.7,309.3z"/>
					</g>
					<g>
						<defs>
							<path id="SVGID_265_" d="M291.7,312c0-3-2.4-5.4-5.4-5.4s-5.4,2.4-5.4,5.4H291.7z"/>
						</defs>
						<clipPath id="SVGID_266_">
							<use xlink:href="#SVGID_265_"  style="overflow:visible;"/>
						</clipPath>
						<path class="st145" d="M287.6,309.3c0,0.7-0.6,1.3-1.3,1.3c-0.7,0-1.3-0.6-1.3-1.3c0-0.7,0.6-1.3,1.3-1.3
							C287.1,308,287.6,308.6,287.6,309.3z"/>
					</g>
					<g>
						<defs>
							<path id="SVGID_267_" d="M291.7,312c0-3-2.4-5.4-5.4-5.4s-5.4,2.4-5.4,5.4H291.7z"/>
						</defs>
						<clipPath id="SVGID_268_">
							<use xlink:href="#SVGID_267_"  style="overflow:visible;"/>
						</clipPath>
						<path class="st146" d="M287.6,309.3c0,0.7-0.5,1.2-1.2,1.2s-1.2-0.5-1.2-1.2s0.5-1.2,1.2-1.2
							C287,308.1,287.6,308.7,287.6,309.3z"/>
					</g>
					<g>
						<defs>
							<path id="SVGID_269_" d="M291.7,312c0-3-2.4-5.4-5.4-5.4s-5.4,2.4-5.4,5.4H291.7z"/>
						</defs>
						<clipPath id="SVGID_270_">
							<use xlink:href="#SVGID_269_"  style="overflow:visible;"/>
						</clipPath>
						<path class="st147" d="M287.5,309.3c0,0.6-0.5,1.1-1.1,1.1s-1.1-0.5-1.1-1.1s0.5-1.1,1.1-1.1
							C287,308.2,287.5,308.7,287.5,309.3z"/>
					</g>
					<g>
						<defs>
							<path id="SVGID_271_" d="M291.7,312c0-3-2.4-5.4-5.4-5.4s-5.4,2.4-5.4,5.4H291.7z"/>
						</defs>
						<clipPath id="SVGID_272_">
							<use xlink:href="#SVGID_271_"  style="overflow:visible;"/>
						</clipPath>
						<path class="st148" d="M287.4,309.3c0,0.6-0.5,1-1,1c-0.6,0-1-0.5-1-1c0-0.6,0.5-1,1-1S287.4,308.8,287.4,309.3z"/>
					</g>
					<g>
						<defs>
							<path id="SVGID_273_" d="M291.7,312c0-3-2.4-5.4-5.4-5.4s-5.4,2.4-5.4,5.4H291.7z"/>
						</defs>
						<clipPath id="SVGID_274_">
							<use xlink:href="#SVGID_273_"  style="overflow:visible;"/>
						</clipPath>
						<path class="st149" d="M287.3,309.3c0,0.5-0.4,1-1,1c-0.5,0-1-0.4-1-1c0-0.5,0.4-1,1-1C286.9,308.4,287.3,308.8,287.3,309.3z"
							/>
					</g>
					<g>
						<defs>
							<path id="SVGID_275_" d="M291.7,312c0-3-2.4-5.4-5.4-5.4s-5.4,2.4-5.4,5.4H291.7z"/>
						</defs>
						<clipPath id="SVGID_276_">
							<use xlink:href="#SVGID_275_"  style="overflow:visible;"/>
						</clipPath>
						<path class="st150" d="M287.2,309.3c0,0.5-0.4,0.9-0.9,0.9s-0.9-0.4-0.9-0.9s0.4-0.9,0.9-0.9
							C286.8,308.5,287.2,308.9,287.2,309.3z"/>
					</g>
					<g>
						<defs>
							<path id="SVGID_277_" d="M291.7,312c0-3-2.4-5.4-5.4-5.4s-5.4,2.4-5.4,5.4H291.7z"/>
						</defs>
						<clipPath id="SVGID_278_">
							<use xlink:href="#SVGID_277_"  style="overflow:visible;"/>
						</clipPath>
						<path class="st151" d="M287.1,309.3c0,0.4-0.4,0.8-0.8,0.8s-0.8-0.4-0.8-0.8s0.4-0.8,0.8-0.8S287.1,308.9,287.1,309.3z"/>
					</g>
					<g>
						<defs>
							<path id="SVGID_279_" d="M291.7,312c0-3-2.4-5.4-5.4-5.4s-5.4,2.4-5.4,5.4H291.7z"/>
						</defs>
						<clipPath id="SVGID_280_">
							<use xlink:href="#SVGID_279_"  style="overflow:visible;"/>
						</clipPath>
						<path class="st152" d="M287,309.3c0,0.4-0.3,0.7-0.7,0.7c-0.4,0-0.7-0.3-0.7-0.7c0-0.4,0.3-0.7,0.7-0.7
							C286.7,308.6,287,309,287,309.3z"/>
					</g>
					<g>
						<defs>
							<path id="SVGID_281_" d="M291.7,312c0-3-2.4-5.4-5.4-5.4s-5.4,2.4-5.4,5.4H291.7z"/>
						</defs>
						<clipPath id="SVGID_282_">
							<use xlink:href="#SVGID_281_"  style="overflow:visible;"/>
						</clipPath>
						<path class="st153" d="M286.9,309.3c0,0.3-0.3,0.6-0.6,0.6c-0.3,0-0.6-0.3-0.6-0.6c0-0.3,0.3-0.6,0.6-0.6
							C286.7,308.7,286.9,309,286.9,309.3z"/>
					</g>
					<g>
						<defs>
							<path id="SVGID_283_" d="M291.7,312c0-3-2.4-5.4-5.4-5.4s-5.4,2.4-5.4,5.4H291.7z"/>
						</defs>
						<clipPath id="SVGID_284_">
							<use xlink:href="#SVGID_283_"  style="overflow:visible;"/>
						</clipPath>
						<path class="st154" d="M286.9,309.3c0,0.3-0.2,0.5-0.5,0.5s-0.5-0.2-0.5-0.5s0.2-0.5,0.5-0.5
							C286.6,308.8,286.9,309.1,286.9,309.3z"/>
					</g>
					<g>
						<defs>
							<path id="SVGID_285_" d="M291.7,312c0-3-2.4-5.4-5.4-5.4s-5.4,2.4-5.4,5.4H291.7z"/>
						</defs>
						<clipPath id="SVGID_286_">
							<use xlink:href="#SVGID_285_"  style="overflow:visible;"/>
						</clipPath>
						<path class="st155" d="M286.8,309.3c0,0.2-0.2,0.4-0.4,0.4c-0.2,0-0.4-0.2-0.4-0.4c0-0.2,0.2-0.4,0.4-0.4
							C286.6,308.9,286.8,309.1,286.8,309.3z"/>
					</g>
					<g>
						<defs>
							<path id="SVGID_287_" d="M291.7,312c0-3-2.4-5.4-5.4-5.4s-5.4,2.4-5.4,5.4H291.7z"/>
						</defs>
						<clipPath id="SVGID_288_">
							<use xlink:href="#SVGID_287_"  style="overflow:visible;"/>
						</clipPath>
						<path class="st156" d="M286.7,309.3c0,0.2-0.2,0.4-0.4,0.4c-0.2,0-0.4-0.2-0.4-0.4c0-0.2,0.2-0.4,0.4-0.4
							C286.5,309,286.7,309.2,286.7,309.3z"/>
					</g>
					<g>
						<defs>
							<path id="SVGID_289_" d="M291.7,312c0-3-2.4-5.4-5.4-5.4s-5.4,2.4-5.4,5.4H291.7z"/>
						</defs>
						<clipPath id="SVGID_290_">
							<use xlink:href="#SVGID_289_"  style="overflow:visible;"/>
						</clipPath>
						<path class="st157" d="M286.6,309.3c0,0.1-0.1,0.3-0.3,0.3c-0.1,0-0.3-0.1-0.3-0.3c0-0.1,0.1-0.3,0.3-0.3
							C286.5,309.1,286.6,309.2,286.6,309.3z"/>
					</g>
					<g>
						<defs>
							<path id="SVGID_291_" d="M291.7,312c0-3-2.4-5.4-5.4-5.4s-5.4,2.4-5.4,5.4H291.7z"/>
						</defs>
						<clipPath id="SVGID_292_">
							<use xlink:href="#SVGID_291_"  style="overflow:visible;"/>
						</clipPath>
						<path class="st158" d="M286.5,309.3c0,0.1-0.1,0.2-0.2,0.2s-0.2-0.1-0.2-0.2s0.1-0.2,0.2-0.2
							C286.4,309.2,286.5,309.2,286.5,309.3z"/>
					</g>
					<g>
						<defs>
							<path id="SVGID_293_" d="M291.7,312c0-3-2.4-5.4-5.4-5.4s-5.4,2.4-5.4,5.4H291.7z"/>
						</defs>
						<clipPath id="SVGID_294_">
							<use xlink:href="#SVGID_293_"  style="overflow:visible;"/>
						</clipPath>
						<path class="st159" d="M286.4,309.3C286.4,309.4,286.4,309.4,286.4,309.3c-0.1,0.1-0.2,0.1-0.2,0
							C286.2,309.3,286.3,309.3,286.4,309.3L286.4,309.3z"/>
					</g>
				</g>
			</g>
		</g>
	</g>
</g>
<g id="Layer_67">
</g>
</svg>
