<?xml version="1.0" encoding="utf-8"?>
<!-- Generator: Adobe Illustrator 24.3.0, SVG Export Plug-In . SVG Version: 6.00 Build 0)  -->
<svg version="1.1" xmlns="http://www.w3.org/2000/svg" xmlns:xlink="http://www.w3.org/1999/xlink" x="0px" y="0px"
	 viewBox="0 0 500 500" style="enable-background:new 0 0 500 500;" xml:space="preserve">
<style type="text/css">
	.st0{fill:#8AC8C4;}
	.st1{fill:#E6E5DA;stroke:#294C9B;stroke-width:1.2269;stroke-miterlimit:10;stroke-dasharray:2.4537,2.4537;}
	.st2{fill:#DD7362;}
	.st3{fill:#6194CE;}
	.st4{fill:#E6E5DA;}
	.st5{fill:#8B7560;}
	.st6{fill:#D2976B;}
	.st7{fill:#597099;}
	.st8{fill:#D9C397;}
	.st9{fill:#3A4863;}
	.st10{fill:#314057;}
</style>
<g id="OBJECTS">
	<path class="st0" d="M499.9,500H122.3C55.1,500,0.1,445,0.1,377.8V0H500v500H499.9z"/>
	<g>
		<path id="Path_34" class="st1" d="M254,163c-1.5,0-3,0-4.5-0.1c-2.1,0.1-4.2,0.1-6.3-0.1c-2.1-0.1-4.3,0.1-6.4-0.1
			c-0.8-0.1-1.6-0.1-2.4-0.1c-1.4,0-2.7,0-4.1-0.1c-0.6-0.1-1.2-0.1-1.8-0.1c-1.1,0-2.1,0-3.2-0.1c-0.6-0.1-1.2-0.1-1.7-0.1
			c-0.8,0-1.7,0-2.5-0.1c-0.5-0.1-1-0.1-1.5-0.1c-0.8,0-1.5,0-2.3-0.1c-0.4-0.1-0.9-0.1-1.3-0.1c-0.7,0-1.4,0-2.1-0.1
			c-0.4-0.1-0.9-0.1-1.3-0.1c-2.1,0-4.2-0.3-6.3-0.4c-6-0.4-11.9-1-17.8-1.7c-10-1.1-20-2.5-30-4.1c-22.1-3.5-44-8.2-65.7-13.4
			c-5.7-1.4-11.3-3.3-17.2-3.9c-0.8,0.1-0.6,0.6-0.5,1.1c0.2,0.8,0.4,1.6,0.5,2.4c0,0.6,0,1.1,0,1.7c0,0.5,0,1.1-0.1,1.6
			c-0.1,0.4-0.1,0.8-0.1,1.2c-0.1,0.2,0.1,0.5-0.1,0.8c-0.2-0.7,0-1.4,0.1-2.1c0.1-0.4,0-0.8-0.4-1.1c-0.4-0.2-0.8-0.2-1.2,0.1
			c-0.2,0.1-0.4,0.3-0.6,0.6c-0.5,1-1.3,1.1-2.3,0.8c-2.1-0.6-4-1.5-5.8-2.7c-1.2-0.9-2.6-1.7-3.9-2.4c-0.8-0.3-1.2-0.1-1.3,0.7
			c-0.1,0.5-0.1,1-0.2,1.4c0,0.5-0.1,1-0.1,1.4c0,1.6,0,3.2,0,4.8c0,0.4,0,0.9,0.1,1.3c0.1,1.8,0.7,3.4,0.9,5.2
			c0,0.1-0.1,0.2-0.1,0.3c-1.1,0.8-1.4,1.6-0.8,2.6c0.5,0.9,0.3,1.4-0.3,2.1c-0.9,0.8-1.1,2.1-0.6,3.2c0.2,0.5,0.1,1.2-0.3,1.6
			c-0.5,0.7-0.8,1.4-1.1,2.2c-0.8,2.3-1.5,4.6-2.3,6.9c-2.4,6.8-5.3,13.4-9.5,19.3c-0.8,1.1-1.5,2.3-1.5,3.7
			c-0.1,0.4-0.1,0.8-0.1,1.2c-0.3,2.4-1.2,4.8-0.2,7.3c0,0.4,0,0.8,0.1,1.1c0,0.1,0,0.2,0,0.3c0,0.4,0,0.7,0,1.1
			c-0.4,3.1-1.9,5.7-3.5,8.3c-1.1,1.7-2.2,3.4-2.5,5.5v0.2c0.2,0.4,0.4,0.7,0.7,1c1.1,1.3,1.6,3.1,1.3,4.8c-0.3,2.4-1.3,4.7-1.5,7.1
			c0,0.5,0,1.1,0,1.6c0.2,1.5,1.1,2.7,1.9,3.9c1.2,1.8,2.1,3.6,2.1,5.8c0,1.3,0.4,2.6,1.3,3.7c0.6,0.6,0.7,1.5,0.4,2.3
			c-1,3.4-0.1,6.4,2.3,9c1,1.1,1.1,1.3,0,2.3c-0.9,0.8-1.3,2-1,3.2c0.1,0.6,0.2,1.3,0.4,1.9c0.9,2.5,2,4.8,3.5,7.1
			c1.2,2,2.4,4.1,2.8,6.5c0.1,0.5,0.1,0.9,0,1.4c-0.2,1.1-0.7,2.1-0.9,3.1c-0.5,2,0.3,3.3,2.3,3.4c2.9,0.2,5.1,1.5,7.1,3.5
			c1.9,1.9,3.6,4,6.1,5.3c0.4,0.2,0.7,0.7,0.6,1.1c-0.2,1.2,0.4,1.6,1.4,2c1,0.3,2,0.9,2.8,1.6c2.3,2,3,4.7,3.3,7.5
			c0,0.5,0,0.9,0.1,1.3s0.1,0.7,0.1,1.1c-0.1,1.7,0,1.9,1.6,2.4c3.3,1,6.8,1.3,10.2,1.7c2.4,0.3,4.8,0.5,7.3,0.9
			c0.5,0.1,1.1,0.1,0.9,0.8c-0.2,1,0.3,1.4,1.1,1.8c5.8,3.1,11.2,6.6,16.8,10.1c3.4,2.1,6.7,4.2,10.5,5.6c8.8,3.3,18,4.3,27.2,5.3
			c0.6,0.1,1.1-0.3,1.2-0.9l0,0c0.2-0.7,0.3-1.3,0.3-2c0.2-1.4,0.6-1.7,2-1.6c3.7,0.5,7.3,1.2,11,1.5c1.1,0,2.1,0.6,2.7,1.6
			c0.7,1.1,1.5,2.1,2.3,3.2c1.8,2.5,3.8,4.9,6.6,6.4c1.4,0.7,2.4,2,2.8,3.5c0.4,1.5,0.6,3,0.7,4.5c0.1,3.5,2.1,6.6,5.2,8.3
			c2.5,1.4,5.3,2.6,7.8,4.1c0.6,0.4,1.1,0.1,1.6-0.3c1.4-1.2,2.1-2.7,2.9-4.3c1.8-3.5,3.2-4.2,7-3.4c4.4,0.8,8.3,3.5,10.8,7.3
			c1.4,2.3,2.5,4.9,3,7.6c0.3,1.4,0.7,2.5,2,3.2c0.3,0.2,0.6,0.5,0.9,0.9c1.5,1.8,2.5,3.9,4.3,5.5c0.7,0.6,1,1.6,0.9,2.5
			c-0.2,2.7,0.6,5.4,2.3,7.4c1.9,2.2,4.3,3.9,7,5c3.2,1.3,6.4,2.3,9.8,2.9c1.7,0.4,2.1,0,1.8-1.7c-0.4-2.1-0.6-4.2-0.6-6.3
			c-0.2-1.7-0.2-3.4,0-5.2c0-0.8,0-1.5,0.1-2.3c0.1-0.4,0.1-0.8,0.1-1.3c-0.3-2.4,0.7-3.9,2.8-5c1.5-0.8,3-1.7,4.5-2.5"/>
		<path id="Path_35" class="st2" d="M254,380.5c1.2-0.7,2.4-1.4,3.6-2.1c5.1-2.9,10.1-6,14.2-10.2c0.8-0.7,1.7-1.3,2.7-1.7
			c2-0.7,4.1-1.1,6.3-1.2c5.2-0.1,10.4,1.1,15.5,1.5c0.5,0.1,1-0.1,1.4-0.4c0.3-0.2,0.4-0.7,0.2-1c-0.5-1.1-1.6-0.8-2.7-0.9
			c0.9-0.7,1.5-0.3,2.1,0c1.3,0.7,2.4,1.7,3.7,2.5c0.3,0.2,0.5,0.5,0.4,0.9c-0.2,1,0.4,1.5,1.2,1.9c0.7,0.3,1.3,0.7,2,1
			c1.5,0.6,3,0.7,4.2-0.8c0.2-0.3,0.6-0.6,1-0.8c0.6-0.2,0.9-0.2,0.9,0.6c-0.1,1.1,0.4,1.5,1.5,1c0.7-0.3,1.2-0.8,1.5-1.5
			c0.1-0.5,0.3-1,0.4-1.5c0.3-0.9,0.8-1.1,1.5-0.5c0.2,0.2,0.4,0.4,0.6,0.5c1.5,1.1,3.1,2.1,5.1,1.9c1-0.1,1.9-0.8,2-1.5
			c0.1-1-0.6-1.4-1.4-1.8c-0.9-0.4-1.9-0.6-2.9-0.9c-1.5-0.5-1.7-1.1-0.5-2.1c1-0.8,1.5-2.1,1.3-3.4c-0.1-0.6-0.3-1.2-1-1.4
			c-0.6-0.1-1.2,0.1-1.6,0.6c-0.2,0.3-0.4,0.7-0.9,0.8c-0.2-0.4,0.1-0.6,0.2-0.8c0.8-1.2,1.9-2,3.3-2.4s2.9-0.6,4.3-0.6
			c0.6,0,1.1,0,1.7-0.1c0.4-0.1,0.7-0.1,1.1-0.1c1.8,0.2,3.3,0,3.6-2.3c0.1-0.7,0.7-0.7,1.1-0.1c0.3,0.4,0.4,1,0.5,1.5
			c0.2,1.1,0.5,1.4,1.6,1.2c0.7-0.1,1.4-0.3,2.1-0.5c2.4-0.6,4.8-1,7.3-1.2c1-0.1,2-0.1,3,0c3.6,0.2,6.7,1.3,8.9,4.5
			c0.3,0.5,0.9,0.8,1.6,0.7c3.1-0.5,6-1.2,8-4c0.4-0.6,1.1-0.9,1.8-0.8c2.4,0.2,4.2,1.4,5.7,3.2c1.6,1.9,3.2,3.8,5.8,4.4
			c1.4,0.3,2,1.3,2.4,2.5c0.4,1.7,0.5,3.5,0.2,5.2c-0.1,0.6,0,1.2-0.1,1.7c0,0.3,0,0.6,0,0.9c0,0.5,0,1,0.1,1.5
			c0.1,1,0.4,1.9,0.9,2.7c0.7,0.9,1,1,1.9,0.3c-0.1,0.1-0.1,0.1-0.1,0.2c-1.1,1.2-1.2,1.7-0.1,3c1.9,2.4,3.6,5,5,7.7
			c0.7,1.4,0.9,1.5,2.4,1.2c0.5-0.2,1.1,0.1,1.3,0.6c0.4,0.9,0.8,1.8,1.2,2.8c0.2,0.9,1,1.5,2,1.5c1.5,0,2.9,0.8,3.7,2.2
			c0.8,1.3,1.5,2.7,2,4.1c0.1,0.6,0.8,1,1.4,0.9c0.1,0,0.3-0.1,0.4-0.1c1-0.4,2.1-0.9,3.1-1.2c0.6-0.3,1.3-0.2,1.9,0.2
			c-0.9,1.3-2.2,2.1-3.4,3.1c-0.7,0.5-1.5,1-1.6,2.3c2.1-1.6,4.1-3,5.3-5.2c0.1,0,0.2,0,0.3,0c1.4-1.2,1.8-2.8,2-4.5
			c0.1-0.5-0.3-0.8-0.9-0.8c-0.1,0-0.2,0.1-0.2,0.1l0,0c0.1-0.1,0.1-0.2,0.2-0.3c0.4-1.3,0.6-2.6,0.6-4c0.2-4.7-0.9-9.3-3.1-13.4
			c-1.4-2.9-3.1-5.7-4.8-8.5c-0.3-0.6-0.9-1.2-0.5-1.9c0.7-1.2,0.2-1.9-0.6-2.7c-2.3-2.3-4.3-4.8-6-7.6c-2.9-4.7-4.8-9.7-4.9-15.3
			c0-0.6,0-1.2,0-1.8c0.1-4,0.8-7.7,3.8-10.7c0.2-0.2,0.4-0.5,0.5-0.7c0.8-2.3,2.6-3.6,4.4-5.1c2.4-2.1,4.1-5,6.6-7
			c0.2-0.6,0.3-1.3,0.3-1.9c0.2-3.5,2.1-5.9,5.6-6.8c0.9-0.3,1.9-0.2,2.8-0.8c0.3-0.4,0.4-0.9,0.4-1.3c0-2.7,1.5-4.4,3.6-5.8
			c2-1.3,4.3-2.1,6.3-3.4c0.8-0.5,1.4-1.3,1.8-2.1c0.2-0.4,0.2-0.9-0.1-1.3c-0.3-0.4-0.8-0.5-1.2-0.3c-0.5,0.2-1.1,0.3-1.6,0.2
			c0.8-0.8,0.7-1.9,1-2.8c0.3-0.1,0.6-0.2,0.9-0.2c2-0.3,3.7-1.2,4.5-3.3c0.2-0.6,0.5-1.2-0.1-1.8c-0.6-0.6-1.2-0.3-1.9-0.1
			c1.8-0.7,2.4-1.8,1.4-3.4c-1.5-2.6-2.9-5.3-4.1-8c-0.2-0.8-1-1.4-1.9-1.3c-0.4,0-0.9,0-1-0.4c-0.3-1.2-2.2-2-1.1-3.6
			c0.1-0.1,0-0.3,0-0.4c-0.1-2.1-0.9-4.1-2.1-5.7c-0.5-0.6-0.8-1.1-0.5-1.9c0.2-0.5,0.1-1-0.3-1.4c-1.5-1.6-2-3.6-2.1-5.8
			c0-0.4,0-0.8,0-1.2c-0.1-0.7,0.1-1.5,0.5-2.1c0.3,1.5,1,2.9,0.2,4.3c-0.1,0.3,0,0.6,0.2,0.8c0.6,0.6,0.5,1.2,0.3,1.9
			c0,0.4,0,0.8,0.2,1.2c1.3,1.1,2.3,2.4,3,3.9c0,0.1,0.1,0.1,0.2,0.2c0.3,0.3,0.7,0.6,1.2,0.4c0.4-0.2,0.6-0.7,0.5-1.1
			c0-0.3-0.2-0.5-0.1-0.8c0.4,0.4,0.7,0.9,0.7,1.4c0,0.4,0,0.8,0,1.3c-0.1,0.8-0.3,1.5-0.4,2.3c-0.2,1.6-0.5,3.1,0.4,4.6
			c0.3,0.4,0.6,0.8,1.1,0.7c0.5-0.1,0.7-0.5,0.8-0.9c0.4-1.5,0.8-3,1.3-4.4c0.6-1.8,1.3-3.5,1.7-5.3c0.7-2.4,0.7-5,0-7.4
			c-0.1-0.7-0.7-1.4-1.3-1.7c-0.9-0.5-1.7-1.2-2.2-2.2c-0.4-0.7-0.8-1.4-1.3-2l0,0c0.7,0.9,1.7,1.1,2.7,1.3c0.6,0.2,1.1,0.4,1.1,1.2
			c0,0.9,0.6,1.1,1.4,0.6c0.3-0.2,0.5-0.5,0.7-0.7c3.1-3.7,4.6-8.5,4.1-13.3c-0.1-1.4,0.1-3.1-1.8-3.7c0.2-0.5,0.7-0.6,0.7-1.1
			c0.1-2.6,1.8-4.2,3.6-5.7c1.8-1.5,4-2.4,6.2-3.3c2.9-1,5.7-2.2,8.5-3.6c1.1-0.6,2.1-1.2,2.2-2.6c0-0.2,0.2-0.4,0.4-0.5
			c0.3,0.1,0.2,0.3,0.4,0.5c0.1,0.1,0.1,0.2,0.2,0.2c-0.1,0.1-0.1,0.2,0,0.3s0.2,0,0.3-0.1h0.1c0.7-0.2,1.2-0.6,1.7-1.1
			c0.7-0.7,1.5-1.2,2.4-1.5c1.3-0.4,1.5-0.7,1.4-2c-0.1-1.8-1.5-3.4-3-3.4c-0.3-0.1-0.7,0.1-0.9,0.4c-0.2,0.3-0.1,0.7,0.1,0.9
			c0.3,0.3,0.6,0.6,0.9,0.8c0.6,0.5,0.7,1-0.1,1.4c-0.3,0.1-0.6,0.1-0.9,0.1c-0.7-0.2-1.3-0.7-1.7-1.3c-0.8-1.3-2-2.3-3.3-3.1
			c-0.3-0.4-0.2-0.9-0.2-1.4c0.1-1.5-0.1-3.1,0.1-4.6c0.1-0.4,0.1-0.8,0.1-1.2c0-2.3,0.4-4.5,1-6.7c0.1-0.6,0.3-1.2,0.9-1.3
			c2.2-0.5,3.6-2.2,5.3-3.4c0.7-0.4,1.2-1.2,1.2-2c0.1,0.2,0.2,0.4,0.4,0.5c0.9,0.4,1.3-0.3,1.8-0.8c0.2-0.3,0.4-0.6,0.5-1
			c0.1-0.5,0.2-1,0.4-1.5c1.7,0.5,2.1,0.3,2.6-0.9c0-0.3,0-0.6-0.1-1c-0.1-0.3,0.1-0.4,0.4-0.5c3.1-0.9,5.3-2.7,5.8-6.1V174
			c-0.1-0.1-0.1-0.2-0.1-0.3c-0.4-2.2-0.6-2.4-2.8-2.4c-0.5,0.1-1-0.3-1.1-0.8c-0.1-0.4-0.3-0.9-0.4-1.3c-0.1-1.1-0.8-1.4-1.8-1.4
			c-1.4,0-1.7-0.3-2-1.7c-0.9-4-2.5-7.8-3.5-11.8c-0.1-0.5-0.5-1-1-1.1c-1-0.3-2-0.7-2.9-1.2c-0.8-0.5-1.9-0.2-2.4,0.5
			c-0.4,0.5-0.9,0.9-1.4,1.3c-0.5,0.5-1.4,0.4-1.8-0.1c0-0.1-0.1-0.1-0.1-0.2c-1-1.3-1.9-1.2-2.6,0.3c-1.6,3.7-3,7.5-3.4,11.5
			c0,0.8,0,1.6,0,2.4c0.1,0.6,0.1,1.2,0.3,1.8c0.4,1.1,0.2,2.3-0.5,3.2c-0.6,1.1-1.1,2.2-1.3,3.5c-0.3,1.6-0.5,1.9-2.1,2.1
			c-1,0-1.8,0.7-1.8,1.7c-0.2,1.2-1.1,2.1-2.2,2.2c-2.7,0.5-5.4,1.4-8,2.2c-3.4,1-6.8,2.3-10.5,2.4c-3.2,0.1-5.5,1.5-6.9,4.4
			c-1.1,2.3-2.2,4.6-4.5,6.1c-1.3,0.9-1.2,2.4-0.1,3.5c0.5,0.5,0.9,1.1,1,1.8c0.1,0.4,0.1,0.8,0.1,1.2c0.2,1.1-0.5,1.8-1.3,2.5
			c-1.6,1.3-3.4,2.2-5.5,2.5c-2.4,0.5-4.9,0.6-7.4,0.9c-1.7,0.2-3.4,0.6-5,1.2c-1.4,0.5-1.6,1.1-1.1,2.4c0.3,0.8,0.7,1.6,1.3,2.2
			c0.6,0.6,0.5,1.6-0.1,2.1c-1.9,2.3-4,4.5-6.3,6.4c-4.9,4.1-10.3,7.5-16.1,10.2c-1,0.5-1.9,0.7-2.9,0.1c-0.6-0.3-1.3-0.4-2-0.5
			c-0.8-0.1-1.6-0.3-2.4-0.6c-0.8-0.4-1.1-0.9-0.6-1.7c0.6-1.3,1.2-2.6,1.6-4c0.3-0.8,0.6-1.5,1-2.3c0.3-0.6,0.8-1.1,1.5-1.3
			c1.1-0.2,1.2-1,1.1-1.9c-0.2-2.1-0.5-4.2-0.9-6.2c-0.7-2.8-1.6-5.4-3.9-7.3c-1.1-0.9-1.9-1-2.9,0c-0.6,0.6-1.2,1.3-1.6,2.1
			c-0.2,0.5-0.5,1-0.9,1.4c-0.4,0.5-0.9,1.1-1.6,0.6c-0.6-0.5-0.4-1.2-0.2-1.9c0.1-0.2,0.3-0.5,0.5-0.6c1.9-1.3,2.5-3.1,2.4-5.3
			c0-1.6-0.3-3.2-0.4-4.8c-0.1-1.4,0.2-2.7-1-3.9c-0.6-0.5-1-1.1-1.8-1.3c-1.3-0.2-2.5-0.6-3.6-1.2c-1.4-0.7-2.8-1.2-4.4-1.5
			c-1.9-0.3-3.7,0.9-4,2.8c-0.1,0.3-0.1,0.6,0,0.9c0.1,0.3-0.1,0.7-0.4,0.8c-0.9,0.5-1.1,1.2-1.1,2.2c-0.1-0.3-0.3-0.6-0.6-0.7
			c-0.8-0.4-1.2,0.1-1.7,0.6c-1.8,2.3-3.1,5.1-3.6,8c-0.6,3.1-0.8,6.3-1.1,9.5c0,0.5,0.2,0.9,0.5,1.2c3.3,4.4,3.4,9.1,1.6,14.1
			c-0.6,1.8-1.9,3.4-3.5,4.5c-1.1,0.7-1.6,0.6-2.4-0.3c-0.5-0.5-0.9-1-1.3-1.6c-2.2-3.5-3.3-7.5-3.1-11.6c0-0.8,0-1.6,0-2.3
			c0-1.8,0.1-3.6,0.4-5.4c0.6-4.4,1.5-8.8,2.7-13.1c0.2-0.5,0.3-1.1,0.3-1.7c0.1-0.3-0.1-0.7-0.5-0.8c-0.3-0.1-0.6,0-0.8,0.2
			c-0.4,0.5-0.7,0.9-1,1.5c-0.9,1.3-1.5,2.7-2.8,3.8c0-0.4,0-0.7,0.3-1c1.5-2.9,3.2-5.8,4.3-8.9c0.3-0.7,1-1.1,1.7-1
			c1.3,0,2.6-0.3,3.8-0.9c1.1-0.6,2.3-1,3.5-1.6c1.3-0.8,2.8-1.1,4.3-0.8c1.7,0.3,3.4,0,5.2,0c1.1-0.1,2.2-0.2,3.3-0.5
			c0.8-0.2,1.1-0.8,0.5-1.3c-1.2-1-1.3-2.3-1.4-3.7c0-1.4-0.4-1.6-1.8-1.4c-1.1,0.2-2.2,0.7-3.2,0.9c-1.2,0.3-1.6-0.1-1.7-1.2
			c-0.2-1.6-0.5-1.9-2.1-1.6c-0.8,0.1-1.6,0.3-2.4,0.6c-2,0.6-3.8,1.5-5.7,2.3c-1.8,0.8-3.7,1.3-5.6,1.4c-0.7,0.1-1.4-0.2-1.8-0.9
			c-1.2-2.2-3.3-2.9-5.6-3.1c-0.3,0-0.7,0.2-0.8-0.1c-0.2-0.3,0.1-0.6,0.3-0.9c0.7-1.1,1.9-1.9,2.7-3.1c0.3-0.4,0.8-0.8,0.4-1.4
			c-0.4-0.5-0.9-0.4-1.4-0.3c-2.7,0.3-4.5,2-6.1,4c-1,1.4-2.4,2.5-4,3.1c-1.8,0.7-3.5,1.6-5.2,2.5c-1.2,0.7-2.3,1.1-3.7,0.7
			c-0.7-0.2-1-0.3-0.6-1c0.3-0.6,0.6-1.2,0.1-1.8s-1.2-0.4-1.8-0.3c-1,0.4-2,0.8-2.9,1.4c-0.6,0.4-1.3,0.6-2,0.8
			c-0.3,0.1-0.7,0.2-0.9-0.1c-0.2-0.3,0.2-0.5,0.4-0.7c0.8-0.7,1.5-1.5,2.1-2.4c2.2-3.6,5.2-6.1,9.4-7.1c1.3-0.3,2.4-1.1,3.3-2.1
			c0.6-0.7,0.4-1.4-0.5-1.6c-0.7-0.1-1.3-0.2-2-0.3c-2-0.2-4.1-0.2-5.9-1.2c-0.5-0.2-1.1-0.2-1.5,0.2c-0.8,0.6-1.8,0.9-2.8,1
			c-0.4,0-0.9,0-1.3,0c-1.1,0-2.1-0.6-2.7-1.6c-0.3-0.6-0.8-0.9-1.4-0.8c-1.5,0-2.9-0.4-4.2-1.1c-1.1-0.5-2.2-1-3.3-1.3
			c-0.3-0.1-0.7-0.1-1.1,0c-0.6,0.1-1.1,0.2-1.6,0.5c-0.7,0.5-1.7,0.5-2.4,0c-1.1-0.6-2.2-1-3.4-1.2c-0.4,0-0.7-0.1-1.1-0.3
			c-0.5-0.3-0.8-0.8-0.8-1.4c-0.1-0.7-0.3-1.5-0.4-2.2c-0.1-0.9-0.4-1.7-1-2.3c-0.5-0.6-1.4-0.8-2.2-0.6c-0.8,0.3-0.7,1-0.8,1.7
			c0,0.2,0,0.4,0,0.7c0,0.6-0.4,1.2-1.1,1.2c-1.8,0.3-3.6,0.1-5.4,0.1c-1.2,0.1-2.3,0.1-3.5,0.1L254,380.5z"/>
	</g>
	<rect x="-367.1" y="539.3" class="st3" width="60.2" height="34.6"/>
	<rect x="-287.1" y="539.3" class="st2" width="60.2" height="34.6"/>
	<rect x="-127.1" y="539.3" class="st0" width="60.2" height="34.6"/>
	<rect x="-207.1" y="539.3" class="st4" width="60.2" height="34.6"/>
</g>
<g id="Layer_2">
	<g transform="matrix( 1, 0, 0, 1, 0,0) ">
		<g>
			<g id="Layer0_0_FILL">
				<path class="st5" d="M351.3,459.9c-0.1-0.3-0.3-0.6-0.5-0.9c-0.2-0.3-0.4-0.6-0.6-0.8l0,0l-0.1-0.1c-0.1-0.1-0.1-0.1-0.2-0.2
					c0,0-0.1-0.1-0.1-0.1c-0.1,0-0.1,0-0.1,0c0,0.2,0,0.4,0.1,0.5c0.1,0.2,0.2,0.3,0.2,0.4c0.2,0.3,0.4,0.6,0.5,0.8
					c0.1,0.2,0.2,0.5,0.3,0.7c0.1,0.2,0.2,0.5,0.3,0.9l0,0.1c0-0.3,0-0.5-0.1-0.8c-0.1-0.3-0.2-0.6-0.3-0.8h0
					c0.2,0.3,0.3,0.6,0.4,0.8c0.1,0.3,0.3,0.5,0.4,0.7c0-0.3,0-0.6-0.1-0.8L351.3,459.9 M339.1,459.7c-0.1-0.3-0.2-0.6-0.4-0.9
					c-0.2-0.3-0.4-0.5-0.8-0.6c-0.1,0-0.1-0.1-0.2-0.1c-0.1,0-0.2,0-0.2,0c0,0.1,0,0.2,0.1,0.2c0.1,0,0.2,0.1,0.2,0.1
					c0.2,0.2,0.3,0.4,0.5,0.7c0.2,0.3,0.3,0.6,0.3,0.9c0,0.3-0.1,0.6-0.3,0.8l-0.1,0.1c-0.1,0-0.2,0.1-0.2,0.2
					c0,0.1,0.1,0.1,0.1,0.2c0,0.1,0.1,0.1,0.1,0.1c0.2,0,0.3-0.1,0.5-0.2c0.1-0.1,0.3-0.3,0.4-0.6
					C339.2,460.4,339.2,460.1,339.1,459.7 M341.9,459c0.2,0.3,0.4,0.7,0.5,1.1c0.1,0.4,0.2,0.8,0.1,1.2c0,0,0,0.1,0,0.1
					c0,0.1,0,0.1,0,0.2l0,0c0.1,0.1,0.1,0.1,0.2,0.2c0.1,0.1,0.1,0.1,0.2,0.2c0.1-0.2,0.2-0.4,0.2-0.6s0.1-0.4,0-0.5
					c0-0.4-0.1-0.8-0.3-1.2c-0.1-0.4-0.3-0.7-0.6-0.9c-0.2-0.2-0.5-0.3-0.8-0.3c0.1,0.1,0.1,0.2,0.3,0.4L341.9,459 M345.9,458.3
					c0,0.2,0,0.4,0.1,0.6c0.1,0.2,0.2,0.4,0.2,0.4l0.3,0.7c0.2,0.4,0.3,0.8,0.3,1.2c0.1,0.5,0,0.9-0.3,1.2c0.1,0,0.1,0.1,0.2,0.1
					c0.1,0,0.1,0.1,0.2,0.1c0.1-0.1,0.3-0.3,0.4-0.5c0.1-0.2,0.2-0.5,0.2-0.9c0-0.5-0.1-0.9-0.3-1.3c-0.2-0.4-0.4-0.8-0.7-1.2
					l-0.1-0.2c0-0.1-0.1-0.1-0.2-0.2c0,0-0.1-0.1-0.1-0.1C346,458.3,346,458.3,345.9,458.3 M386.9,463h0.2c-0.1-0.5-0.3-0.9-0.6-1.3
					c-0.3-0.4-0.7-0.7-1.1-0.9l-0.2-0.1c-0.1-0.1-0.2-0.1-0.3-0.1c-0.1-0.1-0.3-0.1-0.5-0.1c-0.2,0-0.3,0-0.4,0.1
					c0.1,0.1,0.2,0.1,0.3,0.1l0.2,0.1c0.5,0.3,1,0.6,1.4,1.1c0.4,0.4,0.6,0.9,0.7,1.5c0.1-0.1,0.1-0.1,0.2-0.2
					C386.8,463.1,386.9,463,386.9,463 M386.5,459.7c0,0.2,0.2,0.3,0.4,0.4s0.4,0.2,0.4,0.2c0.7,0.4,1.1,0.8,1.3,1.2
					c0.2,0.4,0.2,0.8,0,1.2c0,0,0.1-0.1,0.1-0.1c0,0,0.1-0.1,0.1-0.1c0.1,0,0.2,0,0.2,0c0.1,0,0.1,0,0.2,0c0-0.1,0-0.2,0-0.2
					c0-0.1,0-0.2,0-0.3c0-0.4-0.2-0.8-0.5-1.2c-0.3-0.4-0.6-0.6-1-0.9l-0.1-0.1l-0.2-0.1c-0.2-0.1-0.3-0.1-0.5-0.2
					c-0.1-0.1-0.2-0.1-0.3-0.1C386.6,459.6,386.5,459.6,386.5,459.7 M389.5,459.6c0.1,0.1,0.2,0.1,0.3,0.1c0.3,0.2,0.5,0.5,0.8,0.8
					c0.2,0.3,0.4,0.7,0.5,1c0.1-0.2,0.2-0.4,0.2-0.6s0-0.3,0-0.5c-0.3-0.4-0.6-0.8-1-1.1c-0.4-0.3-0.8-0.4-1.1-0.4
					c0,0.1,0,0.2,0.1,0.3C389.3,459.5,389.4,459.5,389.5,459.6 M380.4,460.2c-0.6-0.4-1.2-0.7-1.9-0.7c0,0-0.1,0-0.2,0
					c-0.1,0-0.2,0-0.2,0.1c-0.1,0-0.1,0-0.2,0c0,0-0.1,0.1-0.1,0.1c0,0.1,0.1,0.2,0.3,0.2c0.2,0.1,0.3,0.1,0.5,0.1l0.2,0h0.1
					c0.6,0.2,1.1,0.4,1.6,0.9c0.5,0.4,0.8,0.9,1.1,1.4c0.2,0.5,0.2,1.1-0.1,1.6c0.2-0.1,0.3-0.1,0.4-0.2c0.1-0.1,0.3-0.1,0.4-0.2
					c0.1-0.6,0-1.3-0.4-1.9C381.5,461.1,381,460.6,380.4,460.2 M360.9,130.8c-1.1-0.5-2.2-0.8-3.4-1c-1.2-0.2-2.3-0.2-3.4-0.2
					c-0.1,0-0.1,0-0.2,0c-0.1,0-0.1,0-0.2,0l-0.2,0.1c-0.1,0-0.2,0-0.3,0c-0.1,0-0.2,0-0.4,0.1l-0.3,0c-0.7,0.1-1.4,0.4-1.9,0.7
					c-0.5,0.3-1,0.7-1.3,1.2c-0.8,0.7-1.3,1.5-1.6,2.5s-0.5,2.1-0.6,3.2c-0.1,1.1-0.1,2.1-0.1,3.1c0,0.9,0,1.8,0,2.8
					c0,1,0,1.9-0.1,2.8c0,0.1,0,0.2,0,0.2c0,0.1,0,0.1,0,0.2c0,0.2,0,0.4-0.1,0.6c0,0.2-0.1,0.4-0.1,0.7c0.9,1,2,1.8,3.3,2.3
					c1.3,0.5,2.6,0.9,4,0.9c1.4,0.1,2.7-0.1,4-0.5c0.6-0.2,1.3-0.5,1.9-0.8c0.6-0.3,1.2-0.7,1.7-1.2c0.5-0.5,0.9-1.1,1.1-1.7l0-0.1
					c0.3-0.4,0.6-0.9,0.8-1.5c0.2-0.6,0.4-1.1,0.4-1.5c0.2-1.1,0.3-2.3,0.3-3.7c0-1.4-0.2-2.8-0.4-4.2c-0.3-1.4-0.6-2.7-1.1-3.8
					c0,0,0,0-0.1-0.1l-0.1-0.1c-0.3-0.2-0.6-0.4-0.9-0.6C361.6,131.1,361.3,131,360.9,130.8z"/>
				<path class="st6" d="M347.9,442.5c-0.2,0.1-0.3,0.1-0.4,0.2c-0.1,0.1-0.2,0.1-0.3,0.1l-0.1,0c-1.4,0.5-2.9,0.8-4.5,1
					c-1.6,0.2-3.2,0.3-4.8,0.3c-1.6,0-3.2-0.1-4.6-0.3l-1.1-0.2c-0.5-0.1-1.1-0.3-1.7-0.5c-0.1,0-0.2-0.1-0.3-0.1
					c-0.1,0-0.2-0.1-0.3-0.1c0,0.1,0,0.2,0.1,0.3c0,0.1,0,0.1,0,0.2c0.3,1.1,0.6,2.2,0.9,3.3c0.3,1.1,0.6,2.2,0.9,3.3
					c0.3,1.1,0.4,2.2,0.5,3.3c0,0.8,0.2,1.6,0.4,2.5c0.2,0.9,0.6,1.7,1,2.5c0.4,0.8,1,1.4,1.6,2c0.2,0.2,0.5,0.3,0.8,0.4
					c0.3,0.1,0.7,0.2,1,0.3c0.4,0,0.7,0,1,0c0,0,0,0.1,0.1,0.1c0,0,0,0.1,0.1,0.1c0.1-0.1,0.2-0.1,0.2-0.2l0.1-0.1
					c0.2-0.2,0.3-0.5,0.3-0.8c0-0.3-0.1-0.6-0.3-0.9c-0.2-0.3-0.3-0.5-0.5-0.7c-0.1,0-0.1-0.1-0.2-0.1c-0.1,0-0.1-0.1-0.1-0.2
					c0.1,0,0.1,0,0.2,0c0.1,0,0.2,0.1,0.2,0.1c0.3,0.1,0.6,0.4,0.8,0.6c0.2,0.3,0.3,0.6,0.4,0.9s0,0.6-0.1,0.9
					c-0.1,0.3-0.2,0.5-0.4,0.6c-0.1,0.1-0.3,0.2-0.5,0.2c0.1,0.1,0.2,0.2,0.3,0.3c0.1,0.1,0.2,0.2,0.3,0.2c0.5,0.3,1,0.5,1.5,0.6
					c0.5,0.1,0.9,0,1.3-0.2c0.4-0.2,0.7-0.5,0.8-0.8l0.1,0.1c0-0.1,0-0.1,0-0.2c0,0,0-0.1,0-0.1c0-0.4,0-0.8-0.1-1.2
					c-0.1-0.4-0.3-0.7-0.5-1.1l-0.2-0.2c-0.1-0.1-0.2-0.2-0.3-0.4c0.3-0.1,0.6,0,0.8,0.3c0.3,0.2,0.4,0.5,0.6,0.9
					c0.2,0.4,0.2,0.8,0.3,1.2c0,0.1,0,0.3,0,0.5s-0.1,0.4-0.2,0.6c0.7,0.6,1.3,0.9,2,0.9s1.1-0.2,1.5-0.6c0,0,0.1,0.1,0.1,0.1
					c0,0,0.1,0.1,0.1,0.1c0.2-0.4,0.3-0.8,0.3-1.2c-0.1-0.5-0.2-0.9-0.3-1.2l-0.3-0.7c0-0.1-0.1-0.2-0.2-0.4
					c-0.1-0.2-0.1-0.4-0.1-0.6c0,0,0.1,0,0.1,0c0.1,0,0.1,0,0.1,0.1c0.1,0,0.1,0.1,0.2,0.2l0.1,0.2c0.3,0.4,0.5,0.8,0.7,1.2
					c0.2,0.4,0.3,0.9,0.3,1.3c0,0.4-0.1,0.7-0.2,0.9c-0.1,0.2-0.2,0.4-0.4,0.5c0,0,0.1,0,0.1,0.1c0,0,0.1,0,0.1,0.1
					c0.8,0.5,1.5,0.7,2.1,0.7c0.6,0,1.1-0.3,1.4-0.7c0.4-0.4,0.5-0.9,0.6-1.5l0-0.1c-0.1-0.4-0.2-0.7-0.3-0.9
					c-0.1-0.2-0.2-0.5-0.3-0.7c-0.1-0.2-0.3-0.5-0.5-0.8c-0.1-0.1-0.1-0.2-0.2-0.4c-0.1-0.2-0.1-0.4-0.1-0.5c0,0,0.1,0,0.1,0
					c0,0,0.1,0,0.1,0.1c0.1,0.1,0.1,0.1,0.2,0.2l0.1,0.1l0,0c0.2,0.3,0.4,0.5,0.6,0.8c0.2,0.3,0.3,0.6,0.5,0.9l0.1,0.4
					c0.1,0.3,0.1,0.5,0.1,0.8c0.2,0.4,0.5,0.7,0.9,1s0.9,0.6,1.7,0.8c0.7,0.2,1.5,0.3,2.2,0.3c0.8-0.1,1.4-0.3,1.9-0.8
					c0.5-0.5,0.7-1.2,0.6-2.1c-0.1-0.5-0.4-1.1-0.9-1.7c-0.5-0.6-1-1.1-1.6-1.6c-0.6-0.5-1-1-1.4-1.5c-0.9-1.4-1.8-2.8-2.4-4.3
					c-0.7-1.5-1.4-3-2-4.5c-0.7-1.5-1.5-2.9-2.5-4.3L347.9,442.5C347.9,442.5,347.9,442.5,347.9,442.5 M373.5,438.2
					c-0.2-1.7-0.2-3.4-0.1-5.2c0-0.1,0-0.2,0-0.2c0-0.1,0-0.2,0-0.2c-0.1,0-0.3,0-0.4-0.1c-0.2,0-0.3,0-0.5,0
					c-1.7-0.2-3.4-0.4-5.2-0.7c-1.8-0.3-3.5-0.7-5.1-1.3c-1.7-0.6-3.2-1.4-4.6-2.4c-0.1-0.1-0.2-0.1-0.3-0.2
					c-0.1-0.1-0.2-0.1-0.3-0.2c-1.1,1.1-2.2,2.2-3.2,3.4s-1.8,2.4-2.2,3.8c-0.4,1.4-0.3,2.9,0.5,4.6c0.5,1,1.1,1.9,1.9,2.7
					c0.8,0.8,1.7,1.6,2.6,2.3c0.9,0.7,1.7,1.5,2.5,2.3c1.2,1.3,2.3,2.7,3.4,4.2c1.1,1.5,2.1,3,3,4.5c0.5,0.9,1.1,1.7,1.7,2.5
					c0.6,0.8,1.2,1.7,1.8,2.5c0.8,1.2,1.8,2.1,2.9,2.8c1.1,0.7,2.3,1.2,3.6,1.4c1.3,0.2,2.7,0.2,4-0.1c0.2,0,0.4-0.1,0.7-0.2
					c0.3-0.1,0.5-0.2,0.8-0.3c0.3-0.5,0.3-1.1,0.1-1.6c-0.2-0.5-0.6-1-1.1-1.4c-0.5-0.4-1-0.7-1.6-0.9h-0.1l-0.2,0
					c-0.1,0-0.3-0.1-0.5-0.1c-0.2-0.1-0.2-0.1-0.3-0.2c0-0.1,0-0.1,0.1-0.1c0,0,0.1,0,0.2,0c0.1-0.1,0.1-0.1,0.2-0.1
					c0.1,0,0.2,0,0.2,0c0.6,0.1,1.3,0.3,1.9,0.7c0.6,0.4,1.1,0.9,1.4,1.5c0.4,0.6,0.5,1.2,0.4,1.9c0.1,0,0.1-0.1,0.2-0.1
					c0.1,0,0.1-0.1,0.2-0.1c0.2,0.2,0.5,0.4,0.8,0.4c0.3,0.1,0.7,0.1,1.1,0.1c0.4,0,0.7-0.1,1-0.1c0.2,0,0.4-0.1,0.6-0.2
					c0.2-0.1,0.3-0.2,0.5-0.3c-0.1-0.5-0.3-1-0.7-1.5c-0.4-0.4-0.9-0.8-1.4-1.1l-0.2-0.1c-0.1,0-0.2-0.1-0.3-0.1
					c0.1-0.1,0.2-0.2,0.4-0.1c0.2,0,0.3,0,0.5,0.1c0.1,0,0.2,0,0.3,0.1l0.2,0.1c0.4,0.2,0.7,0.6,1.1,0.9c0.3,0.4,0.5,0.8,0.6,1.3
					c0.1,0,0.2,0,0.3,0c0.1,0,0.1,0,0.2,0c0.2,0,0.4-0.1,0.6-0.1c0.2-0.1,0.3-0.1,0.5-0.2c0.2-0.4,0.2-0.8,0-1.2
					c-0.2-0.4-0.6-0.8-1.3-1.2c-0.1,0-0.2-0.1-0.4-0.2s-0.3-0.2-0.4-0.4c0.1-0.1,0.2-0.1,0.3-0.1c0.1,0,0.2,0,0.3,0.1
					c0.1,0,0.3,0.1,0.5,0.2l0.2,0.1l0.1,0.1c0.4,0.2,0.7,0.5,1,0.9c0.3,0.4,0.5,0.8,0.5,1.2c0,0.1,0,0.2,0,0.3c0,0.1,0,0.2,0,0.2
					c0.3,0,0.6-0.1,0.9-0.2c0.3-0.1,0.5-0.3,0.7-0.6l0-0.1c-0.1-0.4-0.3-0.7-0.5-1c-0.2-0.3-0.5-0.6-0.8-0.8c-0.1,0-0.2-0.1-0.3-0.1
					c-0.1-0.1-0.2-0.1-0.3-0.2c-0.1-0.1-0.1-0.2-0.1-0.3c0.4-0.1,0.8,0.1,1.1,0.4c0.4,0.3,0.7,0.7,1,1.1c0.3-0.1,0.5-0.3,0.7-0.5
					c0.2-0.2,0.2-0.5,0.1-0.8l-0.3-0.2l-0.6-0.4c-0.5-0.3-1.1-0.6-1.7-0.9l-1.1-0.6c-0.7-0.3-1.3-0.5-1.9-0.7
					c-0.6-0.2-1.2-0.5-1.7-0.7c-0.6-0.3-1.2-0.6-1.8-1c-1.5-1-2.8-2-4-3.1c-1.2-1.1-2.1-2.3-2.9-3.7c-0.8-1.3-1.4-2.9-1.7-4.7
					C374,441.6,373.7,439.9,373.5,438.2 M378.9,187.4c-0.1-0.3-0.2-0.7-0.4-1.3c-0.2-0.6-0.4-1.1-0.6-1.6c-0.2-0.5-0.5-0.8-0.7-0.9
					c-0.1,0-0.1,0-0.2-0.1c-0.1,0-0.2,0-0.3,0.1c-0.3,0.1-0.4,0.3-0.4,0.5s0,0.4,0.1,0.6c0.1,0.2,0.2,0.4,0.2,0.5
					c0.1,0.7,0.2,1.4,0.3,2.1c0.1,0.7,0.2,1.4,0.4,2.1c0.7,2.8,1.5,5.5,2.6,8.3c1,2.7,2.4,5.3,3.9,7.8c0.7,1.1,1.3,2,1.9,2.9
					c0.6,0.9,1.3,1.7,2.1,2.4c0.8,0.7,1.7,1.3,2.9,1.9c0,0,0,0,0.1,0c0,0,0,0,0.1,0c0.1-0.5,0.1-1,0.2-1.5c0.1-0.5,0.1-1,0.2-1.5
					c-0.4-0.2-0.7-0.4-1-0.6c-0.3-0.2-0.7-0.5-1-0.9c-1.7-2-3.2-4.1-4.4-6.4c-1.3-2.3-2.4-4.6-3.3-7.1
					C380.5,192.3,379.7,189.9,378.9,187.4 M333.8,194.2c-0.3-1.8-0.6-3.7-1-5.5c0-0.3-0.1-0.6-0.2-1c-0.1-0.4-0.1-0.8-0.3-1.2
					c-0.1-0.6-0.2-1.1-0.4-1.6c-0.1-0.5-0.3-0.9-0.4-1.2c-0.5-1.3-1.1-2.6-2-3.9c-0.8-1.3-1.9-2.3-3-3.2c-1.2-0.9-2.5-1.4-4-1.6
					l-0.3,0c-0.2,0-0.3,0-0.4,0c-0.1-0.1-0.2-0.1-0.3-0.1c-0.1,0-0.2,0-0.2,0c-0.7,0-1.4,0.1-2.2,0.3c-0.8,0.2-1.5,0.4-2.2,0.8
					c0,0.4,0,0.8,0,1.2c0,0.4,0,0.8,0,1.2c0.1,1.2,0.2,2.4,0.3,3.6c0.1,1.2,0.2,2.3,0.3,3.4c0.2,1.7,0.4,3.3,0.7,5
					c0.3,1.7,0.6,3.3,1,5s0.6,3.3,0.9,5c0.4,2.7,0.9,5.5,1.3,8.2c0.5,2.8,0.8,5.5,1,8.3c0.2,2.7,0.4,5.5,0.5,8.3
					c0.1,2.8,0.2,5.5,0.1,8.3c-0.1,2.8-0.3,5.5-0.6,8.3c-0.1,0.7-0.2,1.3-0.3,2c-0.1,0.7-0.2,1.3-0.3,2c-0.1,0.6-0.2,1.2-0.3,1.7
					c-0.1,0.6-0.2,1.2-0.3,1.7c0.1,0,0.1,0.1,0.2,0.1c0.1,0,0.1,0.1,0.2,0.1c1.1,0.6,2.2,1,3.4,1.3c1.2,0.2,2.4,0.4,3.6,0.3
					c0.5,0,0.9,0.1,1.4,0.1c0.4,0.1,0.9,0.1,1.4,0.1c1.3-0.1,2.7-0.2,4.1-0.4c1.4-0.2,2.7-0.4,4-0.6c1.9-0.3,3.7-0.7,5.5-1.1
					c1.8-0.4,3.6-0.8,5.5-1.3c1.3-0.3,2.6-0.7,3.9-1c1.3-0.3,2.6-0.6,3.9-0.9c2.6-0.6,5.1-1.2,7.7-1.7s5.2-1.1,7.7-1.7
					c1.2-0.3,2.4-0.6,3.6-0.9c1.2-0.3,2.4-0.7,3.6-1.1c0.3-0.1,0.6-0.3,1-0.5c0.3-0.2,0.6-0.5,0.7-0.8c0.1-0.3,0-0.7-0.3-1.1
					l-0.1-0.1l-0.2-0.1c-0.2-0.1-0.4-0.2-0.7-0.3c0-0.5,0.1-1,0.1-1.5c0-0.5,0-1,0-1.5c0-1.6-0.1-3.2-0.3-4.8
					c-0.2-1.6-0.6-3.1-1.2-4.6l0,0c0.3,0.1,0.6,0.2,0.8,0.2c0.3,0.1,0.5,0.1,0.7,0c0.2-0.1,0.4-0.2,0.5-0.5c0.1-0.5-0.1-0.8-0.7-1.1
					s-1.2-0.4-2-0.5c-0.7-0.1-1.2-0.2-1.5-0.2c-0.7-0.1-1.5-0.2-2.2-0.3c-0.8-0.1-1.5-0.1-2.3-0.1h-0.9c-0.1-0.1-0.2-0.1-0.3-0.1
					c-0.1,0-0.2,0-0.2,0c-2.6,0-5.3,0-7.9,0.1c-2.6,0.1-5.2,0.2-7.8,0.4c-2.6,0.2-5.2,0.3-7.8,0.4c-2.1,0.1-4.2,0.3-6.2,0.5
					c-2.1,0.2-4.1,0.4-6.2,0.6c0-0.4,0-0.8,0-1.2c0-0.4,0-0.8,0-1.2c-0.2-2.1-0.3-4.2-0.4-6.3s-0.2-4.2-0.4-6.3
					c-0.1-1.6-0.3-3.2-0.3-4.8c-0.1-1.6-0.2-3.2-0.4-4.8C334.3,197.9,334.1,196,333.8,194.2 M365.3,137c-0.1-0.4-0.2-0.7-0.3-1.1
					c-0.2-0.7-0.4-1.4-0.8-2.1c-0.3-0.6-0.8-1.2-1.3-1.7c0.5,1.2,0.9,2.4,1.1,3.8c0.3,1.4,0.4,2.8,0.4,4.2c0,1.4-0.1,2.6-0.3,3.7
					c-0.1,0.4-0.2,1-0.4,1.5c-0.2,0.6-0.5,1.1-0.8,1.5l0,0.1c-0.2,0.7-0.5,1.2-1.1,1.7c-0.5,0.5-1.1,0.9-1.7,1.2
					c-0.6,0.3-1.3,0.6-1.9,0.8c-1.3,0.4-2.7,0.6-4,0.5c-1.4-0.1-2.7-0.4-4-0.9c-1.3-0.5-2.4-1.3-3.3-2.3c-0.1,0.5-0.2,1-0.3,1.4
					s-0.2,0.9-0.3,1.3c-0.1,0.6-0.3,1.2-0.5,1.9c-0.2,0.7-0.5,1.4-0.8,2c-0.3,0.6-0.7,1.1-1.2,1.5c0,0-0.1,0.1-0.1,0.1
					c0,0-0.1,0.1-0.1,0.1c-0.6,0.2-1.1,0.4-1.8,0.6c-0.6,0.2-1.2,0.3-1.9,0.4c0.1,1,0.2,2,0.5,3c0.2,1,0.5,2,0.9,3
					c0.8,2.1,1.8,3.9,3.1,5.5c1.2,1.6,2.7,2.9,4.5,3.8c1.7,0.9,3.8,1.4,6.1,1.4c2.7,0,5.1-0.5,7.1-1.6c2-1.1,3.7-2.8,5-5.2
					c0.7-1.2,1.3-2.6,1.8-4c0.5-1.5,0.9-3,1.2-4.6c0.3-1.6,0.4-3.1,0.5-4.7c-0.4,0.1-0.9,0.1-1.3,0.1c-0.4,0-0.9,0-1.3-0.1
					c-0.3-0.3-0.6-0.6-0.8-0.9c-0.2-0.4-0.4-0.7-0.5-1.2c-0.1-0.5-0.1-0.9-0.2-1.4c-0.1-0.5-0.1-0.9-0.2-1.4c0-0.9,0-1.8,0-2.6
					c0.1-0.9,0.1-1.6,0.1-2.3c0-1.1,0-2.1,0-3.2c0-1-0.2-2-0.5-3C365.5,137.7,365.4,137.3,365.3,137z"/>
				<path class="st7" d="M380.6,270c-3.8,0.1-7.6,0.2-11.4,0.3c-3.8,0.1-7.6,0.1-11.4,0.2c-4.4,0.1-8.8,0.1-13.2-0.1
					c-4.4-0.1-8.7-0.4-13.1-0.8c-0.9-0.1-1.9-0.2-2.9-0.3c-1-0.1-2.1-0.2-3.1-0.4c-1-0.2-2-0.4-2.9-0.7c-0.1,0-0.2-0.1-0.3-0.1
					c-0.1,0-0.2-0.1-0.3-0.1c-0.5,3.3-0.9,6.6-1.1,9.9c-0.2,3.3-0.4,6.6-0.4,9.9c-0.1,3.3-0.1,6.7-0.1,10.2c0,4.3,0.2,8.5,0.8,12.7
					c0.5,4.1,1.3,8.2,2.2,12.3c0.7,2.9,1.3,5.9,2,8.9c0.6,3,1.2,6,1.7,9.1c0.5,3.1,0.9,6.1,1.2,9.2c0.4,4.4,0.7,8.8,0.9,13.1
					s0.4,8.8,0.4,13.3c0,2.7,0,5.3-0.1,7.9c-0.1,2.6-0.2,5.2-0.4,7.8c-0.1,1.1-0.1,2.3-0.1,3.5c0,1.2,0,2.4-0.1,3.5
					c-0.1,1.8-0.1,3.5-0.1,5.3c0,1.8,0,3.6-0.1,5.4c-0.2,3.7-0.3,7.3-0.4,11c-0.1,3.7-0.1,7.3-0.1,11.1c0,0.8-0.1,1.5-0.1,2.2
					c-0.1,0.7-0.2,1.5-0.2,2.2c-0.1,0.7-0.1,1.5-0.1,2.3c0,0.2,0,0.4,0,0.8c0,0.3,0,0.7,0.1,1c0.1,0.3,0.1,0.6,0.2,0.8
					c0.1,0.4,0.2,0.7,0.5,0.9c0.3,0.3,0.7,0.5,1.1,0.7c0.1,0.1,0.2,0.1,0.3,0.1c0.1,0,0.2,0.1,0.3,0.1c0.6,0.2,1.2,0.4,1.7,0.5
					l1.1,0.2c1.5,0.2,3,0.3,4.6,0.3c1.6,0,3.2-0.1,4.8-0.3c1.6-0.2,3.1-0.6,4.5-1l0.1,0c0.1,0,0.2-0.1,0.3-0.1
					c0.1,0,0.3-0.1,0.4-0.2c0.3-0.1,0.5-0.2,0.6-0.4c0.2-0.1,0.2-0.3,0.2-0.4c0-0.1-0.1-0.1-0.1-0.1c0,0-0.1,0-0.2-0.1
					c0-0.2,0.1-0.3,0.1-0.5l0-0.3c0.5-2.8,0.8-5.5,1-8.3c0.2-2.8,0.4-5.6,0.7-8.4c0.4-4.2,0.7-8.5,0.9-12.7
					c0.2-4.3,0.5-8.5,0.9-12.7c0.3-2.8,0.6-5.5,0.9-8.3c0.3-2.8,0.6-5.6,0.9-8.3c0.7-6.2,1.3-12.4,1.9-18.7
					c0.6-6.2,1.1-12.5,1.7-18.7c0.4-4.1,0.9-8.2,1.6-12.3c0.7-4.1,1.3-8.1,1.9-12.2c0.2-1.6,0.4-3.2,0.7-4.8
					c0.2-1.6,0.5-3.2,0.7-4.8c0.2-1.1,0.4-2.3,0.7-3.5c0.3-1.2,0.5-2.4,0.8-3.6c0.2,0,0.5,0,0.7,0c0.2,0,0.5,0,0.7,0
					c0.2,2.2,0.5,4.5,0.7,6.7c0.2,2.2,0.5,4.5,0.6,6.7c0.2,2.2,0.4,4.4,0.6,6.6c0.2,2.2,0.4,4.4,0.5,6.6c0.1,1.4,0.2,2.8,0.3,4.1
					c0.1,1.4,0.2,2.8,0.3,4.1c0,1.4,0.1,2.8,0.3,4.2c0.2,1.4,0.3,2.8,0.5,4.2c0.2,1.4,0.2,2.8,0.2,4.2c0,1.1,0,2.2,0,3.2
					c0,1.1-0.1,2.1-0.2,3.2c-0.4,3.8-1.1,7.7-1.9,11.5s-1.7,7.6-2.6,11.4c-1.2,5.2-2.5,10.4-3.8,15.5c-1.3,5.2-2.6,10.4-4,15.5
					c-0.4,1.5-0.9,3.1-1.3,4.6c-0.4,1.5-0.8,3.1-1.1,4.7c-0.1,0.3-0.1,0.6-0.2,0.9c-0.1,0.4-0.1,0.7-0.2,1.1
					c-0.1,0.4-0.1,0.7-0.1,0.9c0,0.2,0.1,0.3,0.1,0.4c0.1,0.1,0.2,0.1,0.3,0.1c0,0.2,0.1,0.4,0.2,0.7c0.1,0.2,0.2,0.4,0.3,0.5
					l0.1,0.2c0.3,0.4,0.6,0.8,1,1.2c0.4,0.4,0.7,0.7,1.1,1c0.1,0.1,0.2,0.1,0.3,0.2c0.1,0.1,0.2,0.1,0.3,0.2c1.4,1,2.9,1.8,4.6,2.4
					c1.7,0.6,3.4,1,5.1,1.3c1.8,0.3,3.5,0.5,5.2,0.7c0.2,0,0.3,0,0.5,0c0.2,0,0.3,0,0.4,0.1l0.3,0c0.2,0,0.5,0,0.9,0
					c0.4,0,0.8-0.1,1.1-0.2c0.4-0.1,0.6-0.3,0.7-0.5c0-0.2,0-0.3-0.1-0.4c-0.1-0.1-0.3-0.1-0.5-0.1c0.2-0.2,0.3-0.5,0.5-0.9
					c0.1-0.4,0.2-0.7,0.3-0.9c1.3-4.1,2.6-8.1,3.6-12.2c1.1-4.1,2.1-8.2,3.1-12.2c1-4.1,1.9-8.2,2.9-12.3c0.7-2.9,1.4-5.8,2.2-8.6
					c0.8-2.9,1.6-5.7,2.5-8.6c0.6-1.7,1.1-3.5,1.6-5.3c0.5-1.8,1-3.6,1.4-5.3c0-0.1,0-0.2,0.1-0.3c0-0.1,0-0.2,0-0.3
					c0-0.1,0-0.1-0.1-0.2c0-0.1,0-0.1-0.1-0.1c0.4-1.8,0.9-3.6,1.4-5.4c0.5-1.8,1-3.6,1.4-5.4c0.4-2.1,0.8-4.2,1.2-6.3
					c0.4-2.1,0.7-4.2,0.9-6.4c0.2-2.1,0.4-4.3,0.4-6.6c0-1.7,0-3.3,0.1-5c0.1-1.7,0.1-3.3,0.1-5c0-2.1,0-4.2,0.1-6.4
					c0.1-2.1,0.1-4.3,0.1-6.4c0-1.2,0-2.4-0.1-3.7c0-1.2-0.1-2.5-0.1-3.7c-0.1-1.6-0.1-3.2-0.3-4.8c-0.1-1.6-0.2-3.2-0.3-4.8
					c-0.2-3.4-0.4-6.7-0.8-10c-0.4-3.3-0.7-6.6-1.1-9.9c-0.1-1-0.3-2.1-0.5-3.1c-0.2-1.1-0.5-2.1-0.8-3.2c-0.1,0-0.3,0-0.5,0.1
					c-0.2,0-0.3,0-0.5,0.1c-1.2,0.2-2.7,0.4-4.4,0.6c-1.8,0.2-3.5,0.5-5.3,0.7C383.3,269.8,381.8,269.9,380.6,270z"/>
				<path class="st8" d="M339.8,157.4c-0.7,0.1-1.4,0.3-2.1,0.4c-0.7,0.1-1.3,0.3-2,0.4c-2.1,0.5-4.1,1-6,1.6
					c-2,0.6-3.8,1.4-5.5,2.3c-1.7,1-3.1,2.2-4.3,3.8c-1.2,1.5-2,3.5-2.5,5.9c-0.1,0.6-0.2,1.3-0.3,2c-0.1,0.7-0.1,1.4-0.1,2.1
					c0.7-0.3,1.5-0.6,2.2-0.8c0.7-0.2,1.5-0.3,2.2-0.3c0,0,0.1,0,0.2,0c0.1,0,0.2,0,0.3,0.1c0.1,0,0.3,0,0.4,0l0.3,0
					c1.5,0.2,2.8,0.7,4,1.6c1.2,0.9,2.2,1.9,3,3.2c0.8,1.3,1.5,2.5,2,3.9c0.1,0.3,0.2,0.7,0.4,1.2c0.1,0.5,0.3,1.1,0.4,1.6
					c0.1,0.4,0.2,0.8,0.3,1.2c0.1,0.4,0.1,0.7,0.2,1c0.4,1.8,0.7,3.7,1,5.5c0.3,1.8,0.5,3.7,0.7,5.6c0.1,1.6,0.3,3.2,0.4,4.8
					c0.1,1.6,0.2,3.2,0.3,4.8c0.2,2.1,0.3,4.2,0.4,6.3s0.2,4.2,0.4,6.3c0,0.4,0,0.8,0,1.2c0,0.4,0,0.8,0,1.2
					c2.1-0.2,4.1-0.4,6.2-0.6c2.1-0.2,4.2-0.4,6.2-0.5c2.6-0.1,5.2-0.3,7.8-0.4c2.6-0.2,5.2-0.3,7.8-0.4c2.6-0.1,5.2-0.1,7.9-0.1
					c0,0,0.1,0,0.2,0c0.1,0,0.2,0,0.3,0.1h0.9c0.8,0,1.5,0,2.3,0.1c0.7,0.1,1.5,0.2,2.2,0.3c0.3,0,0.8,0.1,1.5,0.2
					c0.7,0.1,1.4,0.3,2,0.5s0.8,0.6,0.7,1.1c-0.1,0.3-0.2,0.5-0.5,0.5c-0.2,0.1-0.5,0.1-0.7,0c-0.3-0.1-0.6-0.1-0.8-0.2l0,0
					c0.6,1.5,1,3,1.2,4.6c0.2,1.6,0.3,3.2,0.3,4.8c0,0.5,0,1,0,1.5c0,0.5-0.1,1-0.1,1.5c0.3,0.1,0.5,0.1,0.7,0.3l0.2,0.1l0.1,0.1
					c0.3,0.4,0.4,0.8,0.3,1.1c-0.1,0.3-0.3,0.6-0.7,0.8c-0.3,0.2-0.7,0.4-1,0.5c-1.2,0.4-2.4,0.8-3.6,1.1c-1.2,0.3-2.4,0.6-3.6,0.9
					c-2.6,0.6-5.1,1.2-7.7,1.7s-5.2,1.1-7.7,1.7c-1.3,0.3-2.6,0.6-3.9,0.9c-1.3,0.3-2.6,0.6-3.9,1c-1.8,0.5-3.7,0.9-5.5,1.3
					c-1.8,0.4-3.7,0.7-5.5,1.1c-1.3,0.2-2.6,0.4-4,0.6c-1.4,0.2-2.7,0.3-4.1,0.4c-0.5,0-1,0-1.4-0.1c-0.4-0.1-0.9-0.1-1.4-0.1
					c-1.2,0-2.4-0.1-3.6-0.3c-1.2-0.2-2.3-0.7-3.4-1.3c-0.1,0-0.1-0.1-0.2-0.1c-0.1-0.1-0.1-0.1-0.2-0.1c-0.1,0.3-0.1,0.6-0.2,0.9
					c-0.1,0.3-0.1,0.6-0.2,0.9c-0.5,2.2-1,4.4-1.5,6.6c-0.5,2.2-0.9,4.5-1.1,6.7c0,0.3,0.2,0.8,0.6,1.3c0.4,0.6,0.8,1,1.1,1.5
					l0.5,0.5l0.2,0.1c0.1,0,0.2,0.1,0.3,0.1c0.1,0,0.3,0.1,0.4,0.1l0.2,0l0.1,0c0,0,0.1,0,0.1,0.1l0.1,0c0.1,0,0.2,0.1,0.3,0.1
					c0.1,0,0.2,0.1,0.3,0.1c0.9,0.3,1.9,0.5,2.9,0.7c1,0.2,2.1,0.3,3.1,0.4c1,0.1,2,0.2,2.9,0.3c4.3,0.4,8.7,0.7,13.1,0.8
					c4.4,0.1,8.8,0.2,13.2,0.1c3.8-0.1,7.6-0.1,11.4-0.2c3.8,0,7.6-0.1,11.4-0.3c1.2,0,2.7-0.2,4.5-0.4c1.8-0.2,3.5-0.4,5.3-0.7
					c1.7-0.2,3.2-0.5,4.4-0.6c0.2,0,0.4-0.1,0.5-0.1c0.2,0,0.3,0,0.5-0.1c0.3-0.1,0.5-0.1,0.7-0.1l0.3,0l-0.2-0.9
					c-0.1-0.5-0.2-1.1-0.3-1.7l-0.2-1c-0.3-1.6-0.5-3.2-0.6-4.9c-0.1-1.7-0.2-3.4-0.3-5.1c-0.1-1.7-0.3-3.4-0.7-5.1
					c-0.5-2.4-1.1-4.8-1.6-7.2c-0.6-2.4-1.1-4.8-1.6-7.2c-0.5-2.4-0.8-4.9-1.1-7.3c-0.2-2.5-0.2-4.9-0.1-7.4
					c0.2-2.4,0.4-4.9,0.7-7.3c0,0-0.1,0-0.1,0c0,0-0.1,0-0.1,0c-1.2-0.6-2.1-1.2-2.9-1.9c-0.8-0.7-1.4-1.5-2.1-2.4
					c-0.6-0.9-1.2-1.8-1.9-2.9c-1.6-2.5-2.9-5-3.9-7.8c-1-2.7-1.9-5.5-2.6-8.3c-0.2-0.7-0.3-1.4-0.4-2.1c-0.1-0.7-0.2-1.4-0.3-2.1
					c0-0.1-0.1-0.3-0.2-0.5c-0.1-0.2-0.1-0.4-0.1-0.6s0.1-0.4,0.4-0.5c0.1-0.1,0.2-0.1,0.3-0.1c0.1,0,0.2,0,0.2,0.1
					c0.3,0.1,0.5,0.4,0.7,0.9c0.2,0.5,0.4,1,0.6,1.6c0.2,0.6,0.3,1,0.4,1.3c0.8,2.4,1.6,4.9,2.6,7.3c1,2.4,2.1,4.8,3.3,7.1
					c1.3,2.3,2.7,4.4,4.4,6.4c0.3,0.4,0.7,0.7,1,0.9c0.3,0.2,0.7,0.4,1,0.6c0.1-0.5,0.1-1,0.2-1.5c0.1-0.5,0.1-1,0.2-1.5
					c0.1-0.8,0.2-1.6,0.2-2.4c0.1-0.8,0.1-1.6,0.1-2.4c0-1.4,0-2.8,0.1-4.2c0.1-1.4,0.1-2.9,0.1-4.3c0-3.1,0.1-6.5,0.1-10
					c0.1-3.6-0.1-7.1-0.4-10.5c-0.4-3.5-1.1-6.6-2.3-9.4c-0.8-1.7-1.7-3.2-2.8-4.5s-2.4-2.3-3.8-3.1c-1.5-0.8-3.1-1.4-5-1.9
					c-1.2-0.3-2.2-0.4-3.1-0.4c-0.9,0-1.7,0-2.4,0.1s-1.3,0.2-1.9,0.3c0,1.5-0.2,3.1-0.5,4.7c-0.3,1.6-0.7,3.1-1.2,4.6
					c-0.5,1.5-1.1,2.8-1.8,4c-1.3,2.4-3,4.1-5,5.2c-2,1.1-4.4,1.6-7.1,1.6c-2.3,0-4.4-0.5-6.1-1.4c-1.7-0.9-3.2-2.2-4.5-3.8
					c-1.2-1.6-2.3-3.4-3.1-5.5c-0.4-1-0.7-2-0.9-3C340,159.4,339.9,158.4,339.8,157.4z"/>
			</g>
		</g>
	</g>
	<g transform="matrix( 1, 0, 0, 1, 0,0) ">
		<g>
			<g id="Layer0_1_FILL">
				<path class="st6" d="M365.6,106.2c-0.2-0.3-0.4-0.7-0.6-1c-0.2-0.3-0.4-0.7-0.6-1c-0.1-0.2-0.2-0.5-0.4-0.7
					c-0.1-0.3-0.2-0.5-0.3-0.8c0,0,0-0.1,0-0.1c0,0,0-0.1-0.1-0.1l0-0.2c0-0.1-0.1-0.2-0.1-0.3c0,0-0.1,0-0.2,0l-0.1,0.1
					c-0.2,0-0.4,0-0.7,0c-0.2,0-0.5,0-0.7,0c-0.1,0-0.3-0.1-0.6-0.1c-0.3,0-0.5,0-0.8,0c-0.3,0-0.5,0-0.6,0l-0.1,0c0,0-0.1,0-0.1,0
					h-0.3c-0.5,0-1,0-1.5,0c-0.5,0-1,0-1.4,0.1c-0.4,0.1-0.7,0.2-1,0.3c-0.3,0.1-0.7,0.2-1,0.3c-0.7,0.2-1.3,0.5-1.7,0.9
					c-0.5,0.4-0.9,0.9-1.3,1.5c-0.1,0.2-0.3,0.4-0.4,0.7c-0.1,0.2-0.2,0.5-0.3,0.7c-0.1,0.2-0.1,0.3-0.2,0.5
					c-0.1,0.2-0.2,0.4-0.2,0.5c-0.3,0.6-0.6,1.2-1.1,1.7c-0.4,0.5-1,1-1.5,1.3c-0.6,0.3-1.1,0.8-1.6,1.3c-0.5,0.6-0.9,1.2-1.2,1.8
					c-0.4,0.6-0.6,1.3-0.8,1.8c-0.1,0.2-0.1,0.4-0.2,0.6c-0.1,0.2-0.1,0.4-0.1,0.6c0,0.1-0.1,0.2-0.1,0.2c0,0.1,0,0.1,0,0.3
					c0,0.1,0,0.2-0.1,0.2c0,0.1-0.1,0.2-0.1,0.2c0,0.1,0,0.3-0.1,0.4c0,0.1,0,0.2,0,0.4c0,0.2,0,0.4-0.1,0.5c0,0.2-0.1,0.3-0.1,0.5
					c0,0.1,0,0.3-0.1,0.4c0,0.1-0.1,0.2-0.1,0.4c0,0.1,0,0.3,0,0.4c0,0.1,0,0.3-0.1,0.4c-0.1,0.2-0.1,0.5-0.1,0.9c0,0.4,0,0.7,0,1.1
					c-0.4-0.1-0.8-0.2-1.2-0.3c-0.4-0.1-0.8-0.2-1.2-0.2c-0.3,0-0.6-0.1-0.9-0.2c-0.3-0.1-0.6-0.1-0.9-0.2c0,0-0.1,0-0.2,0
					c-0.1,0-0.2,0-0.2,0.1l0,0c-0.1,0-0.1,0.1-0.1,0.2c0,0.1,0,0.1,0,0.1c0,0.1-0.1,0.3-0.1,0.4c0,0.1,0,0.2-0.1,0.4
					c-0.1,0.2-0.1,0.5-0.1,0.9c0,0.4,0,0.8,0,1.2c0,0.4,0,0.7,0.1,0.9c0,0.1,0,0.3,0,0.4c0,0.1,0,0.3,0,0.4c0.1,0.2,0.1,0.5,0.1,0.7
					c0,0.2,0.1,0.5,0.2,0.7c0.2,0.4,0.4,0.8,0.6,1.3c0.2,0.4,0.5,0.8,0.9,1.1c0.3,0.3,0.8,0.5,1.3,0.5c0.1,0,0.3,0,0.4,0.1
					c0.1,0,0.3,0,0.4,0c0.1,0,0.2,0,0.2-0.1c0.1,0,0.2,0,0.3,0c0.1,0,0.2,0,0.4-0.1c0.1,0,0.2-0.1,0.4-0.1l0,0.1
					c0,0.1,0,0.3,0.1,0.4s0,0.3,0,0.4c0,0.2,0.1,0.4,0.1,0.6c0.1,0.2,0.1,0.4,0.1,0.6c0,0.3,0.1,0.6,0.2,1c0.1,0.3,0.2,0.6,0.2,0.9
					c0.1,0.4,0.2,0.9,0.3,1.3c0.1,0.4,0.3,0.9,0.4,1.3c0,0.1,0.1,0.3,0.1,0.4c0,0.1,0.1,0.2,0.1,0.4c0,0,0,0.1,0,0.1l0,0.1
					c0.1,0.2,0.1,0.3,0.2,0.5c0.1,0.2,0.2,0.3,0.3,0.5c0.1,0.2,0.3,0.5,0.4,0.8c0.1,0.3,0.2,0.5,0.4,0.8c0.2,0.4,0.5,0.7,0.7,1.1
					c0.2,0.3,0.5,0.7,0.8,1c0.4,0.5,0.9,1,1.4,1.4c0.5,0.5,0.9,0.9,1.4,1.4c0.2,0.2,0.3,0.3,0.5,0.5c0.2,0.2,0.4,0.3,0.6,0.4
					c0.3,0.2,0.6,0.4,0.9,0.6s0.6,0.3,0.9,0.5c0.5,0.3,1,0.5,1.6,0.6c0.6,0.1,1.1,0.2,1.6,0.4c0.1,0,0.3,0.1,0.4,0.1
					c0.1,0,0.3,0,0.4,0l0.1,0c0.1,0,0.2,0,0.2,0c0.1,0,0.1,0,0.2,0c0.1,0,0.2,0,0.3,0c0.1,0,0.2,0,0.3,0c0,0,0.1,0,0.1,0
					c0,0,0.1,0,0.1,0c0,0,0.1,0,0.1,0c0,0,0.1,0,0.1,0c0.2,0,0.4,0,0.6,0c0.2,0,0.4,0,0.5-0.1c0.1-0.1,0.3-0.1,0.4-0.2
					c0.1-0.1,0.3-0.1,0.4-0.1c0.6-0.1,1.1-0.3,1.5-0.7c0.4-0.3,0.9-0.7,1.3-1.1c0.4-0.4,0.8-0.8,1.2-1.2c0.5-0.5,1-1,1.4-1.6
					c0.4-0.6,0.9-1.1,1.2-1.7c0.1-0.1,0.1-0.2,0.2-0.2c0.1-0.1,0.1-0.2,0.2-0.2c0.1-0.1,0.2-0.2,0.3-0.3c0.1-0.1,0.2-0.2,0.3-0.3
					c0.1-0.1,0.1-0.1,0.1-0.2c0-0.1,0.1-0.1,0.1-0.2c0.1-0.2,0.2-0.4,0.3-0.6s0.2-0.4,0.3-0.6c0-0.1,0.1-0.2,0.2-0.3
					c0.1-0.1,0.1-0.2,0.2-0.3c0.1-0.2,0.2-0.5,0.4-0.7c0.1-0.2,0.3-0.4,0.3-0.7c0.1-0.3,0.2-0.6,0.4-0.8c0.1-0.3,0.2-0.6,0.3-0.8
					c0.1-0.2,0.2-0.5,0.3-0.7c0.1-0.2,0.2-0.5,0.3-0.7c0.2-0.5,0.3-0.9,0.5-1.4c0.2-0.5,0.4-0.9,0.5-1.4c0.2-0.5,0.3-1.1,0.4-1.6
					s0.3-1.1,0.4-1.7c0-0.1,0.1-0.3,0.1-0.3c0-0.1,0-0.2,0.1-0.4c0-0.2,0-0.4,0.1-0.5c0-0.2,0-0.3,0-0.5c0-0.2,0-0.4,0.1-0.5
					c0-0.2,0-0.3,0-0.5c0-0.2,0-0.4,0-0.5c0-0.2,0-0.4,0-0.5c0.1-0.2,0.1-0.5,0.1-0.9c0-0.4,0-0.7,0-1.1c0-0.4,0-0.7,0-0.9
					c0-0.3,0-0.7,0-1c0-0.3,0-0.6-0.1-1c-0.1-0.3-0.1-0.7-0.1-1.1c0-0.5,0-0.9,0-1.2c0-0.2,0-0.3,0-0.4c0-0.1,0-0.2-0.1-0.4
					c0-0.1,0-0.3,0-0.4c0-0.1,0-0.3,0-0.4c0-0.2-0.1-0.4-0.1-0.6c0-0.2,0-0.4-0.1-0.6c0-0.1,0-0.2-0.1-0.2c0-0.1,0-0.2,0-0.2
					c0-0.1,0-0.3-0.1-0.4c0-0.1-0.1-0.2-0.1-0.4c0-0.1,0-0.1-0.1-0.2c0-0.1-0.1-0.1-0.1-0.2c0-0.1,0-0.2,0-0.3c0-0.1,0-0.2,0-0.3
					c0-0.1-0.1-0.2-0.1-0.3s-0.1-0.2-0.1-0.4c-0.1-0.2-0.1-0.4-0.2-0.6c-0.1-0.2-0.1-0.4-0.1-0.6c0-0.2-0.1-0.3-0.1-0.3
					c-0.1,0-0.2-0.1-0.3-0.1c-0.1-0.1-0.2-0.1-0.3-0.1c-0.1,0-0.2-0.1-0.3-0.1c-0.4-0.1-0.8-0.4-1.3-0.6c-0.4-0.3-0.9-0.5-1.2-0.8
					c-0.3-0.2-0.6-0.4-0.9-0.7c-0.3-0.3-0.6-0.5-0.9-0.7c-0.3-0.2-0.6-0.5-0.8-0.8C366,106.8,365.8,106.5,365.6,106.2 M371.5,117.2
					c0.1,0.1,0.3,0.3,0.4,0.4c0.1,0.2,0.1,0.3,0.1,0.4l-0.1,0l-0.4-0.2c-0.3-0.2-0.6-0.3-0.9-0.4c-0.3-0.1-0.6-0.3-0.9-0.4
					c-0.6-0.3-1.2-0.5-1.9-0.6c-0.7-0.1-1.3-0.2-1.9-0.4c-0.6-0.1-1.2-0.4-1.8-0.7c-0.1-0.1-0.3-0.2-0.5-0.3
					c-0.2-0.1-0.4-0.3-0.6-0.5c-0.2-0.2-0.2-0.4-0.1-0.6c0.1,0,0.1,0,0.2,0c0,0,0.1,0,0.1,0c0.4,0.2,0.9,0.4,1.3,0.7
					c0.4,0.2,0.9,0.4,1.4,0.5c0.6,0.1,1.2,0.2,1.7,0.3c0.6,0.1,1.1,0.3,1.7,0.4c0.2,0.1,0.4,0.2,0.7,0.3c0.3,0.1,0.5,0.3,0.8,0.4
					C371.1,116.9,371.3,117,371.5,117.2 M365.2,122.7c-0.1-0.1-0.2-0.1-0.4-0.2c-0.2-0.1-0.3-0.2-0.4-0.3c-0.1-0.1-0.1-0.2,0-0.3
					c0.1,0,0.1,0,0.2,0c0.1,0,0.1,0.1,0.1,0.1c0.1,0,0.1,0.1,0.2,0.1c0.1,0,0.2,0,0.2,0.1c0.6,0.2,1.2,0.3,1.8,0.4
					c0.6,0.1,1.2,0.1,1.9,0c0.3,0,0.6-0.1,0.8-0.2c0.3-0.1,0.5-0.2,0.8-0.3l0.3-0.1l0.2,0l0.2,0.1c0,0.1,0,0.2-0.2,0.4
					c-0.2,0.2-0.3,0.3-0.6,0.4c-0.5,0.2-1.1,0.4-1.7,0.4c-0.6,0.1-1.3,0-1.9-0.1C366.2,123.1,365.7,123,365.2,122.7 M364.6,138.4
					c0.1,0,0.1,0.1,0.1,0.1l0,0c-0.1,0-0.2,0-0.2,0l-0.2,0c-0.2,0-0.4-0.1-0.6-0.1c-0.2,0-0.4-0.1-0.6-0.1c-0.3,0-0.6-0.1-0.9-0.1
					c-0.3,0-0.6,0-0.9-0.1l-0.4-0.1c-0.4-0.1-0.8-0.1-1,0c-0.3,0.1-0.6,0.2-1,0.3c-0.3,0.1-0.6,0.1-0.9,0c-0.3-0.1-0.5-0.2-0.8-0.3
					c-0.2-0.1-0.5-0.2-0.9-0.3c-0.4-0.1-0.8-0.1-1.2-0.1c-0.4,0-0.9,0-1.3,0c-0.3,0-0.5,0-0.7,0c-0.2,0-0.4,0-0.5,0h-0.2l-0.1,0
					c0-0.1,0.1-0.2,0.2-0.2s0.3-0.1,0.4-0.1c0.2,0,0.3-0.1,0.3-0.1c0.6-0.1,1.1-0.3,1.6-0.5c0.5-0.2,1.1-0.4,1.6-0.5l0.1,0
					c0.1,0,0.1,0,0.2,0c0,0,0.1,0,0.1,0s0.1,0,0.1,0c0.1,0,0.2,0,0.3,0c0.1,0,0.2,0,0.2,0.1c0.2,0.1,0.5,0.2,0.7,0.3
					c0.3,0.1,0.5,0.2,0.7,0.1c0.4-0.1,0.8-0.2,1.2-0.3c0.4-0.1,0.8,0,1.2,0.2c0.4,0.3,0.8,0.6,1.3,0.8c0.5,0.3,1,0.5,1.4,0.6
					c0.1,0,0.3,0.1,0.4,0.1c0.1,0.1,0.2,0.1,0.2,0.2C364.5,138.3,364.5,138.3,364.6,138.4 M357.2,113.5c0,0,0.1,0,0.1,0
					c0.1,0,0.2-0.1,0.4,0c0.1,0,0.2,0.1,0.3,0.2c0,0.2,0,0.4-0.3,0.6c-0.2,0.2-0.5,0.3-0.8,0.4c-0.3,0.1-0.5,0.2-0.7,0.2
					c-0.9,0.1-1.7,0.1-2.6,0c-0.9,0-1.8,0-2.7,0c-0.3,0-0.6,0-0.9,0.1c-0.2,0-0.5,0.1-0.7,0.2c-0.2,0.1-0.5,0.2-0.8,0.4l-0.2,0.1
					c-0.1,0.1-0.3,0.1-0.3,0c0,0,0-0.1,0-0.1c0,0,0-0.1,0-0.1c0.1-0.1,0.2-0.2,0.4-0.3c0.2-0.1,0.4-0.2,0.5-0.3
					c0.6-0.4,1.3-0.6,2-0.7c0.8-0.1,1.5-0.1,2.3-0.1c0.8,0,1.5,0,2.3,0c0.4,0,0.7-0.1,0.9-0.1C356.6,113.8,356.8,113.7,357.2,113.5
					L357.2,113.5 M348.6,120.6c0.1,0,0.1,0,0.2,0c0.1,0,0.1,0,0.2,0c0,0,0.1,0,0.1,0c0,0,0.1,0,0.1,0c0.6,0.2,1.3,0.4,2.1,0.5
					c0.7,0.2,1.5,0.2,2.1,0.2c0.3-0.1,0.6-0.1,0.9-0.2c0.4-0.1,0.7-0.1,1,0c0.3,0.1,0.3,0.2,0.2,0.3c-0.1,0.1-0.3,0.2-0.5,0.3
					l-0.4,0.1c-0.8,0.2-1.7,0.3-2.5,0.2s-1.7-0.3-2.5-0.6c-0.1,0-0.3-0.1-0.5-0.2c-0.2-0.1-0.3-0.2-0.4-0.3
					C348.5,120.8,348.5,120.7,348.6,120.6 M361.5,121.2l0,0.1l0,0.2c0,0.2,0,0.4,0,0.6l0,0.4c-0.1,0.5-0.1,1-0.1,1.5
					c0,0.5,0,1,0,1.5c0,0.6,0.1,1.3,0.2,1.9c0.1,0.7,0.3,1.3,0.5,1.8c0,0,0,0.1,0,0.1c0,0,0,0.1,0,0.1c0.1,0.1,0.2,0.3,0.3,0.4
					c0.1,0.2,0.2,0.3,0.3,0.5c0.1,0.2,0.2,0.3,0.2,0.6c0,0.2,0,0.4,0,0.7c-0.1,0.2-0.2,0.4-0.4,0.5c-0.2,0.1-0.4,0.1-0.6,0
					c-0.3,0-0.5-0.1-0.7-0.2l-0.1,0.1c-0.4,0.2-0.7,0.3-1.1,0.3c-0.4,0-0.8,0-1.2,0c-0.3,0-0.6-0.1-0.8-0.2
					c-0.2-0.1-0.5-0.2-0.7-0.3l-0.3-0.2c-0.2-0.1-0.3-0.2-0.4-0.3c0,0,0,0.1-0.1,0.1c-0.1,0-0.1,0.1-0.2,0.1c-0.4,0.1-0.7,0-1-0.1
					c-0.3-0.1-0.5-0.3-0.5-0.6c-0.1-0.3,0-0.6,0.4-0.9l0.1-0.1c0,0,0.1,0,0.1-0.1c0,0,0.1,0,0.2,0s0.1,0,0.1,0.1
					c0,0.1,0,0.1-0.1,0.2c0,0.1-0.1,0.1-0.1,0.2c-0.2,0.3-0.2,0.4-0.1,0.5c0.1,0.1,0.3,0.2,0.5,0.2c0.2,0,0.4,0,0.6,0
					c0.1,0,0.1,0,0.1,0c0,0,0.1,0,0.1,0v-0.1c0.1,0,0.2,0,0.3,0c0.1,0,0.2,0.1,0.2,0.1c0.6,0.4,1.2,0.6,1.8,0.7c0.6,0.1,1.3,0,2-0.2
					c0,0,0.1,0,0.1,0c0,0,0.1,0,0.1,0v0c0-0.1,0.1-0.1,0.3,0c0.1,0,0.3,0.1,0.4,0.2c0.2,0.1,0.3,0.1,0.4,0.1
					c0.3-0.1,0.4-0.2,0.4-0.4c0-0.2-0.1-0.4-0.2-0.6c-0.1-0.2-0.2-0.4-0.3-0.5l0,0l0-0.1c0-0.1-0.1-0.2-0.1-0.3l0-0.1
					c-0.4-0.7-0.6-1.5-0.7-2.4c-0.1-0.9-0.2-1.7-0.2-2.5c0-0.3,0-0.7,0-1.1c0-0.4,0-0.8,0.1-1.3c0.1-0.4,0.1-0.8,0.3-1.1l0-0.1
					c0,0,0-0.1,0.1-0.1C361.3,121.2,361.4,121.2,361.5,121.2C361.4,121.2,361.4,121.2,361.5,121.2 M354.4,139.7c0,0,0.1,0,0.1,0
					c0,0,0.1,0.1,0.1,0.1c0.2,0.1,0.4,0.2,0.8,0.3c0.3,0.1,0.6,0.2,1,0.2c0.3,0.1,0.6,0.1,0.8,0.1c0.4,0,0.9,0.1,1.5,0.1
					c0.5,0,1,0,1.5,0l0.4-0.2c0.2-0.1,0.4-0.1,0.6-0.1c0.2,0,0.3,0,0.2,0.2c-0.1,0.2-0.2,0.3-0.4,0.4c-0.2,0.1-0.4,0.2-0.7,0.2
					c-0.2,0-0.5,0.1-0.6,0.1c-0.5,0-1,0-1.6,0c-0.5,0-1-0.1-1.5-0.1c-0.4-0.1-0.8-0.2-1-0.3c-0.2-0.1-0.5-0.3-0.9-0.5l-0.2-0.2
					C354.4,139.9,354.4,139.8,354.4,139.7z"/>
				<path class="st9" d="M354.6,139.7c0,0-0.1,0-0.1,0c0,0.1,0,0.2,0.1,0.3l0.2,0.2c0.3,0.2,0.6,0.4,0.9,0.5c0.3,0.1,0.6,0.2,1,0.3
					c0.5,0.1,1,0.1,1.5,0.1c0.5,0,1.1,0,1.6,0c0.2,0,0.4,0,0.6-0.1c0.2,0,0.5-0.1,0.7-0.2c0.2-0.1,0.3-0.3,0.4-0.4
					c0-0.2,0-0.2-0.2-0.2c-0.2,0-0.4,0.1-0.6,0.1l-0.4,0.2c-0.4,0.1-0.9,0.1-1.5,0c-0.5,0-1,0-1.5-0.1c-0.2,0-0.5-0.1-0.8-0.1
					c-0.3-0.1-0.7-0.1-1-0.2c-0.3-0.1-0.6-0.2-0.8-0.3C354.6,139.7,354.6,139.7,354.6,139.7 M361.5,121.4l0-0.1c0,0,0-0.1-0.1-0.1
					c0,0,0,0-0.1,0c0,0,0,0.1-0.1,0.1l0,0.1c-0.1,0.3-0.2,0.6-0.3,1.1c-0.1,0.4-0.1,0.8-0.1,1.3c0,0.4,0,0.8,0,1.1
					c0,0.8,0.1,1.7,0.2,2.5c0.1,0.9,0.4,1.7,0.7,2.4l0,0.1c0,0.1,0,0.2,0.1,0.3l0,0.1l0,0c0.1,0.1,0.2,0.3,0.3,0.5
					c0.1,0.2,0.2,0.4,0.2,0.6c0,0.2-0.1,0.3-0.4,0.4c-0.1,0-0.2,0-0.4-0.1c-0.2-0.1-0.3-0.1-0.4-0.2c-0.1,0-0.2,0-0.3,0v0
					c0,0-0.1,0-0.1,0c0,0-0.1,0-0.1,0c-0.7,0.3-1.3,0.3-2,0.2c-0.6-0.1-1.2-0.3-1.8-0.7c0,0-0.1-0.1-0.2-0.1c-0.1,0-0.2,0-0.3,0v0.1
					c0,0-0.1,0-0.1,0c0,0-0.1,0-0.1,0c-0.2,0-0.4,0-0.6,0c-0.2,0-0.4-0.1-0.5-0.2c-0.1-0.1-0.1-0.3,0.1-0.5c0-0.1,0.1-0.1,0.1-0.2
					c0.1-0.1,0.1-0.1,0.1-0.2c0-0.1-0.1-0.1-0.1-0.1s-0.1,0-0.2,0c0,0-0.1,0.1-0.1,0.1L355,130c-0.3,0.3-0.4,0.6-0.4,0.9
					c0.1,0.3,0.2,0.5,0.5,0.6c0.3,0.1,0.6,0.2,1,0.1c0.1,0,0.2,0,0.2-0.1c0.1,0,0.1-0.1,0.1-0.1c0.1,0.1,0.2,0.3,0.4,0.3l0.3,0.2
					c0.3,0.1,0.5,0.3,0.7,0.3c0.2,0.1,0.5,0.2,0.8,0.2c0.4,0.1,0.8,0.1,1.2,0c0.4,0,0.8-0.2,1.1-0.3l0.1-0.1
					c0.2,0.1,0.4,0.2,0.7,0.2c0.3,0,0.5,0,0.6,0c0.2-0.1,0.3-0.3,0.4-0.5c0.1-0.2,0.1-0.4,0-0.7c0-0.2-0.1-0.4-0.2-0.6
					c-0.1-0.1-0.2-0.3-0.3-0.5c-0.1-0.2-0.2-0.3-0.3-0.4c0-0.1,0-0.1,0-0.1c0,0,0-0.1,0-0.1c-0.2-0.6-0.4-1.2-0.5-1.8
					c-0.1-0.7-0.2-1.3-0.2-1.9c0-0.5,0-1,0-1.5c0-0.5,0-1,0.1-1.5l0-0.4c0-0.2,0-0.4,0-0.6L361.5,121.4 M348.8,120.6
					c-0.1,0-0.2,0-0.2,0c-0.1,0.1,0,0.2,0.1,0.3c0.1,0.1,0.3,0.2,0.4,0.3c0.2,0.1,0.3,0.1,0.5,0.2c0.8,0.3,1.6,0.5,2.5,0.6
					s1.7,0.1,2.5-0.2l0.4-0.1c0.2-0.1,0.4-0.2,0.5-0.3c0.1-0.1,0.1-0.2-0.2-0.3c-0.3-0.1-0.6,0-1,0c-0.3,0.1-0.7,0.2-0.9,0.2
					c-0.7,0.1-1.4,0-2.1-0.2c-0.7-0.2-1.4-0.4-2.1-0.5c0,0-0.1,0-0.1,0c0,0-0.1,0-0.1,0C348.9,120.6,348.9,120.6,348.8,120.6
					 M357.4,113.5c0,0-0.1,0-0.1,0l-0.1,0c-0.3,0.1-0.6,0.2-0.8,0.3c-0.2,0.1-0.5,0.1-0.9,0.1c-0.7,0-1.5,0-2.3,0
					c-0.8,0-1.6,0-2.3,0.1c-0.8,0.1-1.4,0.3-2,0.7c-0.1,0.1-0.3,0.2-0.5,0.3c-0.2,0.1-0.3,0.2-0.4,0.3c0,0,0,0.1,0,0.1
					c0,0,0,0.1,0,0.1c0.1,0,0.2,0,0.3,0l0.2-0.1c0.3-0.2,0.6-0.3,0.8-0.4c0.2-0.1,0.4-0.2,0.7-0.2c0.2,0,0.5-0.1,0.9-0.1
					c0.9,0,1.8,0,2.7,0c0.9,0,1.8,0,2.6,0c0.2,0,0.4-0.1,0.7-0.2c0.3-0.1,0.6-0.2,0.8-0.4c0.2-0.2,0.3-0.4,0.3-0.6
					c0-0.1-0.1-0.2-0.3-0.2C357.6,113.4,357.5,113.4,357.4,113.5 M364.7,138.5c0-0.1,0-0.1-0.1-0.1c0,0-0.1-0.1-0.1-0.1
					c0-0.1,0-0.1-0.2-0.2c-0.1-0.1-0.3-0.1-0.4-0.1c-0.5-0.1-0.9-0.3-1.4-0.6c-0.5-0.3-0.9-0.6-1.3-0.8c-0.4-0.2-0.8-0.3-1.2-0.2
					c-0.4,0.1-0.8,0.2-1.2,0.3c-0.2,0-0.5,0-0.7-0.1c-0.3-0.1-0.5-0.3-0.7-0.3c-0.1,0-0.2,0-0.2-0.1c-0.1,0-0.2,0-0.3,0
					c0,0-0.1,0-0.1,0s-0.1,0-0.1,0c-0.1,0-0.1,0-0.2,0l-0.1,0c-0.5,0.1-1.1,0.3-1.6,0.5c-0.5,0.2-1.1,0.4-1.6,0.5
					c-0.1,0-0.2,0-0.3,0.1c-0.2,0-0.3,0.1-0.4,0.1s-0.2,0.1-0.2,0.2l0.1,0h0.2c0.1,0,0.3,0,0.5,0c0.2,0,0.5,0,0.7,0
					c0.4,0,0.8,0,1.3,0c0.4,0,0.9,0.1,1.2,0.1c0.4,0.1,0.7,0.2,0.9,0.3c0.3,0.1,0.5,0.2,0.8,0.3c0.3,0.1,0.6,0.1,0.9,0
					c0.4-0.1,0.7-0.2,1-0.3c0.3-0.1,0.6-0.1,1,0l0.4,0.1c0.3,0,0.6,0,0.9,0.1c0.3,0,0.6,0.1,0.9,0.1c0.2,0,0.4,0.1,0.6,0.1
					c0.2,0,0.4,0,0.6,0.1l0.2,0C364.5,138.5,364.6,138.5,364.7,138.5L364.7,138.5 M364.8,122.5c0.2,0.1,0.3,0.2,0.4,0.2
					c0.5,0.2,1.1,0.4,1.7,0.5c0.6,0.1,1.3,0.1,1.9,0.1c0.6-0.1,1.2-0.2,1.7-0.4c0.2-0.1,0.4-0.2,0.6-0.4c0.2-0.2,0.2-0.3,0.2-0.4
					L371,122l-0.2,0l-0.3,0.1c-0.3,0.1-0.6,0.2-0.8,0.3c-0.3,0.1-0.5,0.1-0.8,0.2c-0.7,0.1-1.3,0.1-1.9,0c-0.6-0.1-1.2-0.2-1.8-0.4
					c-0.1,0-0.2,0-0.2-0.1c-0.1,0-0.1,0-0.2-0.1c0,0-0.1,0-0.1-0.1c-0.1,0-0.1,0-0.2,0c-0.1,0.1-0.1,0.2,0,0.3
					C364.5,122.3,364.6,122.4,364.8,122.5 M371.9,117.6c-0.1-0.2-0.2-0.3-0.4-0.4c-0.2-0.1-0.4-0.3-0.6-0.4
					c-0.3-0.1-0.5-0.3-0.8-0.4c-0.3-0.1-0.5-0.2-0.7-0.3c-0.6-0.2-1.1-0.3-1.7-0.4c-0.6-0.1-1.2-0.2-1.7-0.3
					c-0.5-0.1-0.9-0.3-1.4-0.5c-0.4-0.2-0.9-0.4-1.3-0.7c0,0-0.1,0-0.1,0c-0.1,0-0.1,0-0.2,0c-0.1,0.2-0.1,0.4,0.1,0.6
					c0.2,0.2,0.3,0.3,0.6,0.5c0.2,0.1,0.4,0.2,0.5,0.3c0.6,0.3,1.2,0.6,1.8,0.7c0.6,0.1,1.3,0.2,1.9,0.4c0.6,0.1,1.3,0.3,1.9,0.6
					c0.3,0.1,0.6,0.3,0.9,0.4c0.3,0.1,0.6,0.3,0.9,0.4l0.4,0.2l0.1,0C372,118,372,117.8,371.9,117.6z"/>
				<path class="st10" d="M371.7,96.4c-0.2-0.4-0.4-0.7-0.7-1c-0.3-0.3-0.6-0.6-0.9-0.9c-1.4-1.2-2.9-2.1-4.5-2.6
					c-1.5-0.6-3.3-0.8-5.2-0.8l-2.8,0c-0.2,0-0.3,0-0.5,0.1c-0.1,0-0.2,0-0.4,0l-0.3,0c-0.5,0.1-1.1,0.2-1.6,0.4
					c-0.5,0.2-1.1,0.4-1.6,0.6c0,0-0.1,0-0.1,0c0,0-0.1,0-0.1,0c-0.8-0.3-1.6-0.5-2.5-0.7c-0.9-0.1-1.7-0.2-2.5-0.1l-0.1,0l-0.1,0
					c-0.1,0-0.2,0-0.3,0c-0.1,0-0.2,0-0.3,0l-0.2,0c-1.5,0.3-2.7,0.9-3.8,1.8c-1,0.9-1.8,2-2.4,3.4c-0.1,0.3-0.2,0.6-0.3,0.9
					c-0.1,0.3-0.1,0.6-0.1,0.9c0,0.3,0.1,0.5,0.3,0.7c-1.1,0.6-2,1.3-2.7,2.2c-0.7,0.9-1.2,1.9-1.4,3c-0.3,1.1-0.4,2.2-0.3,3.5
					c0,0.5,0.1,1.1,0.1,1.7c0,0.6,0.1,1.3,0.2,1.9s0.2,1.1,0.4,1.6l0.1,0.3l0,0.2c0,0.1,0,0.2-0.1,0.2c-0.1,0.1-0.2,0.2-0.3,0.4
					c-0.3,0.4-0.5,1-0.7,1.6c-0.2,0.6-0.2,1.2-0.2,1.8c0,0.6,0.3,1.1,0.7,1.5l0,0c-0.1,0-0.1,0-0.2,0c-0.1,0-0.1,0-0.1,0
					c-0.1,0-0.2,0-0.3,0.1l-0.2,0.1c-1.1,0.5-1.8,1.3-2.4,2.4c-0.5,1.1-0.8,2.3-0.8,3.6c0,1.3,0.2,2.4,0.6,3.3
					c0,0.1,0.1,0.1,0.1,0.2c0,0.1,0.1,0.1,0.1,0.2c-0.9,0.8-1.4,1.8-1.4,2.8c0,1,0.4,2.2,1.2,3.4c0.2,0.3,0.4,0.6,0.8,0.9
					c0.3,0.3,0.7,0.5,1.1,0.6l0,0.1c0.1,0.7,0.4,1.3,0.7,1.9c0.4,0.6,0.9,1.1,1.4,1.5c0.6,0.4,1.2,0.7,1.9,0.9
					c0.8,0.2,1.5,0.3,2.2,0.2c0.7-0.1,1.4-0.3,1.9-0.6c0.6-0.3,1.1-0.8,1.4-1.3l0-0.1c0,0,0-0.1,0-0.1c0-0.1-0.1-0.3-0.1-0.4
					c0-0.1-0.1-0.3-0.1-0.4c-0.2-0.4-0.3-0.9-0.4-1.3c-0.1-0.4-0.2-0.9-0.3-1.3c-0.1-0.3-0.1-0.6-0.2-0.9c-0.1-0.3-0.2-0.6-0.2-1
					c0-0.2-0.1-0.4-0.1-0.6c-0.1-0.2-0.1-0.4-0.1-0.6c0-0.1,0-0.2,0-0.4s0-0.3-0.1-0.4l0-0.1c-0.1,0-0.2,0.1-0.4,0.1
					c-0.1,0-0.2,0-0.4,0.1c-0.1,0-0.2,0-0.3,0c-0.1,0-0.1,0-0.2,0.1c-0.1,0-0.3,0-0.4,0c-0.1,0-0.2-0.1-0.4-0.1
					c-0.5-0.1-0.9-0.2-1.3-0.5c-0.4-0.3-0.6-0.7-0.9-1.1c-0.2-0.4-0.4-0.8-0.6-1.3c-0.1-0.2-0.2-0.5-0.2-0.7c0-0.2-0.1-0.5-0.1-0.7
					c0-0.1-0.1-0.3,0-0.4c0-0.1,0-0.3,0-0.4c-0.1-0.2-0.1-0.5-0.1-0.9c0-0.4,0-0.8,0-1.2c0-0.4,0.1-0.7,0.1-0.9c0-0.1,0-0.3,0.1-0.4
					c0-0.1,0-0.2,0.1-0.4c0,0,0-0.1,0-0.1c0-0.1,0.1-0.1,0.1-0.2l0,0c0.1,0,0.2,0,0.2-0.1c0.1,0,0.1,0,0.2,0c0.3,0,0.6,0.1,0.9,0.2
					c0.3,0.1,0.6,0.1,0.9,0.2c0.4,0,0.8,0.1,1.2,0.2c0.4,0.1,0.8,0.2,1.2,0.3c0-0.3,0-0.7,0-1.1c0-0.4,0-0.7,0.1-0.9
					c0-0.1,0.1-0.3,0.1-0.4c0-0.1,0-0.3,0-0.4c0-0.1,0-0.3,0.1-0.4c0-0.1,0-0.3,0.1-0.4c0-0.2,0-0.4,0.1-0.5c0-0.2,0-0.3,0.1-0.5
					c0-0.1,0-0.3,0-0.4c0-0.1,0-0.3,0.1-0.4c0-0.1,0-0.2,0.1-0.2c0-0.1,0-0.2,0.1-0.2c0-0.1,0-0.2,0-0.3c0-0.1,0-0.1,0.1-0.2
					c0-0.2,0.1-0.4,0.1-0.6c0-0.2,0.1-0.4,0.2-0.6c0.2-0.6,0.5-1.2,0.8-1.8c0.3-0.6,0.8-1.3,1.2-1.8c0.5-0.6,1-1,1.6-1.3
					c0.6-0.3,1.1-0.8,1.5-1.3c0.4-0.5,0.8-1.1,1.1-1.7c0.1-0.2,0.2-0.3,0.2-0.5c0.1-0.2,0.2-0.4,0.2-0.5c0.1-0.2,0.2-0.5,0.3-0.7
					c0.1-0.2,0.3-0.4,0.4-0.7c0.4-0.6,0.8-1.1,1.3-1.5c0.5-0.4,1-0.7,1.7-0.9c0.3-0.1,0.7-0.2,1-0.3c0.3-0.1,0.7-0.2,1-0.3
					c0.4-0.1,0.9-0.2,1.4-0.1c0.5,0,1,0,1.5,0h0.3c0,0,0.1,0,0.1,0l0.1,0c0.1,0,0.4,0,0.6,0c0.3,0,0.5,0,0.8,0c0.3,0,0.5,0,0.6,0.1
					c0.2,0.1,0.5,0.1,0.7,0c0.2,0,0.5,0,0.7,0l0.1-0.1c0.1,0,0.2,0,0.2,0c0,0,0.1,0.1,0.1,0.3l0,0.2c0,0,0,0.1,0.1,0.1
					c0,0,0,0.1,0,0.1c0.1,0.3,0.2,0.5,0.3,0.8c0.1,0.3,0.2,0.5,0.4,0.7c0.2,0.4,0.4,0.7,0.6,1c0.2,0.3,0.4,0.7,0.6,1
					c0.2,0.3,0.4,0.7,0.6,1c0.2,0.3,0.5,0.6,0.8,0.8c0.3,0.2,0.6,0.5,0.9,0.7c0.3,0.3,0.6,0.5,0.9,0.7c0.4,0.2,0.8,0.5,1.2,0.8
					c0.4,0.3,0.9,0.5,1.3,0.6c0.1,0,0.2,0.1,0.3,0.1c0.1,0,0.2,0.1,0.3,0.1c0.1,0,0.3,0.1,0.3,0.1c0.1,0,0.1,0.1,0.1,0.3
					c0,0.2,0.1,0.4,0.1,0.6c0.1,0.2,0.1,0.4,0.2,0.6c0,0.1,0.1,0.2,0.1,0.4s0.1,0.2,0.1,0.3c0,0.1,0,0.2,0,0.3c0,0.1,0,0.2,0,0.3
					c0,0.1,0,0.1,0.1,0.2c0,0.1,0.1,0.1,0.1,0.2c0,0.1,0,0.3,0.1,0.4c0,0.1,0.1,0.2,0.1,0.4c0,0.1,0,0.2,0,0.2c0,0.1,0,0.2,0.1,0.2
					c0,0.2,0.1,0.4,0.1,0.6c0,0.2,0.1,0.4,0.1,0.6c0,0.1,0,0.3,0,0.4c0,0.1,0,0.3,0,0.4c0,0.1,0.1,0.3,0.1,0.4c0,0.1,0,0.2,0,0.4
					c0,0.3,0,0.7,0,1.2c0,0.5,0,0.8,0.1,1.1c0.1,0.3,0.1,0.6,0.1,1c0,0.3,0,0.7,0,1c0,0.3,0,0.6,0,0.9c0,0.4,0,0.7,0,1.1
					c0,0.4,0,0.6-0.1,0.9c0,0.2-0.1,0.4,0,0.5c0,0.2,0,0.4,0,0.5c0,0.2,0,0.4,0,0.5c0,0.2-0.1,0.3-0.1,0.5c0,0.2,0,0.4,0,0.5
					c0,0.2-0.1,0.3-0.1,0.5c0,0.2,0,0.3-0.1,0.4c0,0.1-0.1,0.2-0.1,0.3c-0.1,0.6-0.3,1.1-0.4,1.7s-0.3,1.1-0.4,1.6
					c-0.2,0.5-0.3,0.9-0.5,1.4c-0.2,0.5-0.4,0.9-0.5,1.4c-0.1,0.2-0.2,0.5-0.3,0.7c-0.1,0.2-0.2,0.5-0.3,0.7
					c-0.1,0.3-0.2,0.6-0.3,0.8c-0.1,0.3-0.2,0.6-0.4,0.8c-0.1,0.2-0.2,0.5-0.3,0.7c-0.1,0.2-0.3,0.4-0.4,0.7
					c-0.1,0.1-0.1,0.2-0.2,0.3c-0.1,0.1-0.1,0.2-0.2,0.3c-0.1,0.2-0.2,0.4-0.3,0.6s-0.2,0.4-0.3,0.6c0,0.1-0.1,0.1-0.1,0.2
					c0,0.1-0.1,0.1-0.1,0.2c-0.1,0.1-0.2,0.2-0.3,0.3c-0.1,0.1-0.2,0.2-0.3,0.3c1.1,0.3,2.2,0.4,3.4,0.2s2.2-0.5,3.2-1.1
					c1-0.5,1.9-1.2,2.6-2c1.3-1.5,2.2-3,2.5-4.6c0.4-1.6,0.4-3.1,0-4.7c-0.4-1.5-1-3.1-1.9-4.6c0.5-1.1,0.7-2.2,0.7-3.5
					c0-1.2-0.2-2.4-0.7-3.5c0.2-0.2,0.4-0.4,0.6-0.6c0.2-0.2,0.3-0.5,0.5-0.7c0.6-0.9,0.9-1.9,1.2-2.9c0.2-1.1,0.2-2.1-0.1-3.1
					c-0.3-1-0.8-1.9-1.6-2.6c-0.2-0.2-0.3-0.3-0.3-0.5c0-0.1,0.1-0.3,0.2-0.4c0.1-0.1,0.2-0.3,0.3-0.5c0.6-1.3,0.9-2.5,0.9-3.8
					c0-1.3-0.3-2.5-0.9-3.8c-0.5-1-1-1.7-1.7-2.3c-0.7-0.5-1.4-0.9-2.3-1.1C373.7,96.5,372.8,96.4,371.7,96.4z"/>
			</g>
		</g>
	</g>
	<g transform="matrix( 1, 0, 0, 1, 0,0) ">
		<g>
			<g id="Layer0_2_FILL">
				<path class="st6" d="M382.9,225.2l-0.1,0c-0.1,0-0.2,0-0.3,0l0.2,0.6c0.1,0.5,0.3,1,0.4,1.5c0.1,0.5,0.3,1,0.4,1.5
					c0.3,1.1,0.5,2.1,0.7,3.2c0.2,1,0.3,2.1,0.5,3.2c0,0,0,0.1,0,0.2c0,0.1,0,0.2,0,0.3c0,0.1,0,0.2,0,0.4c0,0.1,0,0.3,0,0.4l0,0
					c0.9-0.2,1.9-0.1,3,0.2c1,0.3,2,0.8,2.8,1.5c0.8,0.7,1.4,1.5,1.7,2.5c0.1,0.3,0.2,0.6,0.4,0.9c0.1,0.3,0.3,0.4,0.6,0.4
					c0.2,0,0.5-0.1,0.9-0.5c0.4-0.4,0.8-1.1,1.2-2c0.4-0.9,0.8-2,1.1-3.2c0.2-0.8,0.3-1.7,0.4-2.6c0.1-0.9,0.1-1.8-0.1-2.8
					c-0.2-1.1-0.4-2-0.6-2.7s-0.6-1.3-0.9-1.9c-0.3-0.5-0.7-1.1-1.1-1.6c-0.8-0.5-1.5-0.8-2.4-1.1c-0.8-0.3-1.6-0.4-2.3-0.4l-0.4,0
					c-0.2,0-0.4,0-0.5,0.1c-0.1,0-0.3,0-0.4,0l-0.2,0l-0.1,0c-0.6,0.1-1.1,0.3-1.7,0.6c-0.6,0.3-1.1,0.6-1.7,0.9
					C384.1,225.1,383.5,225.2,382.9,225.2 M379.1,152.8c0,0-0.1,0-0.1,0s-0.1,0-0.1,0c-0.1,0-0.3,0-0.5,0.1
					c-0.2,0.1-0.4,0.2-0.6,0.2c0.4,4.4,0.9,8.8,1.5,13.4c0.6,4.6,1.5,9.1,2.5,13.7c1.1,4.6,2.5,9.1,4.2,13.6
					c-0.1-0.3-0.2-0.5-0.3-0.8c-0.1-0.3-0.1-0.5-0.2-0.8l-0.9-5c-0.5-2.7-1.1-5.9-1.7-9.6c-0.6-3.7-1.2-7.2-1.8-10.7
					c-0.5-3.5-0.9-6.3-1.2-8.4c0-0.1,0-0.1,0-0.2c0-0.1,0-0.1,0-0.2c0-0.3-0.1-0.5-0.1-0.8c0-0.3-0.1-0.5-0.1-0.8
					c-0.1-0.6-0.2-1.3-0.3-1.9C379.3,154,379.2,153.4,379.1,152.8 M385.1,122.8c-0.4-0.9-0.9-1.7-1.5-2.5c-0.6-0.8-1.2-1.5-1.9-2.1
					c-0.8-1-1.6-2-2.3-3c-0.8-1-1.5-2-2.3-3c-0.3-0.4-0.6-0.8-1-1.2c-0.3-0.4-0.6-0.8-0.9-1.2c-0.2-0.2-0.4-0.5-0.6-0.7
					c-0.2-0.2-0.5-0.3-0.8-0.3c0,0,0,0-0.1,0c0,0,0,0-0.1,0l-0.1,0c-0.1,0-0.1,0-0.2,0c-0.1,0-0.1,0.1-0.2,0.1l-0.2,0.1l0,0l0.3,0.4
					c0,0,0.1,0.1,0.1,0.1c0,0,0,0.1,0.1,0.1c0.2,0.3,0.4,0.5,0.6,0.7c0.2,0.2,0.4,0.5,0.6,0.7c0.5,0.5,1,1.1,1.4,1.7
					c0.4,0.6,0.9,1.1,1.4,1.7l0.1,0.1c0,0,0.1,0.1,0.1,0.2c0.1,0.1,0.3,0.3,0.4,0.4c0.1,0.1,0.2,0.3,0.4,0.4
					c0.1,0.1,0.2,0.3,0.4,0.4c0.1,0.2,0.3,0.3,0.4,0.5l0.1,0.1c0,0,0.1,0.1,0.1,0.1c0.1,0.1,0.3,0.3,0.4,0.4
					c0.1,0.1,0.2,0.3,0.3,0.4l0.1,0.1c0,0.1,0.1,0.1,0.1,0.2c0,0.1,0.1,0.1,0.1,0.2c0,0,0.1,0.1,0.1,0.2c0,0.1,0,0.2,0,0.3
					c0,0-0.1,0-0.1-0.1c0,0-0.1-0.1-0.1-0.1l-0.4-0.4c-0.5-0.6-1-1.2-1.5-1.7c-0.5-0.6-1-1.2-1.5-1.7c-0.1-0.1-0.2-0.3-0.4-0.4
					c-0.1-0.2-0.2-0.3-0.4-0.5c-0.3-0.3-0.6-0.6-0.8-0.9c-0.3-0.3-0.5-0.6-0.8-0.9c-0.2-0.2-0.4-0.5-0.6-0.7
					c-0.2-0.3-0.5-0.5-0.7-0.8l0,0c-0.1-0.1-0.2-0.2-0.3-0.3c-0.1-0.1-0.2-0.2-0.2-0.3c0,0,0-0.1,0-0.1c0,0,0-0.1,0-0.1
					c-0.2-0.2-0.4-0.3-0.6-0.5c-0.2-0.2-0.4-0.3-0.6-0.5c-0.1-0.1-0.3-0.2-0.5-0.3c-0.2-0.1-0.4-0.1-0.5,0c-0.1,0.1-0.2,0.2-0.3,0.3
					c-0.1,0.1-0.1,0.3-0.1,0.4c0.2,0.2,0.4,0.4,0.6,0.7c0.2,0.2,0.4,0.5,0.6,0.7c0.9,1.2,1.7,2.3,2.7,3.4c0.9,1.1,1.8,2.2,2.8,3.3
					c0.3,0.4,0.7,0.7,1,1.1c0.4,0.4,0.7,0.7,1,1.1l0.1,0.2c0.1,0.1,0.1,0.2,0.1,0.3c-0.1,0-0.1,0-0.1,0c0,0-0.1,0-0.1-0.1
					c-0.1-0.1-0.1-0.1-0.2-0.2c-0.1-0.1-0.1-0.1-0.2-0.2c-1.1-0.9-2.1-1.9-3.1-3c-1-1.1-1.9-2.2-2.7-3.4c-0.4-0.6-0.8-1.1-1.2-1.7
					c-0.4-0.6-0.8-1.1-1.2-1.6l-0.2-0.2c-0.1-0.1-0.2-0.2-0.3-0.4c-0.1,0-0.2,0-0.3,0c-0.1,0-0.2,0-0.3,0c-0.4,0.2-0.6,0.5-0.7,0.9
					c0,0.4,0.1,0.8,0.2,1.2c0.2,0,0.4,0,0.5,0.1c0.2,0.1,0.3,0.2,0.4,0.3c0.2,0.2,0.4,0.5,0.6,0.8c0.2,0.3,0.4,0.5,0.5,0.8
					c0.5,0.9,1.1,1.7,1.7,2.5c0.6,0.8,1.2,1.6,1.9,2.4c0.4,0.4,0.8,0.8,1.2,1.1c0.4,0.4,0.8,0.7,1.1,1.1l0.1,0.2
					c0.1,0.1,0.2,0.2,0.2,0.2c-0.1,0-0.1,0-0.2,0s-0.2-0.1-0.2-0.1c-0.1,0-0.2-0.1-0.2-0.1c-0.1-0.1-0.1-0.1-0.2-0.2
					c-0.6-0.5-1.1-0.9-1.6-1.5c-0.5-0.5-1-1-1.4-1.6c-0.4-0.5-0.8-1-1.1-1.5c-0.3-0.5-0.7-1.1-1.1-1.6c-0.1-0.2-0.3-0.5-0.6-0.9
					c-0.3-0.4-0.5-0.8-0.8-1.1c-0.3-0.4-0.5-0.6-0.7-0.6c-0.1,0-0.1,0-0.2,0c-0.1,0-0.1,0-0.1-0.1l0.1-0.1l-0.1,0.1
					c-0.1,0.1-0.1,0.2-0.2,0.3l-0.1,0.1l0,0.1c-0.2,0.7-0.2,1.4,0,2.3c0.2,0.9,0.5,1.7,1,2.6c0.5,0.9,1,1.8,1.6,2.7
					c0.6,0.8,1.2,1.5,1.8,2c0.1,0.1,0.2,0.2,0.3,0.2c0.1,0.1,0.2,0.1,0.3,0.2c0,0,0.1,0.1,0.1,0.1c0,0,0.1,0.1,0.1,0.1
					c0.3,0.3,0.5,0.5,0.7,0.8c0.2,0.3,0.5,0.5,0.7,0.8c0.1,0.1,0.2,0.2,0.3,0.4c0.1,0.1,0.2,0.2,0.3,0.4c0.3,0.5,0.6,1,0.9,1.6
					c0.2,0.6,0.4,1.2,0.6,1.7c0,0.1,0,0.3,0,0.4c0,0.1,0,0.3,0,0.4c0,0.2,0,0.4,0,0.7c0,0.2,0,0.4-0.1,0.6c-0.3,0.4-0.6,0.7-0.9,0.7
					c-0.3,0-0.8-0.1-1.4-0.3c-0.5-0.2-1-0.5-1.4-0.9c-0.4-0.4-0.8-0.7-1.3-1c-0.4-0.3-0.9-0.6-1.4-0.7c-0.2-0.1-0.4-0.2-0.7-0.3
					c-0.2-0.1-0.4-0.2-0.6-0.3c-0.2-0.1-0.4-0.2-0.6-0.2s-0.4-0.1-0.6-0.1h-0.2c-0.1,0-0.2,0-0.2,0c0,0-0.1,0.1-0.1,0.1l-0.1,0
					c-0.2,0.1-0.3,0.2-0.4,0.3s-0.1,0.2-0.2,0.3c0,0.2,0,0.4,0.1,0.6c0.1,0.2,0.2,0.4,0.4,0.5c0.4,0.3,0.8,0.6,1.2,0.9
					c0.4,0.3,0.9,0.6,1.3,0.8c0.4,0.4,0.8,0.8,1.1,1.2c0.4,0.4,0.7,0.8,1,1.2c0.5,0.6,0.9,1.2,1.3,1.8c0.4,0.6,0.9,1.2,1.3,1.9
					c0.2,0.2,0.3,0.4,0.5,0.6c0.2,0.2,0.3,0.4,0.5,0.6c0,0,0.1,0.1,0.2,0.2c0.1,0.1,0.2,0.2,0.4,0.4c0.2,0.3,0.5,0.5,0.8,0.9
					c0.3,0.3,0.5,0.7,0.8,1c0.1,0.1,0.1,0.2,0.2,0.3c0.1,0.1,0.1,0.2,0.2,0.3c0.7,0.6,1.3,1.4,1.7,2.3c0.4,0.9,0.7,2.1,0.9,3.5
					l0,0.3c0,0.2,0,0.3,0.1,0.5c0.1,0,0.3-0.1,0.4-0.1c0.1,0,0.3-0.1,0.4-0.1c0.2-0.1,0.5-0.2,0.7-0.2c0.2-0.1,0.4-0.1,0.5-0.2
					c0.9-0.3,1.7-0.5,2.6-0.7c0.8-0.2,1.7-0.4,2.5-0.5c0.2,0,0.3-0.1,0.5-0.1c0.2,0,0.3-0.1,0.5-0.1c-0.4-1.2-0.7-2.5-1-3.7
					c-0.3-1.3-0.4-2.6-0.4-4.1c0-1.7,0-3.4,0-5.1c0-1.7-0.2-3.3-0.5-4.9C386.5,125.8,385.9,124.3,385.1,122.8z"/>
				<path class="st8" d="M331.2,170.2c-0.3-1.6-0.7-3.1-1.2-4.5c-0.5-1.4-1.3-2.5-2.3-3.3c-0.4-0.3-0.8-0.4-1.2-0.5
					c-0.4-0.1-0.8-0.1-1.3,0l-0.3,0.1c-0.1,0-0.3,0-0.4,0c-0.1,0.1-0.2,0.1-0.3,0.1l-0.3,0.1c-2.1,0.5-3.9,1.3-5.4,2.4
					c-1.5,1.1-2.8,2.5-3.8,4c-1,1.6-1.9,3.4-2.5,5.4c-0.6,1.8-1,3.6-1.4,5.4c-0.3,1.8-0.6,3.6-0.8,5.5c-0.2,1.8-0.4,3.7-0.5,5.5
					c-0.1,0.8-0.1,1.7-0.2,2.5c-0.1,0.8-0.1,1.7-0.1,2.5c0,1.8,0,3.6,0,5.4c0,1.8,0,3.6,0.1,5.4c0.1,1.8,0.2,3.6,0.4,5.3
					c0.2,1.6,0.4,3.1,0.6,4.7c0.2,1.5,0.4,3.1,0.7,4.7c0.4,1.9,0.8,3.9,1.3,5.8c0.5,2,1,3.9,1.5,5.8c0.5,1.8,1.1,3.6,1.9,5.6
					c0.8,2,1.8,3.8,2.9,5.5c1.2,1.7,2.6,3,4.3,4c1.7,1,3.6,1.3,5.9,1l5.9-0.8c3.6-0.5,8-1.1,13.3-1.8c5.2-0.8,10.5-1.6,15.7-2.4
					c5.2-0.9,9.6-1.7,13.1-2.6c1.2-0.3,2.4-0.6,3.7-0.9c1.2-0.3,2.4-0.6,3.6-1c0.1,0,0.3-0.1,0.5-0.2c0.2-0.1,0.4-0.2,0.5-0.4
					c0.1-0.1,0-0.3-0.2-0.4c0,0-0.1,0-0.1,0c-0.1,0-0.1,0-0.2,0c0.1-0.2,0.2-0.4,0.2-0.7c0-0.3,0-0.5,0-0.8c0-0.2,0-0.3,0-0.4
					c0-0.1,0-0.3,0-0.4c0-0.1,0-0.2,0-0.3c0-0.1,0-0.1,0-0.2c-0.2-1.1-0.4-2.2-0.5-3.2c-0.2-1-0.4-2.1-0.7-3.2
					c-0.1-0.5-0.3-1-0.4-1.5c-0.1-0.5-0.3-1-0.4-1.5l-0.2-0.6c-0.1-0.2-0.1-0.4-0.2-0.6c-0.1-0.2-0.1-0.4-0.2-0.6
					c0-0.1-0.1-0.2-0.1-0.4c-0.1-0.2-0.2-0.2-0.4-0.2c-0.1,0-0.2,0-0.2,0.1c0,0.1-0.1,0.1-0.2,0.1c0,0,0,0.1,0,0.1c0,0,0,0.1,0,0.1
					c-0.1,0-0.3,0-0.4,0c-0.2,0-0.3,0-0.4,0c-0.6,0-1.3,0-1.9,0c-0.6,0-1.3,0-1.9,0l-0.2,0c-0.1,0-0.2,0-0.3,0h-0.8
					c-1.2,0-2.2,0-3-0.1c-0.8-0.1-1.6-0.1-2.4-0.1c-0.8,0-1.8,0-2.9,0.1c-1.1,0.1-2.2,0.2-3.2,0.2c-1.1,0-2.2,0.1-3.2,0.2
					c-0.8,0.1-1.7,0.1-2.5,0.2c-0.9,0-1.7,0.1-2.5,0.1c-1.7,0.1-3.4,0.2-5,0.3c-1.7,0.1-3.4,0.2-5,0.4c-1.8,0.2-3.6,0.3-5.5,0.4
					c-1.8,0.1-3.7,0.1-5.5,0.3c0-0.6-0.1-1.1-0.1-1.7c0-0.6-0.1-1.2-0.1-1.8c0-1.9,0-3.7-0.1-5.6c-0.1-1.8-0.2-3.7-0.3-5.5
					c-0.1-1.6-0.1-3.1-0.2-4.7c0-1.6-0.1-3.2-0.3-4.7c-0.1-0.6-0.1-1.2-0.1-1.8c0-0.6,0-1.3-0.1-1.9c-0.2-2.1-0.3-4.3-0.4-6.5
					c0-2.2-0.2-4.3-0.3-6.5c-0.2-1.8-0.3-3.6-0.4-5.4c-0.1-1.8-0.2-3.6-0.4-5.3C331.7,173.2,331.5,171.8,331.2,170.2 M379.6,147.7
					c-0.4,0.1-0.7,0.2-1.1,0.3l-0.5,0.2l0.3,0.9c0.2,0.6,0.3,1.2,0.5,1.8l0.3,1.1c0,0.1,0,0.2,0.1,0.4l0.1,0.4h0
					c0.1,0.6,0.2,1.3,0.3,1.9c0.1,0.6,0.2,1.3,0.3,1.9c0,0.3,0.1,0.5,0.1,0.8c0,0.3,0.1,0.5,0.1,0.8c0,0.1,0,0.1,0,0.2
					c0,0.1,0,0.1,0,0.2c0.2,2.1,0.6,4.9,1.2,8.4c0.5,3.5,1.1,7,1.8,10.7c0.6,3.7,1.2,6.9,1.7,9.6l0.9,5c0.1,0.3,0.1,0.5,0.2,0.8
					c0.1,0.3,0.2,0.5,0.3,0.8c-1.7-4.5-3.2-9-4.2-13.6c-1.1-4.6-1.9-9.2-2.5-13.7c-0.6-4.6-1.1-9-1.5-13.4l0-0.1
					c-0.2,0.1-0.4,0.2-0.6,0.2c-0.2,0.1-0.5,0.1-0.7,0.1c-0.4,0.2-0.8,0.3-1.3,0.4c-0.5,0.1-0.9,0.3-1.3,0.4
					c-0.4,0.1-0.7,0.2-0.9,0.3l-0.6,0.5c-0.3,0.3-0.7,0.6-1.1,0.9c-0.4,1.2-0.5,2.6-0.3,4.1c0.2,1.6,0.6,3.1,1,4.7
					c0.5,1.6,0.8,2.9,1.1,4.1c0.7,3.2,1.4,6.5,2.2,9.8c0.8,3.3,1.7,6.5,2.7,9.7c0.5,1.8,1.1,3.7,1.7,5.7c0.6,2,1.4,4.1,2.3,6.1
					c0.9,2,1.9,3.9,3,5.6c1.2,1.7,2.5,3.1,4.1,4.2l0.1,0l0,0c1,0.8,2.2,1.5,3.6,2c1.5,0.5,2.9,0.8,4.4,0.8c1.4,0,2.6-0.4,3.6-1.1
					c1.9-1.7,3.3-3.5,4.1-5.6s1.3-4.2,1.3-6.5c0.1-2.3-0.1-4.6-0.4-6.9c-0.4-2.3-0.7-4.5-1.1-6.7c-0.4-2.4-1-4.9-1.6-7.4
					c-0.6-2.5-1.2-5-1.9-7.5c-0.6-2.5-1.3-5-1.9-7.4c-0.4-1.5-0.9-3.3-1.5-5.4c-0.6-2.1-1.3-4.3-2-6.4c-0.7-2.1-1.2-3.9-1.7-5.3
					l-0.7-2.2l-1,0.2c-0.6,0.1-1.3,0.3-1.9,0.4l-1.5,0.3c-0.1,0-0.2,0.1-0.3,0.1c-0.2,0-0.3,0.1-0.5,0.1c-0.2,0-0.3,0.1-0.5,0.1
					c-0.8,0.2-1.7,0.3-2.5,0.5c-0.9,0.2-1.7,0.4-2.6,0.7c-0.2,0.1-0.3,0.1-0.5,0.2c-0.2,0.1-0.4,0.1-0.7,0.2c-0.1,0-0.3,0.1-0.4,0.1
					c-0.1,0.1-0.3,0.1-0.4,0.1C380.3,147.5,380,147.6,379.6,147.7z"/>
				<path class="st5" d="M372.7,121.7c-0.1-0.1-0.2-0.2-0.3-0.2c-0.6-0.5-1.2-1.2-1.8-2c-0.6-0.8-1.2-1.7-1.6-2.7
					c0.1,0.7,0.4,1.3,0.8,2c0.4,0.7,0.8,1.3,1.3,1.9c0.5,0.6,0.9,1.1,1.4,1.4c0.1,0.1,0.2,0.2,0.4,0.3c0.2,0.1,0.3,0.3,0.5,0.4
					c0.8,0.8,1.5,1.7,2.1,2.7c0.6,1,1.1,2,1.3,3.1c0-0.1,0-0.3,0-0.4c0-0.1,0-0.3,0-0.4c-0.1-0.6-0.3-1.2-0.6-1.7
					c-0.2-0.6-0.5-1.1-0.9-1.6c-0.1-0.1-0.2-0.3-0.3-0.4c-0.1-0.1-0.2-0.2-0.3-0.4c-0.2-0.3-0.5-0.6-0.7-0.8
					c-0.2-0.3-0.5-0.5-0.7-0.8c0,0-0.1-0.1-0.1-0.1c0,0-0.1-0.1-0.1-0.1C372.9,121.8,372.8,121.8,372.7,121.7 M368.3,111.4
					c0,0.1,0,0.1,0.1,0.1c0.1,0,0.1,0,0.2,0c0.2,0.1,0.4,0.3,0.7,0.6c0.3,0.3,0.5,0.7,0.8,1.1c0.3,0.4,0.4,0.7,0.6,0.9
					c0.4,0.5,0.7,1.1,1.1,1.6c0.3,0.5,0.7,1,1.1,1.5c0.5,0.6,0.9,1.1,1.4,1.6c0.5,0.5,1,1,1.6,1.5c0.1,0.1,0.1,0.1,0.2,0.2
					c0.1,0.1,0.2,0.1,0.2,0.1c0,0,0.1,0,0.2,0.1s0.2,0,0.2,0c-0.1-0.1-0.1-0.1-0.2-0.2l-0.1-0.2c-0.4-0.4-0.7-0.8-1.1-1.1
					c-0.4-0.4-0.8-0.7-1.2-1.1c-0.7-0.8-1.3-1.6-1.9-2.4c-0.6-0.8-1.1-1.6-1.7-2.5c-0.2-0.3-0.4-0.5-0.5-0.8
					c-0.2-0.3-0.4-0.5-0.6-0.8c-0.1-0.1-0.2-0.2-0.4-0.3c-0.2-0.1-0.3-0.1-0.5-0.1l0,0l-0.1,0L368.3,111.4 M369.9,109.3
					c-0.1-0.1-0.2-0.1-0.2-0.1c-0.1,0-0.2-0.1-0.3-0.1c0.1,0.2,0.2,0.3,0.3,0.4l0.2,0.2c0.4,0.5,0.8,1.1,1.2,1.6
					c0.4,0.6,0.8,1.1,1.2,1.7c0.9,1.2,1.8,2.3,2.7,3.4c1,1.1,2,2.1,3.1,3c0.1,0.1,0.1,0.1,0.2,0.2c0.1,0.1,0.1,0.1,0.2,0.2
					c0,0,0,0,0.1,0.1c0,0,0.1,0,0.1,0c0-0.1-0.1-0.2-0.1-0.3l-0.1-0.2c-0.3-0.4-0.6-0.8-1-1.1c-0.4-0.4-0.7-0.7-1-1.1
					c-1-1.1-1.9-2.2-2.8-3.3c-0.9-1.1-1.8-2.3-2.7-3.4c-0.2-0.2-0.4-0.5-0.6-0.7c-0.2-0.2-0.4-0.4-0.6-0.7c0,0.1,0,0.1,0,0.2
					C369.9,109.2,369.9,109.2,369.9,109.3 M374.6,111.2c-0.2-0.2-0.4-0.5-0.6-0.7c-0.2-0.2-0.4-0.5-0.6-0.7c0,0-0.1-0.1-0.1-0.1
					c0,0-0.1-0.1-0.1-0.1l-0.3-0.4c0,0-0.1,0.1-0.1,0.1c0,0.1-0.1,0.1-0.1,0.2l-0.1-0.1c0,0,0,0,0,0.1c0,0,0,0,0,0.1
					c0.1,0.1,0.2,0.2,0.2,0.3c0.1,0.1,0.2,0.2,0.3,0.3l0,0c0.2,0.3,0.5,0.5,0.7,0.8c0.2,0.3,0.4,0.5,0.6,0.7
					c0.3,0.3,0.5,0.6,0.8,0.9c0.3,0.3,0.6,0.6,0.8,0.9c0.1,0.2,0.2,0.3,0.4,0.5c0.1,0.2,0.2,0.3,0.4,0.4c0.5,0.6,1,1.2,1.5,1.7
					c0.5,0.6,1,1.1,1.5,1.7l0.4,0.4c0,0,0,0.1,0.1,0.1c0,0,0.1,0.1,0.1,0.1c0-0.1,0-0.2,0-0.3c0-0.1-0.1-0.2-0.1-0.2
					c0-0.1-0.1-0.1-0.1-0.2c-0.1-0.1-0.1-0.1-0.1-0.2l-0.1-0.1c-0.1-0.2-0.2-0.3-0.3-0.4c-0.1-0.2-0.3-0.3-0.4-0.4
					c0,0,0-0.1-0.1-0.1l-0.1-0.1c-0.1-0.2-0.3-0.3-0.4-0.5c-0.1-0.1-0.3-0.3-0.4-0.4c-0.1-0.1-0.2-0.3-0.4-0.4
					c-0.1-0.2-0.2-0.3-0.4-0.4c0-0.1-0.1-0.1-0.1-0.2l-0.1-0.1c-0.5-0.6-0.9-1.1-1.4-1.7C375.5,112.3,375.1,111.8,374.6,111.2z"/>
			</g>
		</g>
	</g>
</g>
<g id="Layer_3">
</g>
<g id="Layer_6">
</g>
</svg>
