<?xml version="1.0" encoding="utf-8"?>
<!-- Generator: Adobe Illustrator 24.3.0, SVG Export Plug-In . SVG Version: 6.00 Build 0)  -->
<svg version="1.1" xmlns="http://www.w3.org/2000/svg" xmlns:xlink="http://www.w3.org/1999/xlink" x="0px" y="0px"
	 viewBox="0 0 1920 1920" style="enable-background:new 0 0 1920 1920;" xml:space="preserve">
<style type="text/css">
	.st0{fill:#8AC8C4;}
	.st1{display:none;}
	.st2{display:inline;}
	.st3{fill:#C8E6FF;}
	.st4{clip-path:url(#SVGID_2_);fill:#FFFFFF;}
	.st5{clip-path:url(#SVGID_2_);fill:#F9EF6E;}
	.st6{clip-path:url(#SVGID_2_);}
	.st7{fill:#517572;}
	.st8{fill:#3A5854;}
	.st9{fill:#D7D8D8;}
	.st10{fill:#F4F4F3;}
	.st11{fill:#84A550;}
	.st12{clip-path:url(#SVGID_4_);fill:#517572;}
	.st13{fill:#9AB654;}
	.st14{fill:#59752E;}
	.st15{fill:#BA8A37;}
	.st16{fill:#6B4217;}
	.st17{fill:#9EBB32;}
	.st18{fill:#4F7C34;}
	.st19{fill:#4E2A16;}
	.st20{fill:#2F5625;}
	.st21{fill:#447633;}
	.st22{clip-path:url(#SVGID_2_);fill:#9AB654;}
	.st23{clip-path:url(#SVGID_2_);fill:#59752E;}
	.st24{clip-path:url(#SVGID_2_);fill:#76A9DA;}
	.st25{fill:#8BC3F2;}
	.st26{fill:#363D41;}
	.st27{fill:#4A2C1C;}
	.st28{fill:#FCC3CB;}
	.st29{fill:#453E6B;}
	.st30{fill:#DD7362;}
	.st31{fill:#F8FDFF;}
</style>
<g id="bg_1_">
	<path class="st0" d="M1920,1921.1H468.8c-258.2,0-469.5-211.3-469.5-469.5V0H1920V1921.1z"/>
	<g transform="matrix( 1, 0, 0, 1, 0,0) " class="st1">
		<g class="st2">
			<g id="Layer4_0_FILL">
				<path class="st0" d="M1960.2,1960.2V-40.2H-40.2v2000.4H1960.2z"/>
			</g>
		</g>
	</g>
	<g transform="matrix( 1, 0, 0, 1, 0,0) ">
		<g>
			<g id="Layer3_0_FILL">
				<path class="st3" d="M1501.8,1509c147-146.9,220.5-324.3,220.5-532.2s-73.5-385.2-220.5-532.2
					c-146.9-146.9-324.3-220.4-532.2-220.4s-385.2,73.5-532.2,220.4C290.4,591.6,217,769,217,976.8s73.5,385.2,220.4,532.2
					c147,147,324.4,220.5,532.2,220.5S1354.8,1656,1501.8,1509z"/>
			</g>
		</g>
	</g>
</g>
<g id="scene">
	<defs>
		<path id="SVGID_1_" d="M1501.8,1509c147-146.9,220.5-324.3,220.5-532.2s-73.5-385.2-220.5-532.2
			c-146.9-146.9-324.3-220.4-532.2-220.4s-385.2,73.5-532.2,220.4C290.4,591.6,217,769,217,976.8s73.5,385.2,220.4,532.2
			c147,147,324.4,220.5,532.2,220.5S1354.8,1656,1501.8,1509z"/>
	</defs>
	<clipPath id="SVGID_2_">
		<use xlink:href="#SVGID_1_"  style="overflow:visible;"/>
	</clipPath>
	<path id="Path_2022" class="st4" d="M1220.7,407.6c-19.8,0-36.1-1.7-36.1-3.8s31.8-3.8,70.8-3.8h235.6c38.9,0,70.8,1.7,70.8,3.8
		s-31.8,3.8-70.8,3.8h-1.4c-38.9,0-70.8,1.2-70.8,2.6s6.1,2.6,13.7,2.6s13.7,1.7,13.7,3.8s-31.8,3.8-70.8,3.8H1282
		c-38.9,0-70.8-1.7-70.8-3.8s10.2-3.8,22.8-3.8c12.5,0,22.7-1.2,22.7-2.6S1240.5,407.6,1220.7,407.6z"/>
	<path id="Path_2003" class="st5" d="M1109.1,387.6c0,29-23.5,52.4-52.4,52.4c-29,0-52.4-23.5-52.4-52.4c0-29,23.5-52.4,52.4-52.4
		C1085.6,335.1,1109.1,358.6,1109.1,387.6C1109.1,387.6,1109.1,387.6,1109.1,387.6z"/>
	<path id="Path_2021" class="st4" d="M888.5,343.1c29.3,0,53.2-2.3,53.2-5.1s-31.8-5.1-70.8-5.1H455.6c-38.9,0-70.8,2.3-70.8,5.1
		s31.8,5.1,70.8,5.1h69.6c38.9,0,70.8,1.6,70.8,3.5c0,1.9-9.1,3.5-20.2,3.5s-20.2,2.3-20.2,5.1c0,2.8,31.8,5.1,70.8,5.1h205.4
		c38.9,0,70.8-2.3,70.8-5.1s-15.1-5.1-33.6-5.1c-18.5,0-33.6-1.6-33.6-3.5C835.3,344.6,859.2,343.1,888.5,343.1z"/>
	<g id="Group_977" transform="translate(245.259 205.704)" class="st6">
		<g id="Group_904" transform="translate(0)">
			<path id="Path_2001" class="st7" d="M1019.7,283.5L842.6,461.8h364.3L1019.7,283.5z"/>
			<path id="Path_2002" class="st8" d="M1019.7,283.5L842.6,461.8h118.9L1019.7,283.5z"/>
		</g>
		<path id="Path_2049" class="st9" d="M1019.9,283.5l-20.6,62.2l-7-23.7l-11,11.9l-4.2-7.7L1019.9,283.5z"/>
		<path id="Path_2050" class="st10" d="M1061.2,322.7v15.7l-16.9-7.8l-11.7,20.5l-12.7-23.1l-20.6,17.8v0l20.6-62.2L1061.2,322.7z"
			/>
	</g>
	<g class="st6">
		<g id="Group_903" transform="translate(282.582 183.511)">
			<path id="Path_1999" class="st7" d="M340.4,246.9L116.8,466.6H575L340.4,246.9z"/>
			<path id="Path_2000" class="st8" d="M340.4,246.9L116.8,466.6h149.6L340.4,246.9z"/>
		</g>
		<g id="Group_916" transform="translate(360.861 183.113)">
			<path id="Path_2047" class="st9" d="M262.2,246.5l-31.5,96.1l-10.7-36.6l-16.8,18.4l-6.5-12.9L262.2,246.5z"/>
			<path id="Path_2048" class="st10" d="M325.2,306.4v25l-25.7-12.1l-17.9,31.6l-19.4-35.7l-31.5,27.5v0l31.5-96.1L325.2,306.4z"/>
		</g>
	</g>
	<g id="ground" class="st6">
		<path class="st11" d="M177.3,652.4c78.1,0,124.8-84,389.9-84s378.8,71.8,614.5,71.8S1664,584,1664,584h131.5v1185.1H161.8V652.4
			H177.3z"/>
	</g>
	<g id="ground_copy" class="st6">
		<defs>
			<path id="SVGID_3_" d="M177.3,652.4c78.1,0,124.8-84,389.9-84s378.8,71.8,614.5,71.8S1664,584,1664,584h131.5v1185.1H161.8V652.4
				H177.3z"/>
		</defs>
		<clipPath id="SVGID_4_">
			<use xlink:href="#SVGID_3_"  style="overflow:visible;"/>
		</clipPath>
		<path id="trail_1_" class="st12" d="M377.8,1450.6c0,0,309.1-56.2,409.4-105.2s137.1-99.9,120.4-166.7
			c-16.7-66.9-119.8-108.8-136.5-189.9s74.4-123.9,211.2-123.9s162.8-54.8,122.9-106.1c-30.5-39.2-59.2-64.2-50.3-100.8
			c5.8-23.7,71-36.6,71-36.6s-45.1,25-28.8,65.1c16.3,40.1,53.2,38.8,87,114.1c24.4,54.4-10,104.3-116.2,122.2
			c-102.6,17.2-180.3,24.1-157.2,66s121.6,92.1,171.6,172.1c64.5,103.1,81.3,217.9-76.3,318.3C831.5,1590.3,566.6,1677,566.6,1677
			L377.8,1450.6z"/>
	</g>
	<g class="st6">
		<g id="Group_906" transform="translate(339.048 251.688)">
			<path id="Path_2011" class="st13" d="M1173.7,275.1L933.9,409.2h479.7L1173.7,275.1z"/>
			<path id="Path_2012" class="st14" d="M1173.7,275.1L933.9,409.2h156.6L1173.7,275.1z"/>
			<path id="Path_2013" class="st14" d="M1185,342.2l-28,67h82.7L1185,342.2z"/>
			<path id="Path_2014" class="st14" d="M1280.3,366.8l19.2,42.4h49.5L1280.3,366.8z"/>
		</g>
		<g id="Group_927_3_" transform="translate(278.97 321.807)">
			<rect id="Rectangle_335_3_" x="998.2" y="1262.7" class="st15" width="21.6" height="125.9"/>
			<rect id="Rectangle_336_3_" x="998.2" y="1262.7" class="st16" width="10.8" height="125.9"/>
			<path id="Path_2071_3_" class="st17" d="M1085.7,1175.8c0,77.4-34.3,140.2-76.7,140.2s-76.7-62.7-76.7-140.2
				c0-77.4,34.4-140.1,76.7-140.1S1085.7,1098.5,1085.7,1175.8z"/>
			<path id="Path_2072_3_" class="st18" d="M1009.9,1035.8c-0.3,0-0.6,0-0.9,0c-42.4,0-76.7,62.7-76.7,140.1S966.6,1316,1009,1316
				c0.3,0,0.6,0,0.9,0V1035.8z"/>
		</g>
		<g id="Group_989_3_" transform="translate(302.42 310.738)">
			<g id="Group_941-2_3_">
				<path id="Path_2098-2_3_" class="st19" d="M775.8,1709.3c0,6.8-5.5,12.3-12.3,12.3l0,0c-6.8,0-12.3-5.5-12.3-12.3V1581
					c0-6.8,5.5-12.3,12.3-12.3c0,0,0,0,0,0l0,0c6.8,0,12.3,5.5,12.3,12.3V1709.3z"/>
				<path id="Path_2099-2_3_" class="st20" d="M901.8,1427.6l-98.2-170h75.3l-115.5-200l-115.4,200h75.3l-98.1,170h92.8l-92.8,160.7
					h276.6L809,1427.6H901.8z"/>
			</g>
			<path id="Path_2100-2_3_" class="st21" d="M904.6,1427.6l-98.1-170h75.3l-115.5-200l-2.8,4.8v525.8h141.1l-92.8-160.7
				L904.6,1427.6z"/>
		</g>
		<g id="Group_989_4_" transform="translate(302.42 310.738)">
			<g id="Group_941-2_4_">
				<path id="Path_2098-2_4_" class="st19" d="M1314,1199.8c0,3.4-2.8,6.1-6.1,6.1l0,0c-3.4,0-6.1-2.7-6.1-6.1v-64
					c0-3.4,2.7-6.1,6.1-6.2c0,0,0,0,0,0l0,0c3.4,0,6.1,2.8,6.1,6.2V1199.8z"/>
				<path id="Path_2099-2_4_" class="st20" d="M1376.8,1059.3l-48.9-84.7h37.5l-57.6-99.7l-57.5,99.7h37.5l-48.9,84.7h46.2
					l-46.2,80.1h137.9l-46.3-80.1H1376.8z"/>
			</g>
			<path id="Path_2100-2_4_" class="st21" d="M1378.2,1059.3l-48.9-84.7h37.5l-57.6-99.7l-1.4,2.4v262.1h70.4l-46.2-80.1
				L1378.2,1059.3z"/>
		</g>
		<g id="Group_989_5_" transform="translate(302.42 310.738)">
			<g id="Group_941-2_5_">
				<path id="Path_2098-2_5_" class="st19" d="M1171.3,1378.3c0,4.1-3.3,7.4-7.4,7.4l0,0c-4.1,0-7.4-3.3-7.4-7.4v-77
					c0-4.1,3.3-7.4,7.4-7.4c0,0,0,0,0,0l0,0c4.1,0,7.4,3.3,7.4,7.4V1378.3z"/>
				<path id="Path_2099-2_5_" class="st20" d="M1246.9,1209.3l-58.9-102h45.2l-69.3-120l-69.2,120h45.1l-58.8,102h55.6l-55.6,96.4
					h165.9l-55.7-96.4H1246.9z"/>
			</g>
			<path id="Path_2100-2_5_" class="st21" d="M1248.6,1209.3l-58.9-102h45.1l-69.3-120l-1.7,2.9v315.4h84.6l-55.6-96.4
				L1248.6,1209.3z"/>
		</g>
	</g>
	<path id="Path_2015_2_" class="st22" d="M671.1,616.8L367.9,786.3h606.4L671.1,616.8z"/>
	<path id="Path_2016_2_" class="st23" d="M671.1,616.8L367.9,786.3h198L671.1,616.8z"/>
	<path id="Path_2017_2_" class="st23" d="M685.3,701.9l-35.5,84.7h104.6L685.3,701.9z"/>
	<path id="Path_2018_2_" class="st23" d="M805.9,732.8l24.3,53.5h62.6L805.9,732.8z"/>
	<g id="Group_934" transform="translate(497.077 271.533)" class="st6">
		<rect id="Rectangle_349" x="738.4" y="398.3" class="st15" width="3.4" height="20"/>
		<rect id="Rectangle_350" x="738.4" y="398.3" class="st16" width="1.7" height="20"/>
		<path id="Path_2085" class="st17" d="M752.3,384.4c0,12.3-5.5,22.3-12.2,22.3c-6.7,0-12.2-10-12.2-22.3c0-12.3,5.5-22.3,12.2-22.3
			S752.3,372.1,752.3,384.4z"/>
		<path id="Path_2086" class="st18" d="M740.2,362.2h-0.1c-6.7,0-12.2,10-12.2,22.3c0,12.3,5.5,22.3,12.2,22.3h0.1V362.2z"/>
	</g>
	<path id="Path_2019_2_" class="st24" d="M1950,805.7c0-9.1-30.8-16.9-73.7-19.9c4.8-3.2,7.4-6.6,7.4-10c0-20.3-88.4-37-196.4-37
		s-196.4,16.6-196.4,37c0,5.4,6.3,10.5,17.4,15.1c-134.3,4.2-238.2,29.1-238.2,58.9c0,32.8,125.6,59.6,279.1,59.6h74.6
		c153.5,0,279.1-26.8,279.1-59.6c0-8.7-8.9-16.9-24.6-24.4C1920.1,822.3,1950,814.6,1950,805.7z"/>
	<g id="Group_968_2_" transform="translate(351.738 321.497)" class="st6">
		<path id="Path_2140_2_" class="st25" d="M1304.6,535.9c-16.1,0-29.3-2.4-29.3-5.4s8.6-5.4,19.2-5.4s19.2-5.2,19.2-11.5
			c0-6.3-13.2-11.5-29.3-11.5H1089c-16.1,0-29.3,5.2-29.3,11.5s13.2,11.5,29.3,11.5h47.7c16.1,0,29.3,4.8,29.3,10.8
			c0,5.9,9.6,10.8,21.4,10.8s21.4,2.4,21.4,5.4c0,3,13.2,5.4,29.3,5.4h75.7c16.1,0,29.3-4.8,29.3-10.8s-13.2-10.8-29.3-10.8
			L1304.6,535.9z"/>
	</g>
	<g id="Group_969_2_" transform="translate(411.752 310.658)" class="st6">
		<path id="Path_2141_2_" class="st25" d="M1421.6,474.7c-7.9,0-14.3-1.2-14.3-2.6s4.2-2.6,9.3-2.6c5.1,0,9.4-2.5,9.4-5.6
			s-6.4-5.6-14.3-5.6h-95.1c-7.9,0-14.3,2.5-14.3,5.6c0,3.1,6.4,5.6,14.3,5.6h23.2c7.9,0,14.3,2.4,14.3,5.2s4.7,5.2,10.4,5.2
			s10.4,1.2,10.4,2.6s6.4,2.6,14.3,2.6h36.9c7.9,0,14.3-2.4,14.3-5.2c0-2.9-6.4-5.2-14.3-5.2H1421.6z"/>
	</g>
	<g id="Group_980_2_" transform="translate(500.199 280.818)" class="st6">
		<g id="Group_947_2_">
			<path id="Path_2107_2_" class="st19" d="M781.8,433c0,0.7-0.6,1.3-1.3,1.3c0,0,0,0,0,0l0,0c-0.7,0-1.3-0.6-1.3-1.3v-13.4
				c0-0.7,0.6-1.3,1.3-1.3c0,0,0,0,0,0l0,0c0.7,0,1.3,0.6,1.3,1.3c0,0,0,0,0,0V433z"/>
			<path id="Path_2108_2_" class="st20" d="M795,403.6l-10.2-17.7h7.9L780.5,365l-12,20.9h7.9l-10.2,17.7h9.7l-9.7,16.8H795
				l-9.7-16.8H795z"/>
		</g>
		<path id="Path_2109_2_" class="st21" d="M795.2,403.6L785,385.9h7.9l-12-20.9l-0.3,0.5v54.9h14.7l-9.7-16.8L795.2,403.6z"/>
	</g>
	<g id="Group_925" transform="translate(436.306 316.731)" class="st6">
		<rect id="Rectangle_331" x="930.4" y="677.2" class="st15" width="10.5" height="60.9"/>
		<rect id="Rectangle_332" x="930.4" y="677.2" class="st16" width="5.2" height="60.9"/>
		<path id="Path_2067" class="st17" d="M972.8,635.2c0,37.5-16.6,67.8-37.1,67.8c-20.5,0-37.1-30.3-37.1-67.8
			c0-37.5,16.6-67.8,37.1-67.8C956.1,567.4,972.8,597.7,972.8,635.2z"/>
		<path id="Path_2068" class="st18" d="M936.1,567.4c-0.2,0-0.3,0-0.4,0c-20.5,0-37.1,30.4-37.1,67.8c0,37.4,16.6,67.8,37.1,67.8
			h0.4V567.4z"/>
	</g>
	<g id="Group_926_2_" transform="translate(520.424 285.68)" class="st6">
		<rect id="Rectangle_333_2_" x="1087.4" y="401.2" class="st15" width="3.5" height="20.3"/>
		<rect id="Rectangle_334_2_" x="1087.4" y="401.2" class="st16" width="1.7" height="20.3"/>
		<path id="Path_2069_2_" class="st17" d="M1101.5,387.2c0,12.5-5.5,22.6-12.4,22.6s-12.4-10.1-12.4-22.6s5.5-22.6,12.4-22.6
			C1096,364.6,1101.5,374.7,1101.5,387.2z"/>
		<path id="Path_2070_2_" class="st18" d="M1089.3,364.6h-0.1c-6.8,0-12.4,10.1-12.4,22.6s5.5,22.6,12.4,22.6h0.1V364.6z"/>
	</g>
	<g id="Group_928_2_" transform="translate(533.804 301.627)" class="st6">
		<rect id="Rectangle_337_2_" x="922.8" y="412.2" class="st15" width="4.7" height="27.4"/>
		<rect id="Rectangle_338_2_" x="922.8" y="412.2" class="st16" width="2.3" height="27.4"/>
		<path id="Path_2073_2_" class="st17" d="M941.8,393.3c0,16.8-7.5,30.5-16.7,30.5s-16.7-13.6-16.7-30.5c0-16.8,7.5-30.5,16.7-30.5
			S941.8,376.5,941.8,393.3z"/>
		<path id="Path_2074_2_" class="st18" d="M925.3,362.9h-0.2c-9.2,0-16.7,13.6-16.7,30.5s7.5,30.5,16.7,30.5h0.2V362.9z"/>
	</g>
	<g id="Group_929_1_" transform="translate(318.026 312.158)" class="st6">
		<rect id="Rectangle_339_1_" x="387.4" y="627" class="st15" width="7.5" height="43.9"/>
		<rect id="Rectangle_340_1_" x="387.4" y="627" class="st16" width="3.8" height="43.9"/>
		<path id="Path_2075_1_" class="st17" d="M417.9,596.8c0,27-12,48.8-26.7,48.8c-14.8,0-26.7-21.9-26.7-48.8s12-48.8,26.7-48.8
			C405.9,548,417.9,569.8,417.9,596.8z"/>
		<path id="Path_2076_1_" class="st18" d="M391.5,548c-0.1,0-0.2,0-0.3,0c-14.8,0-26.7,21.9-26.7,48.8s12,48.8,26.7,48.8h0.3V548z"
			/>
	</g>
	<g id="Group_932_2_" transform="translate(479.081 282.497)" class="st6">
		<rect id="Rectangle_345_2_" x="901.4" y="389.7" class="st15" width="4.1" height="23.7"/>
		<rect id="Rectangle_346_2_" x="901.4" y="389.7" class="st16" width="2" height="23.7"/>
		<path id="Path_2081_2_" class="st17" d="M917.9,373.3c0,14.5-6.4,26.3-14.4,26.3s-14.4-11.8-14.4-26.3c0-14.5,6.5-26.3,14.4-26.3
			S917.9,358.8,917.9,373.3z"/>
		<path id="Path_2082_2_" class="st18" d="M903.6,347c-0.1,0-0.1,0-0.2,0c-8,0-14.4,11.8-14.4,26.3c0,14.5,6.5,26.3,14.4,26.3h0.2
			V347z"/>
	</g>
	<g id="Group_937_2_" transform="translate(495.552 300.218)" class="st6">
		<rect id="Rectangle_355_2_" x="771.7" y="484.5" class="st15" width="6.3" height="36.7"/>
		<rect id="Rectangle_356_2_" x="771.7" y="484.5" class="st16" width="3.1" height="36.7"/>
		<path id="Path_2091_2_" class="st17" d="M797.3,459.2c0,22.6-10,40.9-22.4,40.9c-12.4,0-22.4-18.3-22.4-40.9s10-40.9,22.4-40.9
			C787.2,418.3,797.3,436.6,797.3,459.2z"/>
		<path id="Path_2092_2_" class="st18" d="M775.1,418.4c-0.1,0-0.2,0-0.3,0c-12.4,0-22.4,18.3-22.4,40.9c0,22.6,10,40.9,22.4,40.9
			c0.1,0,0.2,0,0.3,0V418.4z"/>
	</g>
	<g id="Group_938" transform="translate(461.321 294.566)" class="st6">
		<rect id="Rectangle_357" x="707.1" y="741.4" class="st15" width="12.1" height="70.3"/>
		<rect id="Rectangle_358" x="707.1" y="741.4" class="st16" width="6" height="70.3"/>
		<path id="Path_2093" class="st17" d="M756,692.8c0,43.3-19.2,78.3-42.9,78.3s-42.9-35.1-42.9-78.3c0-43.3,19.2-78.3,42.9-78.3
			S756,649.6,756,692.8z"/>
		<path id="Path_2094" class="st18" d="M713.7,614.6c-0.2,0-0.3,0-0.5,0c-23.7,0-42.9,35.1-42.9,78.3s19.2,78.3,42.9,78.3
			c0.2,0,0.3,0,0.5,0V614.6z"/>
	</g>
	<g id="Group_938_1_" transform="translate(461.321 294.566)" class="st6">
		<rect id="Rectangle_357_1_" x="881.5" y="941.2" class="st15" width="12.1" height="70.3"/>
		<rect id="Rectangle_358_1_" x="881.5" y="941.2" class="st16" width="6" height="70.3"/>
		<path id="Path_2093_1_" class="st17" d="M930.4,892.7c0,43.3-19.2,78.3-42.9,78.3c-23.7,0-42.9-35.1-42.9-78.3
			c0-43.3,19.2-78.3,42.9-78.3C911.2,814.4,930.4,849.4,930.4,892.7z"/>
		<path id="Path_2094_1_" class="st18" d="M888.1,814.4c-0.2,0-0.3,0-0.5,0c-23.7,0-42.9,35.1-42.9,78.3s19.2,78.3,42.9,78.3
			c0.2,0,0.3,0,0.5,0V814.4z"/>
	</g>
	<g id="Group_940_2_" transform="translate(546.393 273.763)" class="st6">
		<g id="Group_939_2_">
			<path id="Path_2095_2_" class="st19" d="M1015.9,458c0,1.2-1,2.2-2.2,2.2l0,0c-1.2,0-2.2-1-2.2-2.2c0,0,0,0,0,0v-23.3
				c0-1.2,1-2.2,2.2-2.2c0,0,0,0,0,0l0,0c1.2,0,2.2,1,2.2,2.2V458z"/>
			<path id="Path_2096_2_" class="st20" d="M1038.7,407l-17.8-30.8h13.6l-20.9-36.2l-20.9,36.2h13.6L988.6,407h16.8l-16.8,29.1h50.1
				l-16.8-29.1L1038.7,407z"/>
		</g>
		<path id="Path_2097_2_" class="st21" d="M1039.2,407l-17.8-30.8h13.6l-20.9-36.2l-0.5,0.9v95.3h25.6l-16.8-29.1L1039.2,407z"/>
	</g>
	<g id="Group_944_2_" transform="translate(514.366 299.763)" class="st6">
		<g id="Group_943_2_">
			<path id="Path_2101_2_" class="st19" d="M834.6,478.8c0,1.2-1,2.2-2.2,2.2l0,0c-1.2,0-2.2-1-2.2-2.2c0,0,0,0,0,0v-23.3
				c0-1.2,1-2.2,2.2-2.2l0,0l0,0c1.2,0,2.2,1,2.2,2.2V478.8z"/>
			<path id="Path_2102_2_" class="st20" d="M857.4,427.7l-17.8-30.8h13.6l-20.9-36.2l-20.9,36.2h13.7l-17.8,30.8h16.8l-16.8,29.1
				h50.1l-16.8-29.1H857.4z"/>
		</g>
		<path id="Path_2103_2_" class="st21" d="M858,427.7l-17.8-30.8h13.6l-20.9-36.2l-0.5,0.9v95.3H858l-16.8-29.1L858,427.7z"/>
	</g>
	<g id="Group_946_2_" transform="translate(480.721 293.364)" class="st6">
		<g id="Group_945_2_">
			<path id="Path_2104_2_" class="st19" d="M739.3,492c0,1-0.8,1.9-1.9,1.9l0,0c-1,0-1.9-0.8-1.9-1.9v-19.7c0-1,0.8-1.9,1.9-1.9l0,0
				c1,0,1.9,0.8,1.9,1.9V492z"/>
			<path id="Path_2105_2_" class="st20" d="M758.6,448.7l-15.1-26.1h11.6l-17.7-30.7l-17.7,30.7h11.6l-15.1,26.1h14.3l-14.2,24.7
				h42.5l-14.2-24.7H758.6z"/>
		</g>
		<path id="Path_2106_2_" class="st21" d="M759.1,448.7L744,422.6h11.6l-17.7-30.7l-0.4,0.7v80.7h21.7l-14.2-24.7L759.1,448.7z"/>
	</g>
	<g id="Group_950_2_" transform="translate(512.714 267.891)" class="st6">
		<g id="Group_949_2_">
			<path id="Path_2110_2_" class="st19" d="M998.6,447.5c0,0.7-0.6,1.3-1.3,1.3c0,0,0,0,0,0l0,0c-0.7,0-1.3-0.6-1.3-1.3c0,0,0,0,0,0
				v-13.4c0-0.7,0.6-1.3,1.3-1.3l0,0c0.7,0,1.3,0.6,1.3,1.3V447.5z"/>
			<path id="Path_2111_2_" class="st20" d="M1011.7,418.1l-10.2-17.7h7.9l-12.1-20.9l-12,20.9h7.9l-10.2,17.7h9.6l-9.7,16.8h28.9
				l-9.7-16.8H1011.7z"/>
		</g>
		<path id="Path_2112_2_" class="st21" d="M1012,418.1l-10.2-17.7h7.9l-12.1-20.9l-0.3,0.5v54.9h14.7l-9.7-16.8L1012,418.1z"/>
	</g>
	<g id="Group_952_2_" transform="translate(221.468 295.711)" class="st6">
		<g id="Group_951_2_">
			<path id="Path_2113_2_" class="st19" d="M1241.4,785.9c0,1.6-1.3,2.8-2.8,2.8c0,0,0,0,0,0l0,0c-1.6,0-2.8-1.3-2.8-2.8
				c0,0,0,0,0,0v-29.3c0-1.6,1.3-2.8,2.8-2.8l0,0c1.6,0,2.8,1.3,2.8,2.8c0,0,0,0,0,0V785.9z"/>
			<path id="Path_2114_2_" class="st20" d="M1270.1,721.5l-22.4-38.8h17.2l-26.4-45.7l-26.4,45.7h17.2l-22.4,38.8h21.2l-21.2,36.7
				h63.2l-21.2-36.7H1270.1z"/>
		</g>
		<path id="Path_2115_2_" class="st21" d="M1270.8,721.5l-22.4-38.8h17.2l-26.4-45.7l-0.6,1.1v120.1h32.2l-21.2-36.7L1270.8,721.5z"
			/>
	</g>
	<g id="Group_957_2_" transform="translate(481.913 327.511)" class="st6">
		<g id="Group_956_2_">
			<path id="Path_2119_2_" class="st19" d="M1072.2,675.8c0,1.1-0.9,2.1-2,2.1c0,0,0,0,0,0l0,0c-1.1,0-2.1-0.9-2.1-2c0,0,0,0,0,0
				v-21.5c0-1.1,0.9-2.1,2.1-2.1l0,0c1.1,0,2.1,0.9,2.1,2.1V675.8z"/>
			<path id="Path_2120_2_" class="st20" d="M1093.2,628.7l-16.4-28.4h12.6l-19.3-33.5l-19.3,33.5h12.6l-16.4,28.4h15.5l-15.5,26.9
				h46.3l-15.5-26.9H1093.2z"/>
		</g>
		<path id="Path_2121_2_" class="st21" d="M1093.7,628.7l-16.4-28.4h12.6l-19.3-33.5l-0.5,0.8v87.9h23.6l-15.5-26.9L1093.7,628.7z"
			/>
	</g>
	<g id="Group_965_1_" transform="translate(228.021 310.738)" class="st6">
		<g id="Group_964_1_">
			<path id="Path_2131_1_" class="st19" d="M1062.5,799.6c0,1.5-1.2,2.6-2.6,2.6c0,0,0,0,0,0l0,0c-1.5,0-2.6-1.2-2.7-2.6
				c0,0,0,0,0,0V772c0-1.5,1.2-2.7,2.6-2.7c0,0,0,0,0,0l0,0c1.5,0,2.6,1.2,2.6,2.6c0,0,0,0,0,0V799.6z"/>
			<path id="Path_2132_1_" class="st20" d="M1089.7,738.9l-21.1-36.6h16.2l-24.9-43.1l-24.9,43.1h16.2l-21.1,36.6h20l-20,34.6h59.6
				l-20-34.6H1089.7z"/>
		</g>
		<path id="Path_2133_1_" class="st21" d="M1090.3,738.9l-21.1-36.6h16.2l-24.9-43.1l-0.6,1v113.3h30.4l-20-34.6H1090.3z"/>
	</g>
	<g id="Group_981_2_" transform="translate(532.024 278.669)" class="st6">
		<g id="Group_962-2_2_">
			<path id="Path_2128-2_2_" class="st19" d="M883.4,454.5c0,0.7-0.6,1.3-1.3,1.3c0,0,0,0,0,0l0,0c-0.7,0-1.3-0.6-1.3-1.3
				c0,0,0,0,0,0v-13.4c0-0.7,0.6-1.3,1.3-1.3c0,0,0,0,0,0l0,0c0.7,0,1.3,0.6,1.3,1.3c0,0,0,0,0,0V454.5z"/>
			<path id="Path_2129-2_2_" class="st20" d="M896.6,425.1l-10.2-17.7h7.9l-12.1-20.9l-12,20.9h7.9l-10.2,17.7h9.7l-9.7,16.8h28.9
				l-9.7-16.8L896.6,425.1z"/>
		</g>
		<path id="Path_2130-2_2_" class="st21" d="M896.9,425.1l-10.2-17.7h7.9l-12.1-20.9l-0.3,0.5v54.9h14.7l-9.7-16.8H896.9z"/>
	</g>
	<g class="st6">
		<g id="Group_930_2_" transform="translate(439.575 283.201)">
			<rect id="Rectangle_341_2_" x="522.5" y="414.1" class="st15" width="4.7" height="27.4"/>
			<rect id="Rectangle_342_2_" x="522.5" y="414.1" class="st16" width="2.3" height="27.4"/>
			<path id="Path_2077_2_" class="st17" d="M541.5,395.2c0,16.8-7.5,30.5-16.7,30.5s-16.7-13.6-16.7-30.5s7.5-30.5,16.7-30.5
				S541.5,378.3,541.5,395.2z"/>
			<path id="Path_2078_2_" class="st18" d="M525,364.7h-0.2c-9.2,0-16.7,13.6-16.7,30.5c0,16.8,7.5,30.5,16.7,30.5h0.2V364.7z"/>
		</g>
		<g id="Group_933_2_" transform="translate(401.861 275.324)">
			<rect id="Rectangle_347_2_" x="474.6" y="354.5" class="st15" width="4.1" height="23.7"/>
			<rect id="Rectangle_348_2_" x="474.6" y="354.5" class="st16" width="2" height="23.7"/>
			<path id="Path_2083_2_" class="st17" d="M491.1,338.1c0,14.5-6.5,26.3-14.4,26.3c-8,0-14.4-11.8-14.4-26.3s6.4-26.3,14.4-26.3
				S491.1,323.6,491.1,338.1z"/>
			<path id="Path_2084_2_" class="st18" d="M476.8,311.8c-0.1,0-0.1,0-0.2,0c-8,0-14.4,11.8-14.4,26.3s6.4,26.3,14.4,26.3h0.2V311.8
				z"/>
		</g>
		<g id="Group_948_2_" transform="translate(464.199 274.818)">
			<g id="Group_947-2_2_">
				<path id="Path_2107-2_2_" class="st19" d="M374.1,393.4c0,0.6-0.5,1.1-1,1.1c0,0,0,0,0,0l0,0c-0.6,0-1.1-0.5-1.1-1c0,0,0,0,0,0
					v-11c0-0.6,0.5-1.1,1-1.1c0,0,0,0,0,0l0,0c0.6,0,1.1,0.5,1.1,1c0,0,0,0,0,0V393.4z"/>
				<path id="Path_2108-2_2_" class="st20" d="M384.8,369.3l-8.4-14.5h6.4l-9.9-17.1l-9.9,17.1h6.4l-8.4,14.5h7.9l-7.9,13.7h23.6
					l-7.9-13.7H384.8z"/>
			</g>
			<path id="Path_2109-2_2_" class="st21" d="M385.1,369.3l-8.4-14.5h6.4l-9.9-17.1l-0.2,0.4V383h12.1l-7.9-13.7H385.1z"/>
		</g>
		<g id="Group_961_2_" transform="translate(416.988 281.873)">
			<g id="Group_960_2_">
				<path id="Path_2125_2_" class="st19" d="M497.9,420.9c0,0.7-0.6,1.3-1.3,1.3c0,0,0,0,0,0l0,0c-0.7,0-1.3-0.6-1.3-1.3
					c0,0,0,0,0,0v-13.4c0-0.7,0.6-1.3,1.3-1.3l0,0c0.7,0,1.3,0.6,1.3,1.3V420.9z"/>
				<path id="Path_2126_2_" class="st20" d="M511,391.5l-10.2-17.7h7.9l-12.1-20.9l-12,20.9h7.9l-10.2,17.7h9.7l-9.7,16.8H511
					l-9.7-16.8H511z"/>
			</g>
			<path id="Path_2127_2_" class="st21" d="M511.3,391.5l-10.2-17.7h7.9l-12.1-20.9l-0.3,0.5v54.9h14.7l-9.7-16.8L511.3,391.5z"/>
		</g>
		<g id="Group_963_2_" transform="translate(451.024 291.669)">
			<g id="Group_962_2_">
				<path id="Path_2128_2_" class="st19" d="M560.3,437.4c0,0.7-0.6,1.3-1.3,1.3c0,0,0,0,0,0l0,0c-0.7,0-1.3-0.6-1.3-1.3
					c0,0,0,0,0,0V424c0-0.7,0.6-1.3,1.3-1.3c0,0,0,0,0,0l0,0c0.7,0,1.3,0.6,1.3,1.3c0,0,0,0,0,0V437.4z"/>
				<path id="Path_2129_2_" class="st20" d="M573.5,408l-10.2-17.7h7.9l-12.1-20.9l-12,20.9h7.9L544.6,408h9.7l-9.7,16.8h28.9
					l-9.7-16.8L573.5,408z"/>
			</g>
			<path id="Path_2130_2_" class="st21" d="M573.8,408l-10.2-17.7h7.9l-12.1-20.9l-0.3,0.5v54.9h14.7l-9.7-16.8H573.8z"/>
		</g>
		<g id="Group_982_2_" transform="translate(454.199 275.366)">
			<g id="Group_947-4_2_">
				<path id="Path_2107-4_2_" class="st19" d="M539.1,379.1c0,0.5-0.4,0.8-0.8,0.8c0,0,0,0,0,0l0,0c-0.5,0-0.8-0.4-0.8-0.8
					c0,0,0,0,0,0v-8.8c0-0.5,0.4-0.8,0.8-0.8c0,0,0,0,0,0l0,0c0.5,0,0.8,0.4,0.8,0.8c0,0,0,0,0,0V379.1z"/>
				<path id="Path_2108-4_2_" class="st20" d="M547.7,359.8l-6.7-11.6h5.2l-7.9-13.7l-7.9,13.7h5.2l-6.7,11.6h6.4l-6.4,11h19
					l-6.4-11L547.7,359.8z"/>
			</g>
			<path id="Path_2109-4_2_" class="st21" d="M547.9,359.8l-6.7-11.6h5.2l-7.9-13.7l-0.2,0.3v36.1h9.7l-6.4-11L547.9,359.8z"/>
		</g>
		<g id="Group_983_2_" transform="translate(472.199 275.366)">
			<g id="Group_947-5_2_">
				<path id="Path_2107-5_2_" class="st19" d="M461.6,362.9c0,0.5-0.4,0.8-0.8,0.8c0,0,0,0,0,0l0,0c-0.5,0-0.8-0.4-0.8-0.8
					c0,0,0,0,0,0v-8.8c0-0.5,0.4-0.8,0.8-0.8c0,0,0,0,0,0l0,0c0.5,0,0.8,0.4,0.8,0.8c0,0,0,0,0,0V362.9z"/>
				<path id="Path_2108-5_2_" class="st20" d="M470.2,343.6l-6.7-11.6h5.2l-7.9-13.7l-7.9,13.7h5.2l-6.7,11.6h6.4l-6.4,11h19
					l-6.4-11L470.2,343.6z"/>
			</g>
			<path id="Path_2109-5_2_" class="st21" d="M470.4,343.6l-6.7-11.6h5.2l-7.9-13.7l-0.2,0.3v36.1h9.7l-6.4-11L470.4,343.6z"/>
		</g>
	</g>
	<g id="Group_989_2_" transform="translate(302.42 310.738)" class="st6">
		<g id="Group_941-2_2_">
			<path id="Path_2098-2_2_" class="st19" d="M925,1060.2c0,2.6-2.1,4.7-4.7,4.7l0,0c-2.6,0-4.7-2.1-4.7-4.7v-48.9
				c0-2.6,2.1-4.7,4.7-4.7c0,0,0,0,0,0l0,0c2.6,0,4.7,2.1,4.7,4.7V1060.2z"/>
			<path id="Path_2099-2_2_" class="st20" d="M973,952.9l-37.4-64.7h28.7l-44-76.2l-44,76.2H905l-37.4,64.7H903l-35.3,61.2H973
				l-35.3-61.2H973z"/>
		</g>
		<path id="Path_2100-2_2_" class="st21" d="M974.1,952.9l-37.4-64.7h28.7l-44-76.2l-1.1,1.8V1014h53.7l-35.3-61.2L974.1,952.9z"/>
	</g>
	<g class="st6">
		<g id="Group_927" transform="translate(278.97 321.807)">
			<rect id="Rectangle_335" x="219.7" y="689.4" class="st15" width="9.1" height="52.8"/>
			<rect id="Rectangle_336" x="219.7" y="689.4" class="st16" width="4.5" height="52.8"/>
			<path id="Path_2071" class="st17" d="M256.5,653c0,32.5-14.4,58.8-32.2,58.8s-32.2-26.3-32.2-58.8c0-32.5,14.4-58.8,32.2-58.8
				S256.5,620.5,256.5,653z"/>
			<path id="Path_2072" class="st18" d="M224.7,594.2c-0.1,0-0.2,0-0.4,0c-17.8,0-32.2,26.3-32.2,58.8c0,32.5,14.4,58.8,32.2,58.8
				c0.1,0,0.2,0,0.4,0V594.2z"/>
		</g>
		<g id="Group_927_1_" transform="translate(278.97 321.807)">
			<rect id="Rectangle_335_1_" x="134.5" y="864.9" class="st15" width="15.2" height="88.5"/>
			<rect id="Rectangle_336_1_" x="134.5" y="864.9" class="st16" width="7.6" height="88.5"/>
			<path id="Path_2071_1_" class="st17" d="M196,803.9c0,54.4-24.1,98.5-53.9,98.5s-53.9-44.1-53.9-98.5s24.1-98.5,53.9-98.5
				S196,749.5,196,803.9z"/>
			<path id="Path_2072_1_" class="st18" d="M142.8,705.4c-0.2,0-0.4,0-0.6,0c-29.8,0-53.9,44.1-53.9,98.5s24.1,98.5,53.9,98.5
				c0.2,0,0.4,0,0.6,0V705.4z"/>
		</g>
		<g id="Group_927_2_" transform="translate(278.97 321.807)">
			<rect id="Rectangle_335_2_" x="403.1" y="845.1" class="st15" width="13.9" height="80.8"/>
			<rect id="Rectangle_336_2_" x="403.1" y="845.1" class="st16" width="6.9" height="80.8"/>
			<path id="Path_2071_2_" class="st17" d="M459.3,789.3c0,49.7-22,90-49.3,90c-27.2,0-49.3-40.3-49.3-90s22.1-90,49.3-90
				C437.3,699.4,459.3,739.6,459.3,789.3z"/>
			<path id="Path_2072_2_" class="st18" d="M410.6,699.4c-0.2,0-0.4,0-0.6,0c-27.2,0-49.3,40.3-49.3,90s22.1,90,49.3,90
				c0.2,0,0.4,0,0.6,0V699.4z"/>
		</g>
		<g id="Group_931" transform="translate(270.541 287.469)">
			<rect id="Rectangle_343" x="120.5" y="545.5" class="st15" width="7.4" height="43.5"/>
			<rect id="Rectangle_344" x="120.5" y="545.5" class="st16" width="3.7" height="43.5"/>
			<path id="Path_2079" class="st17" d="M150.8,515.5c0,26.7-11.9,48.4-26.5,48.4s-26.5-21.7-26.5-48.4c0-26.7,11.9-48.4,26.5-48.4
				S150.8,488.7,150.8,515.5z"/>
			<path id="Path_2080" class="st18" d="M124.6,467.1c-0.1,0-0.2,0-0.3,0c-14.7,0-26.5,21.7-26.5,48.4s11.9,48.4,26.5,48.4
				c0.1,0,0.2,0,0.3,0V467.1z"/>
		</g>
		<g id="Group_936" transform="translate(372.461 283.587)">
			<rect id="Rectangle_353" x="428.9" y="532.3" class="st15" width="6.5" height="37.9"/>
			<rect id="Rectangle_354" x="428.9" y="532.3" class="st16" width="3.3" height="37.9"/>
			<path id="Path_2089" class="st17" d="M455.3,506.1c0,23.3-10.3,42.2-23.1,42.2c-12.8,0-23.1-18.9-23.1-42.2s10.4-42.2,23.1-42.2
				C444.9,463.9,455.3,482.8,455.3,506.1z"/>
			<path id="Path_2090" class="st18" d="M432.4,463.9c-0.1,0-0.2,0-0.3,0c-12.8,0-23.1,18.9-23.1,42.2s10.4,42.2,23.1,42.2h0.3
				V463.9z"/>
		</g>
		<g id="Group_942_1_" transform="translate(292.42 300.738)">
			<g id="Group_941_1_">
				<path id="Path_2098_1_" class="st19" d="M273.9,665.4c0,1.7-1.4,3.1-3.1,3.1l0,0c-1.7,0-3.1-1.4-3.1-3.1c0,0,0,0,0,0v-32.6
					c0-1.7,1.4-3.1,3.1-3.1l0,0c1.7,0,3.1,1.4,3.1,3.1V665.4z"/>
				<path id="Path_2099_1_" class="st20" d="M305.9,593.9L281,550.8h19.1L270.8,500l-29.3,50.8h19.1l-24.9,43.2h23.6l-23.6,40.8
					h70.2l-23.6-40.8H305.9z"/>
			</g>
			<path id="Path_2100_1_" class="st21" d="M306.6,593.9l-24.9-43.2h19.1L271.5,500l-0.7,1.2v133.5h35.8l-23.5-40.8L306.6,593.9z"/>
		</g>
		<g id="Group_954_1_" transform="translate(256.096 314.141)">
			<g id="Group_953_1_">
				<path id="Path_2116_1_" class="st19" d="M114.9,712.7c0,1.1-0.9,2.1-2,2.1c0,0,0,0,0,0l0,0c-1.1,0-2.1-0.9-2.1-2c0,0,0,0,0,0
					v-21.5c0-1.1,0.9-2.1,2-2.1c0,0,0,0,0,0l0,0c1.1,0,2.1,0.9,2.1,2c0,0,0,0,0,0V712.7z"/>
				<path id="Path_2117_1_" class="st20" d="M136,665.6l-16.4-28.4h12.6l-19.3-33.5l-19.3,33.5h12.6l-16.4,28.4h15.4l-15.5,26.9H136
					l-15.5-26.9H136z"/>
			</g>
			<path id="Path_2118_1_" class="st21" d="M136.4,665.6L120,637.1h12.6l-19.3-33.5l-0.5,0.8v87.9h23.6l-15.5-26.9L136.4,665.6z"/>
		</g>
		<g id="Group_967" transform="translate(257.602 288.64)">
			<g id="Group_966">
				<path id="Path_2134" class="st19" d="M205.1,591.1c0,1.3-1,2.4-2.3,2.4c0,0,0,0,0,0l0,0c-1.3,0-2.4-1.1-2.4-2.4c0,0,0,0,0,0
					v-24.5c0-1.3,1-2.4,2.3-2.4c0,0,0,0,0,0l0,0c1.3,0,2.4,1,2.4,2.3c0,0,0,0,0,0V591.1z"/>
				<path id="Path_2135" class="st20" d="M229.2,537.4l-18.7-32.4h14.4l-22-38.2l-22,38.2h14.3l-18.7,32.4h17.7L176.4,568h52.8
					l-17.7-30.6H229.2z"/>
			</g>
			<path id="Path_2136" class="st21" d="M229.7,537.4L211,504.9h14.4l-22-38.2l-0.5,0.9V568h26.9L212,537.4H229.7z"/>
		</g>
		<g id="Group_984_1_" transform="translate(343.228 283.699)">
			<g id="Group_958-2_1_">
				<path id="Path_2122-2_1_" class="st19" d="M345.9,553.2c0,1-0.8,1.8-1.8,1.8l0,0l0,0c-1,0-1.8-0.8-1.8-1.8c0,0,0,0,0,0v-18.5
					c0-1,0.8-1.8,1.8-1.8c0,0,0,0,0,0l0,0c1,0,1.8,0.8,1.8,1.8c0,0,0,0,0,0V553.2z"/>
				<path id="Path_2123-2_1_" class="st20" d="M364.1,512.5L350,487.9h10.9L344.1,459l-16.7,28.9h10.9l-14.2,24.6h13.4l-13.4,23.2
					h40l-13.4-23.2H364.1z"/>
			</g>
			<path id="Path_2124-2_1_" class="st21" d="M364.5,512.5l-14.2-24.6h10.9L344.6,459l-0.4,0.7v76h20.4l-13.4-23.2L364.5,512.5z"/>
		</g>
		<g id="Group_985" transform="translate(333.228 288.969)">
			<g id="Group_958-3">
				<path id="Path_2122-3" class="st19" d="M411.7,581.7c0,1.2-1,2.2-2.2,2.2c0,0,0,0,0,0l0,0c-1.2,0-2.2-1-2.2-2.2c0,0,0,0,0,0
					v-23.2c0-1.2,1-2.2,2.2-2.2c0,0,0,0,0,0l0,0c1.2,0,2.2,1,2.2,2.2V581.7z"/>
				<path id="Path_2123-3" class="st20" d="M434.4,530.9l-17.7-30.7h13.6l-20.8-36.1l-20.8,36.1h13.6l-17.7,30.7h16.7l-16.7,29h49.9
					l-16.7-29H434.4z"/>
			</g>
			<path id="Path_2124-3" class="st21" d="M434.9,530.9l-17.7-30.7h13.6L410,464.1l-0.5,0.9v94.9h25.5l-16.7-29H434.9z"/>
		</g>
		<g id="Group_986_1_" transform="translate(286.412 289.47)">
			<g id="Group_966-2_1_">
				<path id="Path_2134-2_1_" class="st19" d="M234.6,554.9c0,1.1-0.8,1.9-1.9,1.9c0,0,0,0,0,0l0,0c-1.1,0-1.9-0.9-1.9-1.9
					c0,0,0,0,0,0v-19.8c0-1.1,0.9-1.9,1.9-1.9h0l0,0c1.1,0,1.9,0.9,1.9,1.9v0V554.9z"/>
				<path id="Path_2135-2_1_" class="st20" d="M254,511.5l-15.1-26.2h11.6l-17.8-30.8l-17.8,30.8h11.6l-15.1,26.2h14.3l-14.3,24.8
					H254l-14.3-24.8H254z"/>
			</g>
			<path id="Path_2136-2_1_" class="st21" d="M254.5,511.5l-15.1-26.2h11.6l-17.8-30.8l-0.4,0.8v81.1h21.8l-14.3-24.8L254.5,511.5z"
				/>
		</g>
		<g id="Group_987" transform="translate(309.484 287.47)">
			<g id="Group_966-3">
				<path id="Path_2134-3" class="st19" d="M315.1,566.6c0,0.9-0.7,1.7-1.7,1.7c0,0,0,0,0,0l0,0c-0.9,0-1.7-0.7-1.7-1.7c0,0,0,0,0,0
					v-17.3c0-0.9,0.7-1.7,1.7-1.7c0,0,0,0,0,0l0,0c0.9,0,1.7,0.7,1.7,1.7c0,0,0,0,0,0V566.6z"/>
				<path id="Path_2135-3" class="st20" d="M332.1,528.6l-13.2-22.9H329l-15.6-27l-15.6,27H308l-13.2,22.9h12.5l-12.5,21.7h37.3
					l-12.5-21.7L332.1,528.6z"/>
			</g>
			<path id="Path_2136-3" class="st21" d="M332.5,528.6l-13.2-22.9h10.2l-15.6-27l-0.4,0.7v70.9h19L320,528.6H332.5z"/>
		</g>
		<g id="Group_988_1_" transform="translate(237.689 295.47)">
			<g id="Group_966-4_1_">
				<path id="Path_2134-4_1_" class="st19" d="M40.6,646.5c0,1-0.8,1.8-1.8,1.8c0,0,0,0,0,0l0,0c-1,0-1.8-0.8-1.8-1.8c0,0,0,0,0,0
					V628c0-1,0.8-1.8,1.8-1.8l0,0c1,0,1.8,0.8,1.8,1.8V646.5z"/>
				<path id="Path_2135-4_1_" class="st20" d="M58.8,605.9l-14.2-24.5h10.9l-16.6-28.9l-16.6,28.9H33l-14.2,24.5h13.4l-13.4,23.2
					h39.9l-13.4-23.2H58.8z"/>
			</g>
			<path id="Path_2136-4_1_" class="st21" d="M59.2,605.9L45,581.4h10.9l-16.6-28.9l-0.4,0.7v75.9h20.4l-13.4-23.2H59.2z"/>
		</g>
		<g id="Group_989" transform="translate(302.42 310.738)">
			<g id="Group_941-2">
				<path id="Path_2098-2" class="st19" d="M340.2,727.4c0,2-1.6,3.5-3.6,3.5l0,0c-2,0-3.5-1.6-3.5-3.5v-37c0-2,1.6-3.6,3.5-3.6
					c0,0,0,0,0,0l0,0c2,0,3.6,1.6,3.6,3.6V727.4z"/>
				<path id="Path_2099-2" class="st20" d="M376.6,646.2l-28.3-49H370l-33.3-57.7l-33.3,57.7h21.7l-28.3,49h26.7l-26.7,46.3h79.7
					l-26.7-46.3H376.6z"/>
			</g>
			<path id="Path_2100-2" class="st21" d="M377.4,646.2l-28.3-49h21.7l-33.3-57.7l-0.8,1.4v151.6h40.7l-26.7-46.3L377.4,646.2z"/>
		</g>
		<g id="Group_989_1_" transform="translate(302.42 310.738)">
			<g id="Group_941-2_1_">
				<path id="Path_2098-2_1_" class="st19" d="M269.1,989.7c0,3-2.4,5.4-5.4,5.4l0,0c-3,0-5.4-2.4-5.4-5.4v-55.9
					c0-3,2.4-5.4,5.3-5.4c0,0,0,0,0,0l0,0c3,0,5.4,2.4,5.4,5.4V989.7z"/>
				<path id="Path_2099-2_1_" class="st20" d="M324,866.9l-42.8-74.1h32.8l-50.3-87.2l-50.3,87.2h32.8l-42.8,74.1h40.4l-40.4,70H324
					l-40.4-70H324z"/>
			</g>
			<path id="Path_2100-2_1_" class="st21" d="M325.2,866.9l-42.8-74.1h32.8L265,705.7l-1.2,2.1v229.1h61.5l-40.4-70L325.2,866.9z"/>
		</g>
		<g id="Group_990_1_" transform="translate(267.801 318.235)">
			<g id="Group_953-2_1_">
				<path id="Path_2116-2_1_" class="st19" d="M163.9,675.2c0,1.3-1,2.3-2.3,2.3c0,0,0,0,0,0l0,0c-1.3,0-2.3-1-2.3-2.3c0,0,0,0,0,0
					v-24.5c0-1.3,1-2.3,2.3-2.3c0,0,0,0,0,0l0,0c1.3,0,2.3,1,2.4,2.3c0,0,0,0,0,0V675.2z"/>
				<path id="Path_2117-2_1_" class="st20" d="M188,621.5l-18.7-32.4h14.3l-22-38.1l-22,38.1h14.3l-18.7,32.4h17.7l-17.7,30.6H188
					l-17.7-30.6H188z"/>
			</g>
			<path id="Path_2118-2_1_" class="st21" d="M188.5,621.5l-18.7-32.4h14.4l-22-38.1l-0.5,0.9v100.2h26.9l-17.7-30.6H188.5z"/>
		</g>
		<g id="Group_991" transform="translate(242.263 325.001)">
			<g id="Group_964-2">
				<path id="Path_2131-2" class="st19" d="M68.9,704.9c0,1-0.8,1.8-1.8,1.8c0,0,0,0,0,0l0,0c-1,0-1.8-0.8-1.8-1.8c0,0,0,0,0,0
					v-18.4c0-1,0.8-1.8,1.8-1.8c0,0,0,0,0,0l0,0c1,0,1.8,0.8,1.8,1.8c0,0,0,0,0,0V704.9z"/>
				<path id="Path_2132-2" class="st20" d="M87,664.4L72.9,640h10.8l-16.6-28.8L50.5,640h10.8l-14.1,24.4h13.4l-13.3,23.1H87
					l-13.3-23.1H87z"/>
			</g>
			<path id="Path_2133-2" class="st21" d="M87.4,664.4L73.3,640h10.8l-16.6-28.8l-0.4,0.7v75.6h20.3l-13.3-23.1L87.4,664.4z"/>
		</g>
		<g id="Group_992_1_" transform="translate(246.683 296.234)">
			<g id="Group_966-5_1_">
				<path id="Path_2134-5_1_" class="st19" d="M92.9,623.1c0,1.3-1,2.4-2.3,2.4c0,0,0,0,0,0l0,0c-1.3,0-2.4-1.1-2.4-2.4c0,0,0,0,0,0
					v-24.5c0-1.3,1.1-2.4,2.4-2.4l0,0l0,0c1.3,0,2.4,1.1,2.4,2.4l0,0V623.1z"/>
				<path id="Path_2135-5_1_" class="st20" d="M117,569.4L98.3,537h14.3l-22-38.1l-22,38.1h14.3l-18.7,32.4h17.7L64.2,600H117
					l-17.7-30.6L117,569.4z"/>
			</g>
			<path id="Path_2136-5_1_" class="st21" d="M117.5,569.4L98.8,537h14.3l-22-38.1l-0.5,0.9V600h26.9l-17.7-30.6L117.5,569.4z"/>
		</g>
		<g id="Group_994_1_" transform="translate(231.786 288.712)">
			<g id="Group_951-3_1_">
				<path id="Path_2113-3_1_" class="st19" d="M635.8,553.8c0,0.9-0.7,1.5-1.5,1.5c0,0,0,0,0,0l0,0c-0.9,0-1.5-0.7-1.5-1.5
					c0,0,0,0,0,0v-16.1c0-0.9,0.7-1.5,1.5-1.5c0,0,0,0,0,0l0,0c0.9,0,1.5,0.7,1.5,1.5l0,0V553.8z"/>
				<path id="Path_2114-3_1_" class="st20" d="M651.6,518.5l-12.3-21.3h9.5l-14.5-25.1l-14.5,25.1h9.4l-12.3,21.3h11.6l-11.6,20.1
					h34.7l-11.6-20.1H651.6z"/>
			</g>
			<path id="Path_2115-3_1_" class="st21" d="M651.9,518.5l-12.3-21.3h9.4l-14.5-25.1l-0.4,0.6v65.9h17.7l-11.6-20.1L651.9,518.5z"
				/>
		</g>
		<g id="Group_995" transform="translate(245.786 287.712)">
			<g id="Group_951-4">
				<path id="Path_2113-4" class="st19" d="M47.9,556c0,0.6-0.5,1.2-1.2,1.2c0,0,0,0,0,0l0,0c-0.6,0-1.2-0.5-1.2-1.2v-12.2
					c0-0.6,0.5-1.2,1.2-1.2l0,0c0.6,0,1.2,0.5,1.2,1.2c0,0,0,0,0,0V556z"/>
				<path id="Path_2114-4" class="st20" d="M59.9,529.3l-9.3-16.1h7.2l-11-19l-11,19h7.2l-9.3,16.1h8.8l-8.8,15.3h26.3l-8.8-15.3
					H59.9z"/>
			</g>
			<path id="Path_2115-4" class="st21" d="M60.2,529.3l-9.3-16.1H58l-11-19l-0.3,0.5v50h13.4l-8.8-15.3L60.2,529.3z"/>
		</g>
	</g>
	<g id="Group_996_1_" transform="translate(199.393 293.763)" class="st6">
		<g id="Group_939-2_1_">
			<path id="Path_2095-2_1_" class="st19" d="M1357.7,922.1c0,2-1.6,3.6-3.6,3.6l0,0c-2,0-3.6-1.6-3.6-3.6c0,0,0,0,0,0v-37.3
				c0-2,1.6-3.6,3.6-3.6c0,0,0,0,0,0l0,0c2,0,3.6,1.6,3.6,3.6V922.1z"/>
			<path id="Path_2096-2_1_" class="st20" d="M1394.2,840.2l-28.5-49.4h21.9l-33.5-58.1l-33.5,58.1h21.9l-28.5,49.4h26.9l-26.9,46.7
				h80.3l-26.9-46.7L1394.2,840.2z"/>
		</g>
		<path id="Path_2097-2_1_" class="st21" d="M1395.1,840.2l-28.5-49.4h21.9l-33.5-58.1l-0.8,1.4v152.7h41l-27-46.7L1395.1,840.2z"/>
	</g>
	<g id="birds" class="st6">
		<g id="noun_flock_1744762" transform="translate(803.184 334.868)">
			<path id="Path_2144" class="st26" d="M651.9,160.5c-2.1,0.2-4.2,0.5-6.2,1c-2.1,0.5-4.1,1.2-6.1,2.1c-4.2,1.8-7.9,4.5-10.9,7.9
				c-0.3,0.3-0.5,0.6-0.7,0.9c-0.3-0.3-0.5-0.6-0.8-0.9c-3-3.4-6.7-6.1-10.9-7.9c-2-0.9-4-1.6-6.1-2.1c-2-0.5-4.1-0.8-6.2-1
				c-2.1-0.2-4.2-0.2-6.2-0.1c-2.1,0.1-4.1,0.5-6.1,0.9c2,0.5,3.9,1,5.8,1.6c1.9,0.6,3.7,1.2,5.5,1.9c3.5,1.3,6.8,3,10,5
				c2.9,1.9,5.5,4.2,7.6,6.9c0.9,1.2,1.6,2.6,2.2,4c0.5,1.4,2.8,4.9,5.3,4.9l0,0c2.5,0,4.8-3.5,5.3-4.9c0.5-1.5,1.3-2.8,2.2-4
				c2.1-2.8,4.6-5.1,7.6-6.9c3.1-2,6.5-3.7,10-5c1.8-0.7,3.6-1.3,5.5-1.9c1.9-0.6,3.8-1.1,5.8-1.6c-2-0.5-4-0.8-6.1-0.9
				C656.1,160.3,654,160.3,651.9,160.5z"/>
			<path id="Path_2145" class="st26" d="M661.9,134.6c-2.6,0.2-5.2,0.9-7.7,1.9c-2.6,1.1-4.9,2.8-6.8,4.9c-0.2,0.2-0.3,0.4-0.4,0.6
				c-0.1-0.2-0.3-0.4-0.4-0.6c-1.9-2.1-4.2-3.8-6.8-4.9c-1.2-0.5-2.5-1-3.8-1.3c-1.3-0.3-2.6-0.5-3.9-0.7c-1.3-0.1-2.6-0.1-3.9,0
				c-1.3,0.1-2.5,0.3-3.8,0.6c1.2,0.3,2.4,0.6,3.6,1c1.2,0.3,2.3,0.7,3.4,1.2c2.2,0.8,4.2,1.9,6.2,3.1c1.8,1.1,3.4,2.6,4.7,4.3
				c0.6,0.8,1,1.6,1.3,2.5c0.3,0.9,1.7,3,3.3,3l0,0c1.5,0,3-2.1,3.3-3c0.3-0.9,0.8-1.7,1.3-2.5c1.3-1.7,2.9-3.2,4.7-4.3
				c1.9-1.3,4-2.3,6.2-3.1c1.1-0.4,2.2-0.8,3.4-1.2c1.2-0.4,2.4-0.7,3.6-1c-1.2-0.3-2.5-0.5-3.8-0.6
				C664.4,134.5,663.1,134.5,661.9,134.6z"/>
			<path id="Path_2146" class="st26" d="M607.2,132.2c0.1,0.1,0.1,0.1,0.1,0.2c0,0,0,0.1,0.1,0.1c0,0,0,0.1,0,0.1
				c0,0.1,0.1,0.2,0.1,0.3v0.1c0,0.9,0.8,1.6,1.6,1.6l0,0c0.9,0,1.6-0.7,1.6-1.6v0c0-0.1,0-0.2,0.1-0.3c0,0,0-0.1,0-0.1
				c0,0,0-0.1,0.1-0.1c0.1-0.1,0.1-0.1,0.1-0.2c0.3-0.4,0.6-0.7,1-0.9c0.9-0.6,1.9-1.2,3-1.5c0.6-0.2,1.1-0.4,1.7-0.6
				c0.6-0.2,1.2-0.4,1.8-0.6c0.6-0.2,1.2-0.3,1.8-0.5l1.9-0.5c-1.3-0.3-2.6-0.5-3.9-0.6c-1.3,0-2.7,0.1-4,0.3
				c-1.4,0.2-2.7,0.7-4,1.4c-0.5,0.3-0.9,0.6-1.3,0.9c-0.4-0.4-0.8-0.7-1.3-0.9c-0.6-0.4-1.3-0.7-2-0.9c-0.7-0.2-1.3-0.4-2-0.5
				c-1.3-0.2-2.6-0.3-4-0.3c-1.3,0-2.6,0.2-3.9,0.6c0.6,0.2,1.3,0.3,1.9,0.5l1.8,0.5c0.3,0.1,0.6,0.2,0.9,0.3
				c0.3,0.1,0.6,0.2,0.9,0.3c0.6,0.2,1.2,0.4,1.7,0.6c1.1,0.4,2.1,0.9,3,1.5C606.5,131.5,606.9,131.8,607.2,132.2z"/>
		</g>
		<g>
			<g id="noun_flock_1744762_1_" transform="translate(803.184 334.868)">
				<path id="Path_2144_1_" class="st26" d="M-269,136.1c-2.1,0.2-4.2,0.5-6.2,1c-2.1,0.5-4.1,1.2-6.1,2.1
					c-4.2,1.8-7.9,4.5-10.9,7.9c-0.3,0.3-0.5,0.6-0.7,0.9c-0.3-0.3-0.5-0.6-0.8-0.9c-3-3.4-6.7-6.1-10.9-7.9c-2-0.9-4-1.6-6.1-2.1
					c-2-0.5-4.1-0.8-6.2-1c-2.1-0.2-4.2-0.2-6.2-0.1c-2.1,0.1-4.1,0.5-6.1,0.9c2,0.5,3.9,1,5.8,1.6c1.9,0.6,3.7,1.2,5.5,1.9
					c3.5,1.3,6.8,3,10,5c2.9,1.9,5.5,4.2,7.6,6.9c0.9,1.2,1.6,2.6,2.2,4c0.5,1.4,2.8,4.9,5.3,4.9l0,0c2.5,0,4.8-3.5,5.3-4.9
					c0.5-1.5,1.3-2.8,2.2-4c2.1-2.8,4.6-5.1,7.6-6.9c3.1-2,6.5-3.7,10-5c1.8-0.7,3.6-1.3,5.5-1.9c1.9-0.6,3.8-1.1,5.8-1.6
					c-2-0.5-4-0.8-6.1-0.9C-264.8,135.9-266.9,136-269,136.1z"/>
				<path id="Path_2145_1_" class="st26" d="M-259.1,110.2c-2.6,0.2-5.2,0.9-7.7,1.9c-2.6,1.1-4.9,2.8-6.8,4.9
					c-0.2,0.2-0.3,0.4-0.4,0.6c-0.1-0.2-0.3-0.4-0.4-0.6c-1.9-2.1-4.2-3.8-6.8-4.9c-1.2-0.5-2.5-1-3.8-1.3c-1.3-0.3-2.6-0.5-3.9-0.7
					c-1.3-0.1-2.6-0.1-3.9,0c-1.3,0.1-2.5,0.3-3.8,0.6c1.2,0.3,2.4,0.6,3.6,1c1.2,0.3,2.3,0.7,3.4,1.2c2.2,0.8,4.2,1.9,6.2,3.1
					c1.8,1.1,3.4,2.6,4.7,4.3c0.6,0.8,1,1.6,1.3,2.5c0.3,0.9,1.7,3,3.3,3l0,0c1.5,0,3-2.1,3.3-3c0.3-0.9,0.8-1.7,1.3-2.5
					c1.3-1.7,2.9-3.2,4.7-4.3c1.9-1.3,4-2.3,6.2-3.1c1.1-0.4,2.2-0.8,3.4-1.2c1.2-0.4,2.4-0.7,3.6-1c-1.2-0.3-2.5-0.5-3.8-0.6
					C-256.5,110.1-257.8,110.1-259.1,110.2z"/>
				<path id="Path_2146_1_" class="st26" d="M-313.7,107.8c0.1,0.1,0.1,0.1,0.1,0.2c0,0,0,0.1,0.1,0.1c0,0,0,0.1,0,0.1
					c0,0.1,0.1,0.2,0.1,0.3v0.1c0,0.9,0.8,1.6,1.6,1.6l0,0c0.9,0,1.6-0.7,1.6-1.6v0c0-0.1,0-0.2,0.1-0.3c0,0,0-0.1,0-0.1
					c0,0,0-0.1,0.1-0.1c0.1-0.1,0.1-0.1,0.1-0.2c0.3-0.4,0.6-0.7,1-0.9c0.9-0.6,1.9-1.2,3-1.5c0.6-0.2,1.1-0.4,1.7-0.6
					c0.6-0.2,1.2-0.4,1.8-0.6c0.6-0.2,1.2-0.3,1.8-0.5l1.9-0.5c-1.3-0.3-2.6-0.5-3.9-0.6c-1.3,0-2.7,0.1-4,0.3
					c-1.4,0.2-2.7,0.7-4,1.4c-0.5,0.3-0.9,0.6-1.3,0.9c-0.4-0.4-0.8-0.7-1.3-0.9c-0.6-0.4-1.3-0.7-2-0.9c-0.7-0.2-1.3-0.4-2-0.5
					c-1.3-0.2-2.6-0.3-4-0.3c-1.3,0-2.6,0.2-3.9,0.6c0.6,0.2,1.3,0.3,1.9,0.5l1.8,0.5c0.3,0.1,0.6,0.2,0.9,0.3
					c0.3,0.1,0.6,0.2,0.9,0.3c0.6,0.2,1.2,0.4,1.7,0.6c1.1,0.4,2.1,0.9,3,1.5C-314.4,107.1-314.1,107.4-313.7,107.8z"/>
			</g>
			<g id="noun_flock_1744762_2_" transform="translate(803.184 334.868)">
				<path id="Path_2144_2_" class="st26" d="M-3.7,162.7c-1.6,0.1-3.2,0.4-4.8,0.8c-1.6,0.4-3.2,0.9-4.7,1.6
					c-3.2,1.4-6.1,3.4-8.4,6.1c-0.2,0.2-0.4,0.5-0.6,0.7c-0.2-0.2-0.4-0.5-0.6-0.7c-2.3-2.6-5.2-4.7-8.4-6.1
					c-1.5-0.7-3.1-1.2-4.7-1.6c-1.6-0.4-3.2-0.6-4.8-0.8c-1.6-0.1-3.2-0.1-4.8,0c-1.6,0.1-3.2,0.3-4.7,0.7c1.5,0.4,3,0.8,4.5,1.2
					c1.5,0.4,2.9,0.9,4.3,1.5c2.7,1,5.3,2.3,7.7,3.9c2.2,1.4,4.2,3.2,5.8,5.4c0.7,1,1.3,2,1.7,3.1c0.4,1.1,2.2,3.8,4.1,3.8l0,0
					c1.9,0,3.7-2.7,4.1-3.8c0.4-1.1,1-2.2,1.7-3.1c1.6-2.1,3.6-3.9,5.8-5.4c2.4-1.6,5-2.9,7.7-3.9c1.4-0.5,2.8-1,4.3-1.5
					s3-0.8,4.5-1.2c-1.5-0.4-3.1-0.6-4.7-0.7C-0.6,162.5-2.2,162.5-3.7,162.7z"/>
			</g>
		</g>
	</g>
	<g id="Layer_7" class="st6">
		<g id="noun_Deer_221805_1_" transform="translate(639.056 468.62)">
			<path id="Path_2147_1_" class="st27" d="M794.6,312.8c0-0.3,0.1-0.8,0.1-1.4c0-0.2-0.1-0.6-0.2-1.2c-0.4-2.7-0.5-5.4-0.5-8.1
				c0.1-0.3,0.1-0.6,0.3-0.9c0-0.1,0.1-0.2,0.2-0.2c0.1-0.2,0.3-0.3,0.5-0.4l1-0.2c0.1,1.3,0.2,2.6,0.5,3.9c0.1,0.5,0.3,1.1,0.3,1.2
				c0.2,0.8,0.4,1.4,0.7,2.2c0.7,2.9,1.1,5.9,1.3,8.9c0.1,1.1,0.2,1,0.3,1.6h1.5c0-0.6-0.1-0.4-0.1-1.4c-0.3-4.1-0.4-6.2-0.5-7.3
				c-0.2-2.1-0.3-4.3-0.6-6.4c-0.1-0.6,0-1.3,0.3-1.9c0.1-0.3,0.3-0.6,0.5-0.9c0.6-0.9,1.1-1.9,1.4-3c0.7-2.1,0.8-4.3,0.5-6.4
				c0.3-1.9,0.5-3.7,0.6-5.6c0.1-1.7,0.1-3.4,0-4.8c0-0.3,0-0.7,0-1c-0.2-0.7-0.5-1.3-1.1-1.7c0.8-0.5,1.3-1.3,1.6-2.1
				c0.2-0.6,0.2-1.2,0.1-1.8c-0.3,0.2-0.7,0.4-1,0.6l1.1-1.4c0.5,0,1-0.2,1.4-0.4c0.4-0.3,0.7-0.6,0.9-1c-0.3,0.2-0.6,0.3-1,0.4
				c-0.4,0.1-0.8,0-1.1-0.1c0.1-0.2,0.1-0.3,0.1-0.5c0-0.2,0-0.4,0-0.6c0.2-0.1,0.5-0.2,0.6-0.4c0.5-0.7,0.6-1.6,0.3-2.4
				c0,1.1-0.4,1.8-0.9,1.8c-0.3,0-0.6-0.3-0.7-0.4c0.1-0.4,0.1-0.7,0.1-1.1c-0.1-0.4-0.3-0.8-0.6-1.1c0.2,0.5,0.2,0.9,0.1,1.4
				c-0.1,0.2-0.1,0.4-0.3,0.5c-0.3-0.1-0.7-0.1-1-0.1c-0.4,0-0.7,0.1-1.1,0.3c1.2-0.3,2.4,0.3,2.8,1.5c0.1,1-0.2,1.9-0.8,2.7
				c-0.2,0.4-0.5,0.8-0.8,1.1l-0.5-1.9c-0.1,0.5-0.1,1-0.1,1.5c0,0.3,0,0.5,0,0.8c-0.2,0.2-0.3,0.4-0.5,0.6
				c-0.2,0.2-0.4,0.5-0.6,0.7l-0.6,0c0-0.3,0-0.6,0-0.9c0-0.8-0.2-1.6-0.5-2.4l-0.2,1.5c-0.1-0.2-0.3-0.4-0.5-0.7
				c-0.2-0.3-0.4-0.5-0.6-0.7c0-0.4,0-0.8,0.1-1.2c0.1-0.7,0.4-1.4,0.8-1.9c-0.7,0.4-1.2,0.9-1.5,1.6c-0.1,0.3-0.2,0.6-0.2,0.9
				c-0.2-0.1-0.3-0.2-0.5-0.4c-0.2-0.1-0.3-0.2-0.5-0.3c-0.1-0.4-0.1-0.8-0.1-1.2c0-0.7,0.1-1.3,0.3-2c-0.5,0.5-0.8,1-1,1.7
				c-0.1,0.3-0.1,0.7-0.1,1l-0.4-0.3c-0.2-0.1-0.4-0.2-0.6-0.3c-0.4-0.9-0.5-1.8-0.3-2.8c-0.8,0.8-1,2.1-0.5,3.2c2,0.8,3.8,2.2,5,4
				c0.3,0.4,0.4,0.9,0.1,1.3h-0.3c-0.1-0.1-0.2-0.2-0.3-0.3c-1.3-0.9-2.9-1.3-4.4-1c0.2,0.7,0.6,1.3,1.1,1.9c0.5,0.5,1,0.8,1.6,1
				c-0.2,0.4-0.6,0.8-0.9,1.1c-0.8,0.5-1.8,0.8-2.7,0.9c-0.1,0.3-0.2,0.6-0.2,0.9c0,0.4,0.1,0.9,0.2,1.3l1,0.4
				c1,0.4,2.1,0.6,3.2,0.8c0.4,0.1,0.8,0.1,1.2,0.1c0,0.2-0.1,0.2-0.2,0.5c-0.3,0.9-0.7,1.8-1.2,2.6c-1.8,0.1-3.5,0.1-5.3,0
				c-2.3-0.1-3-0.4-6.8-0.7c-1.6-0.2-3.2-0.3-4.9-0.3c-1.8,0.1-3.6,0.3-5.3,0.6c-0.8,0.1-1.5,0.3-2.1,0.4c-0.2,0-0.3,0.1-0.5,0.2
				l0,0l0,0c-0.1,0.1-0.3,0.2-0.4,0.3c-0.2,0.2-0.4,0.5-0.6,0.8c-1.6,2.1-2.1,4.9-1.2,7.4l0.8-0.4c0.3,1.1,0.7,2.2,1.3,3.2
				c0,0.1-0.1,0.2-0.1,0.3c-0.2,0.4-0.4,0.8-0.6,1.2c-0.8,1.5-2,3.1-2,3.1c-0.6,0.8-1,1.7-1.3,2.7c-0.3,0.9-0.5,1.7-0.7,2.6
				c-0.3,1.5-0.5,3.1-0.5,4.6c0,0.2,0,0.4,0,0.4c0,0.4,0,0.8,0.1,2.2c0,1.3,0,2.2,0,2.9h1.6c0.1-0.7,0.2-1.6,0.3-2.8
				c0.1-1.7,0.3-3.4,0.5-5c0.2-1.4,0.6-2.7,1.2-4c0.5-0.8,1-1.4,1.7-2c-0.1,0.2-0.1,0.4,0,0.7c0,0.3,0.2,0.6,0.3,0.8
				c0.2,0.4,0.4,0.7,0.6,1.1c1.8,3.7,3.4,7.4,4.8,11.3h1.6c0-0.2-0.1-0.7-0.2-1.1c-0.1-0.6-0.4-1.2-0.7-1.7c-1.2-3-2.2-6.1-3-9.2
				c0-0.4,0-0.8,0-1.2l0,0.4c0,0-0.2-1.6,0.5-2c0.4-0.2,1-0.7,1.4-0.9c1.1-0.8,2.1-1.6,3.1-2.6c0.1,0.1,0.2,0.1,0.3,0.2
				c0.2,0.1,0.3,0.1,0.5,0.2c2.3,0.5,4.7,0.7,7,0.6l3-0.1c0.1,0.5,0.4,1,0.7,1.5c0.8,2.5,1.3,5.1,1.6,7.7c0.1,0.5,0.2,0.8,0.3,1.1
				c0.2,2,0.3,3.9,0.2,5.9c-0.1,0.4,0,0.9,0.1,1.3h1.7c0-0.1,0-0.3,0-0.5c0-0.3,0-0.6-0.1-0.9C794.6,315.6,794.6,314.2,794.6,312.8z
				"/>
			<path id="Path_2148_1_" class="st27" d="M774.5,305.2"/>
		</g>
	</g>
	<g id="Layer_6" class="st6">
		<g id="Layer_9">
			<path id="noun_Deer_671375_1_" class="st27" d="M1347,803.7c0,0-0.6,0.6-1.5,1.6c-0.7,0.8-1.8,1.2-2.8,0.9
				c-1.4-1.2-2.5-2.7-3.3-4.3c-1.5-2.5-2.7-5-3.9-7.6c-0.6-1.7-1.6-3.3-2.8-4.6c-1.3-0.7-2.5-1.5-3.7-2.5c-1.8-1.6-3.8-3-6-4
				c-1.8-0.6-4.9-1.4-6.3-1.9c-1.7-0.1-3.4,0.2-4.9,1.1h0l-0.4,0.2l-0.1,0.1l-0.2,0.1l0,0l-0.1,0l-0.1,0.1l-0.2,0.1l-0.1,0.1l-0.1,0
				l-0.2,0.1l-0.1,0.1h0c-0.1,0.1-0.2,0.1-0.2,0.2c-0.4,0.4-0.8,0.9-1.2,1.4c-0.6,0.2-1,0.5-1.4,0.9l-0.8,1.1c0.4,0.1,0.9,0.1,1.3,0
				c-0.3,1.1-0.3,2.3,0.1,3.5c1,2.3,1.8,4.7,2.3,7.2c-0.2,1.7-0.7,3.3-1.6,4.7c-0.4,0.8-0.5,1.7-0.1,2.5c0.7,2.5,1.3,5,1.8,7.5
				c0.2,1.8,0.1,2.5,0.7,2.9c0.6,0.5,2.6,1.2,2.2,0.2c-0.7-1-1.1-2.2-1.4-3.4c-0.5-2.1-0.9-4.2-1.2-6.3c0-1,0.3-2.1,0.8-2.9
				c0.6-1.1,2-2.2,2.8-3.8c0.6-1.2,1.1-2.5,1.5-3.8l0,0l0-0.1c0,0,0.4,0.2,1.2,0.5c-0.5,2.3-1.5,5.7-1.6,6.4
				c-0.1,0.9,0.2,1.9,0.8,2.6c0.4,0.7,1.4,1.9,2,2.8c1,1.5,2.6,3.8,3,4.5c0.4,0.7,0.8,1.2,1.5,1.2s1.2,0,1.4-0.5
				c0.4-0.7-1-0.8-2.3-2.5c-1.6-2-2.9-4.2-3.9-6.6c-0.2-0.7-0.4-0.9,1.1-3.3c0.6-1.1,1.2-2.2,1.7-3.4c0.8,0.2,1.7,0.5,2.5,0.7
				c-0.1,1,0,2,0.2,2.9c0.8,1.4,1.6,2.8,2.2,4.3c0.5,1.8,0.7,3.6,0.7,5.4c0.1,1.6,0.1,2.7,0.7,2.9c0.6,0.2,1.8,0,1.1-0.8
				s-0.7-1.8-0.7-3.5c0-1.3,0-3,0-4.6c0.2,0.4,0.5,0.7,0.9,0.9c1,0.5,1.9,1.3,2.5,2.2c0.4,0.8,0.9,3.3,1.4,5s0.6,2.8,1.5,3.3
				c0.1,0,0.2,0.1,0.2,0.1h0l0,0h0l0.2,0.1l0,0h0.1l0,0h0.1h0.1h0.1l0,0l0.1,0l0,0c0.1,0,0.1-0.1,0.2-0.2l0,0
				c0.1-0.2,0.1-0.6-0.2-1.2c-0.9-1.8-1.6-3.6-2.1-5.5c-0.2-1.3-0.7-2.6-1.4-3.8c-0.8-1.2-1.4-2.5-1.9-3.9c-0.3-0.7-0.4-1.4-0.2-2.1
				c0-0.1,0.1-0.2,0.1-0.4l0,0l0,0l0.4,0.2c0.8,0.4,1.7,0.7,2.6,0.9l0.2,0c0.9,0.6,1.7,1.4,2.3,2.3c1.1,1.5,2.1,2.9,2.1,2.9
				c-0.7-0.3-1.4-0.5-2.1-0.6l-0.5-0.1l0,0c-0.4-0.1-0.8-0.1-0.9,0.3c0.3,0.4,0.6,0.9,0.9,1.3c0.5,0.6,0.7,2.1,1.6,2.8
				c0.9,0.7,1.7,0.4,2.9,0.2c-0.1,0.3-0.1,0.7-0.1,1l0,0c0,0.1,0,0.2,0,0.3v0c0,0.1,0,0.2,0,0.2v0.1c0,0.1,0,0.1,0,0.2v0.1
				c0,0.1,0,0.1,0.1,0.2v0.1c0,0.1,0,0.1,0.1,0.2l0,0.1c0,0.1,0.1,0.1,0.1,0.2l0,0.1c0,0.1,0.1,0.2,0.2,0.3c0.8,1.1,1.6,2.2,2.5,3.3
				c0.6,0.7,1.1,1.8,2,1.5c0.5-0.1,0.6-0.7,0.6-0.7c0-0.2,0-0.4,0-0.6v-0.2c0-0.1,0-0.3,0-0.4c0,0,0-0.1,0-0.1l0,0
				c-0.1-1-0.1-2,0.2-2.9c0.4-0.9,0-0.9-0.2-1.7c-0.1-0.5-0.2-1.1-0.2-1.6c0,0,0.1,0,0.1,0h0.2h0.1l0,0h0.1h0l0.1,0h0l0.1,0h0
				l0.1-0.1h0l0.2-0.1l0,0l0.2-0.1l0.1,0l0.1-0.1l0.1-0.1l0.1-0.1l0.1-0.1l0.1-0.1l0.1-0.1c0.1-0.1,0.1-0.2,0.2-0.2
				c0.1-0.1,0.1-0.2,0.2-0.3l0-0.1c0-0.1,0.1-0.1,0.1-0.2l0-0.1c0-0.1,0.1-0.1,0.1-0.2l0-0.1c0-0.1,0-0.1,0.1-0.2v-0.1
				c0-0.1,0-0.1,0.1-0.2v-0.1c0-0.1,0-0.1,0-0.2v0c0-0.1,0-0.1,0-0.2l0,0C1346.9,804.9,1347,804.3,1347,803.7z"/>
		</g>
	</g>
	<g class="st6">
		<g id="Group_924_2_" transform="translate(508.355 291.288)">
			<rect id="Rectangle_329_2_" x="9.2" y="369.9" class="st15" width="4" height="23.2"/>
			<rect id="Rectangle_330_2_" x="9.2" y="369.9" class="st16" width="2" height="23.2"/>
			<path id="Path_2065_2_" class="st17" d="M25.3,353.9c0,14.3-6.3,25.8-14.2,25.8S-3,368.2-3,353.9c0-14.3,6.3-25.8,14.1-25.8
				S25.3,339.6,25.3,353.9z"/>
			<path id="Path_2066_2_" class="st18" d="M11.3,328.1c-0.1,0-0.1,0-0.2,0C3.3,328.1-3,339.7-3,353.9s6.3,25.8,14.1,25.8h0.2V328.1
				z"/>
		</g>
		<g id="Group_935_1_" transform="translate(324.736 288.699)">
			<rect id="Rectangle_351_1_" x="102.2" y="386.2" class="st15" width="4.4" height="25.8"/>
			<rect id="Rectangle_352_1_" x="102.2" y="386.2" class="st16" width="2.2" height="25.8"/>
			<path id="Path_2087_1_" class="st17" d="M120.1,368.4c0,15.9-7,28.7-15.7,28.7s-15.7-12.9-15.7-28.7s7-28.7,15.7-28.7
				S120.1,352.6,120.1,368.4z"/>
			<path id="Path_2088_1_" class="st18" d="M104.6,339.7c-0.1,0-0.1,0-0.2,0c-8.7,0-15.7,12.8-15.7,28.7c0,15.9,7,28.7,15.7,28.7
				h0.2V339.7z"/>
		</g>
		<g id="Group_993" transform="translate(211.523 288.712)">
			<g id="Group_951-2">
				<path id="Path_2113-2" class="st19" d="M276.8,392c0,0.7-0.5,1.2-1.2,1.2c0,0,0,0,0,0l0,0c-0.7,0-1.2-0.5-1.2-1.2c0,0,0,0,0,0
					v-12.4c0-0.7,0.5-1.2,1.2-1.2l0,0c0.7,0,1.2,0.5,1.2,1.2c0,0,0,0,0,0V392z"/>
				<path id="Path_2114-2" class="st20" d="M288.9,364.8l-9.5-16.4h7.3l-11.1-19.3l-11.1,19.3h7.2l-9.4,16.4h8.9l-8.9,15.5h26.6
					l-8.9-15.5H288.9z"/>
			</g>
			<path id="Path_2115-2" class="st21" d="M289.2,364.8l-9.4-16.4h7.2l-11.1-19.3l-0.3,0.5v50.7h13.6l-8.9-15.5L289.2,364.8z"/>
		</g>
		<g id="Group_930_1_" transform="translate(439.575 283.201)">
			<rect id="Rectangle_341_1_" x="150" y="313.9" class="st15" width="3.8" height="22"/>
			<rect id="Rectangle_342_1_" x="150" y="313.9" class="st16" width="1.9" height="22"/>
			<path id="Path_2077_1_" class="st17" d="M165.3,298.7c0,13.6-6,24.5-13.4,24.5c-7.4,0-13.4-11-13.4-24.5c0-13.6,6-24.5,13.4-24.5
				C159.3,274.1,165.3,285.1,165.3,298.7z"/>
			<path id="Path_2078_1_" class="st18" d="M152,274.1h-0.2c-7.4,0-13.4,11-13.4,24.5s6,24.5,13.4,24.5h0.2V274.1z"/>
		</g>
		<g id="Group_933_1_" transform="translate(401.861 275.324)">
			<rect id="Rectangle_347_1_" x="131" y="303.6" class="st15" width="3.3" height="19.1"/>
			<rect id="Rectangle_348_1_" x="131" y="303.6" class="st16" width="1.6" height="19.1"/>
			<path id="Path_2083_1_" class="st17" d="M144.3,290.5c0,11.7-5.2,21.2-11.6,21.2c-6.4,0-11.6-9.5-11.6-21.2
				c0-11.7,5.2-21.2,11.6-21.2C139.1,269.2,144.3,278.7,144.3,290.5z"/>
			<path id="Path_2084_1_" class="st18" d="M132.8,269.2c0,0-0.1,0-0.1,0c-6.4,0-11.6,9.5-11.6,21.2s5.2,21.2,11.6,21.2h0.1V269.2z"
				/>
		</g>
		<g id="Group_948_1_" transform="translate(464.199 274.818)">
			<g id="Group_947-2_1_">
				<path id="Path_2107-2_1_" class="st19" d="M39.7,331.2c0,0.5-0.4,0.8-0.8,0.8c0,0,0,0,0,0l0,0c-0.5,0-0.8-0.4-0.8-0.8
					c0,0,0,0,0,0v-8.8c0-0.5,0.4-0.8,0.8-0.8c0,0,0,0,0,0l0,0c0.5,0,0.8,0.4,0.8,0.8c0,0,0,0,0,0V331.2z"/>
				<path id="Path_2108-2_1_" class="st20" d="M48.3,311.8l-6.7-11.7h5.2l-7.9-13.8l-7.9,13.8H36l-6.8,11.7h6.4l-6.4,11.1h19
					l-6.4-11.1H48.3z"/>
			</g>
			<path id="Path_2109-2_1_" class="st21" d="M48.5,311.8l-6.8-11.7h5.2L39,286.4l-0.2,0.3v36.2h9.7l-6.4-11.1H48.5z"/>
		</g>
		<g id="Group_963_1_" transform="translate(451.024 291.669)">
			<g id="Group_962_1_">
				<path id="Path_2128_1_" class="st19" d="M5,350c0,0.6-0.5,1-1,1c0,0,0,0,0,0l0,0c-0.6,0-1-0.5-1-1c0,0,0,0,0,0v-10.8
					c0-0.6,0.5-1,1-1c0,0,0,0,0,0l0,0c0.6,0,1,0.5,1,1c0,0,0,0,0,0V350z"/>
				<path id="Path_2129_1_" class="st20" d="M15.6,326.3L7.3,312h6.3l-9.7-16.8L-5.8,312h6.3l-8.2,14.3h7.8l-7.8,13.5h23.3
					l-7.8-13.5L15.6,326.3z"/>
			</g>
			<path id="Path_2130_1_" class="st21" d="M15.8,326.3L7.5,312h6.3l-9.7-16.8l-0.2,0.4v44.2h11.9L8,326.3H15.8z"/>
		</g>
		<g id="Group_961_1_" transform="translate(416.988 281.873)">
			<g id="Group_960_1_">
				<path id="Path_2125_1_" class="st19" d="M137.1,362c0,0.6-0.5,1-1,1c0,0,0,0,0,0l0,0c-0.6,0-1-0.5-1-1c0,0,0,0,0,0v-10.8
					c0-0.6,0.5-1,1-1l0,0c0.6,0,1,0.5,1,1V362z"/>
				<path id="Path_2126_1_" class="st20" d="M147.7,338.3l-8.2-14.3h6.3l-9.7-16.8l-9.7,16.8h6.3l-8.2,14.3h7.8l-7.8,13.5h23.3
					l-7.8-13.5H147.7z"/>
			</g>
			<path id="Path_2127_1_" class="st21" d="M148,338.3l-8.2-14.3h6.3l-9.7-16.8l-0.2,0.4v44.2H148l-7.8-13.5L148,338.3z"/>
		</g>
		<g id="Group_963_3_" transform="translate(451.024 291.669)">
			<g id="Group_962_3_">
				<path id="Path_2128_3_" class="st19" d="M-62.3,389.2c0,0.7-0.6,1.3-1.3,1.3c0,0,0,0,0,0l0,0c-0.7,0-1.3-0.6-1.3-1.3
					c0,0,0,0,0,0v-13.9c0-0.7,0.6-1.3,1.3-1.3c0,0,0,0,0,0l0,0c0.7,0,1.3,0.6,1.3,1.3c0,0,0,0,0,0V389.2z"/>
				<path id="Path_2129_3_" class="st20" d="M-48.7,358.8l-10.6-18.4h8.1l-12.5-21.6l-12.5,21.6h8.1l-10.6,18.4h10l-10,17.3h29.9
					l-10-17.3L-48.7,358.8z"/>
			</g>
			<path id="Path_2130_3_" class="st21" d="M-48.4,358.8L-59,340.5h8.1l-12.5-21.6l-0.3,0.5v56.8h15.2l-10-17.3H-48.4z"/>
		</g>
	</g>
	<g id="Group_957_1_" transform="translate(481.913 327.511)" class="st6">
		<g id="Group_956_1_">
			<path id="Path_2119_1_" class="st19" d="M977.7,945.7c0,1.8-1.5,3.3-3.3,3.3c0,0,0,0,0,0l0,0c-1.8,0-3.3-1.5-3.3-3.3c0,0,0,0,0,0
				v-34.5c0-1.8,1.5-3.3,3.3-3.3l0,0c1.8,0,3.3,1.5,3.3,3.3V945.7z"/>
			<path id="Path_2120_1_" class="st20" d="M1011.6,870.1l-26.3-45.6h20.2l-31-53.7l-31,53.7h20.2l-26.3,45.6h24.9l-24.9,43.1h74.3
				l-24.9-43.1H1011.6z"/>
		</g>
		<path id="Path_2121_1_" class="st21" d="M1012.3,870.1L986,824.5h20.2l-31-53.7l-0.7,1.3v141.1h37.9l-24.9-43.1L1012.3,870.1z"/>
	</g>
	<g id="Group_926_1_" transform="translate(520.424 285.68)" class="st6">
		<rect id="Rectangle_333_1_" x="1117.6" y="421.8" class="st15" width="3.5" height="20.3"/>
		<rect id="Rectangle_334_1_" x="1117.6" y="421.8" class="st16" width="1.7" height="20.3"/>
		<path id="Path_2069_1_" class="st17" d="M1131.7,407.8c0,12.5-5.5,22.6-12.4,22.6s-12.4-10.1-12.4-22.6s5.5-22.6,12.4-22.6
			C1126.1,385.2,1131.7,395.3,1131.7,407.8z"/>
		<path id="Path_2070_1_" class="st18" d="M1119.4,385.2h-0.1c-6.8,0-12.4,10.1-12.4,22.6s5.5,22.6,12.4,22.6h0.1V385.2z"/>
	</g>
	<g id="Group_925_1_" transform="translate(436.306 316.731)" class="st6">
		<rect id="Rectangle_331_1_" x="1203.6" y="761.6" class="st15" width="10.5" height="60.9"/>
		<rect id="Rectangle_332_1_" x="1203.6" y="761.6" class="st16" width="5.2" height="60.9"/>
		<path id="Path_2067_1_" class="st17" d="M1245.9,719.6c0,37.5-16.6,67.8-37.1,67.8c-20.5,0-37.1-30.3-37.1-67.8
			c0-37.5,16.6-67.8,37.1-67.8S1245.9,682.2,1245.9,719.6z"/>
		<path id="Path_2068_1_" class="st18" d="M1209.3,651.8c-0.2,0-0.3,0-0.4,0c-20.5,0-37.1,30.4-37.1,67.8s16.6,67.8,37.1,67.8h0.4
			V651.8z"/>
	</g>
</g>
<g id="person">
	<g transform="matrix( 1, 0, 0, 1, 0,0) ">
		<g>
			<g id="Layer0_0_FILL_2_">
				<path class="st28" d="M693.7,1367.3c-0.1-3.9,0.1-7.7,0.6-11.5c0.1-0.4,0.1-0.9,0-1.3c0-0.3,0-0.7,0-1l-12.5-2.2
					c-0.2,1.8-0.4,3.6-0.7,5.4c-0.9,5.2-1.3,10.5-1.2,15.9c0,0.9,0.1,1.8,0.2,2.7c0.6,5,1.2,10,2,15c0.6,3.9,1.5,7.7,2.8,11.4
					c1.4,4,2.2,8,2.4,12c0.1-4.8,0.7-9.5,1.8-14.1c0-0.2,0.1-0.3,0.1-0.5c0.8-5.3,2.2-10.4,4.2-15.3c0.3-0.9,0.6-1.8,0.8-2.7
					c-0.3,0.2-0.4,0.1-0.5-0.1c-0.6-2.5-0.7-5-0.3-7.5c0-0.4,0.1-0.8,0.1-1.2C693.7,1370.6,693.8,1369,693.7,1367.3 M767.2,1363.7
					c-0.2-1.8-0.3-3.7-0.4-5.5c-0.1-1.9-0.2-3.7-0.3-5.6c0-0.3,0-0.5,0-0.8c0-0.3,0-0.5,0-0.8c-4.9,0.2-9.7,1-14.4,2.6
					c-0.2,0-0.4,0.1-0.6,0.2c0,0.3,0,0.6,0.1,0.8c0,0.3,0.1,0.5,0.1,0.8c0.1,0.4,0.1,0.7,0.2,1.1c0.1,0.4,0.1,0.8,0.1,1.2
					c0,0.6,0.1,1.1,0.2,1.6c0.1,0.5,0.2,1.1,0.2,1.6c0,0.4,0,0.9,0,1.3c0,0.4,0.1,0.8,0.2,1.3c0.1,0.6,0.2,1.3,0.3,2
					c0.1,0.7,0.2,1.4,0.3,2c0.1,0.6,0.2,1.2,0.3,1.6c0,0.5,0.1,1,0.1,1.7c0.1,0.6,0.1,1.1,0.3,1.6c0.1,0.5,0.2,1.1,0.2,1.7
					c0,0.5,0,0.9,0.1,1.1c0,0.3,0.1,0.5,0,0.8c0,0.3-0.1,0.6-0.3,1.1c-0.2,0.6-0.4,1.2-0.5,1.8c-0.1,0.6-0.3,1.2-0.6,1.8
					c-0.2,0.6-0.4,1.3-0.6,1.9s-0.3,1.3-0.6,1.9c0,0.1,0,0.1-0.1,0.2c0,0-0.1,0.1-0.1,0.2c-0.1,0.3-0.3,0.6-0.4,0.9
					c-0.2,0.3-0.3,0.6-0.5,0.9l1.8,11.8c0,0.3,0.1,0.7,0.1,1c0,0.3,0.1,0.7,0.1,1c0.2,1.6,0.5,3.1,0.8,4.7c0.3,1.6,0.6,3.1,0.9,4.7
					c0-0.1,0-0.1,0-0.2c0,0,0-0.1,0-0.2c0-0.2,0-0.4-0.1-0.6s-0.1-0.4-0.1-0.6c0.2-0.5,0.3-0.9,0.5-1.4c0.2-0.4,0.3-0.8,0.5-1.1
					c0-0.1,0-0.1,0.1-0.2c0,0,0.1-0.1,0.1-0.1c0.8-1.3,1.6-2.6,2.4-4c0.8-1.4,1.5-2.7,2.3-4.1c0.2-0.3,0.3-0.6,0.5-1
					c0.2-0.3,0.3-0.6,0.5-1c0.1-0.2,0.2-0.3,0.2-0.5c0.1-0.2,0.2-0.3,0.2-0.5c0.2-0.5,0.4-0.9,0.6-1.4c0.2-0.5,0.4-1,0.6-1.4
					c0.7-1.5,1.4-3.1,1.9-4.7c0.5-1.7,1-3.3,1.5-4.8c0.2-0.5,0.3-1,0.4-1.5c0.1-0.5,0.2-1,0.3-1.5c0.1-0.3,0.1-0.5,0.1-0.8
					c0-0.3,0.1-0.5,0.1-0.8c0.2-0.7,0.3-1.6,0.3-2.7c0-1.1,0-2.2,0-3.2c0-1.1-0.1-2.1-0.1-2.9V1363.7 M727.5,1305.6
					c-1.5,1.2-2.8,2.2-3.9,2.9c-0.8,0.6-1.6,1-2.4,1.2c-0.8,0.2-1.6,0.3-2.5,0.3c-0.9,0-1.7,0-2.7,0c-0.4,0.5-0.8,1.1-1.3,1.6
					c-0.4,0.6-0.9,1.1-1.4,1.5c-0.4,0.5-0.9,0.8-1.3,1.1c-0.6,0.4-1.3,0.8-2,1.3c-0.2,0.1-0.5,0.3-0.7,0.4c2.3,1.9,5.1,3.1,8.5,3.6
					c5.3,0.8,10.5,0,15.6-2.3c1.5-0.7,2.9-1.5,4.2-2.4c2.4-1.7,4.2-3.8,5.4-6.5c-0.1,0-0.2,0-0.3,0c-0.1,0-0.2-0.1-0.3-0.1
					c-0.3-0.1-0.5-0.1-0.8-0.2c-0.2-0.1-0.5-0.1-0.7-0.2c-0.9-0.1-1.6-0.3-2.3-0.5c-0.7-0.2-1.3-0.5-1.9-1s-1-1.3-1.4-2.3
					c-0.1-0.4-0.2-0.7-0.3-1.1c-0.1-0.3-0.2-0.7-0.3-1.1c-0.3-1-0.6-2-0.9-3c0-0.2-0.1-0.3-0.1-0.5c-0.6,1-1.2,1.9-1.8,2.7
					C730.6,1302.8,729,1304.4,727.5,1305.6z"/>
				<path class="st29" d="M752.7,1400.5c0-0.3-0.1-0.7-0.1-1c0-0.3-0.1-0.7-0.1-1c-4.5,1.9-9.2,3.4-13.9,4.5
					c-5.1,1.1-10.3,2-15.6,2.6c-4.8,0.5-9.7,0.6-14.5,0.2c-4.9-0.2-9.6-1.1-14.2-2.6c-2.2-0.7-3.8-2-5-3.9c0,0.2,0,0.3-0.1,0.5
					c-1.1,4.6-1.7,9.3-1.8,14.1c0,0.3,0,0.6,0,0.9c0,0.3,0,0.6,0,0.9c0,0.9,0,1.8,0.1,2.6c0.1,0.8,0.2,1.6,0.4,2.5
					c0.1,0.6,0.1,1.2,0.1,1.8c0,0.6,0,1.2,0,1.8c0,0.6,0,1.2,0.2,1.7c0.2,0.6,0.2,1.3,0.2,2s0,1.4,0,2c0,0.7,0.1,1.3,0.3,1.9
					c0.2,0.5,0.3,1,0.3,1.6s0,1.1,0,1.7c0,0.6,0.1,1.2,0.3,1.7c0.1,0.3,0.2,0.7,0.1,1.1c0,0.4,0,0.8-0.1,1.2c0,0.4,0,0.8,0,1.1
					c0.1,0.2,0.1,0.5,0.2,0.7c0.1,0.2,0.2,0.4,0.2,0.7c0.1,0.7,0.2,1.4,0.3,2.1c0.1,0.6,0.2,1.4,0.2,2.1c0,0.4,0,0.8,0.1,1.1
					c0.1,0.3,0.2,0.6,0.2,1c0.1,0.3,0.1,0.6,0.1,1c0,0.7,0.1,1.2,0.2,1.7c0.1,0.5,0.2,1,0.3,1.6c0,0.4,0.1,0.8,0.1,1.2
					c0,0.4,0.1,0.8,0.2,1.2c0.1,0.4,0.2,0.9,0.2,1.4c0,0.5,0,0.9,0,1.4c0,0.5,0.1,1,0.2,1.5c0.1,0.4,0.2,0.8,0.2,1.2
					c0,0.4,0.1,0.8,0.2,1.2c0.1,0.6,0.2,1.1,0.2,1.6c0,0.5,0.1,1.1,0.2,1.6c0.1,0.5,0.2,1,0.3,1.6s0.2,1,0.3,1.6
					c0.1,0.4,0.2,0.8,0.2,1.1c0,0.3,0.1,0.7,0.3,1.1c0.1,0.3,0.2,0.7,0.2,1.1c0,0.4,0,0.8,0.1,1.2c0.1,0.4,0.2,0.8,0.3,1.2
					c0.1,0.4,0.3,0.8,0.4,1.2c0,0.7,0,1.5,0.1,2.3c0,0.8,0.1,1.5,0.1,2.2c0,0.4,0,0.8,0.1,1.2c0.1,0.3,0.2,0.7,0.2,1
					c0.1,0.3,0.1,0.7,0.1,1.1v12.1c0,0.6-0.1,1.1-0.2,1.6c-0.1,0.5-0.2,1.1-0.2,1.6v8.4c0,0.6,0.1,1.1,0.2,1.6
					c0.1,0.5,0.2,1,0.2,1.7c0,0.8,0,1.5,0,2.2c0,0.7,0.1,1.4,0.3,2.1c0.1,0.4,0.2,0.7,0.2,1c0,0.3,0,0.7,0,1.1
					c0,0.4,0.1,0.7,0.2,1.2c0.1,0.4,0.2,0.8,0.2,1.2c0,0.4,0.1,0.8,0.2,1.3c0.1,0.4,0.2,0.7,0.2,1c0,0.3,0,0.6,0.1,0.9
					c0,0.3,0.1,0.7,0.3,1.1c0.1,0.3,0.2,0.6,0.2,1c0,0.4,0.1,0.8,0.1,1.2c0,0.4,0.1,0.8,0.2,1.1c0.1,0.5,0.2,1,0.3,1.6
					c0.1,0.6,0.2,1.1,0.2,1.6c0.1,0.4,0.1,0.7,0.1,1.1c0,0.3,0,0.6,0,1c0,0.3,0.1,0.7,0.2,1.1c0.1,0.4,0.2,0.7,0.2,1.1s0,0.7,0,1
					c0,0.3,0.1,0.7,0.2,1c0.1,0.4,0.2,0.7,0.2,1s0,0.6,0,0.9c0,0.3,0.1,0.7,0.2,1c0.2,0.5,0.2,1,0.3,1.4c0,0.5,0,0.9,0,1.3
					c0,0.4,0,0.9,0.1,1.4c1.3,0.2,2.5,0.3,3.8,0.3c1.3,0,2.5-0.1,3.8-0.3c0.7-0.1,1.4-0.2,2.1-0.3c0.7-0.1,1.4-0.2,2.1-0.3
					c0-0.8,0-1.6,0-2.4c0-0.8,0-1.6,0.1-2.3c0-0.7,0.1-1.1,0.2-1.4c0.2-0.7,0.3-1.4,0.3-2.3c0-0.8,0.1-1.6,0-2.5
					c0.1-0.5,0.2-1.1,0.3-1.6c0.1-0.6,0.1-1.1,0.1-1.7c0-0.7,0.1-1.4,0.2-2.1c0.1-0.6,0.2-1.3,0.2-2.1c0-0.9,0.1-1.8,0.2-2.6
					c0.1-0.8,0.2-1.6,0.3-2.6c0-0.4,0.1-0.8,0.2-1.1c0.1-0.4,0.2-0.8,0.2-1.2c0-0.4,0-0.8,0-1.2c0-0.4,0-0.7,0.1-1
					c0-0.3,0.1-0.7,0.2-1.2c0.1-0.6,0.2-1.1,0.2-1.7c0-0.6,0-1.1,0.2-1.7c0.2-0.5,0.3-1,0.3-1.6c0-0.5,0.1-1.1,0.2-1.6
					c0.1-0.6,0.2-1.1,0.2-1.6c0-0.5,0-1,0.1-1.6c0-0.5,0.1-1,0.3-1.6c0.2-0.7,0.3-1.6,0.3-2.7c0-1.1,0-2.3,0-3.4
					c0-1.2-0.1-2.1-0.1-2.9c0-1.5,0-3.1,0-4.6c0-1.6,0-3.1,0-4.6c0-0.6-0.1-1.1-0.3-1.6c-0.1-0.5-0.2-1.1-0.2-1.7c0-1.8,0-3.7,0-5.5
					c0-1.9,0-3.7,0-5.6c0-0.6,0.1-1.1,0.3-1.6c0.2-0.5,0.2-1.1,0.2-1.6c0-0.5,0-1,0-1.4c0.1-0.4,0.2-0.8,0.3-1.2s0.1-0.9,0.2-1.3
					c0-0.9,0-1.8-0.1-2.6c0-0.9,0-1.7,0.2-2.6c0.2-0.8,0.3-1.5,0.3-2.3c0-0.8,0-1.6,0-2.4s-0.1-1.6-0.1-2.4c0-0.6,0.1-1.1,0.2-1.6
					c0.2-0.5,0.3-1,0.3-1.6c0.1-0.7,0.1-1.3,0-2c0-0.7-0.1-1.4-0.1-2.1c0-0.7,0-1.4,0.1-2.1c0.1-0.4,0.1-0.8,0.2-1.2
					c0-0.4,0.1-0.8,0.1-1.2c0.4,0.1,0.7,0.1,1.1,0.2c0.3,0,0.5,0.1,0.6,0.1c0.4,0,0.9,0,1.3,0c0.4,0,0.8,0,1.2,0
					c0.3,0.7,0.6,1.4,1,2.1c0.3,0.7,0.6,1.4,0.9,2.1c0.5,1.4,1,2.7,1.5,4.1c0.6,1.4,1,2.8,1.4,4.2c0.2,0.7,0.4,1.4,0.6,2.1
					c0.2,0.7,0.4,1.4,0.6,2.1c0.2,0.9,0.4,1.7,0.6,2.6c0.2,0.9,0.5,1.7,0.8,2.6c0.2,0.4,0.2,0.9,0.3,1.3c0,0.4,0,0.9,0,1.3
					c0,0.4,0.1,0.9,0.3,1.4c0.2,0.5,0.2,1,0.3,1.6c0,0.6,0.1,1.1,0.3,1.7c0.1,0.4,0.2,0.8,0.2,1.3c0,0.4,0,0.8,0.1,1.3
					c0.1,0.3,0.1,0.5,0.2,0.8c0.1,0.2,0.1,0.4,0.2,0.6c0,0.2,0.1,0.5,0.1,0.9c0,0.3,0.1,0.7,0.3,1c0.2,0.3,0.3,0.7,0.4,1
					c0,0.4,0,0.8,0,1.2v1.2c0,0.9,0.1,1.7,0.2,2.5c0.1,0.8,0.2,1.7,0.2,2.6c0,0.9,0,1.8-0.1,2.9c0,1.1-0.1,2.2,0,3.3
					c0,1.1,0.1,2,0.3,2.8c0.2,0.8,0.3,1.5,0.3,2.3c0,0.8,0,1.5,0,2.3c0,0.8,0.1,1.5,0.3,2.3c0.1,0.4,0.2,0.9,0.2,1.4
					c0,0.5,0,0.9,0,1.4c0,0.5,0.1,1,0.2,1.5c0.1,0.4,0.2,0.8,0.2,1.2c0,0.4,0.1,0.8,0.2,1.2c0.3,1,0.6,2,0.7,3c0.2,1,0.4,2,0.7,3
					c0.3,0.9,0.6,1.9,0.8,2.8c0.2,1,0.5,1.9,0.9,2.9c0.2,0.7,0.5,1.4,0.7,2.1c0.2,0.7,0.4,1.5,0.6,2.2c0.3,1,0.5,1.9,0.8,2.9
					s0.5,2,0.8,2.9c0.2,0.6,0.3,1.3,0.4,2c0.1,0.7,0.2,1.4,0.3,2c0,0.4,0.1,0.8,0.2,1.2c0.1,0.4,0.2,0.8,0.2,1.2
					c0,0.6,0.1,1.1,0.3,1.6c0.1,0.5,0.2,1,0.2,1.6c0,0.6,0.1,1.1,0.2,1.6c0.1,0.5,0.2,1.1,0.2,1.6c0,0.6,0,1.2,0,1.7
					c0,0.6,0.1,1.2,0.3,1.7c0,0.1,0.1,0.2,0.1,0.3c0,0.1,0.1,0.2,0.1,0.3c0.3,0,0.7,0.1,1,0.1c0.4,0,0.7,0.1,1,0.1
					c2.1,0.1,4.1,0.1,6-0.2s3.7-0.6,5.5-1.1c-0.1-1.1-0.1-2.2-0.1-3.4c0-1.2,0-2.4,0.1-3.6c0-0.1,0-0.2,0-0.2c0-0.1-0.1-0.1-0.1-0.2
					c-0.1-0.3-0.2-0.5-0.3-0.7c-0.1-0.2-0.1-0.4-0.1-0.8c0.1-0.6,0.1-1.2,0.1-1.8c0-0.5,0-1-0.1-1.6c-0.1-0.5-0.2-1.1-0.4-1.7
					c-0.1-0.5-0.2-1-0.1-1.6c0-0.6,0-1.2,0-1.7c-0.1-0.8-0.1-1.6,0-2.4c0.1-0.8,0.1-1.6,0.2-2.4s-0.1-1.6-0.3-2.3
					c-0.3-1-0.4-2.1-0.3-3.1c0-1.1,0.1-2.1,0.1-3.2c0-1.1-0.1-2.1-0.3-3.1c-0.2-0.7-0.3-1.5-0.2-2.3c0-0.7,0.1-1.5,0.1-2.3
					c0-0.8-0.1-1.5-0.3-2.2c-0.2-0.5-0.3-1.1-0.3-1.6c0-0.5,0-1,0-1.6c0-0.5-0.1-1.1-0.2-1.7c-0.1-0.4-0.2-0.9-0.2-1.3
					c0-0.4-0.1-0.8-0.2-1.2c-0.1-0.2-0.2-0.4-0.2-0.5c0-0.1-0.1-0.2-0.1-0.4c0-0.1,0-0.3,0-0.6c0-0.8-0.2-1.6-0.4-2.4
					c-0.2-0.8-0.4-1.5-0.5-2.3c-0.1-0.5-0.2-1.1-0.2-1.6c-0.1-0.5-0.2-1.1-0.3-1.6c0-0.2-0.1-0.5-0.2-0.7c-0.1-0.2-0.2-0.5-0.2-0.7
					c-0.1-0.5-0.2-1.1-0.3-1.6c-0.1-0.6-0.2-1.1-0.2-1.6c0-0.6-0.1-1.1-0.2-1.6c-0.1-0.5-0.2-1.1-0.2-1.6c0-0.4,0-0.9,0-1.3
					c0-0.4-0.1-0.8-0.3-1.2c-0.2-0.7-0.3-1.4-0.2-2.2c0.1-0.8,0.2-1.6,0.3-2.4c0.1-0.8,0.2-1.6,0.2-2.3c0-0.5,0-0.9,0-1.3
					c0-0.4,0.1-0.8,0.3-1.2c0.1-0.4,0.2-0.9,0.2-1.3c0-0.4,0-0.9,0-1.4c0-0.5,0.1-0.9,0.2-1.4c0.2-0.5,0.2-1,0.3-1.6
					c0-0.5,0.1-1.1,0.3-1.6c0.1-0.4,0.2-0.8,0.2-1.2c0-0.4,0.1-0.8,0.2-1.2s0.2-0.8,0.2-1.2c0.1-0.4,0.1-0.8,0.2-1.1
					c0.1-0.4,0.2-0.8,0.3-1.1c0.1-0.3,0.2-0.7,0.3-1.1c0.1-0.4,0.2-0.8,0.2-1.1c0-0.4,0.1-0.8,0.2-1.2c0.1-0.4,0.2-0.7,0.2-1
					c0-0.3,0.1-0.7,0.2-1.1c0.1-0.5,0.2-0.9,0.2-1.3c0-0.4,0-0.9,0-1.3c0-0.4,0.1-0.9,0.3-1.3c0.2-0.5,0.2-1,0.3-1.6
					c0-0.5,0.1-1.1,0.2-1.6c0.1-0.4,0.2-0.8,0.2-1.2c0-0.4,0.1-0.9,0.2-1.3c0.1-0.5,0.2-0.9,0.2-1.4c0-0.4,0.1-0.9,0.1-1.3
					c0-0.4,0.1-0.9,0.2-1.3c0.2-0.7,0.3-1.6,0.3-2.7c0-1.1,0-2.2,0-3.4c0-1.1-0.1-2.1-0.1-2.9c0-1.2,0-2.4,0-3.6
					c0-1.2-0.2-2.3-0.5-3.4c-0.1-0.3-0.1-0.7-0.1-1c0-0.4,0-0.8,0.1-1.2c0-0.4,0-0.8-0.1-1.1c-0.1-0.4-0.2-0.8-0.2-1.1
					c0-0.3-0.1-0.6-0.1-1c-0.3-1.5-0.6-3.1-0.9-4.7C753.2,1403.6,753,1402,752.7,1400.5 M715.7,1249.7c-0.3,0-0.6,0.1-1.1,0.3
					c-0.4,0.2-0.8,0.3-1.3,0.5c-0.4,0.2-0.8,0.3-1,0.5c-0.9,0.4-1.8,1-2.7,1.7c-0.9,0.7-1.8,1.5-2.6,2.3c-0.8,0.8-1.5,1.7-2,2.5
					c-0.5,0.8-1,1.5-1.5,2.3c-0.5,0.8-0.9,1.6-1.2,2.5c-0.2,0.4-0.3,0.9-0.6,1.3c-0.2,0.4-0.4,0.9-0.4,1.4c0,0.4-0.1,0.6-0.2,0.8
					c-0.1,0.2-0.2,0.4-0.2,0.6c-0.1,0.4-0.1,0.8-0.2,1c-0.1,0.3-0.1,0.6-0.2,0.8c-0.1,0.3-0.2,0.6-0.4,1c-0.9,1.7-1.8,3.2-2.7,4.7
					c-0.9,1.5-1.9,2.9-3.1,4.4c-0.9,1.1-1.5,2.4-2,3.9c-0.5,1.5-0.7,3-0.6,4.6c0.1,1.5,0.5,2.9,1.3,4.2c-1.1,0.8-2.2,1.7-3.1,2.6
					c-0.9,1-1.7,1.9-2.3,2.9c-0.4,0.7-0.8,1.5-1.1,2.3c-0.3,0.8-0.6,1.6-0.7,2.4c0,0.3-0.1,0.6-0.1,0.8c0,0.2-0.1,0.5-0.2,0.8
					c-0.4,1.3-0.4,2.8-0.1,4.5c0.3,1.7,0.9,3.2,1.8,4.7c0.9,1.5,1.8,2.6,3,3.4c0.3,0.2,0.7,0.4,1,0.6c0.7,0.5,1.4,0.8,2.1,1.2
					c1,0.5,2,0.8,3.1,1c1.1,0.2,2.3,0.3,3.6,0.3c1.5,0,2.9-0.1,4.3-0.3c1.4-0.3,2.7-0.8,3.9-1.6c0.4-0.3,0.8-0.6,1.3-0.9
					c0.2-0.1,0.5-0.3,0.7-0.4c0.7-0.4,1.3-0.8,2-1.3c0.4-0.2,0.8-0.6,1.3-1.1c0.5-0.4,0.9-1,1.4-1.5c0.5-0.5,0.9-1.1,1.3-1.6
					c0.9,0,1.8,0,2.7,0c0.9,0,1.7-0.1,2.5-0.3c0.8-0.2,1.6-0.6,2.4-1.2c1.1-0.8,2.4-1.7,3.9-2.9c1.5-1.2,3.1-2.8,4.6-4.7
					c0.6-0.8,1.3-1.7,1.8-2.7c0.8-1.4,1.6-2.9,2.3-4.7c1.1-3,1.8-6.5,2-10.3c0.2-3.8-0.1-7.9-0.9-12.1c-0.8-4.2-2.1-8.5-3.9-12.7
					c-0.3-0.6-0.7-1.3-1.2-2.2c-0.5-0.9-1.1-1.7-1.7-2.4c-0.6-0.8-1.2-1.3-1.6-1.7c-1.2-0.9-2.4-1.5-3.6-1.9
					c-1.2-0.4-2.4-0.6-3.6-0.7c-1.3-0.1-2.6-0.1-4.2,0l-0.1,0l-0.2,0c-0.2,0-0.3,0.1-0.4,0.1c-0.2,0-0.3,0-0.5,0H715.7z"/>
				<path class="st30" d="M693.3,1317.3c-0.7-0.3-1.4-0.7-2.1-1.2c-1.1,1.2-1.9,2.6-2.6,4.2c-2.1,4.9-3.5,10-4.3,15.3
					c-0.7,5.3-1.5,10.5-2.3,15.7l12.5,2.2l1.8-7.2l1.6,16.1l-3.6,18.7c-0.2,0.9-0.5,1.8-0.8,2.7c-2,5-3.4,10.1-4.2,15.3
					c1.2,1.9,2.8,3.3,5,3.9c4.6,1.5,9.3,2.3,14.2,2.6c4.8,0.4,9.7,0.3,14.5-0.2c5.3-0.6,10.5-1.4,15.6-2.6c4.8-1,9.4-2.5,13.9-4.5
					l-1.8-11.8l-0.1,0.2c-0.1-0.7-0.2-1.4-0.3-2.2c-0.8-5.4-1.5-10.7-2.3-16.1c-0.2-1.4-0.3-2.8-0.2-4.3c0-1.3,0.2-2.6,0.5-3.9
					c1.1-5.3,2-10.6,2.6-16l0.7,9.4c0.2-0.1,0.4-0.1,0.6-0.2c4.6-1.6,9.4-2.5,14.4-2.6c-0.2-0.9-0.4-1.8-0.4-2.7
					c0-1.8-0.1-3.6-0.3-5.5c-0.1-1.1-0.1-2.1-0.1-3.2c0-1.2-0.1-2.4-0.3-3.5c-0.1-0.7-0.2-1.4-0.2-2c-0.2-4-0.8-7.9-1.9-11.8
					c-0.2-0.8-0.4-1.5-0.6-2.3c-0.8-3-2.4-5.3-4.9-6.9c-4.4-2.9-9.2-4.6-14.5-4.8c-1.3,2.7-3.1,4.8-5.4,6.5
					c-1.3,0.9-2.7,1.7-4.2,2.4c-5.1,2.3-10.3,3.1-15.6,2.3c-3.3-0.5-6.1-1.6-8.5-3.6c-0.4,0.3-0.9,0.6-1.3,0.9
					c-1.2,0.8-2.5,1.4-3.9,1.6c-1.4,0.2-2.9,0.4-4.3,0.3c-1.3,0-2.5-0.1-3.6-0.3C695.3,1318.1,694.3,1317.7,693.3,1317.3z"/>
				<path class="st31" d="M771,1555.1c-0.7-0.8-1.6-1.4-2.6-1.9c-1-0.5-1.9-0.8-2.6-0.8c-0.5,0-0.9,0-1.3-0.1
					c-0.4-0.1-0.8-0.2-1.2-0.4c-1.3,0-2.4-0.2-3.4-0.6c-1-0.4-1.8-1.1-2.5-2.3c-0.6-1.1-1.1-2.8-1.4-5.1c0-0.3-0.1-0.8-0.2-1.3
					c-0.1-0.6-0.1-1.2-0.2-2c-1.8,0.5-3.6,0.9-5.5,1.1s-3.9,0.3-6,0.2c-0.3,0-0.7,0-1-0.1c-0.4,0-0.7,0-1-0.1c0,0.3,0.1,0.6,0.1,0.9
					c0,0.3,0,0.6,0,0.9c0,0.3,0,0.6,0,0.9c0,0.3,0.1,0.6,0.1,0.9c0.1,0.6,0.2,1.1,0.3,1.6c0.1,0.5,0.1,1.1,0.1,1.7
					c0,0.2,0,0.4,0,0.5c0,0.2,0,0.3,0.1,0.5v0.3c0,0.6,0.1,1.2,0.1,1.7c0,0.5,0,1-0.1,1.5c-0.1,0.5-0.2,1.1-0.3,1.7
					c-0.1,0.5-0.2,1.3-0.2,2.4c0,1.1,0,2.1,0.1,3.2c0.1,1.1,0.2,1.8,0.3,2.3c0.2,0.8,0.6,1.7,1.1,2.6c0.5,0.9,1.1,1.6,1.8,2.2
					c0.7,0.6,1.6,0.9,2.5,1c0.7,0,1.3,0,1.8,0c0.5,0,1-0.1,1.5-0.1c0.5-0.1,1.1-0.2,1.7-0.5c0.7-0.2,1.5-0.6,2.2-1
					c0.7-0.4,1.4-1,1.9-1.6c0.5-0.5,1.1-0.9,1.8-1.1c0.7-0.3,1.4-0.5,2.1-0.7s1.4-0.4,2.1-0.6c0.2-0.1,0.5-0.1,0.8-0.2
					c0.3,0,0.5-0.1,0.8-0.2c0.4-0.1,0.8-0.2,1.2-0.2c0.4,0,0.8-0.1,1-0.3c0.8-0.5,1.4-0.9,2-1.2c0.6-0.3,1-0.7,1.5-1.2
					c0.4-0.5,0.8-1.2,1.2-2.2C771.9,1556.6,771.7,1555.8,771,1555.1 M709.3,1541.5c-0.7,0.1-1.4,0.1-2.1,0.3
					c-1.3,0.2-2.6,0.3-3.8,0.3c-1.3,0-2.5-0.1-3.8-0.3c0,0.1,0,0.2,0.1,0.3c0,0.1,0.1,0.2,0.1,0.3c0.1,0.1,0.1,0.3,0.1,0.5
					c0,0.2,0.1,0.4,0.1,0.6c0.1,0.7,0.1,1.4,0.1,2.3c0,0.9,0,1.7-0.1,2.5c0,0.8-0.1,1.5-0.1,2.1c0,1.3,0,2.6,0.1,4c0,1.3,0,2.7,0,4
					c0,0.4-0.1,0.8-0.2,1.2c-0.1,0.4-0.2,0.7-0.2,1.1c0,0.1,0,0.2,0,0.3c0,0.1,0,0.2,0,0.4c-0.1,0.5-0.2,1-0.1,1.6s0.1,1,0.3,1.5
					c0,0.1,0.1,0.2,0.2,0.3c0.1,0.1,0.1,0.2,0.2,0.3c0,0.2,0.1,0.3,0.1,0.5c0,0.1,0,0.3,0,0.5c0,0.2,0.1,0.4,0.2,0.6
					c0.5,1,1.1,1.6,1.8,1.9c0.7,0.3,1.5,0.4,2.4,0.3c0.9,0,1.7,0,2.6,0c0.4,0,0.7,0,0.9,0s0.5-0.1,0.7-0.2c0.2-0.1,0.4-0.2,0.7-0.3
					c0.7-0.2,1.3-0.4,1.9-0.8c0.6-0.3,1.2-0.7,1.7-1.2c0.4-0.3,0.8-0.6,1.1-0.8c0.3-0.2,0.7-0.4,1-0.6c0.3-0.2,0.7-0.6,1.1-1
					c0.5-0.6,1-1.2,1.5-1.8c0.5-0.6,1-1.1,1.6-1.7c0.3-0.3,0.7-0.6,1-0.8c0.4-0.2,0.7-0.5,1.1-0.8c0.5-0.4,1-0.8,1.6-1.2
					c0.6-0.4,1.1-0.7,1.7-1c0.9-0.5,1.7-1.3,2.3-2.2c0.5-0.9,0.7-1.9,0.6-2.8c-0.2-0.9-0.9-1.6-2.2-2.1c-0.3-0.1-0.7-0.2-1.3-0.2
					c-0.5,0-1,0-1.6,0c-0.5,0-1,0.1-1.3,0.1c-0.6,0.1-1.1,0.2-1.6,0.3c-0.5,0.1-1.1,0.2-1.6,0.2c-1.1,0-2,0.1-2.8,0.1
					c-0.8,0-1.4-0.2-1.9-0.6c-0.6-0.4-1-1.2-1.5-2.3c-0.1-0.4-0.2-0.7-0.1-1c0-0.3,0.1-0.7,0.1-1s-0.1-0.7-0.2-1.1
					c0-0.1-0.1-0.3-0.1-0.5c0-0.2-0.1-0.4-0.1-0.7c0-0.2,0-0.5,0-0.7c0-0.3,0-0.6,0-0.9C710.7,1541.4,710,1541.4,709.3,1541.5z"/>
			</g>
		</g>
	</g>
</g>
</svg>
