<?xml version="1.0" encoding="utf-8"?>
<!-- Generator: Adobe Illustrator 24.3.0, SVG Export Plug-In . SVG Version: 6.00 Build 0)  -->
<svg version="1.1" id="Layer_1" xmlns="http://www.w3.org/2000/svg" xmlns:xlink="http://www.w3.org/1999/xlink" x="0px" y="0px"
	 viewBox="0 0 307 225" style="enable-background:new 0 0 307 225;" xml:space="preserve">
<style type="text/css">
	.st0{fill:#8AC8C4;}
	.st1{fill:#DD7362;}
	.st2{fill:#1F4BA0;}
	.st3{fill:none;stroke:#1F4BA0;stroke-miterlimit:10;stroke-dasharray:3;}
</style>
<g>
	<circle class="st0" cx="153" cy="27.4" r="8.2"/>
	<path class="st0" d="M143.4,114.7c0,2.5,2.1,4.6,4.6,4.6c2.5,0,4.6-2.1,4.6-4.6l0-38.4h2l0,38.4c0,2.5,2,4.6,4.6,4.6
		s4.6-2.1,4.6-4.6l0-66.2h2v24.4c0,4.9,6.4,4.9,6.4,0V48c0-5.4-3.2-10.7-9.5-10.7l-18.3,0c-5.8,0-9.4,4.7-9.4,10.6v25
		c0,4.9,6.4,4.9,6.4,0V48.6h2L143.4,114.7z"/>
	<circle class="st0" cx="203" cy="27.4" r="8.2"/>
	<path class="st0" d="M193.4,114.7c0,2.5,2.1,4.6,4.6,4.6c2.5,0,4.6-2.1,4.6-4.6l0-38.4h2l0,38.4c0,2.5,2,4.6,4.6,4.6
		s4.6-2.1,4.6-4.6l0-66.2h2v24.4c0,4.9,6.4,4.9,6.4,0V48c0-5.4-3.2-10.7-9.5-10.7l-18.3,0c-5.8,0-9.4,4.7-9.4,10.6v25
		c0,4.9,6.4,4.9,6.4,0V48.6h2L193.4,114.7z"/>
	<circle class="st0" cx="103" cy="27.4" r="8.2"/>
	<path class="st0" d="M93.4,114.7c0,2.5,2.1,4.6,4.6,4.6c2.5,0,4.6-2.1,4.6-4.6l0-38.4h2l0,38.4c0,2.5,2,4.6,4.6,4.6
		c2.5,0,4.6-2.1,4.6-4.6l0-66.2h2v24.4c0,4.9,6.4,4.9,6.4,0V48c0-5.4-3.2-10.7-9.5-10.7l-18.3,0c-5.8,0-9.4,4.7-9.4,10.6v25
		c0,4.9,6.4,4.9,6.4,0V48.6h2L93.4,114.7z"/>
	<circle class="st1" cx="253" cy="27.4" r="8.2"/>
	<path class="st1" d="M243.4,114.7c0,2.5,2.1,4.6,4.6,4.6c2.5,0,4.6-2.1,4.6-4.6l0-38.4h2l0,38.4c0,2.5,2,4.6,4.6,4.6
		s4.6-2.1,4.6-4.6l0-66.2h2v24.4c0,4.9,6.4,4.9,6.4,0V48c0-5.4-3.2-10.7-9.5-10.7l-18.3,0c-5.8,0-9.4,4.7-9.4,10.6v25
		c0,4.9,6.4,4.9,6.4,0V48.6h2L243.4,114.7z"/>
	<circle class="st0" cx="53" cy="27.4" r="8.2"/>
	<path class="st0" d="M43.4,114.7c0,2.5,2,4.6,4.6,4.6c2.5,0,4.6-2.1,4.6-4.6l0-38.4h2l0,38.4c0,2.5,2,4.6,4.6,4.6
		c2.5,0,4.6-2.1,4.6-4.6l0-66.2h2v24.4c0,4.9,6.4,4.9,6.4,0V48c0-5.4-3.2-10.7-9.5-10.7l-18.3,0c-5.8,0-9.4,4.7-9.4,10.6v25
		c0,4.9,6.4,4.9,6.4,0V48.6h2L43.4,114.7z"/>
</g>
<g>
	<path class="st2" d="M32.9,155.4c-1,0-1.8-0.2-2.5-0.7c-0.7-0.4-1.2-1.1-1.6-1.9c-0.4-0.8-0.6-1.8-0.6-3c0-1.2,0.2-2.2,0.6-3
		c0.4-0.8,0.9-1.5,1.6-1.9s1.5-0.7,2.5-0.7c1,0,1.8,0.2,2.5,0.7c0.7,0.4,1.2,1.1,1.6,1.9c0.4,0.8,0.6,1.8,0.6,3c0,1.2-0.2,2.2-0.6,3
		c-0.4,0.8-0.9,1.5-1.6,1.9C34.7,155.2,33.9,155.4,32.9,155.4z M32.9,154.2c0.7,0,1.2-0.2,1.7-0.5c0.5-0.3,0.8-0.8,1.1-1.4
		c0.2-0.6,0.4-1.5,0.4-2.5c0-1-0.1-1.8-0.4-2.5c-0.3-0.7-0.6-1.1-1.1-1.4c-0.5-0.3-1-0.5-1.7-0.5c-0.7,0-1.2,0.2-1.7,0.5
		c-0.5,0.3-0.8,0.8-1.1,1.4c-0.3,0.6-0.4,1.5-0.4,2.5c0,1,0.1,1.8,0.4,2.5c0.3,0.6,0.6,1.1,1.1,1.4
		C31.7,154.1,32.2,154.2,32.9,154.2z"/>
	<path class="st2" d="M39.4,155.3v-7.8h1.4v1.1c0.1-0.2,0.3-0.4,0.5-0.6s0.5-0.3,0.8-0.5s0.7-0.2,1.1-0.2c0.5,0,0.9,0.1,1.4,0.3
		c0.4,0.2,0.7,0.5,1,0.9c0.2,0.4,0.4,0.9,0.4,1.6v5.1h-1.4v-4.9c0-0.6-0.2-1.1-0.5-1.3c-0.3-0.3-0.7-0.4-1.2-0.4
		c-0.4,0-0.7,0.1-1,0.2c-0.3,0.1-0.6,0.3-0.7,0.5s-0.3,0.5-0.3,0.9v5.2H39.4z"/>
	<path class="st2" d="M50,155.4c-0.4,0-0.8-0.1-1-0.2c-0.3-0.1-0.5-0.3-0.6-0.5c-0.1-0.2-0.2-0.4-0.3-0.7c0-0.3-0.1-0.5-0.1-0.8
		v-9.1h1.4v9c0,0.4,0.1,0.7,0.2,0.9c0.2,0.2,0.4,0.3,0.6,0.3l0.4,0v0.9c-0.1,0-0.2,0.1-0.4,0.1S50.1,155.4,50,155.4z"/>
	<path class="st2" d="M53,157.8c-0.5,0-0.9-0.1-1.2-0.2v-0.9l0.8,0c0.3,0,0.5,0,0.7-0.1s0.3-0.1,0.5-0.2c0.1-0.1,0.2-0.2,0.3-0.3
		c0.1-0.1,0.1-0.2,0.2-0.3l0.3-0.7l-3-7.6h1.4l2.3,6l2.3-6h1.4l-3.3,8.3c-0.2,0.5-0.4,0.9-0.7,1.1s-0.5,0.5-0.8,0.6
		C53.7,157.7,53.4,157.8,53,157.8z"/>
	<path class="st2" d="M65.1,155.3v-8.1h-1.9v-1.2c0.6,0,1.1-0.1,1.5-0.2c0.4-0.1,0.7-0.3,0.9-0.5s0.3-0.5,0.3-0.8h1.5v10.8H65.1z"/>
	<path class="st2" d="M76.3,155.4c-0.8,0-1.4-0.2-2-0.5c-0.6-0.3-1-0.8-1.3-1.4c-0.3-0.6-0.5-1.3-0.5-2.1c0-0.8,0.2-1.5,0.5-2.1
		c0.3-0.6,0.7-1.1,1.3-1.4c0.6-0.3,1.2-0.5,2-0.5s1.4,0.2,2,0.5c0.6,0.3,1,0.8,1.3,1.4c0.3,0.6,0.5,1.3,0.5,2.2
		c0,0.8-0.1,1.5-0.4,2.1c-0.3,0.6-0.7,1.1-1.3,1.4C77.7,155.3,77.1,155.4,76.3,155.4z M76.3,153.8c0.4,0,0.7-0.1,0.9-0.3
		c0.2-0.2,0.4-0.5,0.5-0.9c0.1-0.4,0.2-0.8,0.2-1.2c0-0.4,0-0.8-0.1-1.2c-0.1-0.4-0.3-0.7-0.5-0.9s-0.6-0.3-1-0.3
		c-0.4,0-0.7,0.1-0.9,0.3c-0.2,0.2-0.4,0.5-0.5,0.9s-0.2,0.8-0.2,1.2c0,0.4,0.1,0.8,0.2,1.2c0.1,0.4,0.3,0.7,0.5,0.9
		C75.6,153.7,75.9,153.8,76.3,153.8z"/>
	<path class="st2" d="M84.2,155.4c-0.4,0-0.7-0.1-1.1-0.2c-0.3-0.1-0.7-0.3-0.9-0.5c-0.3-0.2-0.5-0.5-0.7-0.8
		c-0.2-0.3-0.3-0.7-0.3-1.1v-5.4h2.2v5.1c0,0.4,0.1,0.7,0.4,0.9c0.2,0.2,0.6,0.3,1,0.3c0.4,0,0.8-0.1,1-0.3c0.3-0.2,0.4-0.5,0.4-0.9
		v-5h2.2v7.8h-1.6l-0.3-1.5c-0.1,0.5-0.3,0.8-0.5,1s-0.5,0.4-0.8,0.5C84.9,155.4,84.5,155.4,84.2,155.4z"/>
	<path class="st2" d="M94.9,149.1h-1.7l0,4.1c0,0.2,0,0.3,0.1,0.4c0,0.1,0.1,0.2,0.2,0.2s0.2,0,0.4,0h1v1.3c-0.1,0-0.3,0.1-0.5,0.1
		s-0.5,0.1-0.9,0.1c-0.7,0-1.2-0.1-1.6-0.3s-0.6-0.4-0.8-0.7s-0.2-0.7-0.2-1.1v-4.2h-1.3v-1.5h1.3l0.5-2.3h1.6v2.3h1.7V149.1z"/>
	<path class="st2" d="M103,155.4c-0.8,0-1.4-0.2-2-0.5c-0.6-0.3-1-0.8-1.3-1.4c-0.3-0.6-0.5-1.3-0.5-2.1c0-0.8,0.2-1.5,0.5-2.1
		c0.3-0.6,0.7-1.1,1.3-1.4c0.6-0.3,1.2-0.5,2-0.5s1.4,0.2,2,0.5c0.6,0.3,1,0.8,1.3,1.4c0.3,0.6,0.5,1.3,0.5,2.2
		c0,0.8-0.1,1.5-0.4,2.1c-0.3,0.6-0.7,1.1-1.3,1.4C104.4,155.3,103.8,155.4,103,155.4z M103,153.8c0.4,0,0.7-0.1,0.9-0.3
		c0.2-0.2,0.4-0.5,0.5-0.9c0.1-0.4,0.2-0.8,0.2-1.2c0-0.4,0-0.8-0.1-1.2c-0.1-0.4-0.3-0.7-0.5-0.9s-0.6-0.3-1-0.3
		c-0.4,0-0.7,0.1-0.9,0.3c-0.2,0.2-0.4,0.5-0.5,0.9s-0.2,0.8-0.2,1.2c0,0.4,0.1,0.8,0.2,1.2c0.1,0.4,0.3,0.7,0.5,0.9
		C102.2,153.7,102.6,153.8,103,153.8z"/>
	<path class="st2" d="M112.7,147.5v1.5h-1.6v6.2h-2.2v-6.2h-1.4v-1.5h1.4v-1.1c0-0.6,0.2-1.1,0.6-1.5c0.4-0.3,0.9-0.5,1.6-0.5h1.8
		l0,1.5h-1c-0.3,0-0.5,0.1-0.6,0.2c-0.1,0.1-0.2,0.4-0.2,0.7v0.8H112.7z"/>
	<path class="st2" d="M118.9,151.9c0,0.4,0.1,0.7,0.2,1c0.1,0.3,0.3,0.5,0.6,0.7s0.5,0.2,0.9,0.2c0.4,0,0.7-0.1,1-0.2
		c0.3-0.2,0.5-0.4,0.6-0.8h2c-0.1,0.5-0.3,1-0.7,1.4c-0.4,0.4-0.8,0.7-1.3,0.9s-1,0.3-1.6,0.3c-0.8,0-1.4-0.2-2-0.5
		c-0.6-0.3-1-0.8-1.4-1.4c-0.3-0.6-0.5-1.3-0.5-2.1c0-0.8,0.1-1.5,0.4-2.1c0.3-0.6,0.7-1.1,1.3-1.5s1.2-0.5,2-0.5s1.5,0.2,2,0.5
		c0.5,0.3,0.9,0.8,1.2,1.4s0.4,1.3,0.4,2.1v0.6H118.9z M118.9,150.6h3.2c0-0.3-0.1-0.6-0.2-0.9c-0.1-0.3-0.3-0.5-0.5-0.6
		s-0.5-0.2-0.9-0.2c-0.3,0-0.6,0.1-0.9,0.2c-0.2,0.2-0.4,0.4-0.5,0.6C118.9,150,118.9,150.3,118.9,150.6z"/>
	<path class="st2" d="M131.9,147.5l-2.9,7.8h-1.6l-2.9-7.8h2l1.7,4.9h0.1l1.7-4.9H131.9z"/>
	<path class="st2" d="M134.5,151.9c0,0.4,0.1,0.7,0.2,1c0.1,0.3,0.3,0.5,0.6,0.7s0.5,0.2,0.9,0.2c0.4,0,0.7-0.1,1-0.2
		c0.3-0.2,0.5-0.4,0.6-0.8h2c-0.1,0.5-0.3,1-0.7,1.4c-0.4,0.4-0.8,0.7-1.3,0.9s-1,0.3-1.6,0.3c-0.8,0-1.4-0.2-2-0.5
		c-0.6-0.3-1-0.8-1.4-1.4c-0.3-0.6-0.5-1.3-0.5-2.1c0-0.8,0.1-1.5,0.4-2.1c0.3-0.6,0.7-1.1,1.3-1.5s1.2-0.5,2-0.5s1.5,0.2,2,0.5
		c0.5,0.3,0.9,0.8,1.2,1.4s0.4,1.3,0.4,2.1v0.6H134.5z M134.5,150.6h3.2c0-0.3-0.1-0.6-0.2-0.9c-0.1-0.3-0.3-0.5-0.5-0.6
		s-0.5-0.2-0.9-0.2c-0.3,0-0.6,0.1-0.9,0.2c-0.2,0.2-0.4,0.4-0.5,0.6C134.6,150,134.5,150.3,134.5,150.6z"/>
	<path class="st2" d="M141.3,155.3v-7.8h2.1v1.8c0.1-0.4,0.3-0.7,0.5-1c0.2-0.3,0.5-0.5,0.8-0.7c0.3-0.2,0.7-0.3,1.1-0.3
		c0.1,0,0.1,0,0.2,0c0.1,0,0.1,0,0.1,0v2.1c0,0-0.1,0-0.2,0s-0.1,0-0.2,0c-0.4,0-0.8,0-1.1,0c-0.3,0.1-0.6,0.2-0.7,0.3
		c-0.2,0.1-0.3,0.3-0.4,0.5s-0.1,0.4-0.1,0.7v4.2H141.3z"/>
	<path class="st2" d="M148.9,157.8c-0.5,0-1-0.1-1.4-0.3v-1.4l0.8,0c0.3,0,0.6,0,0.8,0s0.4-0.1,0.5-0.2s0.2-0.2,0.2-0.3
		c0-0.1,0.1-0.2,0.1-0.2l0.1-0.4l-3-7.4h2.2l1.9,5.1l1.9-5.1h2.1l-3.1,7.8c-0.3,0.7-0.6,1.2-0.9,1.5c-0.3,0.4-0.6,0.6-1,0.7
		C149.7,157.7,149.3,157.8,148.9,157.8z"/>
	<path class="st2" d="M160.1,144.4h7l-0.1,1.8h-5.2l-0.2,2.6c0.4-0.2,0.8-0.4,1.1-0.5c0.4-0.1,0.8-0.1,1.2-0.1
		c0.7,0,1.4,0.1,1.9,0.4c0.6,0.3,1,0.7,1.4,1.2c0.3,0.5,0.5,1.2,0.5,1.9c0,0.8-0.2,1.4-0.5,2c-0.3,0.6-0.8,1-1.5,1.3
		c-0.6,0.3-1.4,0.5-2.2,0.5c-0.7,0-1.4-0.1-2-0.3s-1.1-0.5-1.6-0.9c-0.4-0.4-0.8-0.8-1-1.3l1.7-1c0.2,0.3,0.4,0.6,0.7,0.9
		s0.5,0.5,0.9,0.6c0.3,0.2,0.7,0.2,1.1,0.2c0.7,0,1.2-0.2,1.6-0.5c0.4-0.3,0.6-0.8,0.6-1.3c0-0.3-0.1-0.7-0.3-0.9
		c-0.2-0.3-0.4-0.5-0.7-0.7c-0.3-0.2-0.7-0.2-1.1-0.2c-0.2,0-0.4,0-0.6,0.1c-0.2,0-0.4,0.1-0.6,0.2c-0.2,0.1-0.4,0.2-0.7,0.4
		c-0.1,0-0.1,0-0.1,0s-0.1,0-0.2-0.1l-1.6-0.7L160.1,144.4z"/>
	<path class="st2" d="M175.9,147.4c0.6,0,1.1,0.1,1.5,0.3c0.4,0.2,0.8,0.5,1.1,0.9c0.3,0.4,0.5,0.9,0.5,1.4h-1.2
		c0-0.3-0.1-0.5-0.3-0.8c-0.2-0.2-0.4-0.4-0.6-0.5c-0.3-0.1-0.6-0.2-0.9-0.2c-0.7,0-1.2,0.2-1.6,0.7c-0.4,0.5-0.6,1.2-0.6,2.2
		c0,0.9,0.2,1.6,0.6,2.1c0.4,0.5,0.9,0.8,1.7,0.8c0.4,0,0.7-0.1,0.9-0.2c0.3-0.1,0.5-0.3,0.6-0.5s0.3-0.5,0.3-0.7h1.2
		c-0.1,0.5-0.2,1-0.5,1.3c-0.3,0.4-0.6,0.7-1.1,0.9c-0.4,0.2-0.9,0.3-1.5,0.3c-0.7,0-1.3-0.2-1.8-0.5s-1-0.8-1.3-1.3
		c-0.3-0.6-0.5-1.3-0.5-2.2c0-0.8,0.1-1.5,0.4-2.1s0.7-1.1,1.2-1.4C174.5,147.6,175.1,147.4,175.9,147.4z"/>
	<path class="st2" d="M182.9,155.4c-0.5,0-0.9-0.1-1.3-0.3s-0.7-0.4-0.9-0.8c-0.2-0.3-0.3-0.7-0.3-1.2c0-0.9,0.3-1.5,0.9-1.9
		c0.6-0.4,1.6-0.6,2.9-0.7l1.4,0v-0.6c0-0.5-0.1-0.9-0.4-1.1s-0.7-0.4-1.3-0.4c-0.4,0-0.8,0.1-1.2,0.3c-0.3,0.2-0.6,0.5-0.7,1h-1.2
		c0-0.5,0.2-0.9,0.4-1.3s0.6-0.6,1.1-0.8c0.5-0.2,1-0.3,1.6-0.3c0.7,0,1.2,0.1,1.7,0.3c0.4,0.2,0.8,0.5,1,0.8s0.3,0.8,0.3,1.4v5.4
		h-1.2l-0.1-1.5c-0.3,0.6-0.7,1-1.1,1.3C184,155.3,183.5,155.4,182.9,155.4z M183.4,154.4c0.3,0,0.5,0,0.8-0.1
		c0.3-0.1,0.5-0.2,0.7-0.4c0.2-0.2,0.4-0.3,0.5-0.5c0.1-0.2,0.2-0.4,0.2-0.6v-1.3l-1.2,0c-0.6,0-1.1,0.1-1.5,0.2
		c-0.4,0.1-0.7,0.3-0.9,0.5c-0.2,0.2-0.3,0.5-0.3,0.9c0,0.4,0.2,0.8,0.5,1C182.5,154.3,182.9,154.4,183.4,154.4z"/>
	<path class="st2" d="M189.3,155.3v-7.8h1.4v1.1c0.1-0.2,0.3-0.4,0.5-0.6c0.2-0.2,0.5-0.3,0.8-0.5s0.7-0.2,1.1-0.2
		c0.5,0,0.9,0.1,1.4,0.3c0.4,0.2,0.7,0.5,1,0.9c0.2,0.4,0.4,0.9,0.4,1.6v5.1h-1.4v-4.9c0-0.6-0.2-1.1-0.5-1.3s-0.7-0.4-1.2-0.4
		c-0.3,0-0.7,0.1-1,0.2c-0.3,0.1-0.6,0.3-0.7,0.5s-0.3,0.5-0.3,0.9v5.2H189.3z"/>
	<path class="st2" d="M201,147.4c0.6,0,1.1,0.1,1.5,0.3c0.4,0.2,0.8,0.5,1.1,0.9c0.3,0.4,0.5,0.9,0.5,1.4h-1.2
		c0-0.3-0.1-0.5-0.3-0.8c-0.2-0.2-0.4-0.4-0.6-0.5c-0.3-0.1-0.6-0.2-0.9-0.2c-0.7,0-1.2,0.2-1.6,0.7c-0.4,0.5-0.6,1.2-0.6,2.2
		c0,0.9,0.2,1.6,0.6,2.1c0.4,0.5,0.9,0.8,1.7,0.8c0.4,0,0.7-0.1,0.9-0.2c0.3-0.1,0.5-0.3,0.6-0.5s0.3-0.5,0.3-0.7h1.2
		c-0.1,0.5-0.2,1-0.5,1.3c-0.3,0.4-0.6,0.7-1.1,0.9c-0.4,0.2-0.9,0.3-1.5,0.3c-0.7,0-1.3-0.2-1.8-0.5s-1-0.8-1.3-1.3
		c-0.3-0.6-0.5-1.3-0.5-2.2c0-0.8,0.1-1.5,0.4-2.1s0.7-1.1,1.2-1.4C199.6,147.6,200.3,147.4,201,147.4z"/>
	<path class="st2" d="M207,151.7c0,0.5,0.1,0.9,0.2,1.3c0.2,0.4,0.4,0.7,0.7,0.9c0.3,0.2,0.7,0.4,1.2,0.4c0.5,0,0.9-0.1,1.3-0.3
		c0.4-0.2,0.6-0.6,0.7-1h1.3c-0.1,0.5-0.3,1-0.6,1.3c-0.3,0.4-0.7,0.6-1.2,0.8s-0.9,0.3-1.4,0.3c-0.7,0-1.4-0.2-1.9-0.5
		c-0.6-0.3-1-0.8-1.3-1.4c-0.3-0.6-0.5-1.3-0.5-2.1c0-0.8,0.1-1.5,0.4-2.1c0.3-0.6,0.7-1.1,1.2-1.4c0.5-0.3,1.2-0.5,1.9-0.5
		c0.7,0,1.3,0.2,1.9,0.5c0.5,0.3,0.9,0.8,1.2,1.3c0.3,0.6,0.4,1.3,0.4,2v0.5H207z M207,150.8h4.2c0-0.4-0.1-0.8-0.2-1.2
		c-0.1-0.4-0.4-0.6-0.7-0.8c-0.3-0.2-0.7-0.3-1.2-0.3c-0.5,0-0.9,0.1-1.2,0.3s-0.6,0.5-0.7,0.9C207.1,150,207,150.4,207,150.8z"/>
	<path class="st2" d="M214.5,155.3v-7.8h1.3v1.5c0.1-0.4,0.3-0.7,0.5-0.9c0.2-0.2,0.5-0.4,0.8-0.5c0.3-0.1,0.6-0.2,0.9-0.2
		c0.1,0,0.2,0,0.3,0c0.1,0,0.2,0,0.3,0.1v1.3c-0.1,0-0.2-0.1-0.3-0.1c-0.1,0-0.2,0-0.3,0c-0.3,0-0.6,0-0.9,0.1
		c-0.3,0.1-0.5,0.2-0.7,0.3c-0.2,0.1-0.4,0.3-0.5,0.6c-0.1,0.2-0.2,0.5-0.2,0.8v4.8H214.5z"/>
	<path class="st2" d="M223.7,157.7v-10.2h1.4l0,1.3c0.1-0.2,0.2-0.3,0.3-0.5s0.3-0.3,0.5-0.5c0.2-0.2,0.5-0.3,0.7-0.4
		c0.3-0.1,0.6-0.1,0.9-0.1c0.6,0,1.2,0.1,1.6,0.4c0.5,0.3,0.8,0.7,1.1,1.3c0.3,0.6,0.4,1.3,0.4,2.2c0,0.9-0.1,1.6-0.4,2.2
		s-0.6,1.1-1.1,1.4c-0.5,0.3-1.1,0.5-1.8,0.5c-0.3,0-0.7,0-0.9-0.1s-0.5-0.2-0.7-0.4c-0.2-0.2-0.4-0.3-0.5-0.5
		c-0.1-0.2-0.2-0.4-0.3-0.5v3.8H223.7z M227.3,154.4c0.6,0,1.2-0.2,1.6-0.7s0.6-1.2,0.6-2.3c0-0.9-0.2-1.6-0.6-2.1
		c-0.4-0.5-0.9-0.8-1.6-0.8c-0.7,0-1.3,0.3-1.6,0.8c-0.4,0.5-0.6,1.2-0.6,2.1c0,0.6,0.1,1.1,0.2,1.5c0.2,0.5,0.4,0.8,0.7,1.1
		C226.4,154.2,226.8,154.4,227.3,154.4z"/>
	<path class="st2" d="M234.7,155.4c-0.5,0-0.9-0.1-1.3-0.3s-0.7-0.4-0.9-0.8c-0.2-0.3-0.3-0.7-0.3-1.2c0-0.9,0.3-1.5,0.9-1.9
		c0.6-0.4,1.6-0.6,2.9-0.7l1.4,0v-0.6c0-0.5-0.1-0.9-0.4-1.1s-0.7-0.4-1.3-0.4c-0.4,0-0.8,0.1-1.2,0.3c-0.3,0.2-0.6,0.5-0.7,1h-1.2
		c0-0.5,0.2-0.9,0.4-1.3s0.6-0.6,1.1-0.8c0.5-0.2,1-0.3,1.6-0.3c0.7,0,1.2,0.1,1.7,0.3c0.4,0.2,0.8,0.5,1,0.8s0.3,0.8,0.3,1.4v5.4
		h-1.2l-0.1-1.5c-0.3,0.6-0.7,1-1.1,1.3C235.8,155.3,235.2,155.4,234.7,155.4z M235.1,154.4c0.3,0,0.5,0,0.8-0.1
		c0.3-0.1,0.5-0.2,0.7-0.4c0.2-0.2,0.4-0.3,0.5-0.5c0.1-0.2,0.2-0.4,0.2-0.6v-1.3l-1.2,0c-0.6,0-1.1,0.1-1.5,0.2
		c-0.4,0.1-0.7,0.3-0.9,0.5c-0.2,0.2-0.3,0.5-0.3,0.9c0,0.4,0.2,0.8,0.5,1C234.2,154.3,234.6,154.4,235.1,154.4z"/>
	<path class="st2" d="M244.6,148.5h-1.7v4.8c0,0.3,0,0.5,0.1,0.6c0.1,0.1,0.2,0.2,0.3,0.2s0.3,0.1,0.6,0.1h0.8v0.9
		c-0.1,0-0.2,0.1-0.4,0.1s-0.4,0-0.7,0c-0.5,0-1-0.1-1.2-0.2s-0.5-0.4-0.6-0.6s-0.2-0.6-0.2-1v-4.9h-1.3v-1h1.3l0.3-2.3h1v2.2h1.7
		V148.5z"/>
	<path class="st2" d="M248.1,144.4v1.4h-1.4v-1.4H248.1z M248.1,147.5v7.8h-1.3v-7.8H248.1z"/>
	<path class="st2" d="M251.5,151.7c0,0.5,0.1,0.9,0.2,1.3c0.2,0.4,0.4,0.7,0.7,0.9c0.3,0.2,0.7,0.4,1.2,0.4c0.5,0,0.9-0.1,1.3-0.3
		c0.4-0.2,0.6-0.6,0.7-1h1.3c-0.1,0.5-0.3,1-0.6,1.3c-0.3,0.4-0.7,0.6-1.2,0.8s-0.9,0.3-1.4,0.3c-0.7,0-1.4-0.2-1.9-0.5
		c-0.6-0.3-1-0.8-1.3-1.4c-0.3-0.6-0.5-1.3-0.5-2.1c0-0.8,0.1-1.5,0.4-2.1c0.3-0.6,0.7-1.1,1.2-1.4c0.5-0.3,1.2-0.5,1.9-0.5
		c0.7,0,1.3,0.2,1.9,0.5c0.5,0.3,0.9,0.8,1.2,1.3c0.3,0.6,0.4,1.3,0.4,2v0.5H251.5z M251.5,150.8h4.2c0-0.4-0.1-0.8-0.2-1.2
		c-0.1-0.4-0.4-0.6-0.7-0.8c-0.3-0.2-0.7-0.3-1.2-0.3c-0.5,0-0.9,0.1-1.2,0.3s-0.6,0.5-0.7,0.9C251.6,150,251.5,150.4,251.5,150.8z"
		/>
	<path class="st2" d="M259,155.3v-7.8h1.4v1.1c0.1-0.2,0.3-0.4,0.5-0.6c0.2-0.2,0.5-0.3,0.8-0.5s0.7-0.2,1.1-0.2
		c0.5,0,0.9,0.1,1.4,0.3c0.4,0.2,0.7,0.5,1,0.9c0.2,0.4,0.4,0.9,0.4,1.6v5.1h-1.4v-4.9c0-0.6-0.2-1.1-0.5-1.3s-0.7-0.4-1.2-0.4
		c-0.3,0-0.7,0.1-1,0.2c-0.3,0.1-0.6,0.3-0.7,0.5s-0.3,0.5-0.3,0.9v5.2H259z"/>
	<path class="st2" d="M271.2,148.5h-1.7v4.8c0,0.3,0,0.5,0.1,0.6c0.1,0.1,0.2,0.2,0.3,0.2s0.3,0.1,0.6,0.1h0.8v0.9
		c-0.1,0-0.2,0.1-0.4,0.1s-0.4,0-0.7,0c-0.5,0-1-0.1-1.2-0.2s-0.5-0.4-0.6-0.6s-0.2-0.6-0.2-1v-4.9h-1.3v-1h1.3l0.3-2.3h1v2.2h1.7
		V148.5z"/>
	<path class="st2" d="M275.9,155.4c-0.5,0-1-0.1-1.5-0.3c-0.5-0.2-0.8-0.4-1.2-0.8s-0.5-0.8-0.6-1.4h1.3c0.1,0.3,0.2,0.6,0.4,0.8
		c0.2,0.2,0.4,0.4,0.7,0.5c0.3,0.1,0.6,0.2,0.9,0.2c0.5,0,0.9-0.1,1.3-0.3c0.3-0.2,0.5-0.5,0.5-0.9c0-0.3-0.1-0.5-0.3-0.7
		c-0.2-0.2-0.4-0.3-0.8-0.4l-1.6-0.4c-0.6-0.2-1.1-0.4-1.5-0.7c-0.4-0.3-0.6-0.8-0.6-1.3c0-0.5,0.1-0.9,0.3-1.2
		c0.2-0.3,0.5-0.6,1-0.8c0.4-0.2,1-0.3,1.6-0.3c0.8,0,1.5,0.2,2,0.6c0.5,0.4,0.8,0.9,0.8,1.7h-1.2c0-0.4-0.2-0.7-0.5-0.9
		s-0.7-0.3-1.1-0.3c-0.5,0-0.9,0.1-1.2,0.3s-0.5,0.5-0.5,0.9c0,0.3,0.1,0.5,0.3,0.6c0.2,0.2,0.5,0.3,1,0.4l1.6,0.4
		c0.4,0.1,0.7,0.2,0.9,0.4s0.4,0.3,0.6,0.5c0.1,0.2,0.2,0.4,0.3,0.6c0.1,0.2,0.1,0.4,0.1,0.6c0,0.5-0.1,0.9-0.4,1.2
		c-0.2,0.3-0.6,0.6-1,0.8S276.5,155.4,275.9,155.4z"/>
	<path class="st2" d="M52.4,173.3v-11.1h1.4v4.5c0.1-0.2,0.3-0.4,0.5-0.6s0.5-0.3,0.8-0.5c0.3-0.1,0.7-0.2,1.1-0.2
		c0.5,0,1,0.1,1.4,0.3s0.7,0.5,1,0.8c0.2,0.3,0.4,0.8,0.4,1.2v5.5h-1.4V168c0-0.5-0.2-0.8-0.5-1.1c-0.3-0.3-0.7-0.4-1.2-0.4
		c-0.3,0-0.7,0.1-1,0.2c-0.3,0.1-0.6,0.3-0.7,0.5s-0.3,0.5-0.3,0.9v5.2H52.4z"/>
	<path class="st2" d="M63.1,173.4c-0.5,0-0.9-0.1-1.3-0.3c-0.4-0.2-0.7-0.4-0.9-0.8c-0.2-0.3-0.3-0.7-0.3-1.2c0-0.9,0.3-1.5,0.9-1.9
		c0.6-0.4,1.6-0.6,2.9-0.7l1.4,0v-0.6c0-0.5-0.1-0.9-0.4-1.1s-0.7-0.4-1.3-0.4c-0.4,0-0.8,0.1-1.2,0.3c-0.3,0.2-0.6,0.5-0.7,1h-1.2
		c0-0.5,0.2-0.9,0.4-1.3c0.3-0.3,0.6-0.6,1.1-0.8c0.5-0.2,1-0.3,1.6-0.3c0.7,0,1.2,0.1,1.7,0.3c0.4,0.2,0.8,0.5,1,0.8
		s0.3,0.8,0.3,1.4v5.4h-1.2l-0.1-1.5c-0.3,0.6-0.7,1-1.1,1.3C64.2,173.3,63.7,173.4,63.1,173.4z M63.6,172.4c0.3,0,0.5,0,0.8-0.1
		c0.3-0.1,0.5-0.2,0.7-0.4c0.2-0.2,0.4-0.3,0.5-0.5s0.2-0.4,0.2-0.6v-1.3l-1.2,0c-0.6,0-1.1,0.1-1.5,0.2c-0.4,0.1-0.7,0.3-0.9,0.5
		c-0.2,0.2-0.3,0.5-0.3,0.9c0,0.4,0.2,0.8,0.5,1C62.7,172.3,63.1,172.4,63.6,172.4z"/>
	<path class="st2" d="M72.1,173.4c-0.5,0-1-0.1-1.5-0.3c-0.5-0.2-0.8-0.4-1.2-0.8c-0.3-0.4-0.5-0.8-0.6-1.4h1.3
		c0.1,0.3,0.2,0.6,0.4,0.8c0.2,0.2,0.4,0.4,0.7,0.5c0.3,0.1,0.6,0.2,0.9,0.2c0.5,0,0.9-0.1,1.3-0.3c0.3-0.2,0.5-0.5,0.5-0.9
		c0-0.3-0.1-0.5-0.3-0.7s-0.4-0.3-0.8-0.4l-1.6-0.4c-0.6-0.2-1.1-0.4-1.5-0.7c-0.4-0.3-0.6-0.8-0.6-1.3c0-0.5,0.1-0.9,0.3-1.2
		c0.2-0.3,0.6-0.6,1-0.8c0.4-0.2,1-0.3,1.6-0.3c0.8,0,1.5,0.2,2,0.6c0.5,0.4,0.8,0.9,0.8,1.7h-1.2c-0.1-0.4-0.2-0.7-0.5-0.9
		c-0.3-0.2-0.7-0.3-1.1-0.3c-0.5,0-0.9,0.1-1.2,0.3s-0.5,0.5-0.5,0.9c0,0.3,0.1,0.5,0.3,0.6c0.2,0.2,0.5,0.3,1,0.4l1.6,0.4
		c0.4,0.1,0.7,0.2,0.9,0.4s0.4,0.3,0.6,0.5c0.1,0.2,0.2,0.4,0.3,0.6c0.1,0.2,0.1,0.4,0.1,0.6c0,0.5-0.1,0.9-0.4,1.2
		c-0.2,0.3-0.6,0.6-1,0.8S72.7,173.4,72.1,173.4z"/>
	<path class="st2" d="M82.6,173.4c-0.5,0-0.9-0.1-1.3-0.3c-0.4-0.2-0.7-0.4-0.9-0.8c-0.2-0.3-0.3-0.7-0.3-1.2c0-0.9,0.3-1.5,0.9-1.9
		c0.6-0.4,1.6-0.6,2.9-0.7l1.4,0v-0.6c0-0.5-0.1-0.9-0.4-1.1s-0.7-0.4-1.3-0.4c-0.4,0-0.8,0.1-1.2,0.3c-0.3,0.2-0.6,0.5-0.7,1h-1.2
		c0-0.5,0.2-0.9,0.4-1.3c0.3-0.3,0.6-0.6,1.1-0.8c0.5-0.2,1-0.3,1.6-0.3c0.7,0,1.2,0.1,1.7,0.3c0.4,0.2,0.8,0.5,1,0.8
		s0.3,0.8,0.3,1.4v5.4h-1.2l-0.1-1.5c-0.3,0.6-0.7,1-1.1,1.3C83.6,173.3,83.1,173.4,82.6,173.4z M83,172.4c0.3,0,0.5,0,0.8-0.1
		c0.3-0.1,0.5-0.2,0.7-0.4c0.2-0.2,0.4-0.3,0.5-0.5s0.2-0.4,0.2-0.6v-1.3l-1.2,0c-0.6,0-1.1,0.1-1.5,0.2c-0.4,0.1-0.7,0.3-0.9,0.5
		c-0.2,0.2-0.3,0.5-0.3,0.9c0,0.4,0.2,0.8,0.5,1C82.1,172.3,82.5,172.4,83,172.4z"/>
	<path class="st2" d="M92,165.4c0.6,0,1.1,0.1,1.5,0.3c0.4,0.2,0.8,0.5,1.1,0.9c0.3,0.4,0.5,0.9,0.5,1.4h-1.2c0-0.3-0.1-0.5-0.3-0.8
		c-0.2-0.2-0.4-0.4-0.6-0.5c-0.3-0.1-0.6-0.2-0.9-0.2c-0.7,0-1.2,0.2-1.6,0.7c-0.4,0.5-0.6,1.2-0.6,2.2c0,0.9,0.2,1.6,0.6,2.1
		c0.4,0.5,0.9,0.8,1.7,0.8c0.4,0,0.7-0.1,0.9-0.2c0.3-0.1,0.5-0.3,0.6-0.5c0.2-0.2,0.3-0.5,0.3-0.7h1.2c-0.1,0.5-0.2,1-0.5,1.3
		c-0.3,0.4-0.6,0.7-1.1,0.9c-0.4,0.2-0.9,0.3-1.5,0.3c-0.7,0-1.3-0.2-1.8-0.5s-1-0.8-1.3-1.3c-0.3-0.6-0.5-1.3-0.5-2.2
		c0-0.8,0.1-1.5,0.4-2.1c0.3-0.6,0.7-1.1,1.2-1.4C90.6,165.6,91.2,165.4,92,165.4z"/>
	<path class="st2" d="M100.1,165.4c0.6,0,1.1,0.1,1.5,0.3c0.4,0.2,0.8,0.5,1.1,0.9c0.3,0.4,0.5,0.9,0.5,1.4h-1.2
		c0-0.3-0.1-0.5-0.3-0.8c-0.2-0.2-0.4-0.4-0.6-0.5c-0.3-0.1-0.6-0.2-0.9-0.2c-0.7,0-1.2,0.2-1.6,0.7c-0.4,0.5-0.6,1.2-0.6,2.2
		c0,0.9,0.2,1.6,0.6,2.1c0.4,0.5,0.9,0.8,1.7,0.8c0.4,0,0.7-0.1,0.9-0.2c0.3-0.1,0.5-0.3,0.6-0.5c0.2-0.2,0.3-0.5,0.3-0.7h1.2
		c-0.1,0.5-0.2,1-0.5,1.3c-0.3,0.4-0.6,0.7-1.1,0.9c-0.4,0.2-0.9,0.3-1.5,0.3c-0.7,0-1.3-0.2-1.8-0.5s-1-0.8-1.3-1.3
		c-0.3-0.6-0.5-1.3-0.5-2.2c0-0.8,0.1-1.5,0.4-2.1c0.3-0.6,0.7-1.1,1.2-1.4C98.7,165.6,99.3,165.4,100.1,165.4z"/>
	<path class="st2" d="M106.1,169.7c0,0.5,0.1,0.9,0.2,1.3c0.2,0.4,0.4,0.7,0.7,0.9c0.3,0.2,0.7,0.4,1.2,0.4c0.5,0,0.9-0.1,1.3-0.3
		c0.4-0.2,0.6-0.6,0.7-1h1.3c-0.1,0.5-0.3,1-0.6,1.3c-0.3,0.4-0.7,0.6-1.2,0.8s-0.9,0.3-1.4,0.3c-0.7,0-1.4-0.2-1.9-0.5
		c-0.6-0.3-1-0.8-1.3-1.4c-0.3-0.6-0.5-1.3-0.5-2.1c0-0.8,0.1-1.5,0.4-2.1c0.3-0.6,0.7-1.1,1.2-1.4c0.5-0.3,1.2-0.5,1.9-0.5
		c0.7,0,1.3,0.2,1.9,0.5c0.5,0.3,0.9,0.8,1.2,1.3c0.3,0.6,0.4,1.3,0.4,2v0.5H106.1z M106.1,168.8h4.2c0-0.4-0.1-0.8-0.2-1.2
		c-0.1-0.4-0.4-0.6-0.7-0.8c-0.3-0.2-0.7-0.3-1.2-0.3c-0.5,0-0.9,0.1-1.2,0.3c-0.3,0.2-0.6,0.5-0.7,0.9
		C106.1,168,106.1,168.4,106.1,168.8z"/>
	<path class="st2" d="M116.2,173.4c-0.5,0-1-0.1-1.5-0.3c-0.5-0.2-0.8-0.4-1.2-0.8c-0.3-0.4-0.5-0.8-0.6-1.4h1.3
		c0.1,0.3,0.2,0.6,0.4,0.8c0.2,0.2,0.4,0.4,0.7,0.5c0.3,0.1,0.6,0.2,0.9,0.2c0.5,0,0.9-0.1,1.3-0.3c0.3-0.2,0.5-0.5,0.5-0.9
		c0-0.3-0.1-0.5-0.3-0.7s-0.4-0.3-0.8-0.4l-1.6-0.4c-0.6-0.2-1.1-0.4-1.5-0.7c-0.4-0.3-0.6-0.8-0.6-1.3c0-0.5,0.1-0.9,0.3-1.2
		c0.2-0.3,0.6-0.6,1-0.8c0.4-0.2,1-0.3,1.6-0.3c0.8,0,1.5,0.2,2,0.6c0.5,0.4,0.8,0.9,0.8,1.7h-1.2c-0.1-0.4-0.2-0.7-0.5-0.9
		c-0.3-0.2-0.7-0.3-1.1-0.3c-0.5,0-0.9,0.1-1.2,0.3s-0.5,0.5-0.5,0.9c0,0.3,0.1,0.5,0.3,0.6c0.2,0.2,0.5,0.3,1,0.4l1.6,0.4
		c0.4,0.1,0.7,0.2,0.9,0.4s0.4,0.3,0.6,0.5c0.1,0.2,0.2,0.4,0.3,0.6c0.1,0.2,0.1,0.4,0.1,0.6c0,0.5-0.1,0.9-0.4,1.2
		c-0.2,0.3-0.6,0.6-1,0.8S116.8,173.4,116.2,173.4z"/>
	<path class="st2" d="M123.8,173.4c-0.5,0-1-0.1-1.5-0.3c-0.5-0.2-0.8-0.4-1.2-0.8c-0.3-0.4-0.5-0.8-0.6-1.4h1.3
		c0.1,0.3,0.2,0.6,0.4,0.8c0.2,0.2,0.4,0.4,0.7,0.5c0.3,0.1,0.6,0.2,0.9,0.2c0.5,0,0.9-0.1,1.3-0.3c0.3-0.2,0.5-0.5,0.5-0.9
		c0-0.3-0.1-0.5-0.3-0.7s-0.4-0.3-0.8-0.4l-1.6-0.4c-0.6-0.2-1.1-0.4-1.5-0.7c-0.4-0.3-0.6-0.8-0.6-1.3c0-0.5,0.1-0.9,0.3-1.2
		c0.2-0.3,0.6-0.6,1-0.8c0.4-0.2,1-0.3,1.6-0.3c0.8,0,1.5,0.2,2,0.6c0.5,0.4,0.8,0.9,0.8,1.7h-1.2c-0.1-0.4-0.2-0.7-0.5-0.9
		c-0.3-0.2-0.7-0.3-1.1-0.3c-0.5,0-0.9,0.1-1.2,0.3s-0.5,0.5-0.5,0.9c0,0.3,0.1,0.5,0.3,0.6c0.2,0.2,0.5,0.3,1,0.4l1.6,0.4
		c0.4,0.1,0.7,0.2,0.9,0.4s0.4,0.3,0.6,0.5c0.1,0.2,0.2,0.4,0.3,0.6c0.1,0.2,0.1,0.4,0.1,0.6c0,0.5-0.1,0.9-0.4,1.2
		c-0.2,0.3-0.6,0.6-1,0.8S124.4,173.4,123.8,173.4z"/>
	<path class="st2" d="M136,166.5h-1.7v4.8c0,0.3,0,0.5,0.1,0.6c0.1,0.1,0.2,0.2,0.3,0.2c0.1,0,0.3,0.1,0.6,0.1h0.8v0.9
		c-0.1,0-0.2,0.1-0.4,0.1s-0.4,0-0.7,0c-0.5,0-0.9-0.1-1.2-0.2c-0.3-0.1-0.5-0.4-0.6-0.6c-0.1-0.3-0.2-0.6-0.2-1v-4.9h-1.3v-1h1.3
		l0.3-2.3h1v2.2h1.7V166.5z"/>
	<path class="st2" d="M140.9,173.4c-0.7,0-1.3-0.2-1.9-0.5s-1-0.8-1.2-1.4s-0.4-1.3-0.4-2.2c0-0.8,0.1-1.5,0.4-2.1s0.7-1.1,1.2-1.4
		c0.5-0.3,1.2-0.5,1.9-0.5c0.7,0,1.3,0.2,1.9,0.5s0.9,0.8,1.2,1.4c0.3,0.6,0.4,1.3,0.4,2.2c0,0.8-0.1,1.5-0.4,2.1
		c-0.3,0.6-0.7,1.1-1.2,1.4C142.3,173.3,141.7,173.4,140.9,173.4z M140.9,172.3c0.5,0,0.9-0.1,1.2-0.4c0.3-0.2,0.6-0.6,0.7-1
		c0.2-0.4,0.2-1,0.2-1.6c0-0.6-0.1-1.1-0.2-1.5s-0.4-0.8-0.7-1.1c-0.3-0.3-0.7-0.4-1.2-0.4c-0.5,0-0.9,0.1-1.2,0.3
		c-0.3,0.2-0.6,0.6-0.7,1s-0.3,1-0.3,1.6c0,0.5,0.1,1,0.2,1.5s0.4,0.8,0.7,1.1C140,172.2,140.4,172.3,140.9,172.3z"/>
	<path class="st2" d="M152.5,165.4c0.6,0,1.1,0.1,1.5,0.3c0.4,0.2,0.8,0.5,1.1,0.9c0.3,0.4,0.5,0.9,0.5,1.4h-1.2
		c0-0.3-0.1-0.5-0.3-0.8c-0.2-0.2-0.4-0.4-0.6-0.5c-0.3-0.1-0.6-0.2-0.9-0.2c-0.7,0-1.2,0.2-1.6,0.7c-0.4,0.5-0.6,1.2-0.6,2.2
		c0,0.9,0.2,1.6,0.6,2.1c0.4,0.5,0.9,0.8,1.7,0.8c0.4,0,0.7-0.1,0.9-0.2c0.3-0.1,0.5-0.3,0.6-0.5c0.2-0.2,0.3-0.5,0.3-0.7h1.2
		c-0.1,0.5-0.2,1-0.5,1.3c-0.3,0.4-0.6,0.7-1.1,0.9c-0.4,0.2-0.9,0.3-1.5,0.3c-0.7,0-1.3-0.2-1.8-0.5s-1-0.8-1.3-1.3
		c-0.3-0.6-0.5-1.3-0.5-2.2c0-0.8,0.1-1.5,0.4-2.1c0.3-0.6,0.7-1.1,1.2-1.4C151.1,165.6,151.7,165.4,152.5,165.4z"/>
	<path class="st2" d="M159.6,173.4c-0.5,0-0.9-0.1-1.3-0.3s-0.7-0.4-0.9-0.8s-0.3-0.7-0.3-1.2c0-0.9,0.3-1.5,0.9-1.9
		c0.6-0.4,1.6-0.6,2.9-0.7l1.4,0v-0.6c0-0.5-0.1-0.9-0.4-1.1s-0.7-0.4-1.3-0.4c-0.4,0-0.8,0.1-1.2,0.3s-0.6,0.5-0.7,1h-1.2
		c0-0.5,0.2-0.9,0.4-1.3c0.3-0.3,0.6-0.6,1.1-0.8c0.5-0.2,1-0.3,1.6-0.3c0.7,0,1.2,0.1,1.7,0.3c0.4,0.2,0.8,0.5,1,0.8
		s0.3,0.8,0.3,1.4v5.4h-1.2l-0.1-1.5c-0.3,0.6-0.7,1-1.1,1.3C160.6,173.3,160.1,173.4,159.6,173.4z M160,172.4c0.3,0,0.5,0,0.8-0.1
		c0.3-0.1,0.5-0.2,0.7-0.4c0.2-0.2,0.4-0.3,0.5-0.5s0.2-0.4,0.2-0.6v-1.3l-1.2,0c-0.6,0-1.1,0.1-1.5,0.2c-0.4,0.1-0.7,0.3-0.9,0.5
		c-0.2,0.2-0.3,0.5-0.3,0.9c0,0.4,0.2,0.8,0.5,1C159.1,172.3,159.5,172.4,160,172.4z"/>
	<path class="st2" d="M165.9,173.3v-7.8h1.4v1.1c0.1-0.2,0.3-0.4,0.5-0.6c0.2-0.2,0.5-0.3,0.8-0.5s0.7-0.2,1.1-0.2
		c0.5,0,0.9,0.1,1.4,0.3c0.4,0.2,0.7,0.5,1,0.9c0.2,0.4,0.4,0.9,0.4,1.6v5.1H171v-4.9c0-0.6-0.2-1.1-0.5-1.3s-0.7-0.4-1.2-0.4
		c-0.3,0-0.7,0.1-1,0.2c-0.3,0.1-0.6,0.3-0.7,0.5s-0.3,0.5-0.3,0.9v5.2H165.9z"/>
	<path class="st2" d="M177.6,165.4c0.6,0,1.1,0.1,1.5,0.3c0.4,0.2,0.8,0.5,1.1,0.9c0.3,0.4,0.5,0.9,0.5,1.4h-1.2
		c0-0.3-0.1-0.5-0.3-0.8c-0.2-0.2-0.4-0.4-0.6-0.5c-0.3-0.1-0.6-0.2-0.9-0.2c-0.7,0-1.2,0.2-1.6,0.7c-0.4,0.5-0.6,1.2-0.6,2.2
		c0,0.9,0.2,1.6,0.6,2.1c0.4,0.5,0.9,0.8,1.7,0.8c0.4,0,0.7-0.1,0.9-0.2c0.3-0.1,0.5-0.3,0.6-0.5s0.3-0.5,0.3-0.7h1.2
		c-0.1,0.5-0.2,1-0.5,1.3c-0.3,0.4-0.6,0.7-1.1,0.9c-0.4,0.2-0.9,0.3-1.5,0.3c-0.7,0-1.3-0.2-1.8-0.5s-1-0.8-1.3-1.3
		c-0.3-0.6-0.5-1.3-0.5-2.2c0-0.8,0.1-1.5,0.4-2.1s0.7-1.1,1.2-1.4C176.2,165.6,176.9,165.4,177.6,165.4z"/>
	<path class="st2" d="M183.6,169.7c0,0.5,0.1,0.9,0.2,1.3c0.2,0.4,0.4,0.7,0.7,0.9c0.3,0.2,0.7,0.4,1.2,0.4c0.5,0,0.9-0.1,1.3-0.3
		c0.4-0.2,0.6-0.6,0.7-1h1.3c-0.1,0.5-0.3,1-0.6,1.3c-0.3,0.4-0.7,0.6-1.2,0.8s-0.9,0.3-1.4,0.3c-0.7,0-1.4-0.2-1.9-0.5
		c-0.6-0.3-1-0.8-1.3-1.4c-0.3-0.6-0.5-1.3-0.5-2.1c0-0.8,0.1-1.5,0.4-2.1c0.3-0.6,0.7-1.1,1.2-1.4c0.5-0.3,1.2-0.5,1.9-0.5
		c0.7,0,1.3,0.2,1.9,0.5c0.5,0.3,0.9,0.8,1.2,1.3c0.3,0.6,0.4,1.3,0.4,2v0.5H183.6z M183.6,168.8h4.2c0-0.4-0.1-0.8-0.2-1.2
		c-0.1-0.4-0.4-0.6-0.7-0.8c-0.3-0.2-0.7-0.3-1.2-0.3c-0.5,0-0.9,0.1-1.2,0.3s-0.6,0.5-0.7,0.9C183.7,168,183.6,168.4,183.6,168.8z"
		/>
	<path class="st2" d="M191.1,173.3v-7.8h1.3v1.5c0.1-0.4,0.3-0.7,0.5-0.9c0.2-0.2,0.5-0.4,0.8-0.5c0.3-0.1,0.6-0.2,0.9-0.2
		c0.1,0,0.2,0,0.3,0c0.1,0,0.2,0,0.3,0.1v1.3c-0.1,0-0.2-0.1-0.3-0.1c-0.1,0-0.2,0-0.3,0c-0.3,0-0.6,0-0.9,0.1
		c-0.3,0.1-0.5,0.2-0.7,0.3c-0.2,0.1-0.4,0.3-0.5,0.6c-0.1,0.2-0.2,0.5-0.2,0.8v4.8H191.1z"/>
	<path class="st2" d="M199.7,168.9v1.1l-3.8,0v-1.1L199.7,168.9z"/>
	<path class="st2" d="M204.6,173.4c-0.5,0-1-0.1-1.5-0.3c-0.5-0.2-0.8-0.4-1.2-0.8s-0.5-0.8-0.6-1.4h1.3c0.1,0.3,0.2,0.6,0.4,0.8
		c0.2,0.2,0.4,0.4,0.7,0.5c0.3,0.1,0.6,0.2,0.9,0.2c0.5,0,0.9-0.1,1.3-0.3c0.3-0.2,0.5-0.5,0.5-0.9c0-0.3-0.1-0.5-0.3-0.7
		c-0.2-0.2-0.4-0.3-0.8-0.4l-1.6-0.4c-0.6-0.2-1.1-0.4-1.5-0.7c-0.4-0.3-0.6-0.8-0.6-1.3c0-0.5,0.1-0.9,0.3-1.2
		c0.2-0.3,0.5-0.6,1-0.8c0.4-0.2,1-0.3,1.6-0.3c0.8,0,1.5,0.2,2,0.6c0.5,0.4,0.8,0.9,0.8,1.7h-1.2c0-0.4-0.2-0.7-0.5-0.9
		s-0.7-0.3-1.1-0.3c-0.5,0-0.9,0.1-1.2,0.3s-0.5,0.5-0.5,0.9c0,0.3,0.1,0.5,0.3,0.6c0.2,0.2,0.5,0.3,1,0.4l1.6,0.4
		c0.4,0.1,0.7,0.2,0.9,0.4s0.4,0.3,0.6,0.5c0.1,0.2,0.2,0.4,0.3,0.6c0.1,0.2,0.1,0.4,0.1,0.6c0,0.5-0.1,0.9-0.4,1.2
		c-0.2,0.3-0.6,0.6-1,0.8S205.2,173.4,204.6,173.4z"/>
	<path class="st2" d="M209.5,175.7v-10.2h1.4l0,1.3c0.1-0.2,0.2-0.3,0.3-0.5s0.3-0.3,0.5-0.5c0.2-0.2,0.5-0.3,0.7-0.4
		c0.3-0.1,0.6-0.1,0.9-0.1c0.6,0,1.2,0.1,1.6,0.4c0.5,0.3,0.8,0.7,1.1,1.3c0.3,0.6,0.4,1.3,0.4,2.2c0,0.9-0.1,1.6-0.4,2.2
		s-0.6,1.1-1.1,1.4c-0.5,0.3-1.1,0.5-1.8,0.5c-0.3,0-0.7,0-0.9-0.1s-0.5-0.2-0.7-0.4c-0.2-0.2-0.4-0.3-0.5-0.5
		c-0.1-0.2-0.2-0.4-0.3-0.5v3.8H209.5z M213.1,172.4c0.6,0,1.2-0.2,1.6-0.7s0.6-1.2,0.6-2.3c0-0.9-0.2-1.6-0.6-2.1
		c-0.4-0.5-0.9-0.8-1.6-0.8c-0.7,0-1.3,0.3-1.6,0.8c-0.4,0.5-0.6,1.2-0.6,2.1c0,0.6,0.1,1.1,0.2,1.5c0.2,0.5,0.4,0.8,0.7,1.1
		C212.2,172.2,212.6,172.4,213.1,172.4z"/>
	<path class="st2" d="M219.4,169.7c0,0.5,0.1,0.9,0.2,1.3c0.2,0.4,0.4,0.7,0.7,0.9c0.3,0.2,0.7,0.4,1.2,0.4c0.5,0,0.9-0.1,1.3-0.3
		c0.4-0.2,0.6-0.6,0.7-1h1.3c-0.1,0.5-0.3,1-0.6,1.3c-0.3,0.4-0.7,0.6-1.2,0.8s-0.9,0.3-1.4,0.3c-0.7,0-1.4-0.2-1.9-0.5
		c-0.6-0.3-1-0.8-1.3-1.4c-0.3-0.6-0.5-1.3-0.5-2.1c0-0.8,0.1-1.5,0.4-2.1c0.3-0.6,0.7-1.1,1.2-1.4c0.5-0.3,1.2-0.5,1.9-0.5
		c0.7,0,1.3,0.2,1.9,0.5c0.5,0.3,0.9,0.8,1.2,1.3c0.3,0.6,0.4,1.3,0.4,2v0.5H219.4z M219.4,168.8h4.2c0-0.4-0.1-0.8-0.2-1.2
		c-0.1-0.4-0.4-0.6-0.7-0.8c-0.3-0.2-0.7-0.3-1.2-0.3c-0.5,0-0.9,0.1-1.2,0.3s-0.6,0.5-0.7,0.9C219.5,168,219.4,168.4,219.4,168.8z"
		/>
	<path class="st2" d="M230,165.4c0.6,0,1.1,0.1,1.5,0.3c0.4,0.2,0.8,0.5,1.1,0.9c0.3,0.4,0.5,0.9,0.5,1.4h-1.2
		c0-0.3-0.1-0.5-0.3-0.8c-0.2-0.2-0.4-0.4-0.6-0.5c-0.3-0.1-0.6-0.2-0.9-0.2c-0.7,0-1.2,0.2-1.6,0.7c-0.4,0.5-0.6,1.2-0.6,2.2
		c0,0.9,0.2,1.6,0.6,2.1c0.4,0.5,0.9,0.8,1.7,0.8c0.4,0,0.7-0.1,0.9-0.2c0.3-0.1,0.5-0.3,0.6-0.5s0.3-0.5,0.3-0.7h1.2
		c-0.1,0.5-0.2,1-0.5,1.3c-0.3,0.4-0.6,0.7-1.1,0.9c-0.4,0.2-0.9,0.3-1.5,0.3c-0.7,0-1.3-0.2-1.8-0.5s-1-0.8-1.3-1.3
		c-0.3-0.6-0.5-1.3-0.5-2.2c0-0.8,0.1-1.5,0.4-2.1s0.7-1.1,1.2-1.4C228.6,165.6,229.2,165.4,230,165.4z"/>
	<path class="st2" d="M236.5,162.4v1.4h-1.4v-1.4H236.5z M236.5,165.5v7.8h-1.3v-7.8H236.5z"/>
	<path class="st2" d="M243.3,165.5v1h-1.9v6.7H240v-6.7h-1.6v-1h1.6v-1.2c0-0.6,0.2-1.1,0.5-1.4c0.3-0.3,0.8-0.5,1.4-0.5h1.5l0,1
		h-1.2c-0.3,0-0.5,0.1-0.6,0.3s-0.2,0.4-0.2,0.8v1.1H243.3z M246.5,162.4v1.4h-1.4v-1.4H246.5z M246.5,165.5v7.8h-1.3v-7.8H246.5z"
		/>
	<path class="st2" d="M252,165.4c0.6,0,1.1,0.1,1.5,0.3c0.4,0.2,0.8,0.5,1.1,0.9c0.3,0.4,0.5,0.9,0.5,1.4h-1.2
		c0-0.3-0.1-0.5-0.3-0.8c-0.2-0.2-0.4-0.4-0.6-0.5c-0.3-0.1-0.6-0.2-0.9-0.2c-0.7,0-1.2,0.2-1.6,0.7c-0.4,0.5-0.6,1.2-0.6,2.2
		c0,0.9,0.2,1.6,0.6,2.1c0.4,0.5,0.9,0.8,1.7,0.8c0.4,0,0.7-0.1,0.9-0.2c0.3-0.1,0.5-0.3,0.6-0.5s0.3-0.5,0.3-0.7h1.2
		c-0.1,0.5-0.2,1-0.5,1.3c-0.3,0.4-0.6,0.7-1.1,0.9c-0.4,0.2-0.9,0.3-1.5,0.3c-0.7,0-1.3-0.2-1.8-0.5s-1-0.8-1.3-1.3
		c-0.3-0.6-0.5-1.3-0.5-2.2c0-0.8,0.1-1.5,0.4-2.1s0.7-1.1,1.2-1.4C250.6,165.6,251.3,165.4,252,165.4z"/>
	<path class="st2" d="M49.7,193.7v-10.2h1.4l0,1.3c0.1-0.2,0.2-0.3,0.3-0.5s0.3-0.3,0.5-0.5c0.2-0.2,0.5-0.3,0.7-0.4
		c0.3-0.1,0.6-0.1,0.9-0.1c0.6,0,1.2,0.1,1.6,0.4c0.5,0.3,0.8,0.7,1.1,1.3s0.4,1.3,0.4,2.2c0,0.9-0.1,1.6-0.4,2.2
		c-0.3,0.6-0.6,1.1-1.1,1.4s-1.1,0.5-1.8,0.5c-0.3,0-0.7,0-0.9-0.1c-0.3-0.1-0.5-0.2-0.7-0.4c-0.2-0.2-0.4-0.3-0.5-0.5
		c-0.1-0.2-0.2-0.4-0.3-0.5v3.8H49.7z M53.2,190.4c0.6,0,1.2-0.2,1.6-0.7c0.4-0.5,0.6-1.2,0.6-2.3c0-0.9-0.2-1.6-0.6-2.1
		c-0.4-0.5-0.9-0.8-1.6-0.8c-0.7,0-1.3,0.3-1.6,0.8s-0.6,1.2-0.6,2.1c0,0.6,0.1,1.1,0.2,1.5c0.2,0.5,0.4,0.8,0.7,1.1
		C52.4,190.2,52.8,190.4,53.2,190.4z"/>
	<path class="st2" d="M61.3,191.4c-0.5,0-1-0.1-1.5-0.3c-0.5-0.2-0.8-0.4-1.2-0.8c-0.3-0.4-0.5-0.8-0.6-1.4h1.3
		c0.1,0.3,0.2,0.6,0.4,0.8c0.2,0.2,0.4,0.4,0.7,0.5c0.3,0.1,0.6,0.2,0.9,0.2c0.5,0,0.9-0.1,1.3-0.3c0.3-0.2,0.5-0.5,0.5-0.9
		c0-0.3-0.1-0.5-0.3-0.7s-0.4-0.3-0.8-0.4l-1.6-0.4c-0.6-0.2-1.1-0.4-1.5-0.7c-0.4-0.3-0.6-0.8-0.6-1.3c0-0.5,0.1-0.9,0.3-1.2
		c0.2-0.3,0.6-0.6,1-0.8c0.4-0.2,1-0.3,1.6-0.3c0.8,0,1.5,0.2,2,0.6c0.5,0.4,0.8,0.9,0.8,1.7h-1.2c-0.1-0.4-0.2-0.7-0.5-0.9
		c-0.3-0.2-0.7-0.3-1.1-0.3c-0.5,0-0.9,0.1-1.2,0.3s-0.5,0.5-0.5,0.9c0,0.3,0.1,0.5,0.3,0.6c0.2,0.2,0.5,0.3,1,0.4l1.6,0.4
		c0.4,0.1,0.7,0.2,0.9,0.4s0.4,0.3,0.6,0.5c0.1,0.2,0.2,0.4,0.3,0.6c0.1,0.2,0.1,0.4,0.1,0.6c0,0.5-0.1,0.9-0.4,1.2
		c-0.2,0.3-0.6,0.6-1,0.8S61.9,191.4,61.3,191.4z"/>
	<path class="st2" d="M66.9,193.8c-0.5,0-0.9-0.1-1.2-0.2v-0.9l0.8,0c0.3,0,0.5,0,0.7-0.1s0.3-0.1,0.5-0.2c0.1-0.1,0.2-0.2,0.3-0.3
		c0.1-0.1,0.1-0.2,0.2-0.3l0.3-0.7l-3-7.6h1.4l2.3,6l2.3-6h1.4l-3.3,8.3c-0.2,0.5-0.4,0.9-0.7,1.1s-0.5,0.5-0.8,0.6
		C67.6,193.7,67.3,193.8,66.9,193.8z"/>
	<path class="st2" d="M77,183.4c0.6,0,1.1,0.1,1.5,0.3c0.4,0.2,0.8,0.5,1.1,0.9c0.3,0.4,0.5,0.9,0.5,1.4h-1.2c0-0.3-0.1-0.5-0.3-0.8
		c-0.2-0.2-0.4-0.4-0.6-0.5c-0.3-0.1-0.6-0.2-0.9-0.2c-0.7,0-1.2,0.2-1.6,0.7c-0.4,0.5-0.6,1.2-0.6,2.2c0,0.9,0.2,1.6,0.6,2.1
		c0.4,0.5,0.9,0.8,1.7,0.8c0.4,0,0.7-0.1,0.9-0.2c0.3-0.1,0.5-0.3,0.6-0.5c0.2-0.2,0.3-0.5,0.3-0.7h1.2c-0.1,0.5-0.2,1-0.5,1.3
		c-0.3,0.4-0.6,0.7-1.1,0.9c-0.4,0.2-0.9,0.3-1.5,0.3c-0.7,0-1.3-0.2-1.8-0.5s-1-0.8-1.3-1.3c-0.3-0.6-0.5-1.3-0.5-2.2
		c0-0.8,0.1-1.5,0.4-2.1c0.3-0.6,0.7-1.1,1.2-1.4C75.6,183.6,76.2,183.4,77,183.4z"/>
	<path class="st2" d="M82,191.3v-11.1h1.4v4.5c0.1-0.2,0.3-0.4,0.5-0.6s0.5-0.3,0.8-0.5c0.3-0.1,0.7-0.2,1.1-0.2
		c0.5,0,1,0.1,1.4,0.3s0.7,0.5,1,0.8c0.2,0.3,0.4,0.8,0.4,1.2v5.5h-1.4V186c0-0.5-0.2-0.8-0.5-1.1c-0.3-0.3-0.7-0.4-1.2-0.4
		c-0.3,0-0.7,0.1-1,0.2c-0.3,0.1-0.6,0.3-0.7,0.5s-0.3,0.5-0.3,0.9v5.2H82z"/>
	<path class="st2" d="M93.7,191.4c-0.7,0-1.3-0.2-1.9-0.5s-1-0.8-1.2-1.4s-0.4-1.3-0.4-2.2c0-0.8,0.1-1.5,0.4-2.1s0.7-1.1,1.2-1.4
		c0.5-0.3,1.2-0.5,1.9-0.5c0.7,0,1.3,0.2,1.9,0.5s0.9,0.8,1.2,1.4c0.3,0.6,0.4,1.3,0.4,2.2c0,0.8-0.1,1.5-0.4,2.1
		c-0.3,0.6-0.7,1.1-1.2,1.4C95.1,191.3,94.5,191.4,93.7,191.4z M93.7,190.3c0.5,0,0.9-0.1,1.2-0.4c0.3-0.2,0.6-0.6,0.7-1
		c0.2-0.4,0.2-1,0.2-1.6c0-0.6-0.1-1.1-0.2-1.5s-0.4-0.8-0.7-1.1c-0.3-0.3-0.7-0.4-1.2-0.4c-0.5,0-0.9,0.1-1.2,0.3
		c-0.3,0.2-0.6,0.6-0.7,1s-0.3,1-0.3,1.6c0,0.5,0.1,1,0.2,1.5s0.4,0.8,0.7,1.1C92.8,190.2,93.2,190.3,93.7,190.3z"/>
	<path class="st2" d="M102.8,186.9v1.1l-3.8,0v-1.1L102.8,186.9z"/>
	<path class="st2" d="M107.7,191.4c-0.5,0-1-0.1-1.5-0.3c-0.5-0.2-0.8-0.4-1.2-0.8c-0.3-0.4-0.5-0.8-0.6-1.4h1.3
		c0.1,0.3,0.2,0.6,0.4,0.8c0.2,0.2,0.4,0.4,0.7,0.5c0.3,0.1,0.6,0.2,0.9,0.2c0.5,0,0.9-0.1,1.3-0.3c0.3-0.2,0.5-0.5,0.5-0.9
		c0-0.3-0.1-0.5-0.3-0.7s-0.4-0.3-0.8-0.4l-1.6-0.4c-0.6-0.2-1.1-0.4-1.5-0.7c-0.4-0.3-0.6-0.8-0.6-1.3c0-0.5,0.1-0.9,0.3-1.2
		c0.2-0.3,0.6-0.6,1-0.8c0.4-0.2,1-0.3,1.6-0.3c0.8,0,1.5,0.2,2,0.6c0.5,0.4,0.8,0.9,0.8,1.7h-1.2c-0.1-0.4-0.2-0.7-0.5-0.9
		c-0.3-0.2-0.7-0.3-1.1-0.3c-0.5,0-0.9,0.1-1.2,0.3s-0.5,0.5-0.5,0.9c0,0.3,0.1,0.5,0.3,0.6c0.2,0.2,0.5,0.3,1,0.4l1.6,0.4
		c0.4,0.1,0.7,0.2,0.9,0.4s0.4,0.3,0.6,0.5c0.1,0.2,0.2,0.4,0.3,0.6c0.1,0.2,0.1,0.4,0.1,0.6c0,0.5-0.1,0.9-0.4,1.2
		c-0.2,0.3-0.6,0.6-1,0.8S108.3,191.4,107.7,191.4z"/>
	<path class="st2" d="M115.7,191.4c-0.7,0-1.3-0.2-1.9-0.5s-1-0.8-1.2-1.4s-0.4-1.3-0.4-2.2c0-0.8,0.1-1.5,0.4-2.1s0.7-1.1,1.2-1.4
		c0.5-0.3,1.2-0.5,1.9-0.5c0.7,0,1.3,0.2,1.9,0.5s0.9,0.8,1.2,1.4c0.3,0.6,0.4,1.3,0.4,2.2c0,0.8-0.1,1.5-0.4,2.1
		c-0.3,0.6-0.7,1.1-1.2,1.4C117.1,191.3,116.5,191.4,115.7,191.4z M115.7,190.3c0.5,0,0.9-0.1,1.2-0.4c0.3-0.2,0.6-0.6,0.7-1
		c0.2-0.4,0.2-1,0.2-1.6c0-0.6-0.1-1.1-0.2-1.5s-0.4-0.8-0.7-1.1c-0.3-0.3-0.7-0.4-1.2-0.4c-0.5,0-0.9,0.1-1.2,0.3
		c-0.3,0.2-0.6,0.6-0.7,1s-0.3,1-0.3,1.6c0,0.5,0.1,1,0.2,1.5s0.4,0.8,0.7,1.1C114.8,190.2,115.2,190.3,115.7,190.3z"/>
	<path class="st2" d="M124.1,183.4c0.6,0,1.1,0.1,1.5,0.3c0.4,0.2,0.8,0.5,1.1,0.9c0.3,0.4,0.5,0.9,0.5,1.4H126
		c0-0.3-0.1-0.5-0.3-0.8c-0.2-0.2-0.4-0.4-0.6-0.5c-0.3-0.1-0.6-0.2-0.9-0.2c-0.7,0-1.2,0.2-1.6,0.7c-0.4,0.5-0.6,1.2-0.6,2.2
		c0,0.9,0.2,1.6,0.6,2.1c0.4,0.5,0.9,0.8,1.7,0.8c0.4,0,0.7-0.1,0.9-0.2c0.3-0.1,0.5-0.3,0.6-0.5c0.2-0.2,0.3-0.5,0.3-0.7h1.2
		c-0.1,0.5-0.2,1-0.5,1.3c-0.3,0.4-0.6,0.7-1.1,0.9c-0.4,0.2-0.9,0.3-1.5,0.3c-0.7,0-1.3-0.2-1.8-0.5s-1-0.8-1.3-1.3
		c-0.3-0.6-0.5-1.3-0.5-2.2c0-0.8,0.1-1.5,0.4-2.1c0.3-0.6,0.7-1.1,1.2-1.4C122.7,183.6,123.4,183.4,124.1,183.4z"/>
	<path class="st2" d="M130.7,180.4v1.4h-1.4v-1.4H130.7z M130.6,183.5v7.8h-1.3v-7.8H130.6z"/>
	<path class="st2" d="M135.2,191.4c-0.5,0-0.9-0.1-1.3-0.3c-0.4-0.2-0.7-0.4-0.9-0.8c-0.2-0.3-0.3-0.7-0.3-1.2
		c0-0.9,0.3-1.5,0.9-1.9c0.6-0.4,1.6-0.6,2.9-0.7l1.4,0v-0.6c0-0.5-0.1-0.9-0.4-1.1s-0.7-0.4-1.3-0.4c-0.4,0-0.8,0.1-1.2,0.3
		c-0.3,0.2-0.6,0.5-0.7,1H133c0-0.5,0.2-0.9,0.4-1.3c0.3-0.3,0.6-0.6,1.1-0.8c0.5-0.2,1-0.3,1.6-0.3c0.7,0,1.2,0.1,1.7,0.3
		c0.4,0.2,0.8,0.5,1,0.8s0.3,0.8,0.3,1.4v5.4H138l-0.1-1.5c-0.3,0.6-0.7,1-1.1,1.3C136.3,191.3,135.8,191.4,135.2,191.4z
		 M135.6,190.4c0.3,0,0.5,0,0.8-0.1c0.3-0.1,0.5-0.2,0.7-0.4c0.2-0.2,0.4-0.3,0.5-0.5s0.2-0.4,0.2-0.6v-1.3l-1.2,0
		c-0.6,0-1.1,0.1-1.5,0.2c-0.4,0.1-0.7,0.3-0.9,0.5c-0.2,0.2-0.3,0.5-0.3,0.9c0,0.4,0.2,0.8,0.5,1
		C134.8,190.3,135.2,190.4,135.6,190.4z"/>
	<path class="st2" d="M143.5,191.4c-0.4,0-0.8-0.1-1-0.2c-0.3-0.1-0.5-0.3-0.6-0.5c-0.1-0.2-0.2-0.4-0.3-0.7c0-0.3-0.1-0.5-0.1-0.8
		v-9.1h1.4v9c0,0.4,0.1,0.7,0.2,0.9c0.2,0.2,0.4,0.3,0.6,0.3l0.4,0v0.9c-0.1,0-0.2,0.1-0.4,0.1S143.6,191.4,143.5,191.4z"/>
	<path class="st2" d="M152.4,183.4c0.6,0,1.1,0.1,1.5,0.3c0.4,0.2,0.8,0.5,1.1,0.9c0.3,0.4,0.5,0.9,0.5,1.4h-1.2
		c0-0.3-0.1-0.5-0.3-0.8c-0.2-0.2-0.4-0.4-0.6-0.5c-0.3-0.1-0.6-0.2-0.9-0.2c-0.7,0-1.2,0.2-1.6,0.7c-0.4,0.5-0.6,1.2-0.6,2.2
		c0,0.9,0.2,1.6,0.6,2.1c0.4,0.5,0.9,0.8,1.7,0.8c0.4,0,0.7-0.1,0.9-0.2c0.3-0.1,0.5-0.3,0.6-0.5c0.2-0.2,0.3-0.5,0.3-0.7h1.2
		c-0.1,0.5-0.2,1-0.5,1.3c-0.3,0.4-0.6,0.7-1.1,0.9c-0.4,0.2-0.9,0.3-1.5,0.3c-0.7,0-1.3-0.2-1.8-0.5s-1-0.8-1.3-1.3
		c-0.3-0.6-0.5-1.3-0.5-2.2c0-0.8,0.1-1.5,0.4-2.1c0.3-0.6,0.7-1.1,1.2-1.4C150.9,183.6,151.6,183.4,152.4,183.4z"/>
	<path class="st2" d="M159.4,191.4c-0.5,0-0.9-0.1-1.3-0.3s-0.7-0.4-0.9-0.8c-0.2-0.3-0.3-0.7-0.3-1.2c0-0.9,0.3-1.5,0.9-1.9
		c0.6-0.4,1.6-0.6,2.9-0.7l1.4,0v-0.6c0-0.5-0.1-0.9-0.4-1.1s-0.7-0.4-1.3-0.4c-0.4,0-0.8,0.1-1.2,0.3c-0.3,0.2-0.6,0.5-0.7,1h-1.2
		c0-0.5,0.2-0.9,0.4-1.3s0.6-0.6,1.1-0.8c0.5-0.2,1-0.3,1.6-0.3c0.7,0,1.2,0.1,1.7,0.3c0.4,0.2,0.8,0.5,1,0.8s0.3,0.8,0.3,1.4v5.4
		h-1.2l-0.1-1.5c-0.3,0.6-0.7,1-1.1,1.3C160.5,191.3,160,191.4,159.4,191.4z M159.8,190.4c0.3,0,0.5,0,0.8-0.1
		c0.3-0.1,0.5-0.2,0.7-0.4c0.2-0.2,0.4-0.3,0.5-0.5c0.1-0.2,0.2-0.4,0.2-0.6v-1.3l-1.2,0c-0.6,0-1.1,0.1-1.5,0.2
		c-0.4,0.1-0.7,0.3-0.9,0.5c-0.2,0.2-0.3,0.5-0.3,0.9c0,0.4,0.2,0.8,0.5,1C159,190.3,159.3,190.4,159.8,190.4z"/>
	<path class="st2" d="M165.7,191.3v-7.8h1.3v1.5c0.1-0.4,0.3-0.7,0.5-0.9c0.2-0.2,0.5-0.4,0.8-0.5c0.3-0.1,0.6-0.2,0.9-0.2
		c0.1,0,0.2,0,0.3,0c0.1,0,0.2,0,0.3,0.1v1.3c-0.1,0-0.2-0.1-0.3-0.1c-0.1,0-0.2,0-0.3,0c-0.3,0-0.6,0-0.9,0.1
		c-0.3,0.1-0.5,0.2-0.7,0.3c-0.2,0.1-0.4,0.3-0.5,0.6c-0.1,0.2-0.2,0.5-0.2,0.8v4.8H165.7z"/>
	<path class="st2" d="M172.4,187.7c0,0.5,0.1,0.9,0.2,1.3c0.2,0.4,0.4,0.7,0.7,0.9c0.3,0.2,0.7,0.4,1.2,0.4c0.5,0,0.9-0.1,1.3-0.3
		c0.4-0.2,0.6-0.6,0.7-1h1.3c-0.1,0.5-0.3,1-0.6,1.3c-0.3,0.4-0.7,0.6-1.2,0.8s-0.9,0.3-1.4,0.3c-0.7,0-1.4-0.2-1.9-0.5
		c-0.6-0.3-1-0.8-1.3-1.4c-0.3-0.6-0.5-1.3-0.5-2.1c0-0.8,0.1-1.5,0.4-2.1c0.3-0.6,0.7-1.1,1.2-1.4c0.5-0.3,1.2-0.5,1.9-0.5
		c0.7,0,1.3,0.2,1.9,0.5c0.5,0.3,0.9,0.8,1.2,1.3c0.3,0.6,0.4,1.3,0.4,2v0.5H172.4z M172.4,186.8h4.2c0-0.4-0.1-0.8-0.2-1.2
		c-0.1-0.4-0.4-0.6-0.7-0.8c-0.3-0.2-0.7-0.3-1.2-0.3c-0.5,0-0.9,0.1-1.2,0.3s-0.6,0.5-0.7,0.9C172.4,186,172.4,186.4,172.4,186.8z"
		/>
	<path class="st2" d="M187.1,184.5h-1.7v4.8c0,0.3,0,0.5,0.1,0.6c0.1,0.1,0.2,0.2,0.3,0.2s0.3,0.1,0.6,0.1h0.8v0.9
		c-0.1,0-0.2,0.1-0.4,0.1s-0.4,0-0.7,0c-0.5,0-1-0.1-1.2-0.2s-0.5-0.4-0.6-0.6s-0.2-0.6-0.2-1v-4.9h-1.3v-1h1.3l0.3-2.3h1v2.2h1.7
		V184.5z"/>
	<path class="st2" d="M192,191.4c-0.7,0-1.3-0.2-1.9-0.5c-0.5-0.3-1-0.8-1.2-1.4c-0.3-0.6-0.4-1.3-0.4-2.2c0-0.8,0.1-1.5,0.4-2.1
		c0.3-0.6,0.7-1.1,1.2-1.4c0.5-0.3,1.2-0.5,1.9-0.5c0.7,0,1.3,0.2,1.9,0.5s0.9,0.8,1.2,1.4c0.3,0.6,0.4,1.3,0.4,2.2
		c0,0.8-0.1,1.5-0.4,2.1c-0.3,0.6-0.7,1.1-1.2,1.4C193.4,191.3,192.8,191.4,192,191.4z M192,190.3c0.5,0,0.9-0.1,1.2-0.4
		c0.3-0.2,0.6-0.6,0.7-1c0.2-0.4,0.2-1,0.2-1.6c0-0.6-0.1-1.1-0.2-1.5c-0.1-0.4-0.4-0.8-0.7-1.1c-0.3-0.3-0.7-0.4-1.2-0.4
		c-0.5,0-0.9,0.1-1.2,0.3c-0.3,0.2-0.6,0.6-0.7,1c-0.2,0.4-0.3,1-0.3,1.6c0,0.5,0.1,1,0.2,1.5s0.4,0.8,0.7,1.1
		S191.5,190.3,192,190.3z"/>
	<path class="st2" d="M202.8,191.4c-0.5,0-0.9-0.1-1.3-0.3s-0.7-0.4-0.9-0.8c-0.2-0.3-0.3-0.7-0.3-1.2c0-0.9,0.3-1.5,0.9-1.9
		c0.6-0.4,1.6-0.6,2.9-0.7l1.4,0v-0.6c0-0.5-0.1-0.9-0.4-1.1s-0.7-0.4-1.3-0.4c-0.4,0-0.8,0.1-1.2,0.3c-0.3,0.2-0.6,0.5-0.7,1h-1.2
		c0-0.5,0.2-0.9,0.4-1.3s0.6-0.6,1.1-0.8c0.5-0.2,1-0.3,1.6-0.3c0.7,0,1.2,0.1,1.7,0.3c0.4,0.2,0.8,0.5,1,0.8s0.3,0.8,0.3,1.4v5.4
		h-1.2l-0.1-1.5c-0.3,0.6-0.7,1-1.1,1.3C203.9,191.3,203.4,191.4,202.8,191.4z M203.3,190.4c0.3,0,0.5,0,0.8-0.1
		c0.3-0.1,0.5-0.2,0.7-0.4c0.2-0.2,0.4-0.3,0.5-0.5c0.1-0.2,0.2-0.4,0.2-0.6v-1.3l-1.2,0c-0.6,0-1.1,0.1-1.5,0.2
		c-0.4,0.1-0.7,0.3-0.9,0.5c-0.2,0.2-0.3,0.5-0.3,0.9c0,0.4,0.2,0.8,0.5,1C202.4,190.3,202.8,190.4,203.3,190.4z"/>
	<path class="st2" d="M211.1,191.4c-0.4,0-0.8-0.1-1-0.2s-0.5-0.3-0.6-0.5s-0.2-0.4-0.3-0.7c0-0.3-0.1-0.5-0.1-0.8v-9.1h1.4v9
		c0,0.4,0.1,0.7,0.2,0.9c0.2,0.2,0.4,0.3,0.6,0.3l0.4,0v0.9c-0.1,0-0.2,0.1-0.4,0.1S211.2,191.4,211.1,191.4z"/>
	<path class="st2" d="M215.4,191.4c-0.4,0-0.8-0.1-1-0.2s-0.5-0.3-0.6-0.5s-0.2-0.4-0.3-0.7c0-0.3-0.1-0.5-0.1-0.8v-9.1h1.4v9
		c0,0.4,0.1,0.7,0.2,0.9c0.2,0.2,0.4,0.3,0.6,0.3l0.4,0v0.9c-0.1,0-0.2,0.1-0.4,0.1S215.5,191.4,215.4,191.4z"/>
	<path class="st2" d="M218.7,187.7c0,0.5,0.1,0.9,0.2,1.3c0.2,0.4,0.4,0.7,0.7,0.9c0.3,0.2,0.7,0.4,1.2,0.4c0.5,0,0.9-0.1,1.3-0.3
		c0.4-0.2,0.6-0.6,0.7-1h1.3c-0.1,0.5-0.3,1-0.6,1.3c-0.3,0.4-0.7,0.6-1.2,0.8s-0.9,0.3-1.4,0.3c-0.7,0-1.4-0.2-1.9-0.5
		c-0.6-0.3-1-0.8-1.3-1.4c-0.3-0.6-0.5-1.3-0.5-2.1c0-0.8,0.1-1.5,0.4-2.1c0.3-0.6,0.7-1.1,1.2-1.4c0.5-0.3,1.2-0.5,1.9-0.5
		c0.7,0,1.3,0.2,1.9,0.5c0.5,0.3,0.9,0.8,1.2,1.3c0.3,0.6,0.4,1.3,0.4,2v0.5H218.7z M218.7,186.8h4.2c0-0.4-0.1-0.8-0.2-1.2
		c-0.1-0.4-0.4-0.6-0.7-0.8c-0.3-0.2-0.7-0.3-1.2-0.3c-0.5,0-0.9,0.1-1.2,0.3s-0.6,0.5-0.7,0.9C218.8,186,218.7,186.4,218.7,186.8z"
		/>
	<path class="st2" d="M232,183.5l-2.8,7.8H228l-2.8-7.8h1.3l2.1,6h0.1l2.1-6H232z"/>
	<path class="st2" d="M235,180.4v1.4h-1.4v-1.4H235z M235,183.5v7.8h-1.3v-7.8H235z"/>
	<path class="st2" d="M239.6,191.4c-0.5,0-0.9-0.1-1.3-0.3s-0.7-0.4-0.9-0.8c-0.2-0.3-0.3-0.7-0.3-1.2c0-0.9,0.3-1.5,0.9-1.9
		c0.6-0.4,1.6-0.6,2.9-0.7l1.4,0v-0.6c0-0.5-0.1-0.9-0.4-1.1s-0.7-0.4-1.3-0.4c-0.4,0-0.8,0.1-1.2,0.3c-0.3,0.2-0.6,0.5-0.7,1h-1.2
		c0-0.5,0.2-0.9,0.4-1.3s0.6-0.6,1.1-0.8c0.5-0.2,1-0.3,1.6-0.3c0.7,0,1.2,0.1,1.7,0.3c0.4,0.2,0.8,0.5,1,0.8s0.3,0.8,0.3,1.4v5.4
		h-1.2l-0.1-1.5c-0.3,0.6-0.7,1-1.1,1.3C240.6,191.3,240.1,191.4,239.6,191.4z M240,190.4c0.3,0,0.5,0,0.8-0.1
		c0.3-0.1,0.5-0.2,0.7-0.4c0.2-0.2,0.4-0.3,0.5-0.5c0.1-0.2,0.2-0.4,0.2-0.6v-1.3l-1.2,0c-0.6,0-1.1,0.1-1.5,0.2
		c-0.4,0.1-0.7,0.3-0.9,0.5c-0.2,0.2-0.3,0.5-0.3,0.9c0,0.4,0.2,0.8,0.5,1C239.1,190.3,239.5,190.4,240,190.4z"/>
	<path class="st2" d="M249.5,184.5h-1.7v4.8c0,0.3,0,0.5,0.1,0.6c0.1,0.1,0.2,0.2,0.3,0.2s0.3,0.1,0.6,0.1h0.8v0.9
		c-0.1,0-0.2,0.1-0.4,0.1s-0.4,0-0.7,0c-0.5,0-1-0.1-1.2-0.2s-0.5-0.4-0.6-0.6s-0.2-0.6-0.2-1v-4.9h-1.3v-1h1.3l0.3-2.3h1v2.2h1.7
		V184.5z"/>
	<path class="st2" d="M252.3,187.7c0,0.5,0.1,0.9,0.2,1.3c0.2,0.4,0.4,0.7,0.7,0.9c0.3,0.2,0.7,0.4,1.2,0.4c0.5,0,0.9-0.1,1.3-0.3
		c0.4-0.2,0.6-0.6,0.7-1h1.3c-0.1,0.5-0.3,1-0.6,1.3c-0.3,0.4-0.7,0.6-1.2,0.8s-0.9,0.3-1.4,0.3c-0.7,0-1.4-0.2-1.9-0.5
		c-0.6-0.3-1-0.8-1.3-1.4c-0.3-0.6-0.5-1.3-0.5-2.1c0-0.8,0.1-1.5,0.4-2.1c0.3-0.6,0.7-1.1,1.2-1.4c0.5-0.3,1.2-0.5,1.9-0.5
		c0.7,0,1.3,0.2,1.9,0.5c0.5,0.3,0.9,0.8,1.1,1.3c0.3,0.6,0.4,1.3,0.4,2v0.5H252.3z M252.3,186.8h4.2c0-0.4-0.1-0.8-0.2-1.2
		c-0.1-0.4-0.4-0.6-0.7-0.8c-0.3-0.2-0.7-0.3-1.2-0.3c-0.5,0-0.9,0.1-1.2,0.3s-0.6,0.5-0.7,0.9C252.3,186,252.3,186.4,252.3,186.8z"
		/>
	<path class="st2" d="M111.1,202.5h-1.7v4.8c0,0.3,0,0.5,0.1,0.6c0.1,0.1,0.2,0.2,0.3,0.2c0.1,0,0.3,0.1,0.6,0.1h0.8v0.9
		c-0.1,0-0.2,0.1-0.4,0.1s-0.4,0-0.7,0c-0.5,0-0.9-0.1-1.2-0.2c-0.3-0.1-0.5-0.4-0.6-0.6c-0.1-0.3-0.2-0.6-0.2-1v-4.9h-1.3v-1h1.3
		l0.3-2.3h1v2.2h1.7V202.5z"/>
	<path class="st2" d="M113.1,209.3v-11.1h1.4v4.5c0.1-0.2,0.3-0.4,0.5-0.6s0.5-0.3,0.8-0.5c0.3-0.1,0.7-0.2,1.1-0.2
		c0.5,0,1,0.1,1.4,0.3s0.7,0.5,1,0.8c0.2,0.3,0.4,0.8,0.4,1.2v5.5h-1.4V204c0-0.5-0.2-0.8-0.5-1.1c-0.3-0.3-0.7-0.4-1.2-0.4
		c-0.3,0-0.7,0.1-1,0.2c-0.3,0.1-0.6,0.3-0.7,0.5s-0.3,0.5-0.3,0.9v5.2H113.1z"/>
	<path class="st2" d="M122.7,205.7c0,0.5,0.1,0.9,0.2,1.3c0.2,0.4,0.4,0.7,0.7,0.9c0.3,0.2,0.7,0.4,1.2,0.4c0.5,0,0.9-0.1,1.3-0.3
		c0.4-0.2,0.6-0.6,0.7-1h1.3c-0.1,0.5-0.3,1-0.6,1.3c-0.3,0.4-0.7,0.6-1.2,0.8s-0.9,0.3-1.4,0.3c-0.7,0-1.4-0.2-1.9-0.5
		c-0.6-0.3-1-0.8-1.3-1.4c-0.3-0.6-0.5-1.3-0.5-2.1c0-0.8,0.1-1.5,0.4-2.1c0.3-0.6,0.7-1.1,1.2-1.4c0.5-0.3,1.2-0.5,1.9-0.5
		c0.7,0,1.3,0.2,1.9,0.5c0.5,0.3,0.9,0.8,1.2,1.3c0.3,0.6,0.4,1.3,0.4,2v0.5H122.7z M122.7,204.8h4.2c0-0.4-0.1-0.8-0.2-1.2
		c-0.1-0.4-0.4-0.6-0.7-0.8c-0.3-0.2-0.7-0.3-1.2-0.3c-0.5,0-0.9,0.1-1.2,0.3c-0.3,0.2-0.6,0.5-0.7,0.9
		C122.8,204,122.7,204.4,122.7,204.8z"/>
	<path class="st2" d="M131.7,198.4v1.4h-1.4v-1.4H131.7z M131.7,201.5v7.8h-1.3v-7.8H131.7z"/>
	<path class="st2" d="M134.2,209.3v-7.8h1.3v1.5c0.1-0.4,0.3-0.7,0.5-0.9c0.2-0.2,0.5-0.4,0.8-0.5c0.3-0.1,0.6-0.2,0.9-0.2
		c0.1,0,0.2,0,0.3,0c0.1,0,0.2,0,0.3,0.1v1.3c-0.1,0-0.2-0.1-0.3-0.1c-0.1,0-0.2,0-0.3,0c-0.3,0-0.6,0-0.9,0.1s-0.5,0.2-0.7,0.3
		c-0.2,0.1-0.4,0.3-0.5,0.6c-0.1,0.2-0.2,0.5-0.2,0.8v4.8H134.2z"/>
	<path class="st2" d="M146.1,209.4c-1,0-1.8-0.3-2.4-1c-0.6-0.7-0.9-1.7-0.9-3c0-0.8,0.1-1.5,0.4-2.1c0.2-0.6,0.6-1.1,1.1-1.4
		c0.5-0.3,1.1-0.5,1.8-0.5c0.4,0,0.7,0,1,0.1c0.3,0.1,0.5,0.2,0.7,0.4c0.2,0.1,0.4,0.3,0.5,0.5c0.1,0.2,0.2,0.3,0.3,0.4v-4.6h1.4
		v11.1h-1.1l-0.2-1.6c0,0.1-0.1,0.3-0.2,0.5c-0.1,0.2-0.3,0.4-0.5,0.6c-0.2,0.2-0.5,0.3-0.8,0.5S146.6,209.4,146.1,209.4z
		 M146.3,208.4c0.8,0,1.3-0.2,1.7-0.7c0.3-0.5,0.5-1.3,0.5-2.3c0-0.6-0.1-1.1-0.2-1.5c-0.1-0.4-0.4-0.7-0.7-1s-0.7-0.3-1.2-0.3
		c-0.6,0-1.2,0.2-1.6,0.7c-0.4,0.5-0.6,1.2-0.6,2.2c0,1,0.2,1.7,0.5,2.3C145.1,208.1,145.7,208.4,146.3,208.4z"/>
	<path class="st2" d="M153.9,198.4v1.4h-1.4v-1.4H153.9z M153.8,201.5v7.8h-1.3v-7.8H153.8z"/>
	<path class="st2" d="M159,209.4c-0.5,0-1-0.1-1.5-0.3c-0.5-0.2-0.8-0.4-1.2-0.8c-0.3-0.4-0.5-0.8-0.6-1.4h1.3
		c0.1,0.3,0.2,0.6,0.4,0.8c0.2,0.2,0.4,0.4,0.7,0.5c0.3,0.1,0.6,0.2,0.9,0.2c0.5,0,0.9-0.1,1.3-0.3c0.3-0.2,0.5-0.5,0.5-0.9
		c0-0.3-0.1-0.5-0.3-0.7c-0.2-0.2-0.4-0.3-0.8-0.4l-1.6-0.4c-0.6-0.2-1.1-0.4-1.5-0.7c-0.4-0.3-0.6-0.8-0.6-1.3
		c0-0.5,0.1-0.9,0.3-1.2c0.2-0.3,0.5-0.6,1-0.8c0.4-0.2,1-0.3,1.6-0.3c0.8,0,1.5,0.2,2,0.6c0.5,0.4,0.8,0.9,0.8,1.7h-1.2
		c0-0.4-0.2-0.7-0.5-0.9s-0.7-0.3-1.1-0.3c-0.5,0-0.9,0.1-1.2,0.3s-0.5,0.5-0.5,0.9c0,0.3,0.1,0.5,0.3,0.6c0.2,0.2,0.5,0.3,1,0.4
		l1.6,0.4c0.4,0.1,0.7,0.2,0.9,0.4s0.4,0.3,0.6,0.5c0.1,0.2,0.2,0.4,0.3,0.6c0.1,0.2,0.1,0.4,0.1,0.6c0,0.5-0.1,0.9-0.4,1.2
		c-0.2,0.3-0.6,0.6-1,0.8S159.6,209.4,159,209.4z"/>
	<path class="st2" d="M167.7,202.5H166v4.8c0,0.3,0,0.5,0.1,0.6c0.1,0.1,0.2,0.2,0.3,0.2s0.3,0.1,0.6,0.1h0.8v0.9
		c-0.1,0-0.2,0.1-0.4,0.1s-0.4,0-0.7,0c-0.5,0-1-0.1-1.2-0.2s-0.5-0.4-0.6-0.6s-0.2-0.6-0.2-1v-4.9h-1.3v-1h1.3l0.3-2.3h1v2.2h1.7
		V202.5z"/>
	<path class="st2" d="M169.7,209.3v-7.8h1.3v1.5c0.1-0.4,0.3-0.7,0.5-0.9c0.2-0.2,0.5-0.4,0.8-0.5c0.3-0.1,0.6-0.2,0.9-0.2
		c0.1,0,0.2,0,0.3,0c0.1,0,0.2,0,0.3,0.1v1.3c-0.1,0-0.2-0.1-0.3-0.1c-0.1,0-0.2,0-0.3,0c-0.3,0-0.6,0-0.9,0.1
		c-0.3,0.1-0.5,0.2-0.7,0.3c-0.2,0.1-0.4,0.3-0.5,0.6c-0.1,0.2-0.2,0.5-0.2,0.8v4.8H169.7z"/>
	<path class="st2" d="M176.3,205.7c0,0.5,0.1,0.9,0.2,1.3c0.2,0.4,0.4,0.7,0.7,0.9c0.3,0.2,0.7,0.4,1.2,0.4c0.5,0,0.9-0.1,1.3-0.3
		c0.4-0.2,0.6-0.6,0.7-1h1.3c-0.1,0.5-0.3,1-0.6,1.3c-0.3,0.4-0.7,0.6-1.2,0.8s-0.9,0.3-1.4,0.3c-0.7,0-1.4-0.2-1.9-0.5
		c-0.6-0.3-1-0.8-1.3-1.4c-0.3-0.6-0.5-1.3-0.5-2.1c0-0.8,0.1-1.5,0.4-2.1c0.3-0.6,0.7-1.1,1.2-1.4c0.5-0.3,1.2-0.5,1.9-0.5
		c0.7,0,1.3,0.2,1.9,0.5c0.5,0.3,0.9,0.8,1.2,1.3c0.3,0.6,0.4,1.3,0.4,2v0.5H176.3z M176.3,204.8h4.2c0-0.4-0.1-0.8-0.2-1.2
		c-0.1-0.4-0.4-0.6-0.7-0.8c-0.3-0.2-0.7-0.3-1.2-0.3c-0.5,0-0.9,0.1-1.2,0.3s-0.6,0.5-0.7,0.9C176.4,204,176.3,204.4,176.3,204.8z"
		/>
	<path class="st2" d="M186.5,209.4c-0.5,0-1-0.1-1.5-0.3c-0.5-0.2-0.8-0.4-1.2-0.8s-0.5-0.8-0.6-1.4h1.3c0.1,0.3,0.2,0.6,0.4,0.8
		c0.2,0.2,0.4,0.4,0.7,0.5c0.3,0.1,0.6,0.2,0.9,0.2c0.5,0,0.9-0.1,1.3-0.3c0.3-0.2,0.5-0.5,0.5-0.9c0-0.3-0.1-0.5-0.3-0.7
		c-0.2-0.2-0.4-0.3-0.8-0.4l-1.6-0.4c-0.6-0.2-1.1-0.4-1.5-0.7c-0.4-0.3-0.6-0.8-0.6-1.3c0-0.5,0.1-0.9,0.3-1.2
		c0.2-0.3,0.5-0.6,1-0.8c0.4-0.2,1-0.3,1.6-0.3c0.8,0,1.5,0.2,2,0.6c0.5,0.4,0.8,0.9,0.8,1.7h-1.2c0-0.4-0.2-0.7-0.5-0.9
		s-0.7-0.3-1.1-0.3c-0.5,0-0.9,0.1-1.2,0.3s-0.5,0.5-0.5,0.9c0,0.3,0.1,0.5,0.3,0.6c0.2,0.2,0.5,0.3,1,0.4l1.6,0.4
		c0.4,0.1,0.7,0.2,0.9,0.4s0.4,0.3,0.6,0.5c0.1,0.2,0.2,0.4,0.3,0.6c0.1,0.2,0.1,0.4,0.1,0.6c0,0.5-0.1,0.9-0.4,1.2
		c-0.2,0.3-0.6,0.6-1,0.8S187.1,209.4,186.5,209.4z"/>
	<path class="st2" d="M194,209.4c-0.5,0-1-0.1-1.5-0.3c-0.5-0.2-0.8-0.4-1.2-0.8s-0.5-0.8-0.6-1.4h1.3c0.1,0.3,0.2,0.6,0.4,0.8
		c0.2,0.2,0.4,0.4,0.7,0.5c0.3,0.1,0.6,0.2,0.9,0.2c0.5,0,0.9-0.1,1.3-0.3c0.3-0.2,0.5-0.5,0.5-0.9c0-0.3-0.1-0.5-0.3-0.7
		c-0.2-0.2-0.4-0.3-0.8-0.4l-1.6-0.4c-0.6-0.2-1.1-0.4-1.5-0.7c-0.4-0.3-0.6-0.8-0.6-1.3c0-0.5,0.1-0.9,0.3-1.2
		c0.2-0.3,0.5-0.6,1-0.8c0.4-0.2,1-0.3,1.6-0.3c0.8,0,1.5,0.2,2,0.6c0.5,0.4,0.8,0.9,0.8,1.7h-1.2c0-0.4-0.2-0.7-0.5-0.9
		s-0.7-0.3-1.1-0.3c-0.5,0-0.9,0.1-1.2,0.3s-0.5,0.5-0.5,0.9c0,0.3,0.1,0.5,0.3,0.6c0.2,0.2,0.5,0.3,1,0.4l1.6,0.4
		c0.4,0.1,0.7,0.2,0.9,0.4s0.4,0.3,0.6,0.5c0.1,0.2,0.2,0.4,0.3,0.6c0.1,0.2,0.1,0.4,0.1,0.6c0,0.5-0.1,0.9-0.4,1.2
		c-0.2,0.3-0.6,0.6-1,0.8S194.7,209.4,194,209.4z"/>
	<path class="st2" d="M198.6,209.3v-1.8h1.6v1.8H198.6z"/>
</g>
<line class="st3" x1="28" y1="132.5" x2="279" y2="132.5"/>
</svg>
