<?xml version="1.0" encoding="utf-8"?>
<!-- Generator: Adobe Illustrator 24.3.0, SVG Export Plug-In . SVG Version: 6.00 Build 0)  -->
<svg version="1.1" id="Layer_1" xmlns="http://www.w3.org/2000/svg" xmlns:xlink="http://www.w3.org/1999/xlink" x="0px" y="0px"
	 viewBox="0 0 307 225" style="enable-background:new 0 0 307 225;" xml:space="preserve">
<style type="text/css">
	.st0{fill:none;stroke:#DD7362;stroke-miterlimit:10;}
	.st1{fill:#1F4BA0;}
	.st2{fill:#363D41;}
	.st3{fill:none;stroke:#1F4BA0;stroke-miterlimit:10;stroke-dasharray:3;}
</style>
<g>
	<circle class="st0" cx="153" cy="17.4" r="8.2"/>
	<path class="st0" d="M143.4,104.7c0,2.5,2.1,4.6,4.6,4.6s4.6-2.1,4.6-4.6V66.3h2v38.4c0,2.5,2,4.6,4.6,4.6s4.6-2.1,4.6-4.6V38.5h2
		v24.4c0,4.9,6.4,4.9,6.4,0V38c0-5.4-3.2-10.7-9.5-10.7h-18.3c-5.8,0-9.4,4.7-9.4,10.6v25c0,4.9,6.4,4.9,6.4,0V38.6h2L143.4,104.7z"
		/>
	<circle class="st0" cx="203" cy="17.4" r="8.2"/>
	<path class="st0" d="M193.4,104.7c0,2.5,2.1,4.6,4.6,4.6s4.6-2.1,4.6-4.6V66.3h2v38.4c0,2.5,2,4.6,4.6,4.6s4.6-2.1,4.6-4.6V38.5h2
		v24.4c0,4.9,6.4,4.9,6.4,0V38c0-5.4-3.2-10.7-9.5-10.7h-18.3c-5.8,0-9.4,4.7-9.4,10.6v25c0,4.9,6.4,4.9,6.4,0V38.6h2L193.4,104.7z"
		/>
	<circle class="st0" cx="103" cy="17.4" r="8.2"/>
	<path class="st0" d="M93.4,104.7c0,2.5,2.1,4.6,4.6,4.6s4.6-2.1,4.6-4.6V66.3h2v38.4c0,2.5,2,4.6,4.6,4.6c2.5,0,4.6-2.1,4.6-4.6
		V38.5h2v24.4c0,4.9,6.4,4.9,6.4,0V38c0-5.4-3.2-10.7-9.5-10.7H94.4c-5.8,0-9.4,4.7-9.4,10.6v25c0,4.9,6.4,4.9,6.4,0V38.6h2
		L93.4,104.7z"/>
	<ellipse transform="matrix(0.1891 -0.982 0.982 0.1891 188.0698 262.5445)" class="st1" cx="253" cy="17.4" rx="8.2" ry="8.2"/>
	<path class="st1" d="M243.4,104.7c0,2.5,2.1,4.6,4.6,4.6s4.6-2.1,4.6-4.6V66.3h2v38.4c0,2.5,2,4.6,4.6,4.6s4.6-2.1,4.6-4.6V38.5h2
		v24.4c0,4.9,6.4,4.9,6.4,0V38c0-5.4-3.2-10.7-9.5-10.7h-18.3c-5.8,0-9.4,4.7-9.4,10.6v25c0,4.9,6.4,4.9,6.4,0V38.6h2L243.4,104.7z"
		/>
	<circle class="st0" cx="53" cy="17.4" r="8.2"/>
	<path class="st0" d="M43.4,104.7c0,2.5,2,4.6,4.6,4.6c2.5,0,4.6-2.1,4.6-4.6V66.3h2v38.4c0,2.5,2,4.6,4.6,4.6
		c2.5,0,4.6-2.1,4.6-4.6V38.5h2v24.4c0,4.9,6.4,4.9,6.4,0V38c0-5.4-3.2-10.7-9.5-10.7H44.4c-5.8,0-9.4,4.7-9.4,10.6v25
		c0,4.9,6.4,4.9,6.4,0V38.6h2V104.7z"/>
</g>
<g>
	<path class="st2" d="M43.2,144.4c-0.9,0-1.6-0.2-2.3-0.6c-0.6-0.4-1.1-1-1.5-1.7c-0.4-0.7-0.5-1.6-0.5-2.7c0-1.1,0.2-2,0.5-2.7
		c0.4-0.7,0.8-1.4,1.5-1.7c0.6-0.4,1.4-0.6,2.3-0.6c0.9,0,1.6,0.2,2.3,0.6c0.6,0.4,1.1,1,1.5,1.7c0.4,0.7,0.5,1.6,0.5,2.7
		c0,1.1-0.2,2-0.5,2.7c-0.4,0.7-0.8,1.4-1.5,1.7C44.9,144.2,44.1,144.4,43.2,144.4z M43.2,143.3c0.6,0,1.1-0.2,1.6-0.5
		c0.5-0.3,0.7-0.7,1-1.3c0.2-0.5,0.4-1.4,0.4-2.3c0-0.9-0.1-1.6-0.4-2.3c-0.3-0.6-0.5-1-1-1.3c-0.5-0.3-0.9-0.5-1.6-0.5
		c-0.6,0-1.1,0.2-1.6,0.5s-0.7,0.7-1,1.3c-0.3,0.5-0.4,1.4-0.4,2.3c0,0.9,0.1,1.6,0.4,2.3c0.3,0.5,0.5,1,1,1.3
		C42.1,143.2,42.6,143.3,43.2,143.3z"/>
	<path class="st2" d="M49.2,144.3v-7.1h1.3v1c0.1-0.2,0.3-0.4,0.5-0.5c0.2-0.2,0.5-0.3,0.7-0.5c0.3-0.2,0.6-0.2,1-0.2
		c0.5,0,0.8,0.1,1.3,0.3c0.4,0.2,0.6,0.5,0.9,0.8c0.2,0.4,0.4,0.8,0.4,1.5v4.7h-1.3v-4.5c0-0.5-0.2-1-0.5-1.2
		c-0.3-0.3-0.6-0.4-1.1-0.4c-0.4,0-0.6,0.1-0.9,0.2c-0.3,0.1-0.5,0.3-0.6,0.5c-0.1,0.2-0.3,0.5-0.3,0.8v4.8L49.2,144.3L49.2,144.3z"
		/>
	<path class="st2" d="M58.8,144.4c-0.4,0-0.7-0.1-0.9-0.2c-0.3-0.1-0.5-0.3-0.5-0.5c-0.1-0.2-0.2-0.4-0.3-0.6c0-0.3-0.1-0.5-0.1-0.7
		v-8.3h1.3v8.2c0,0.4,0.1,0.6,0.2,0.8c0.2,0.2,0.4,0.3,0.5,0.3h0.4v0.8c-0.1,0-0.2,0.1-0.4,0.1C58.8,144.3,58.9,144.4,58.8,144.4z"
		/>
	<path class="st2" d="M61.6,146.6c-0.5,0-0.8-0.1-1.1-0.2v-0.8h0.7c0.3,0,0.5,0,0.6-0.1c0.2-0.1,0.3-0.1,0.5-0.2
		c0.1-0.1,0.2-0.2,0.3-0.3s0.1-0.2,0.2-0.3l0.3-0.6l-2.7-6.9h1.3l2.1,5.5l2.1-5.5h1.3l-3,7.6c-0.2,0.5-0.4,0.8-0.6,1
		c-0.3,0.2-0.5,0.5-0.7,0.5C62.2,146.5,62,146.6,61.6,146.6z"/>
	<path class="st2" d="M72.6,144.3v-7.4h-1.7v-1.1c0.5,0,1-0.1,1.4-0.2c0.4-0.1,0.6-0.3,0.8-0.5c0.2-0.2,0.3-0.5,0.3-0.7h1.4v9.9
		H72.6z"/>
	<path class="st2" d="M82.9,144.4c-0.7,0-1.3-0.2-1.8-0.5c-0.5-0.3-0.9-0.7-1.2-1.3c-0.3-0.5-0.5-1.2-0.5-1.9c0-0.7,0.2-1.4,0.5-1.9
		c0.3-0.5,0.6-1,1.2-1.3c0.5-0.3,1.1-0.5,1.8-0.5s1.3,0.2,1.8,0.5c0.5,0.3,0.9,0.7,1.2,1.3c0.3,0.5,0.5,1.2,0.5,2
		c0,0.7-0.1,1.4-0.4,1.9c-0.3,0.5-0.6,1-1.2,1.3C84.2,144.3,83.6,144.4,82.9,144.4z M82.9,143c0.4,0,0.6-0.1,0.8-0.3
		c0.2-0.2,0.4-0.5,0.5-0.8c0.1-0.4,0.2-0.7,0.2-1.1s0-0.7-0.1-1.1s-0.3-0.6-0.5-0.8c-0.2-0.2-0.5-0.3-0.9-0.3
		c-0.4,0-0.6,0.1-0.8,0.3c-0.2,0.2-0.4,0.5-0.5,0.8s-0.2,0.7-0.2,1.1s0.1,0.7,0.2,1.1c0.1,0.4,0.3,0.6,0.5,0.8S82.5,143,82.9,143z"
		/>
	<path class="st2" d="M90.1,144.4c-0.4,0-0.6-0.1-1-0.2c-0.3-0.1-0.6-0.3-0.8-0.5c-0.3-0.2-0.5-0.5-0.6-0.7c-0.2-0.3-0.3-0.6-0.3-1
		v-4.9h2v4.7c0,0.4,0.1,0.6,0.4,0.8c0.2,0.2,0.5,0.3,0.9,0.3c0.4,0,0.7-0.1,0.9-0.3c0.3-0.2,0.4-0.5,0.4-0.8v-4.6h2v7.1h-1.5
		l-0.3-1.4c-0.1,0.5-0.3,0.7-0.5,0.9s-0.5,0.4-0.7,0.5C90.7,144.4,90.4,144.4,90.1,144.4z"/>
	<path class="st2" d="M99.9,138.7h-1.6v3.7c0,0.2,0,0.3,0.1,0.4c0,0.1,0.1,0.2,0.2,0.2s0.2,0,0.4,0h0.9v1.2c-0.1,0-0.3,0.1-0.5,0.1
		s-0.5,0.1-0.8,0.1c-0.6,0-1.1-0.1-1.5-0.3c-0.4-0.2-0.5-0.4-0.7-0.6c-0.2-0.3-0.2-0.6-0.2-1v-3.8H95v-1.4h1.2l0.5-2.1h1.5v2.1h1.6
		v1.5H99.9z"/>
	<path class="st2" d="M107.3,144.4c-0.7,0-1.3-0.2-1.8-0.5c-0.5-0.3-0.9-0.7-1.2-1.3c-0.3-0.5-0.5-1.2-0.5-1.9
		c0-0.7,0.2-1.4,0.5-1.9c0.3-0.5,0.6-1,1.2-1.3c0.5-0.3,1.1-0.5,1.8-0.5s1.3,0.2,1.8,0.5c0.5,0.3,0.9,0.7,1.2,1.3s0.5,1.2,0.5,2
		c0,0.7-0.1,1.4-0.4,1.9c-0.3,0.5-0.6,1-1.2,1.3C108.6,144.3,108,144.4,107.3,144.4z M107.3,143c0.4,0,0.6-0.1,0.8-0.3
		c0.2-0.2,0.4-0.5,0.5-0.8c0.1-0.4,0.2-0.7,0.2-1.1s0-0.7-0.1-1.1s-0.3-0.6-0.5-0.8c-0.2-0.2-0.5-0.3-0.9-0.3
		c-0.4,0-0.6,0.1-0.8,0.3c-0.2,0.2-0.4,0.5-0.5,0.8s-0.2,0.7-0.2,1.1s0.1,0.7,0.2,1.1c0.1,0.4,0.3,0.6,0.5,0.8
		C106.6,142.9,106.9,143,107.3,143z"/>
	<path class="st2" d="M116.2,137.2v1.4h-1.5v5.7h-2v-5.7h-1.3v-1.4h1.3v-1c0-0.5,0.2-1,0.5-1.4c0.4-0.3,0.8-0.5,1.5-0.5h1.6v1.4
		h-0.9c-0.3,0-0.5,0.1-0.5,0.2c-0.1,0.1-0.2,0.4-0.2,0.6v0.7L116.2,137.2L116.2,137.2z"/>
	<path class="st2" d="M121.8,141.2c0,0.4,0.1,0.6,0.2,0.9c0.1,0.3,0.3,0.5,0.5,0.6s0.5,0.2,0.8,0.2c0.4,0,0.6-0.1,0.9-0.2
		c0.3-0.2,0.5-0.4,0.5-0.7h1.8c-0.1,0.5-0.3,0.9-0.6,1.3c-0.4,0.4-0.7,0.6-1.2,0.8s-0.9,0.3-1.5,0.3c-0.7,0-1.3-0.2-1.8-0.5
		c-0.5-0.3-0.9-0.7-1.3-1.3c-0.3-0.5-0.5-1.2-0.5-1.9c0-0.7,0.1-1.4,0.4-1.9c0.3-0.5,0.6-1,1.2-1.4c0.5-0.4,1.1-0.5,1.8-0.5
		s1.4,0.2,1.8,0.5c0.5,0.3,0.8,0.7,1.1,1.3s0.4,1.2,0.4,1.9v0.5L121.8,141.2L121.8,141.2z M121.8,140h2.9c0-0.3-0.1-0.5-0.2-0.8
		s-0.3-0.5-0.5-0.5s-0.5-0.2-0.8-0.2c-0.3,0-0.5,0.1-0.8,0.2c-0.2,0.2-0.4,0.4-0.5,0.5C121.8,139.5,121.8,139.8,121.8,140z"/>
	<path class="st2" d="M133.7,137.2l-2.7,7.1h-1.5l-2.7-7.1h1.8l1.6,4.5h0.1l1.6-4.5H133.7z"/>
	<path class="st2" d="M136.1,141.2c0,0.4,0.1,0.6,0.2,0.9c0.1,0.3,0.3,0.5,0.5,0.6s0.5,0.2,0.8,0.2c0.4,0,0.6-0.1,0.9-0.2
		c0.3-0.2,0.5-0.4,0.5-0.7h1.8c-0.1,0.5-0.3,0.9-0.6,1.3c-0.4,0.4-0.7,0.6-1.2,0.8c-0.5,0.2-0.9,0.3-1.5,0.3c-0.7,0-1.3-0.2-1.8-0.5
		c-0.5-0.3-0.9-0.7-1.3-1.3c-0.3-0.5-0.5-1.2-0.5-1.9c0-0.7,0.1-1.4,0.4-1.9c0.3-0.5,0.6-1,1.2-1.4s1.1-0.5,1.8-0.5
		c0.7,0,1.4,0.2,1.8,0.5c0.5,0.3,0.8,0.7,1.1,1.3c0.3,0.5,0.4,1.2,0.4,1.9v0.5L136.1,141.2L136.1,141.2z M136.1,140h2.9
		c0-0.3-0.1-0.5-0.2-0.8c-0.1-0.3-0.3-0.5-0.5-0.5s-0.5-0.2-0.8-0.2c-0.3,0-0.5,0.1-0.8,0.2c-0.2,0.2-0.4,0.4-0.5,0.5
		C136.2,139.5,136.1,139.8,136.1,140z"/>
	<path class="st2" d="M142.3,144.3v-7.1h1.9v1.6c0.1-0.4,0.3-0.6,0.5-0.9s0.5-0.5,0.7-0.6s0.6-0.3,1-0.3c0.1,0,0.1,0,0.2,0
		c0.1,0,0.1,0,0.1,0v1.9c0,0-0.1,0-0.2,0s-0.1,0-0.2,0c-0.4,0-0.7,0-1,0c-0.3,0.1-0.5,0.2-0.6,0.3c-0.2,0.1-0.3,0.3-0.4,0.5
		s-0.1,0.4-0.1,0.6v3.8h-1.9V144.3z"/>
	<path class="st2" d="M149.2,146.6c-0.5,0-0.9-0.1-1.3-0.3v-1.3h0.7c0.3,0,0.5,0,0.7,0s0.4-0.1,0.5-0.2s0.2-0.2,0.2-0.3
		s0.1-0.2,0.1-0.2l0.1-0.4l-2.7-6.8h2l1.7,4.7l1.7-4.7h1.9l-2.8,7.1c-0.3,0.6-0.5,1.1-0.8,1.4c-0.3,0.4-0.5,0.5-0.9,0.6
		C150,146.5,149.6,146.6,149.2,146.6z"/>
	<path class="st2" d="M159.5,134.4h6.4l-0.1,1.6H161l-0.2,2.4c0.4-0.2,0.7-0.4,1-0.5c0.4-0.1,0.7-0.1,1.1-0.1c0.6,0,1.3,0.1,1.7,0.4
		c0.5,0.3,0.9,0.6,1.3,1.1c0.3,0.5,0.5,1.1,0.5,1.7c0,0.7-0.2,1.3-0.5,1.8s-0.7,0.9-1.4,1.2c-0.5,0.3-1.3,0.5-2,0.5
		c-0.6,0-1.3-0.1-1.8-0.3c-0.5-0.2-1-0.5-1.5-0.8c-0.4-0.4-0.7-0.7-0.9-1.2l1.6-0.9c0.2,0.3,0.4,0.5,0.6,0.8
		c0.3,0.3,0.5,0.5,0.8,0.5c0.3,0.2,0.6,0.2,1,0.2c0.6,0,1.1-0.2,1.5-0.5c0.4-0.3,0.5-0.7,0.5-1.2c0-0.3-0.1-0.6-0.3-0.8
		c-0.2-0.3-0.4-0.5-0.6-0.6c-0.3-0.2-0.6-0.2-1-0.2c-0.2,0-0.4,0-0.5,0.1c-0.2,0-0.4,0.1-0.5,0.2c-0.2,0.1-0.4,0.2-0.6,0.4
		c-0.1,0-0.1,0-0.1,0s-0.1,0-0.2-0.1l-1.5-0.6L159.5,134.4z"/>
	<path class="st2" d="M173.9,137.1c0.5,0,1,0.1,1.4,0.3c0.4,0.2,0.7,0.5,1,0.8s0.5,0.8,0.5,1.3h-1.1c0-0.3-0.1-0.5-0.3-0.7
		c-0.2-0.2-0.4-0.4-0.5-0.5c-0.3-0.1-0.5-0.2-0.8-0.2c-0.6,0-1.1,0.2-1.5,0.6c-0.4,0.5-0.5,1.1-0.5,2c0,0.8,0.2,1.5,0.5,1.9
		s0.8,0.7,1.6,0.7c0.4,0,0.6-0.1,0.8-0.2c0.3-0.1,0.5-0.3,0.5-0.5c0.1-0.2,0.3-0.5,0.3-0.6h1.1c-0.1,0.5-0.2,0.9-0.5,1.2
		c-0.3,0.4-0.5,0.6-1,0.8c-0.4,0.2-0.8,0.3-1.4,0.3c-0.6,0-1.2-0.2-1.6-0.5c-0.5-0.3-0.9-0.7-1.2-1.2c-0.3-0.5-0.5-1.2-0.5-2
		c0-0.7,0.1-1.4,0.4-1.9c0.3-0.5,0.6-1,1.1-1.3C172.7,137.3,173.2,137.1,173.9,137.1z"/>
	<path class="st2" d="M180.3,144.4c-0.5,0-0.8-0.1-1.2-0.3s-0.6-0.4-0.8-0.7c-0.2-0.3-0.3-0.6-0.3-1.1c0-0.8,0.3-1.4,0.8-1.7
		c0.5-0.4,1.5-0.5,2.7-0.6h1.3v-0.5c0-0.5-0.1-0.8-0.4-1s-0.6-0.4-1.2-0.4c-0.4,0-0.7,0.1-1.1,0.3c-0.3,0.2-0.5,0.5-0.6,0.9h-1.1
		c0-0.5,0.2-0.8,0.4-1.2c0.2-0.4,0.5-0.5,1-0.7c0.5-0.2,0.9-0.3,1.5-0.3c0.6,0,1.1,0.1,1.6,0.3c0.4,0.2,0.7,0.5,0.9,0.7
		s0.3,0.7,0.3,1.3v4.9h-1.1l-0.1-1.4c-0.3,0.5-0.6,0.9-1,1.2C181.3,144.3,180.9,144.4,180.3,144.4z M180.8,143.5
		c0.3,0,0.5,0,0.7-0.1c0.3-0.1,0.5-0.2,0.6-0.4s0.4-0.3,0.5-0.5c0.1-0.2,0.2-0.4,0.2-0.5v-1.2h-1.1c-0.5,0-1,0.1-1.4,0.2
		c-0.4,0.1-0.6,0.3-0.8,0.5c-0.2,0.2-0.3,0.5-0.3,0.8c0,0.4,0.2,0.7,0.5,0.9C180,143.4,180.3,143.5,180.8,143.5z"/>
	<path class="st2" d="M186.2,144.3v-7.1h1.3v1c0.1-0.2,0.3-0.4,0.5-0.5c0.2-0.2,0.5-0.3,0.7-0.5s0.6-0.2,1-0.2
		c0.5,0,0.8,0.1,1.3,0.3c0.4,0.2,0.6,0.5,0.9,0.8c0.2,0.4,0.4,0.8,0.4,1.5v4.7h-1.3v-4.5c0-0.5-0.2-1-0.5-1.2s-0.6-0.4-1.1-0.4
		c-0.3,0-0.6,0.1-0.9,0.2c-0.3,0.1-0.5,0.3-0.6,0.5c-0.1,0.2-0.3,0.5-0.3,0.8v4.8L186.2,144.3L186.2,144.3z"/>
	<path class="st2" d="M196.9,137.1c0.5,0,1,0.1,1.4,0.3c0.4,0.2,0.7,0.5,1,0.8s0.5,0.8,0.5,1.3h-1.1c0-0.3-0.1-0.5-0.3-0.7
		c-0.2-0.2-0.4-0.4-0.5-0.5c-0.3-0.1-0.5-0.2-0.8-0.2c-0.6,0-1.1,0.2-1.5,0.6s-0.5,1.1-0.5,2c0,0.8,0.2,1.5,0.5,1.9
		c0.4,0.5,0.8,0.7,1.6,0.7c0.4,0,0.6-0.1,0.8-0.2c0.3-0.1,0.5-0.3,0.5-0.5c0.1-0.2,0.3-0.5,0.3-0.6h1.1c-0.1,0.5-0.2,0.9-0.5,1.2
		c-0.3,0.4-0.5,0.6-1,0.8c-0.4,0.2-0.8,0.3-1.4,0.3c-0.6,0-1.2-0.2-1.6-0.5c-0.5-0.3-0.9-0.7-1.2-1.2c-0.3-0.5-0.5-1.2-0.5-2
		c0-0.7,0.1-1.4,0.4-1.9c0.3-0.5,0.6-1,1.1-1.3C195.6,137.3,196.2,137.1,196.9,137.1z"/>
	<path class="st2" d="M202.4,141c0,0.5,0.1,0.8,0.2,1.2c0.2,0.4,0.4,0.6,0.6,0.8s0.6,0.4,1.1,0.4c0.5,0,0.8-0.1,1.2-0.3
		c0.4-0.2,0.5-0.5,0.6-0.9h1.2c-0.1,0.5-0.3,0.9-0.5,1.2c-0.3,0.4-0.6,0.5-1.1,0.7c-0.5,0.2-0.8,0.3-1.3,0.3c-0.6,0-1.3-0.2-1.7-0.5
		c-0.5-0.3-0.9-0.7-1.2-1.3c-0.3-0.5-0.5-1.2-0.5-1.9c0-0.7,0.1-1.4,0.4-1.9c0.3-0.5,0.6-1,1.1-1.3c0.5-0.3,1.1-0.5,1.7-0.5
		c0.6,0,1.2,0.2,1.7,0.5c0.5,0.3,0.8,0.7,1.1,1.2c0.3,0.5,0.4,1.2,0.4,1.8v0.5H202.4z M202.4,140.2h3.8c0-0.4-0.1-0.7-0.2-1.1
		c-0.1-0.4-0.4-0.5-0.6-0.7c-0.3-0.2-0.6-0.3-1.1-0.3c-0.5,0-0.8,0.1-1.1,0.3s-0.5,0.5-0.6,0.8C202.4,139.5,202.4,139.9,202.4,140.2
		z"/>
	<path class="st2" d="M209.2,144.3v-7.1h1.2v1.4c0.1-0.4,0.3-0.6,0.5-0.8s0.5-0.4,0.7-0.5c0.3-0.1,0.5-0.2,0.8-0.2
		c0.1,0,0.2,0,0.3,0s0.2,0,0.3,0.1v1.2c-0.1,0-0.2-0.1-0.3-0.1s-0.2,0-0.3,0c-0.3,0-0.5,0-0.8,0.1s-0.5,0.2-0.6,0.3
		s-0.4,0.3-0.5,0.5c-0.1,0.2-0.2,0.5-0.2,0.7v4.4L209.2,144.3L209.2,144.3z"/>
	<path class="st2" d="M217.6,146.5v-9.3h1.3v1.2c0.1-0.2,0.2-0.3,0.3-0.5s0.3-0.3,0.5-0.5c0.2-0.2,0.5-0.3,0.6-0.4
		c0.3-0.1,0.5-0.1,0.8-0.1c0.5,0,1.1,0.1,1.5,0.4c0.5,0.3,0.7,0.6,1,1.2c0.3,0.5,0.4,1.2,0.4,2c0,0.8-0.1,1.5-0.4,2s-0.5,1-1,1.3
		c-0.5,0.3-1,0.5-1.6,0.5c-0.3,0-0.6,0-0.8-0.1c-0.2-0.1-0.5-0.2-0.6-0.4s-0.4-0.3-0.5-0.5c-0.1-0.2-0.2-0.4-0.3-0.5v3.5
		L217.6,146.5L217.6,146.5z M220.9,143.5c0.5,0,1.1-0.2,1.5-0.6s0.5-1.1,0.5-2.1c0-0.8-0.2-1.5-0.5-1.9c-0.4-0.5-0.8-0.7-1.5-0.7
		s-1.2,0.3-1.5,0.7c-0.4,0.5-0.5,1.1-0.5,1.9c0,0.5,0.1,1,0.2,1.4c0.2,0.5,0.4,0.7,0.6,1C220.1,143.3,220.5,143.5,220.9,143.5z"/>
	<path class="st2" d="M227.7,144.4c-0.5,0-0.8-0.1-1.2-0.3s-0.6-0.4-0.8-0.7c-0.2-0.3-0.3-0.6-0.3-1.1c0-0.8,0.3-1.4,0.8-1.7
		c0.5-0.4,1.5-0.5,2.7-0.6h1.3v-0.5c0-0.5-0.1-0.8-0.4-1s-0.6-0.4-1.2-0.4c-0.4,0-0.7,0.1-1.1,0.3c-0.3,0.2-0.5,0.5-0.6,0.9h-1.1
		c0-0.5,0.2-0.8,0.4-1.2c0.2-0.4,0.5-0.5,1-0.7c0.5-0.2,0.9-0.3,1.5-0.3c0.6,0,1.1,0.1,1.6,0.3c0.4,0.2,0.7,0.5,0.9,0.7
		s0.3,0.7,0.3,1.3v4.9h-1.1l-0.1-1.4c-0.3,0.5-0.6,0.9-1,1.2C228.7,144.3,228.1,144.4,227.7,144.4z M228,143.5c0.3,0,0.5,0,0.7-0.1
		c0.3-0.1,0.5-0.2,0.6-0.4s0.4-0.3,0.5-0.5s0.2-0.4,0.2-0.5v-1.2H229c-0.5,0-1,0.1-1.4,0.2c-0.4,0.1-0.6,0.3-0.8,0.5
		s-0.3,0.5-0.3,0.8c0,0.4,0.2,0.7,0.5,0.9C227.2,143.4,227.6,143.5,228,143.5z"/>
	<path class="st2" d="M236.7,138.1h-1.6v4.4c0,0.3,0,0.5,0.1,0.5s0.2,0.2,0.3,0.2s0.3,0.1,0.5,0.1h0.7v0.8c-0.1,0-0.2,0.1-0.4,0.1
		s-0.4,0-0.6,0c-0.5,0-0.9-0.1-1.1-0.2s-0.5-0.4-0.5-0.5c-0.1-0.2-0.2-0.5-0.2-0.9v-4.5h-1.2v-0.9h1.2l0.3-2.1h0.9v2h1.6
		L236.7,138.1L236.7,138.1z"/>
	<path class="st2" d="M239.9,134.4v1.3h-1.3v-1.3H239.9z M239.9,137.2v7.1h-1.2v-7.1H239.9z"/>
	<path class="st2" d="M243,141c0,0.5,0.1,0.8,0.2,1.2c0.2,0.4,0.4,0.6,0.6,0.8s0.6,0.4,1.1,0.4c0.5,0,0.8-0.1,1.2-0.3
		c0.4-0.2,0.5-0.5,0.6-0.9h1.2c-0.1,0.5-0.3,0.9-0.5,1.2c-0.3,0.4-0.6,0.5-1.1,0.7c-0.5,0.2-0.8,0.3-1.3,0.3c-0.6,0-1.3-0.2-1.7-0.5
		c-0.5-0.3-0.9-0.7-1.2-1.3c-0.3-0.5-0.5-1.2-0.5-1.9c0-0.7,0.1-1.4,0.4-1.9c0.3-0.5,0.6-1,1.1-1.3c0.5-0.3,1.1-0.5,1.7-0.5
		c0.6,0,1.2,0.2,1.7,0.5c0.5,0.3,0.8,0.7,1.1,1.2c0.3,0.5,0.4,1.2,0.4,1.8v0.5H243z M243,140.2h3.8c0-0.4-0.1-0.7-0.2-1.1
		c-0.1-0.4-0.4-0.5-0.6-0.7c-0.3-0.2-0.6-0.3-1.1-0.3c-0.5,0-0.8,0.1-1.1,0.3s-0.5,0.5-0.6,0.8C243.1,139.5,243,139.9,243,140.2z"/>
	<path class="st2" d="M249.9,144.3v-7.1h1.3v1c0.1-0.2,0.3-0.4,0.5-0.5c0.2-0.2,0.5-0.3,0.7-0.5s0.6-0.2,1-0.2
		c0.5,0,0.8,0.1,1.3,0.3c0.4,0.2,0.6,0.5,0.9,0.8c0.2,0.4,0.4,0.8,0.4,1.5v4.7h-1.3v-4.5c0-0.5-0.2-1-0.5-1.2s-0.6-0.4-1.1-0.4
		c-0.3,0-0.6,0.1-0.9,0.2c-0.3,0.1-0.5,0.3-0.6,0.5c-0.1,0.2-0.3,0.5-0.3,0.8v4.8L249.9,144.3L249.9,144.3z"/>
	<path class="st2" d="M261,138.1h-1.6v4.4c0,0.3,0,0.5,0.1,0.5c0.1,0.1,0.2,0.2,0.3,0.2s0.3,0.1,0.5,0.1h0.7v0.8
		c-0.1,0-0.2,0.1-0.4,0.1s-0.4,0-0.6,0c-0.5,0-0.9-0.1-1.1-0.2s-0.5-0.4-0.5-0.5c-0.1-0.2-0.2-0.5-0.2-0.9v-4.5h-1.2v-0.9h1.2
		l0.3-2.1h0.9v2h1.6L261,138.1L261,138.1z"/>
	<path class="st2" d="M265.3,144.4c-0.5,0-0.9-0.1-1.4-0.3s-0.7-0.4-1.1-0.7c-0.4-0.4-0.5-0.7-0.5-1.3h1.2c0.1,0.3,0.2,0.5,0.4,0.7
		c0.2,0.2,0.4,0.4,0.6,0.5c0.3,0.1,0.5,0.2,0.8,0.2c0.5,0,0.8-0.1,1.2-0.3c0.3-0.2,0.5-0.5,0.5-0.8c0-0.3-0.1-0.5-0.3-0.6
		c-0.2-0.2-0.4-0.3-0.7-0.4l-1.5-0.4c-0.5-0.2-1-0.4-1.4-0.6c-0.4-0.3-0.5-0.7-0.5-1.2c0-0.5,0.1-0.8,0.3-1.1
		c0.2-0.3,0.5-0.5,0.9-0.7c0.4-0.2,0.9-0.3,1.5-0.3c0.7,0,1.4,0.2,1.8,0.5s0.7,0.8,0.7,1.6h-1.1c0-0.4-0.2-0.6-0.5-0.8
		s-0.6-0.3-1-0.3c-0.5,0-0.8,0.1-1.1,0.3c-0.3,0.2-0.5,0.5-0.5,0.8c0,0.3,0.1,0.5,0.3,0.5c0.2,0.2,0.5,0.3,0.9,0.4l1.5,0.4
		c0.4,0.1,0.6,0.2,0.8,0.4s0.4,0.3,0.5,0.5c0.1,0.2,0.2,0.4,0.3,0.5c0.1,0.2,0.1,0.4,0.1,0.5c0,0.5-0.1,0.8-0.4,1.1
		c-0.2,0.3-0.5,0.5-0.9,0.7S265.9,144.4,265.3,144.4z"/>
	<path class="st2" d="M61,160.8v-10.1h1.3v4.1c0.1-0.2,0.3-0.4,0.5-0.5c0.2-0.2,0.5-0.3,0.7-0.5c0.3-0.1,0.6-0.2,1-0.2
		c0.5,0,0.9,0.1,1.3,0.3c0.4,0.2,0.6,0.5,0.9,0.7c0.2,0.3,0.4,0.7,0.4,1.1v5h-1.3v-4.8c0-0.5-0.2-0.7-0.5-1
		c-0.3-0.3-0.6-0.4-1.1-0.4c-0.3,0-0.6,0.1-0.9,0.2c-0.3,0.1-0.5,0.3-0.6,0.5c-0.1,0.2-0.3,0.5-0.3,0.8v4.8H61L61,160.8z"/>
	<path class="st2" d="M70.8,160.9c-0.5,0-0.8-0.1-1.2-0.3c-0.4-0.2-0.6-0.4-0.8-0.7c-0.2-0.3-0.3-0.6-0.3-1.1c0-0.8,0.3-1.4,0.8-1.7
		c0.5-0.4,1.5-0.5,2.7-0.6h1.3v-0.5c0-0.5-0.1-0.8-0.4-1c-0.3-0.2-0.6-0.4-1.2-0.4c-0.4,0-0.7,0.1-1.1,0.3c-0.3,0.2-0.5,0.5-0.6,0.9
		h-1.1c0-0.5,0.2-0.8,0.4-1.2c0.3-0.3,0.5-0.5,1-0.7c0.5-0.2,0.9-0.3,1.5-0.3c0.6,0,1.1,0.1,1.6,0.3c0.4,0.2,0.7,0.5,0.9,0.7
		s0.3,0.7,0.3,1.3v4.9h-1.1l-0.1-1.4c-0.3,0.5-0.6,0.9-1,1.2C71.8,160.8,71.4,160.9,70.8,160.9z M71.3,160c0.3,0,0.5,0,0.7-0.1
		s0.5-0.2,0.6-0.4c0.2-0.2,0.4-0.3,0.5-0.5c0.1-0.2,0.2-0.4,0.2-0.5v-1.2h-1.1c-0.5,0-1,0.1-1.4,0.2c-0.4,0.1-0.6,0.3-0.8,0.5
		c-0.2,0.2-0.3,0.5-0.3,0.8s0.2,0.7,0.5,0.9C70.5,159.9,70.8,160,71.3,160z"/>
	<path class="st2" d="M79,160.9c-0.5,0-0.9-0.1-1.4-0.3c-0.5-0.2-0.7-0.4-1.1-0.7c-0.3-0.4-0.5-0.7-0.5-1.3h1.2
		c0.1,0.3,0.2,0.5,0.4,0.7c0.2,0.2,0.4,0.4,0.6,0.5c0.3,0.1,0.5,0.2,0.8,0.2c0.5,0,0.8-0.1,1.2-0.3c0.3-0.2,0.5-0.5,0.5-0.8
		c0-0.3-0.1-0.5-0.3-0.6c-0.2-0.2-0.4-0.3-0.7-0.4l-1.5-0.4c-0.5-0.2-1-0.4-1.4-0.6c-0.4-0.3-0.5-0.7-0.5-1.2s0.1-0.8,0.3-1.1
		c0.2-0.3,0.5-0.5,0.9-0.7c0.4-0.2,0.9-0.3,1.5-0.3c0.7,0,1.4,0.2,1.8,0.5c0.5,0.4,0.7,0.8,0.7,1.6h-1.1c-0.1-0.4-0.2-0.6-0.5-0.8
		c-0.3-0.2-0.6-0.3-1-0.3c-0.5,0-0.8,0.1-1.1,0.3c-0.3,0.2-0.5,0.5-0.5,0.8c0,0.3,0.1,0.5,0.3,0.5c0.2,0.2,0.5,0.3,0.9,0.4l1.5,0.4
		c0.4,0.1,0.6,0.2,0.8,0.4c0.2,0.2,0.4,0.3,0.5,0.5c0.1,0.2,0.2,0.4,0.3,0.5c0.1,0.2,0.1,0.4,0.1,0.5c0,0.5-0.1,0.8-0.4,1.1
		c-0.2,0.3-0.5,0.5-0.9,0.7C80.1,160.9,79.6,160.9,79,160.9z"/>
	<path class="st2" d="M88.6,160.9c-0.5,0-0.8-0.1-1.2-0.3c-0.4-0.2-0.6-0.4-0.8-0.7c-0.2-0.3-0.3-0.6-0.3-1.1c0-0.8,0.3-1.4,0.8-1.7
		s1.5-0.5,2.7-0.6h1.3v-0.5c0-0.5-0.1-0.8-0.4-1c-0.3-0.2-0.6-0.4-1.2-0.4c-0.4,0-0.7,0.1-1.1,0.3c-0.3,0.2-0.5,0.5-0.6,0.9h-1.1
		c0-0.5,0.2-0.8,0.4-1.2c0.3-0.3,0.5-0.5,1-0.7c0.5-0.2,0.9-0.3,1.5-0.3c0.6,0,1.1,0.1,1.6,0.3c0.4,0.2,0.7,0.5,0.9,0.7
		c0.2,0.3,0.3,0.7,0.3,1.3v4.9h-1.1l-0.1-1.4c-0.3,0.5-0.6,0.9-1,1.2C89.6,160.8,89.1,160.9,88.6,160.9z M89,160
		c0.3,0,0.5,0,0.7-0.1c0.3-0.1,0.5-0.2,0.6-0.4c0.2-0.2,0.4-0.3,0.5-0.5s0.2-0.4,0.2-0.5v-1.2h-1.1c-0.5,0-1,0.1-1.4,0.2
		c-0.4,0.1-0.6,0.3-0.8,0.5c-0.2,0.2-0.3,0.5-0.3,0.8s0.2,0.7,0.5,0.9C88.2,159.9,88.6,160,89,160z"/>
	<path class="st2" d="M97.2,153.6c0.5,0,1,0.1,1.4,0.3c0.4,0.2,0.7,0.5,1,0.8s0.5,0.8,0.5,1.3H99c0-0.3-0.1-0.5-0.3-0.7
		c-0.2-0.2-0.4-0.4-0.5-0.5c-0.3-0.1-0.5-0.2-0.8-0.2c-0.6,0-1.1,0.2-1.5,0.6c-0.4,0.5-0.5,1.1-0.5,2c0,0.8,0.2,1.5,0.5,1.9
		c0.4,0.5,0.8,0.7,1.6,0.7c0.4,0,0.6-0.1,0.8-0.2c0.3-0.1,0.5-0.3,0.5-0.5c0.2-0.2,0.3-0.5,0.3-0.6h1.1c-0.1,0.5-0.2,0.9-0.5,1.2
		c-0.3,0.4-0.5,0.6-1,0.8c-0.4,0.2-0.8,0.3-1.4,0.3c-0.6,0-1.2-0.2-1.6-0.5c-0.5-0.3-0.9-0.7-1.2-1.2c-0.3-0.5-0.5-1.2-0.5-2
		c0-0.7,0.1-1.4,0.4-1.9c0.3-0.5,0.6-1,1.1-1.3S96.5,153.6,97.2,153.6z"/>
	<path class="st2" d="M104.6,153.6c0.5,0,1,0.1,1.4,0.3c0.4,0.2,0.7,0.5,1,0.8s0.5,0.8,0.5,1.3h-1.1c0-0.3-0.1-0.5-0.3-0.7
		c-0.2-0.2-0.4-0.4-0.5-0.5c-0.3-0.1-0.5-0.2-0.8-0.2c-0.6,0-1.1,0.2-1.5,0.6c-0.4,0.5-0.5,1.1-0.5,2c0,0.8,0.2,1.5,0.5,1.9
		c0.4,0.5,0.8,0.7,1.6,0.7c0.4,0,0.6-0.1,0.8-0.2c0.3-0.1,0.5-0.3,0.5-0.5c0.2-0.2,0.3-0.5,0.3-0.6h1.1c-0.1,0.5-0.2,0.9-0.5,1.2
		c-0.3,0.4-0.5,0.6-1,0.8c-0.4,0.2-0.8,0.3-1.4,0.3c-0.6,0-1.2-0.2-1.6-0.5s-0.9-0.7-1.2-1.2c-0.3-0.5-0.5-1.2-0.5-2
		c0-0.7,0.1-1.4,0.4-1.9c0.3-0.5,0.6-1,1.1-1.3C103.4,153.8,103.9,153.6,104.6,153.6z"/>
	<path class="st2" d="M110.1,157.5c0,0.5,0.1,0.8,0.2,1.2c0.2,0.4,0.4,0.6,0.6,0.8c0.3,0.2,0.6,0.4,1.1,0.4c0.5,0,0.8-0.1,1.2-0.3
		s0.5-0.5,0.6-0.9h1.2c-0.1,0.5-0.3,0.9-0.5,1.2c-0.3,0.4-0.6,0.5-1.1,0.7c-0.5,0.2-0.8,0.3-1.3,0.3c-0.6,0-1.3-0.2-1.7-0.5
		c-0.5-0.3-0.9-0.7-1.2-1.3c-0.3-0.5-0.5-1.2-0.5-1.9s0.1-1.4,0.4-1.9c0.3-0.5,0.6-1,1.1-1.3c0.5-0.3,1.1-0.5,1.7-0.5
		c0.6,0,1.2,0.2,1.7,0.5c0.5,0.3,0.8,0.7,1.1,1.2c0.3,0.5,0.4,1.2,0.4,1.8v0.5H110.1z M110.1,156.7h3.8c0-0.4-0.1-0.7-0.2-1.1
		s-0.4-0.5-0.6-0.7c-0.3-0.2-0.6-0.3-1.1-0.3c-0.5,0-0.8,0.1-1.1,0.3c-0.3,0.2-0.5,0.5-0.6,0.8C110.1,155.9,110.1,156.3,110.1,156.7
		z"/>
	<path class="st2" d="M119.4,160.9c-0.5,0-0.9-0.1-1.4-0.3c-0.5-0.2-0.7-0.4-1.1-0.7c-0.3-0.4-0.5-0.7-0.5-1.3h1.2
		c0.1,0.3,0.2,0.5,0.4,0.7c0.2,0.2,0.4,0.4,0.6,0.5s0.5,0.2,0.8,0.2c0.5,0,0.8-0.1,1.2-0.3c0.3-0.2,0.5-0.5,0.5-0.8
		c0-0.3-0.1-0.5-0.3-0.6c-0.2-0.2-0.4-0.3-0.7-0.4l-1.5-0.4c-0.5-0.2-1-0.4-1.4-0.6c-0.4-0.3-0.5-0.7-0.5-1.2s0.1-0.8,0.3-1.1
		c0.2-0.3,0.5-0.5,0.9-0.7c0.4-0.2,0.9-0.3,1.5-0.3c0.7,0,1.4,0.2,1.8,0.5c0.5,0.4,0.7,0.8,0.7,1.6h-1.1c-0.1-0.4-0.2-0.6-0.5-0.8
		c-0.3-0.2-0.6-0.3-1-0.3c-0.5,0-0.8,0.1-1.1,0.3c-0.3,0.2-0.5,0.5-0.5,0.8c0,0.3,0.1,0.5,0.3,0.5c0.2,0.2,0.5,0.3,0.9,0.4l1.5,0.4
		c0.4,0.1,0.6,0.2,0.8,0.4c0.2,0.2,0.4,0.3,0.5,0.5c0.1,0.2,0.2,0.4,0.3,0.5c0.1,0.2,0.1,0.4,0.1,0.5c0,0.5-0.1,0.8-0.4,1.1
		c-0.2,0.3-0.5,0.5-0.9,0.7C120.5,160.9,119.9,160.9,119.4,160.9z"/>
	<path class="st2" d="M126.3,160.9c-0.5,0-0.9-0.1-1.4-0.3c-0.5-0.2-0.7-0.4-1.1-0.7c-0.3-0.4-0.5-0.7-0.5-1.3h1.2
		c0.1,0.3,0.2,0.5,0.4,0.7c0.2,0.2,0.4,0.4,0.6,0.5s0.5,0.2,0.8,0.2c0.5,0,0.8-0.1,1.2-0.3c0.3-0.2,0.5-0.5,0.5-0.8
		c0-0.3-0.1-0.5-0.3-0.6s-0.4-0.3-0.7-0.4l-1.5-0.4c-0.5-0.2-1-0.4-1.4-0.6c-0.4-0.3-0.5-0.7-0.5-1.2s0.1-0.8,0.3-1.1
		c0.2-0.3,0.5-0.5,0.9-0.7c0.4-0.2,0.9-0.3,1.5-0.3c0.7,0,1.4,0.2,1.8,0.5c0.5,0.4,0.7,0.8,0.7,1.6h-1.1c-0.1-0.4-0.2-0.6-0.5-0.8
		c-0.3-0.2-0.6-0.3-1-0.3c-0.5,0-0.8,0.1-1.1,0.3c-0.3,0.2-0.5,0.5-0.5,0.8c0,0.3,0.1,0.5,0.3,0.5c0.2,0.2,0.5,0.3,0.9,0.4l1.5,0.4
		c0.4,0.1,0.6,0.2,0.8,0.4c0.2,0.2,0.4,0.3,0.5,0.5c0.1,0.2,0.2,0.4,0.3,0.5c0.1,0.2,0.1,0.4,0.1,0.5c0,0.5-0.1,0.8-0.4,1.1
		c-0.2,0.3-0.5,0.5-0.9,0.7C127.4,160.9,126.9,160.9,126.3,160.9z"/>
	<path class="st2" d="M137.5,154.6h-1.6v4.4c0,0.3,0,0.5,0.1,0.5s0.2,0.2,0.3,0.2c0.1,0,0.3,0.1,0.5,0.1h0.7v0.8
		c-0.1,0-0.2,0.1-0.4,0.1s-0.4,0-0.6,0c-0.5,0-0.8-0.1-1.1-0.2c-0.3-0.1-0.5-0.4-0.5-0.5c-0.1-0.3-0.2-0.5-0.2-0.9v-4.5h-1.2v-0.9
		h1.2l0.3-2.1h0.9v2h1.6L137.5,154.6L137.5,154.6z"/>
	<path class="st2" d="M141.9,160.9c-0.6,0-1.2-0.2-1.7-0.5c-0.5-0.3-0.9-0.7-1.1-1.3c-0.2-0.5-0.4-1.2-0.4-2c0-0.7,0.1-1.4,0.4-1.9
		c0.3-0.5,0.6-1,1.1-1.3c0.5-0.3,1.1-0.5,1.7-0.5c0.6,0,1.2,0.2,1.7,0.5c0.5,0.3,0.8,0.7,1.1,1.3c0.3,0.5,0.4,1.2,0.4,2
		c0,0.7-0.1,1.4-0.4,1.9c-0.3,0.5-0.6,1-1.1,1.3C143.2,160.8,142.7,160.9,141.9,160.9z M141.9,159.9c0.5,0,0.8-0.1,1.1-0.4
		c0.3-0.2,0.5-0.5,0.6-0.9c0.2-0.4,0.2-0.9,0.2-1.5s-0.1-1-0.2-1.4s-0.4-0.7-0.6-1c-0.3-0.3-0.6-0.4-1.1-0.4c-0.5,0-0.8,0.1-1.1,0.3
		c-0.3,0.2-0.5,0.5-0.6,0.9s-0.3,0.9-0.3,1.5c0,0.5,0.1,0.9,0.2,1.4s0.4,0.7,0.6,1C141.1,159.8,141.5,159.9,141.9,159.9z"/>
	<path class="st2" d="M152.5,153.6c0.5,0,1,0.1,1.4,0.3c0.4,0.2,0.7,0.5,1,0.8c0.3,0.4,0.5,0.8,0.5,1.3h-1.1c0-0.3-0.1-0.5-0.3-0.7
		c-0.2-0.2-0.4-0.4-0.5-0.5c-0.3-0.1-0.5-0.2-0.8-0.2c-0.6,0-1.1,0.2-1.5,0.6c-0.4,0.5-0.5,1.1-0.5,2c0,0.8,0.2,1.5,0.5,1.9
		c0.4,0.5,0.8,0.7,1.6,0.7c0.4,0,0.6-0.1,0.8-0.2c0.3-0.1,0.5-0.3,0.5-0.5c0.2-0.2,0.3-0.5,0.3-0.6h1.1c-0.1,0.5-0.2,0.9-0.5,1.2
		c-0.3,0.4-0.5,0.6-1,0.8c-0.4,0.2-0.8,0.3-1.4,0.3c-0.6,0-1.2-0.2-1.6-0.5c-0.5-0.3-0.9-0.7-1.2-1.2c-0.3-0.5-0.5-1.2-0.5-2
		c0-0.7,0.1-1.4,0.4-1.9c0.3-0.5,0.6-1,1.1-1.3C151.3,153.8,151.8,153.6,152.5,153.6z"/>
	<path class="st2" d="M159,160.9c-0.5,0-0.8-0.1-1.2-0.3c-0.4-0.2-0.6-0.4-0.8-0.7s-0.3-0.6-0.3-1.1c0-0.8,0.3-1.4,0.8-1.7
		s1.5-0.5,2.7-0.6h1.3v-0.5c0-0.5-0.1-0.8-0.4-1c-0.3-0.2-0.6-0.4-1.2-0.4c-0.4,0-0.7,0.1-1.1,0.3s-0.5,0.5-0.6,0.9h-1.1
		c0-0.5,0.2-0.8,0.4-1.2c0.3-0.3,0.5-0.5,1-0.7c0.5-0.2,0.9-0.3,1.5-0.3c0.6,0,1.1,0.1,1.6,0.3c0.4,0.2,0.7,0.5,0.9,0.7
		c0.2,0.3,0.3,0.7,0.3,1.3v4.9h-1.1l-0.1-1.4c-0.3,0.5-0.6,0.9-1,1.2C159.9,160.8,159.5,160.9,159,160.9z M159.4,160
		c0.3,0,0.5,0,0.7-0.1s0.5-0.2,0.6-0.4c0.2-0.2,0.4-0.3,0.5-0.5s0.2-0.4,0.2-0.5v-1.2h-1.1c-0.5,0-1,0.1-1.4,0.2
		c-0.4,0.1-0.6,0.3-0.8,0.5c-0.2,0.2-0.3,0.5-0.3,0.8s0.2,0.7,0.5,0.9C158.6,159.9,158.9,160,159.4,160z"/>
	<path class="st2" d="M164.8,160.8v-7.1h1.3v1c0.1-0.2,0.3-0.4,0.5-0.5c0.2-0.2,0.5-0.3,0.7-0.5c0.3-0.2,0.6-0.2,1-0.2
		c0.5,0,0.8,0.1,1.3,0.3c0.4,0.2,0.6,0.5,0.9,0.8c0.2,0.4,0.4,0.8,0.4,1.5v4.7h-1.4v-4.5c0-0.5-0.2-1-0.5-1.2s-0.6-0.4-1.1-0.4
		c-0.3,0-0.6,0.1-0.9,0.2c-0.3,0.1-0.5,0.3-0.6,0.5s-0.3,0.5-0.3,0.8v4.8L164.8,160.8L164.8,160.8z"/>
	<path class="st2" d="M175.5,153.6c0.5,0,1,0.1,1.4,0.3c0.4,0.2,0.7,0.5,1,0.8c0.3,0.4,0.5,0.8,0.5,1.3h-1.1c0-0.3-0.1-0.5-0.3-0.7
		c-0.2-0.2-0.4-0.4-0.5-0.5c-0.3-0.1-0.5-0.2-0.8-0.2c-0.6,0-1.1,0.2-1.5,0.6c-0.4,0.5-0.5,1.1-0.5,2c0,0.8,0.2,1.5,0.5,1.9
		c0.4,0.5,0.8,0.7,1.6,0.7c0.4,0,0.6-0.1,0.8-0.2c0.3-0.1,0.5-0.3,0.5-0.5c0.1-0.2,0.3-0.5,0.3-0.6h1.1c-0.1,0.5-0.2,0.9-0.5,1.2
		c-0.3,0.4-0.5,0.6-1,0.8c-0.4,0.2-0.8,0.3-1.4,0.3c-0.6,0-1.2-0.2-1.6-0.5c-0.5-0.3-0.9-0.7-1.2-1.2c-0.3-0.5-0.5-1.2-0.5-2
		c0-0.7,0.1-1.4,0.4-1.9c0.3-0.5,0.6-1,1.1-1.3S174.8,153.6,175.5,153.6z"/>
	<path class="st2" d="M181,157.5c0,0.5,0.1,0.8,0.2,1.2c0.2,0.4,0.4,0.6,0.6,0.8c0.3,0.2,0.6,0.4,1.1,0.4c0.5,0,0.8-0.1,1.2-0.3
		s0.5-0.5,0.6-0.9h1.2c-0.1,0.5-0.3,0.9-0.5,1.2c-0.3,0.4-0.6,0.5-1.1,0.7c-0.5,0.2-0.8,0.3-1.3,0.3c-0.6,0-1.3-0.2-1.7-0.5
		c-0.5-0.3-0.9-0.7-1.2-1.3c-0.3-0.5-0.5-1.2-0.5-1.9s0.1-1.4,0.4-1.9c0.3-0.5,0.6-1,1.1-1.3c0.5-0.3,1.1-0.5,1.7-0.5
		c0.6,0,1.2,0.2,1.7,0.5c0.5,0.3,0.8,0.7,1.1,1.2c0.3,0.5,0.4,1.2,0.4,1.8v0.5H181z M181,156.7h3.8c0-0.4-0.1-0.7-0.2-1.1
		c-0.1-0.4-0.4-0.5-0.6-0.7c-0.3-0.2-0.6-0.3-1.1-0.3c-0.5,0-0.8,0.1-1.1,0.3c-0.3,0.2-0.5,0.5-0.6,0.8
		C181.1,155.9,181,156.3,181,156.7z"/>
	<path class="st2" d="M187.8,160.8v-7.1h1.2v1.4c0.1-0.4,0.3-0.6,0.5-0.8s0.5-0.4,0.7-0.5s0.5-0.2,0.8-0.2c0.1,0,0.2,0,0.3,0
		s0.2,0,0.3,0.1v1.2c-0.1,0-0.2-0.1-0.3-0.1s-0.2,0-0.3,0c-0.3,0-0.5,0-0.8,0.1c-0.3,0.1-0.5,0.2-0.6,0.3c-0.2,0.1-0.4,0.3-0.5,0.5
		c-0.1,0.2-0.2,0.5-0.2,0.7v4.4L187.8,160.8L187.8,160.8z"/>
	<path class="st2" d="M195.7,156.8v1h-3.5v-1H195.7z"/>
	<path class="st2" d="M200.2,160.9c-0.5,0-0.9-0.1-1.4-0.3c-0.5-0.2-0.7-0.4-1.1-0.7s-0.5-0.7-0.5-1.3h1.2c0.1,0.3,0.2,0.5,0.4,0.7
		c0.2,0.2,0.4,0.4,0.6,0.5s0.5,0.2,0.8,0.2c0.5,0,0.8-0.1,1.2-0.3c0.3-0.2,0.5-0.5,0.5-0.8c0-0.3-0.1-0.5-0.3-0.6
		c-0.2-0.2-0.4-0.3-0.7-0.4l-1.5-0.4c-0.5-0.2-1-0.4-1.4-0.6s-0.5-0.7-0.5-1.2s0.1-0.8,0.3-1.1c0.2-0.3,0.5-0.5,0.9-0.7
		c0.4-0.2,0.9-0.3,1.5-0.3c0.7,0,1.4,0.2,1.8,0.5c0.5,0.4,0.7,0.8,0.7,1.6h-1.1c0-0.4-0.2-0.6-0.5-0.8c-0.3-0.2-0.6-0.3-1-0.3
		c-0.5,0-0.8,0.1-1.1,0.3c-0.3,0.2-0.5,0.5-0.5,0.8c0,0.3,0.1,0.5,0.3,0.5c0.2,0.2,0.5,0.3,0.9,0.4l1.5,0.4c0.4,0.1,0.6,0.2,0.8,0.4
		s0.4,0.3,0.5,0.5c0.1,0.2,0.2,0.4,0.3,0.5c0.1,0.2,0.1,0.4,0.1,0.5c0,0.5-0.1,0.8-0.4,1.1c-0.2,0.3-0.5,0.5-0.9,0.7
		C201.3,160.9,200.7,160.9,200.2,160.9z"/>
	<path class="st2" d="M204.6,163v-9.3h1.3v1.2c0.1-0.2,0.2-0.3,0.3-0.5s0.3-0.3,0.5-0.5s0.5-0.3,0.6-0.4c0.3-0.1,0.5-0.1,0.8-0.1
		c0.5,0,1.1,0.1,1.5,0.4c0.5,0.3,0.7,0.6,1,1.2c0.3,0.5,0.4,1.2,0.4,2c0,0.8-0.1,1.5-0.4,2c-0.3,0.5-0.5,1-1,1.3
		c-0.5,0.3-1,0.5-1.6,0.5c-0.3,0-0.6,0-0.8-0.1c-0.2-0.1-0.5-0.2-0.6-0.4s-0.4-0.3-0.5-0.5s-0.2-0.4-0.3-0.5v3.5L204.6,163
		L204.6,163z M207.9,160c0.5,0,1.1-0.2,1.5-0.6c0.4-0.5,0.5-1.1,0.5-2.1c0-0.8-0.2-1.5-0.5-1.9c-0.4-0.5-0.8-0.7-1.5-0.7
		s-1.2,0.3-1.5,0.7c-0.4,0.5-0.5,1.1-0.5,1.9c0,0.5,0.1,1,0.2,1.4c0.2,0.5,0.4,0.7,0.6,1C207.1,159.8,207.5,160,207.9,160z"/>
	<path class="st2" d="M213.7,157.5c0,0.5,0.1,0.8,0.2,1.2c0.2,0.4,0.4,0.6,0.6,0.8c0.3,0.2,0.6,0.4,1.1,0.4c0.5,0,0.8-0.1,1.2-0.3
		c0.4-0.2,0.5-0.5,0.6-0.9h1.2c-0.1,0.5-0.3,0.9-0.5,1.2c-0.3,0.4-0.6,0.5-1.1,0.7c-0.5,0.2-0.8,0.3-1.3,0.3c-0.6,0-1.3-0.2-1.7-0.5
		c-0.5-0.3-0.9-0.7-1.2-1.3c-0.3-0.5-0.5-1.2-0.5-1.9s0.1-1.4,0.4-1.9c0.3-0.5,0.6-1,1.1-1.3c0.5-0.3,1.1-0.5,1.7-0.5
		c0.6,0,1.2,0.2,1.7,0.5c0.5,0.3,0.8,0.7,1.1,1.2c0.3,0.5,0.4,1.2,0.4,1.8v0.5H213.7z M213.7,156.7h3.8c0-0.4-0.1-0.7-0.2-1.1
		s-0.4-0.5-0.6-0.7c-0.3-0.2-0.6-0.3-1.1-0.3c-0.5,0-0.8,0.1-1.1,0.3c-0.3,0.2-0.5,0.5-0.6,0.8C213.8,155.9,213.7,156.3,213.7,156.7
		z"/>
	<path class="st2" d="M223.4,153.6c0.5,0,1,0.1,1.4,0.3c0.4,0.2,0.7,0.5,1,0.8c0.3,0.4,0.5,0.8,0.5,1.3h-1.1c0-0.3-0.1-0.5-0.3-0.7
		c-0.2-0.2-0.4-0.4-0.5-0.5c-0.3-0.1-0.5-0.2-0.8-0.2c-0.6,0-1.1,0.2-1.5,0.6c-0.4,0.5-0.5,1.1-0.5,2c0,0.8,0.2,1.5,0.5,1.9
		c0.4,0.5,0.8,0.7,1.6,0.7c0.4,0,0.6-0.1,0.8-0.2c0.3-0.1,0.5-0.3,0.5-0.5c0.1-0.2,0.3-0.5,0.3-0.6h1.1c-0.1,0.5-0.2,0.9-0.5,1.2
		c-0.3,0.4-0.5,0.6-1,0.8c-0.4,0.2-0.8,0.3-1.4,0.3c-0.6,0-1.2-0.2-1.6-0.5c-0.5-0.3-0.9-0.7-1.2-1.2c-0.3-0.5-0.5-1.2-0.5-2
		c0-0.7,0.1-1.4,0.4-1.9c0.3-0.5,0.6-1,1.1-1.3C222.1,153.8,222.7,153.6,223.4,153.6z"/>
	<path class="st2" d="M229.3,150.8v1.3H228v-1.3H229.3z M229.3,153.7v7.1h-1.2v-7.1H229.3z"/>
	<path class="st2" d="M235.5,153.7v0.9h-1.7v6.1h-1.3v-6.1h-1.5v-0.9h1.5v-1.1c0-0.5,0.2-1,0.5-1.3c0.3-0.3,0.7-0.5,1.3-0.5h1.4v0.9
		h-1.1c-0.3,0-0.5,0.1-0.5,0.3c-0.1,0.2-0.2,0.4-0.2,0.7v1L235.5,153.7L235.5,153.7z M238.5,150.8v1.3h-1.3v-1.3H238.5z
		 M238.5,153.7v7.1h-1.2v-7.1H238.5z"/>
	<path class="st2" d="M243.5,153.6c0.5,0,1,0.1,1.4,0.3c0.4,0.2,0.7,0.5,1,0.8c0.3,0.4,0.5,0.8,0.5,1.3h-1.1c0-0.3-0.1-0.5-0.3-0.7
		c-0.2-0.2-0.4-0.4-0.5-0.5c-0.3-0.1-0.5-0.2-0.8-0.2c-0.6,0-1.1,0.2-1.5,0.6c-0.4,0.5-0.5,1.1-0.5,2c0,0.8,0.2,1.5,0.5,1.9
		c0.4,0.5,0.8,0.7,1.6,0.7c0.4,0,0.6-0.1,0.8-0.2c0.3-0.1,0.5-0.3,0.5-0.5c0.1-0.2,0.3-0.5,0.3-0.6h1.1c-0.1,0.5-0.2,0.9-0.5,1.2
		c-0.3,0.4-0.5,0.6-1,0.8c-0.4,0.2-0.8,0.3-1.4,0.3c-0.6,0-1.2-0.2-1.6-0.5c-0.5-0.3-0.9-0.7-1.2-1.2c-0.3-0.5-0.5-1.2-0.5-2
		c0-0.7,0.1-1.4,0.4-1.9c0.3-0.5,0.6-1,1.1-1.3C242.2,153.8,242.9,153.6,243.5,153.6z"/>
	<path class="st2" d="M58.6,179.4v-9.3h1.3v1.2c0.1-0.2,0.2-0.3,0.3-0.5c0.1-0.2,0.3-0.3,0.5-0.5c0.2-0.2,0.5-0.3,0.6-0.4
		c0.3-0.1,0.5-0.1,0.8-0.1c0.5,0,1.1,0.1,1.5,0.4c0.5,0.3,0.7,0.6,1,1.2s0.4,1.2,0.4,2c0,0.8-0.1,1.5-0.4,2c-0.3,0.5-0.5,1-1,1.3
		c-0.5,0.3-1,0.5-1.6,0.5c-0.3,0-0.6,0-0.8-0.1c-0.3-0.1-0.5-0.2-0.6-0.4c-0.2-0.2-0.4-0.3-0.5-0.5c-0.1-0.2-0.2-0.4-0.3-0.5v3.5
		L58.6,179.4L58.6,179.4z M61.8,176.4c0.5,0,1.1-0.2,1.5-0.6c0.4-0.5,0.5-1.1,0.5-2.1c0-0.8-0.2-1.5-0.5-1.9
		c-0.4-0.5-0.8-0.7-1.5-0.7s-1.2,0.3-1.5,0.7c-0.3,0.5-0.5,1.1-0.5,1.9c0,0.5,0.1,1,0.2,1.4c0.2,0.5,0.4,0.7,0.6,1
		C61,176.2,61.4,176.4,61.8,176.4z"/>
	<path class="st2" d="M69.2,177.3c-0.5,0-0.9-0.1-1.4-0.3c-0.5-0.2-0.7-0.4-1.1-0.7c-0.3-0.4-0.5-0.7-0.5-1.3h1.2
		c0.1,0.3,0.2,0.5,0.4,0.7c0.2,0.2,0.4,0.4,0.6,0.5s0.5,0.2,0.8,0.2c0.5,0,0.8-0.1,1.2-0.3c0.3-0.2,0.5-0.5,0.5-0.8
		c0-0.3-0.1-0.5-0.3-0.6s-0.4-0.3-0.7-0.4l-1.5-0.4c-0.5-0.2-1-0.4-1.4-0.6c-0.4-0.3-0.5-0.7-0.5-1.2c0-0.5,0.1-0.8,0.3-1.1
		c0.2-0.3,0.5-0.5,0.9-0.7s0.9-0.3,1.5-0.3c0.7,0,1.4,0.2,1.8,0.5c0.5,0.4,0.7,0.8,0.7,1.6h-1.1c-0.1-0.4-0.2-0.6-0.5-0.8
		s-0.6-0.3-1-0.3c-0.5,0-0.8,0.1-1.1,0.3c-0.3,0.2-0.5,0.5-0.5,0.8c0,0.3,0.1,0.5,0.3,0.5c0.2,0.2,0.5,0.3,0.9,0.4l1.5,0.4
		c0.4,0.1,0.6,0.2,0.8,0.4c0.2,0.2,0.4,0.3,0.5,0.5c0.1,0.2,0.2,0.4,0.3,0.5c0.1,0.2,0.1,0.4,0.1,0.5c0,0.5-0.1,0.8-0.4,1.1
		c-0.2,0.3-0.5,0.5-0.9,0.7C70.3,177.3,69.7,177.3,69.2,177.3z"/>
	<path class="st2" d="M74.3,179.5c-0.5,0-0.8-0.1-1.1-0.2v-0.8h0.7c0.3,0,0.5,0,0.6-0.1c0.2-0.1,0.3-0.1,0.5-0.2
		c0.1-0.1,0.2-0.2,0.3-0.3c0.1-0.1,0.1-0.2,0.2-0.3l0.3-0.6l-2.7-6.9h1.3l2.1,5.5l2.1-5.5h1.3l-3,7.6c-0.2,0.5-0.4,0.8-0.6,1
		s-0.5,0.5-0.7,0.5C74.9,179.4,74.7,179.5,74.3,179.5z"/>
	<path class="st2" d="M83.5,170c0.5,0,1,0.1,1.4,0.3c0.4,0.2,0.7,0.5,1,0.8c0.3,0.4,0.5,0.8,0.5,1.3h-1.1c0-0.3-0.1-0.5-0.3-0.7
		c-0.2-0.2-0.4-0.4-0.5-0.5c-0.3-0.1-0.5-0.2-0.8-0.2c-0.6,0-1.1,0.2-1.5,0.6c-0.4,0.5-0.5,1.1-0.5,2c0,0.8,0.2,1.5,0.5,1.9
		c0.4,0.5,0.8,0.7,1.6,0.7c0.4,0,0.6-0.1,0.8-0.2c0.3-0.1,0.5-0.3,0.5-0.5c0.2-0.2,0.3-0.5,0.3-0.6h1.1c-0.1,0.5-0.2,0.9-0.5,1.2
		c-0.3,0.4-0.5,0.6-1,0.8c-0.4,0.2-0.8,0.3-1.4,0.3c-0.6,0-1.2-0.2-1.6-0.5c-0.5-0.3-0.9-0.7-1.2-1.2c-0.3-0.5-0.5-1.2-0.5-2
		c0-0.7,0.1-1.4,0.4-1.9s0.6-1,1.1-1.3S82.8,170,83.5,170z"/>
	<path class="st2" d="M88.1,177.2v-10.1h1.3v4.1c0.1-0.2,0.3-0.4,0.5-0.5c0.2-0.2,0.5-0.3,0.7-0.5c0.3-0.1,0.6-0.2,1-0.2
		c0.5,0,0.9,0.1,1.3,0.3c0.4,0.2,0.6,0.5,0.9,0.7c0.2,0.3,0.4,0.7,0.4,1.1v5h-1.3v-4.8c0-0.5-0.2-0.7-0.5-1
		c-0.3-0.3-0.6-0.4-1.1-0.4c-0.3,0-0.6,0.1-0.9,0.2c-0.3,0.1-0.5,0.3-0.6,0.5s-0.3,0.5-0.3,0.8v4.8L88.1,177.2L88.1,177.2z"/>
	<path class="st2" d="M98.8,177.3c-0.6,0-1.2-0.2-1.7-0.5c-0.5-0.3-0.9-0.7-1.1-1.3c-0.2-0.5-0.4-1.2-0.4-2c0-0.7,0.1-1.4,0.4-1.9
		c0.3-0.5,0.6-1,1.1-1.3c0.5-0.3,1.1-0.5,1.7-0.5c0.6,0,1.2,0.2,1.7,0.5c0.5,0.3,0.8,0.7,1.1,1.3c0.3,0.5,0.4,1.2,0.4,2
		c0,0.7-0.1,1.4-0.4,1.9c-0.3,0.5-0.6,1-1.1,1.3C100.1,177.2,99.5,177.3,98.8,177.3z M98.8,176.3c0.5,0,0.8-0.1,1.1-0.4
		c0.3-0.2,0.5-0.5,0.6-0.9c0.2-0.4,0.2-0.9,0.2-1.5c0-0.5-0.1-1-0.2-1.4c-0.1-0.4-0.4-0.7-0.6-1s-0.6-0.4-1.1-0.4s-0.8,0.1-1.1,0.3
		s-0.5,0.5-0.6,0.9c-0.1,0.4-0.3,0.9-0.3,1.5c0,0.5,0.1,0.9,0.2,1.4c0.1,0.5,0.4,0.7,0.6,1C98,176.2,98.3,176.3,98.8,176.3z"/>
	<path class="st2" d="M107.1,173.2v1h-3.5v-1H107.1z"/>
	<path class="st2" d="M111.6,177.3c-0.5,0-0.9-0.1-1.4-0.3c-0.5-0.2-0.7-0.4-1.1-0.7c-0.3-0.4-0.5-0.7-0.5-1.3h1.2
		c0.1,0.3,0.2,0.5,0.4,0.7c0.2,0.2,0.4,0.4,0.6,0.5c0.3,0.1,0.5,0.2,0.8,0.2c0.5,0,0.8-0.1,1.2-0.3c0.3-0.2,0.5-0.5,0.5-0.8
		c0-0.3-0.1-0.5-0.3-0.6c-0.2-0.2-0.4-0.3-0.7-0.4l-1.5-0.4c-0.5-0.2-1-0.4-1.4-0.6c-0.4-0.3-0.5-0.7-0.5-1.2c0-0.5,0.1-0.8,0.3-1.1
		c0.2-0.3,0.5-0.5,0.9-0.7c0.4-0.2,0.9-0.3,1.5-0.3c0.7,0,1.4,0.2,1.8,0.5c0.5,0.4,0.7,0.8,0.7,1.6H113c-0.1-0.4-0.2-0.6-0.5-0.8
		c-0.3-0.2-0.6-0.3-1-0.3c-0.5,0-0.8,0.1-1.1,0.3c-0.3,0.2-0.5,0.5-0.5,0.8c0,0.3,0.1,0.5,0.3,0.5c0.2,0.2,0.5,0.3,0.9,0.4l1.5,0.4
		c0.4,0.1,0.6,0.2,0.8,0.4c0.2,0.2,0.4,0.3,0.5,0.5c0.1,0.2,0.2,0.4,0.3,0.5c0.1,0.2,0.1,0.4,0.1,0.5c0,0.5-0.1,0.8-0.4,1.1
		c-0.2,0.3-0.5,0.5-0.9,0.7C112.7,177.3,112.1,177.3,111.6,177.3z"/>
	<path class="st2" d="M118.9,177.3c-0.6,0-1.2-0.2-1.7-0.5c-0.5-0.3-0.9-0.7-1.1-1.3c-0.2-0.5-0.4-1.2-0.4-2c0-0.7,0.1-1.4,0.4-1.9
		s0.6-1,1.1-1.3c0.5-0.3,1.1-0.5,1.7-0.5c0.6,0,1.2,0.2,1.7,0.5c0.5,0.3,0.8,0.7,1.1,1.3c0.3,0.5,0.4,1.2,0.4,2
		c0,0.7-0.1,1.4-0.4,1.9c-0.3,0.5-0.6,1-1.1,1.3C120.2,177.2,119.6,177.3,118.9,177.3z M118.9,176.3c0.5,0,0.8-0.1,1.1-0.4
		c0.3-0.2,0.5-0.5,0.6-0.9c0.2-0.4,0.2-0.9,0.2-1.5c0-0.5-0.1-1-0.2-1.4c-0.1-0.4-0.4-0.7-0.6-1c-0.3-0.3-0.6-0.4-1.1-0.4
		s-0.8,0.1-1.1,0.3c-0.3,0.2-0.5,0.5-0.6,0.9c-0.1,0.4-0.3,0.9-0.3,1.5c0,0.5,0.1,0.9,0.2,1.4c0.1,0.5,0.4,0.7,0.6,1
		C118.1,176.2,118.4,176.3,118.9,176.3z"/>
	<path class="st2" d="M126.6,170c0.5,0,1,0.1,1.4,0.3c0.4,0.2,0.7,0.5,1,0.8c0.3,0.4,0.5,0.8,0.5,1.3h-1.1c0-0.3-0.1-0.5-0.3-0.7
		c-0.2-0.2-0.4-0.4-0.5-0.5c-0.3-0.1-0.5-0.2-0.8-0.2c-0.6,0-1.1,0.2-1.5,0.6c-0.4,0.5-0.5,1.1-0.5,2c0,0.8,0.2,1.5,0.5,1.9
		c0.4,0.5,0.8,0.7,1.6,0.7c0.4,0,0.6-0.1,0.8-0.2c0.3-0.1,0.5-0.3,0.5-0.5c0.2-0.2,0.3-0.5,0.3-0.6h1.1c-0.1,0.5-0.2,0.9-0.5,1.2
		c-0.3,0.4-0.5,0.6-1,0.8c-0.4,0.2-0.8,0.3-1.4,0.3c-0.6,0-1.2-0.2-1.6-0.5c-0.5-0.3-0.9-0.7-1.2-1.2c-0.3-0.5-0.5-1.2-0.5-2
		c0-0.7,0.1-1.4,0.4-1.9c0.3-0.5,0.6-1,1.1-1.3C125.3,170.2,125.9,170,126.6,170z"/>
	<path class="st2" d="M132.6,167.3v1.3h-1.3v-1.3H132.6z M132.5,170.1v7.1h-1.2v-7.1H132.5z"/>
	<path class="st2" d="M136.7,177.3c-0.5,0-0.8-0.1-1.2-0.3c-0.4-0.2-0.6-0.4-0.8-0.7c-0.2-0.3-0.3-0.6-0.3-1.1
		c0-0.8,0.3-1.4,0.8-1.7c0.5-0.4,1.5-0.5,2.7-0.6h1.3v-0.5c0-0.5-0.1-0.8-0.4-1s-0.6-0.4-1.2-0.4c-0.4,0-0.7,0.1-1.1,0.3
		c-0.3,0.2-0.5,0.5-0.6,0.9h-1.2c0-0.5,0.2-0.8,0.4-1.2c0.3-0.3,0.5-0.5,1-0.7c0.5-0.2,0.9-0.3,1.5-0.3c0.6,0,1.1,0.1,1.6,0.3
		c0.4,0.2,0.7,0.5,0.9,0.7c0.2,0.3,0.3,0.7,0.3,1.3v4.9h-1l-0.1-1.4c-0.3,0.5-0.6,0.9-1,1.2C137.7,177.2,137.3,177.3,136.7,177.3z
		 M137.1,176.4c0.3,0,0.5,0,0.7-0.1c0.3-0.1,0.5-0.2,0.6-0.4s0.4-0.3,0.5-0.5s0.2-0.4,0.2-0.5v-1.2H138c-0.5,0-1,0.1-1.4,0.2
		c-0.4,0.1-0.6,0.3-0.8,0.5s-0.3,0.5-0.3,0.8c0,0.4,0.2,0.7,0.5,0.9C136.4,176.3,136.7,176.4,137.1,176.4z"/>
	<path class="st2" d="M144.3,177.3c-0.4,0-0.7-0.1-0.9-0.2c-0.3-0.1-0.5-0.3-0.5-0.5c-0.1-0.2-0.2-0.4-0.3-0.6
		c0-0.3-0.1-0.5-0.1-0.7V167h1.3v8.2c0,0.4,0.1,0.6,0.2,0.8c0.2,0.2,0.4,0.3,0.5,0.3h0.4v0.8c-0.1,0-0.2,0.1-0.4,0.1
		S144.4,177.3,144.3,177.3z"/>
	<path class="st2" d="M152.4,170c0.5,0,1,0.1,1.4,0.3c0.4,0.2,0.7,0.5,1,0.8c0.3,0.4,0.5,0.8,0.5,1.3h-1.1c0-0.3-0.1-0.5-0.3-0.7
		c-0.2-0.2-0.4-0.4-0.5-0.5c-0.3-0.1-0.5-0.2-0.8-0.2c-0.6,0-1.1,0.2-1.5,0.6c-0.4,0.5-0.5,1.1-0.5,2c0,0.8,0.2,1.5,0.5,1.9
		c0.4,0.5,0.8,0.7,1.6,0.7c0.4,0,0.6-0.1,0.8-0.2c0.3-0.1,0.5-0.3,0.5-0.5c0.2-0.2,0.3-0.5,0.3-0.6h1.1c-0.1,0.5-0.2,0.9-0.5,1.2
		c-0.3,0.4-0.5,0.6-1,0.8c-0.4,0.2-0.8,0.3-1.4,0.3c-0.6,0-1.2-0.2-1.6-0.5c-0.5-0.3-0.9-0.7-1.2-1.2c-0.3-0.5-0.5-1.2-0.5-2
		c0-0.7,0.1-1.4,0.4-1.9c0.3-0.5,0.6-1,1.1-1.3C151.1,170.2,151.7,170,152.4,170z"/>
	<path class="st2" d="M158.8,177.3c-0.5,0-0.8-0.1-1.2-0.3c-0.4-0.2-0.6-0.4-0.8-0.7c-0.2-0.3-0.3-0.6-0.3-1.1
		c0-0.8,0.3-1.4,0.8-1.7c0.5-0.4,1.5-0.5,2.7-0.6h1.3v-0.5c0-0.5-0.1-0.8-0.4-1c-0.3-0.2-0.6-0.4-1.2-0.4c-0.4,0-0.7,0.1-1.1,0.3
		c-0.3,0.2-0.5,0.5-0.6,0.9h-1.1c0-0.5,0.2-0.8,0.4-1.2c0.2-0.4,0.5-0.5,1-0.7c0.5-0.2,0.9-0.3,1.5-0.3c0.6,0,1.1,0.1,1.6,0.3
		c0.4,0.2,0.7,0.5,0.9,0.7c0.2,0.3,0.3,0.7,0.3,1.3v4.9h-1.1l-0.1-1.4c-0.3,0.5-0.6,0.9-1,1.2C159.9,177.2,159.4,177.3,158.8,177.3z
		 M159.2,176.4c0.3,0,0.5,0,0.7-0.1s0.5-0.2,0.6-0.4s0.4-0.3,0.5-0.5s0.2-0.4,0.2-0.5v-1.2h-1.1c-0.5,0-1,0.1-1.4,0.2
		c-0.4,0.1-0.6,0.3-0.8,0.5c-0.2,0.2-0.3,0.5-0.3,0.8c0,0.4,0.2,0.7,0.5,0.9C158.5,176.3,158.8,176.4,159.2,176.4z"/>
	<path class="st2" d="M164.6,177.2v-7.1h1.2v1.4c0.1-0.4,0.3-0.6,0.5-0.8s0.5-0.4,0.7-0.5s0.5-0.2,0.8-0.2c0.1,0,0.2,0,0.3,0
		c0.1,0,0.2,0,0.3,0.1v1.2c-0.1,0-0.2-0.1-0.3-0.1c-0.1,0-0.2,0-0.3,0c-0.3,0-0.5,0-0.8,0.1c-0.3,0.1-0.5,0.2-0.6,0.3
		s-0.4,0.3-0.5,0.5c-0.1,0.2-0.2,0.5-0.2,0.7v4.4L164.6,177.2L164.6,177.2z"/>
	<path class="st2" d="M170.7,174c0,0.5,0.1,0.8,0.2,1.2c0.2,0.4,0.4,0.6,0.6,0.8s0.6,0.4,1.1,0.4c0.5,0,0.8-0.1,1.2-0.3
		c0.4-0.2,0.5-0.5,0.6-0.9h1.2c-0.1,0.5-0.3,0.9-0.5,1.2c-0.3,0.4-0.6,0.5-1.1,0.7c-0.5,0.2-0.8,0.3-1.3,0.3c-0.6,0-1.3-0.2-1.7-0.5
		c-0.5-0.3-0.9-0.7-1.2-1.3c-0.3-0.5-0.5-1.2-0.5-1.9c0-0.7,0.1-1.4,0.4-1.9c0.3-0.5,0.6-1,1.1-1.3c0.5-0.3,1.1-0.5,1.7-0.5
		c0.6,0,1.2,0.2,1.7,0.5c0.5,0.3,0.8,0.7,1.1,1.2c0.3,0.5,0.4,1.2,0.4,1.8v0.5H170.7z M170.7,173.1h3.8c0-0.4-0.1-0.7-0.2-1.1
		c-0.1-0.4-0.4-0.5-0.6-0.7c-0.3-0.2-0.6-0.3-1.1-0.3c-0.5,0-0.8,0.1-1.1,0.3s-0.5,0.5-0.6,0.8C170.7,172.4,170.7,172.8,170.7,173.1
		z"/>
	<path class="st2" d="M184.2,171h-1.6v4.4c0,0.3,0,0.5,0.1,0.5s0.2,0.2,0.3,0.2s0.3,0.1,0.5,0.1h0.7v0.8c-0.1,0-0.2,0.1-0.4,0.1
		s-0.4,0-0.6,0c-0.5,0-0.9-0.1-1.1-0.2c-0.2-0.1-0.5-0.4-0.5-0.5c-0.1-0.2-0.2-0.5-0.2-0.9V171h-1.2v-0.9h1.2l0.3-2.1h0.9v2h1.6
		L184.2,171L184.2,171z"/>
	<path class="st2" d="M188.6,177.3c-0.6,0-1.2-0.2-1.7-0.5c-0.5-0.3-0.9-0.7-1.1-1.3c-0.3-0.5-0.4-1.2-0.4-2c0-0.7,0.1-1.4,0.4-1.9
		c0.3-0.5,0.6-1,1.1-1.3c0.5-0.3,1.1-0.5,1.7-0.5c0.6,0,1.2,0.2,1.7,0.5s0.8,0.7,1.1,1.3c0.3,0.5,0.4,1.2,0.4,2
		c0,0.7-0.1,1.4-0.4,1.9c-0.3,0.5-0.6,1-1.1,1.3C189.9,177.2,189.4,177.3,188.6,177.3z M188.6,176.3c0.5,0,0.8-0.1,1.1-0.4
		c0.3-0.2,0.5-0.5,0.6-0.9c0.2-0.4,0.2-0.9,0.2-1.5c0-0.5-0.1-1-0.2-1.4c-0.1-0.4-0.4-0.7-0.6-1c-0.3-0.3-0.6-0.4-1.1-0.4
		c-0.5,0-0.8,0.1-1.1,0.3s-0.5,0.5-0.6,0.9c-0.2,0.4-0.3,0.9-0.3,1.5c0,0.5,0.1,0.9,0.2,1.4c0.1,0.5,0.4,0.7,0.6,1
		S188.2,176.3,188.6,176.3z"/>
	<path class="st2" d="M198.5,177.3c-0.5,0-0.8-0.1-1.2-0.3c-0.4-0.2-0.6-0.4-0.8-0.7c-0.2-0.3-0.3-0.6-0.3-1.1
		c0-0.8,0.3-1.4,0.8-1.7c0.5-0.4,1.5-0.5,2.7-0.6h1.3v-0.5c0-0.5-0.1-0.8-0.4-1s-0.6-0.4-1.2-0.4c-0.4,0-0.7,0.1-1.1,0.3
		c-0.3,0.2-0.5,0.5-0.6,0.9h-1.1c0-0.5,0.2-0.8,0.4-1.2c0.2-0.4,0.5-0.5,1-0.7s0.9-0.3,1.5-0.3c0.6,0,1.1,0.1,1.6,0.3
		c0.4,0.2,0.7,0.5,0.9,0.7c0.2,0.3,0.3,0.7,0.3,1.3v4.9h-1.1l-0.1-1.4c-0.3,0.5-0.6,0.9-1,1.2C199.5,177.2,199.1,177.3,198.5,177.3z
		 M199,176.4c0.3,0,0.5,0,0.7-0.1c0.3-0.1,0.5-0.2,0.6-0.4s0.4-0.3,0.5-0.5s0.2-0.4,0.2-0.5v-1.2h-1.1c-0.5,0-1,0.1-1.4,0.2
		c-0.4,0.1-0.6,0.3-0.8,0.5s-0.3,0.5-0.3,0.8c0,0.4,0.2,0.7,0.5,0.9C198.2,176.3,198.5,176.4,199,176.4z"/>
	<path class="st2" d="M206.1,177.3c-0.4,0-0.7-0.1-0.9-0.2s-0.5-0.3-0.5-0.5c-0.1-0.2-0.2-0.4-0.3-0.6c0-0.3-0.1-0.5-0.1-0.7V167
		h1.3v8.2c0,0.4,0.1,0.6,0.2,0.8c0.2,0.2,0.4,0.3,0.5,0.3h0.4v0.8c-0.1,0-0.2,0.1-0.4,0.1S206.2,177.3,206.1,177.3z"/>
	<path class="st2" d="M210,177.3c-0.4,0-0.7-0.1-0.9-0.2s-0.5-0.3-0.5-0.5c-0.1-0.2-0.2-0.4-0.3-0.6c0-0.3-0.1-0.5-0.1-0.7V167h1.3
		v8.2c0,0.4,0.1,0.6,0.2,0.8c0.2,0.2,0.4,0.3,0.5,0.3h0.4v0.8c-0.1,0-0.2,0.1-0.4,0.1C210,177.2,210.1,177.3,210,177.3z"/>
	<path class="st2" d="M213.1,174c0,0.5,0.1,0.8,0.2,1.2c0.2,0.4,0.4,0.6,0.6,0.8s0.6,0.4,1.1,0.4s0.8-0.1,1.2-0.3s0.5-0.5,0.6-0.9
		h1.2c-0.1,0.5-0.3,0.9-0.5,1.2c-0.3,0.4-0.6,0.5-1.1,0.7c-0.5,0.2-0.8,0.3-1.3,0.3c-0.6,0-1.3-0.2-1.7-0.5
		c-0.5-0.3-0.9-0.7-1.2-1.3s-0.5-1.2-0.5-1.9c0-0.7,0.1-1.4,0.4-1.9c0.3-0.5,0.6-1,1.1-1.3c0.5-0.3,1.1-0.5,1.7-0.5
		c0.6,0,1.2,0.2,1.7,0.5c0.5,0.3,0.8,0.7,1.1,1.2c0.3,0.5,0.4,1.2,0.4,1.8v0.5H213.1z M213.1,173.1h3.8c0-0.4-0.1-0.7-0.2-1.1
		c-0.1-0.4-0.4-0.5-0.6-0.7c-0.3-0.2-0.6-0.3-1.1-0.3s-0.8,0.1-1.1,0.3s-0.5,0.5-0.6,0.8C213.1,172.4,213.1,172.8,213.1,173.1z"/>
	<path class="st2" d="M225.2,170.1l-2.6,7.1h-1.1l-2.6-7.1h1.2l1.9,5.5h0.1l1.9-5.5H225.2z"/>
	<path class="st2" d="M228,167.3v1.3h-1.3v-1.3H228z M228,170.1v7.1h-1.2v-7.1H228z"/>
	<path class="st2" d="M232.2,177.3c-0.5,0-0.8-0.1-1.2-0.3s-0.6-0.4-0.8-0.7c-0.2-0.3-0.3-0.6-0.3-1.1c0-0.8,0.3-1.4,0.8-1.7
		c0.5-0.4,1.5-0.5,2.7-0.6h1.3v-0.5c0-0.5-0.1-0.8-0.4-1s-0.6-0.4-1.2-0.4c-0.4,0-0.7,0.1-1.1,0.3c-0.3,0.2-0.5,0.5-0.6,0.9h-1.1
		c0-0.5,0.2-0.8,0.4-1.2c0.2-0.4,0.5-0.5,1-0.7c0.5-0.2,0.9-0.3,1.5-0.3c0.6,0,1.1,0.1,1.6,0.3c0.4,0.2,0.7,0.5,0.9,0.7
		c0.2,0.3,0.3,0.7,0.3,1.3v4.9h-1.1l-0.1-1.4c-0.3,0.5-0.6,0.9-1,1.2C233.1,177.2,232.6,177.3,232.2,177.3z M232.5,176.4
		c0.3,0,0.5,0,0.7-0.1c0.3-0.1,0.5-0.2,0.6-0.4s0.4-0.3,0.5-0.5s0.2-0.4,0.2-0.5v-1.2h-1.1c-0.5,0-1,0.1-1.4,0.2
		c-0.4,0.1-0.6,0.3-0.8,0.5s-0.3,0.5-0.3,0.8c0,0.4,0.2,0.7,0.5,0.9C231.7,176.3,232.1,176.4,232.5,176.4z"/>
	<path class="st2" d="M241.2,171h-1.6v4.4c0,0.3,0,0.5,0.1,0.5s0.2,0.2,0.3,0.2s0.3,0.1,0.5,0.1h0.7v0.8c-0.1,0-0.2,0.1-0.4,0.1
		s-0.4,0-0.6,0c-0.5,0-0.9-0.1-1.1-0.2s-0.5-0.4-0.5-0.5c-0.1-0.2-0.2-0.5-0.2-0.9V171h-1.2v-0.9h1.2l0.3-2.1h0.9v2h1.6L241.2,171
		L241.2,171z"/>
	<path class="st2" d="M243.8,174c0,0.5,0.1,0.8,0.2,1.2c0.2,0.4,0.4,0.6,0.6,0.8c0.3,0.2,0.6,0.4,1.1,0.4s0.8-0.1,1.2-0.3
		s0.5-0.5,0.6-0.9h1.2c-0.1,0.5-0.3,0.9-0.5,1.2c-0.3,0.4-0.6,0.5-1.1,0.7s-0.8,0.3-1.3,0.3c-0.6,0-1.3-0.2-1.7-0.5
		c-0.5-0.3-0.9-0.7-1.2-1.3s-0.5-1.2-0.5-1.9c0-0.7,0.1-1.4,0.4-1.9c0.3-0.5,0.6-1,1.1-1.3c0.5-0.3,1.1-0.5,1.7-0.5s1.2,0.2,1.7,0.5
		c0.5,0.3,0.8,0.7,1,1.2c0.3,0.5,0.4,1.2,0.4,1.8v0.5H243.8z M243.8,173.1h3.8c0-0.4-0.1-0.7-0.2-1.1c-0.1-0.4-0.4-0.5-0.6-0.7
		s-0.6-0.3-1.1-0.3s-0.8,0.1-1.1,0.3c-0.3,0.2-0.5,0.5-0.6,0.8C243.8,172.4,243.8,172.8,243.8,173.1z"/>
	<path class="st2" d="M114.7,187.5h-1.6v4.4c0,0.3,0,0.5,0.1,0.5c0.1,0.1,0.2,0.2,0.3,0.2c0.1,0,0.3,0.1,0.5,0.1h0.7v0.8
		c-0.1,0-0.2,0.1-0.4,0.1c-0.2,0-0.4,0-0.6,0c-0.5,0-0.8-0.1-1.1-0.2c-0.3-0.1-0.5-0.4-0.5-0.5c-0.1-0.3-0.2-0.5-0.2-0.9v-4.5h-1.2
		v-0.9h1.2l0.3-2.1h0.9v2h1.6L114.7,187.5L114.7,187.5z"/>
	<path class="st2" d="M116.5,193.7v-10.1h1.3v4.1c0.1-0.2,0.3-0.4,0.5-0.5c0.2-0.2,0.5-0.3,0.7-0.5c0.3-0.1,0.6-0.2,1-0.2
		c0.5,0,0.9,0.1,1.3,0.3c0.4,0.2,0.6,0.5,0.9,0.7c0.2,0.3,0.4,0.7,0.4,1.1v5h-1.3v-4.8c0-0.5-0.2-0.7-0.5-1
		c-0.3-0.3-0.6-0.4-1.1-0.4c-0.3,0-0.6,0.1-0.9,0.2c-0.3,0.1-0.5,0.3-0.6,0.5c-0.1,0.2-0.3,0.5-0.3,0.8v4.8L116.5,193.7L116.5,193.7
		z"/>
	<path class="st2" d="M125.3,190.4c0,0.5,0.1,0.8,0.2,1.2c0.2,0.4,0.4,0.6,0.6,0.8c0.3,0.2,0.6,0.4,1.1,0.4c0.5,0,0.8-0.1,1.2-0.3
		s0.5-0.5,0.6-0.9h1.2c-0.1,0.5-0.3,0.9-0.5,1.2c-0.3,0.4-0.6,0.5-1.1,0.7c-0.5,0.2-0.8,0.3-1.3,0.3c-0.6,0-1.3-0.2-1.7-0.5
		c-0.5-0.3-0.9-0.7-1.2-1.3c-0.3-0.5-0.5-1.2-0.5-1.9c0-0.7,0.1-1.4,0.4-1.9c0.3-0.5,0.6-1,1.1-1.3c0.5-0.3,1.1-0.5,1.7-0.5
		c0.6,0,1.2,0.2,1.7,0.5c0.5,0.3,0.8,0.7,1.1,1.2c0.3,0.5,0.4,1.2,0.4,1.8v0.5H125.3z M125.3,189.6h3.8c0-0.4-0.1-0.7-0.2-1.1
		c-0.1-0.4-0.4-0.5-0.6-0.7c-0.3-0.2-0.6-0.3-1.1-0.3c-0.5,0-0.8,0.1-1.1,0.3c-0.3,0.2-0.5,0.5-0.6,0.8
		C125.4,188.9,125.3,189.2,125.3,189.6z"/>
	<path class="st2" d="M133.5,183.7v1.3h-1.3v-1.3H133.5z M133.5,186.6v7.1h-1.2v-7.1H133.5z"/>
	<path class="st2" d="M135.8,193.7v-7.1h1.2v1.4c0.1-0.4,0.3-0.6,0.5-0.8s0.5-0.4,0.7-0.5c0.3-0.1,0.5-0.2,0.8-0.2
		c0.1,0,0.2,0,0.3,0c0.1,0,0.2,0,0.3,0.1v1.2c-0.1,0-0.2-0.1-0.3-0.1c-0.1,0-0.2,0-0.3,0c-0.3,0-0.5,0-0.8,0.1s-0.5,0.2-0.6,0.3
		c-0.2,0.1-0.4,0.3-0.5,0.5c-0.1,0.2-0.2,0.5-0.2,0.7v4.4L135.8,193.7L135.8,193.7z"/>
	<path class="st2" d="M146.7,193.8c-0.9,0-1.6-0.3-2.2-0.9c-0.5-0.6-0.8-1.6-0.8-2.7c0-0.7,0.1-1.4,0.4-1.9c0.2-0.5,0.5-1,1-1.3
		c0.5-0.3,1-0.5,1.6-0.5c0.4,0,0.6,0,0.9,0.1c0.3,0.1,0.5,0.2,0.6,0.4c0.2,0.1,0.4,0.3,0.5,0.5s0.2,0.3,0.3,0.4v-4.2h1.3v10.1h-1
		l-0.2-1.5c0,0.1-0.1,0.3-0.2,0.5c-0.1,0.2-0.3,0.4-0.5,0.5c-0.2,0.2-0.5,0.3-0.7,0.5C147.4,193.9,147.1,193.8,146.7,193.8z
		 M146.9,192.9c0.7,0,1.2-0.2,1.6-0.6c0.3-0.5,0.5-1.2,0.5-2.1c0-0.5-0.1-1-0.2-1.4c-0.1-0.4-0.4-0.6-0.6-0.9
		c-0.3-0.3-0.6-0.3-1.1-0.3c-0.5,0-1.1,0.2-1.5,0.6c-0.4,0.5-0.5,1.1-0.5,2c0,0.9,0.2,1.6,0.5,2.1
		C145.8,192.6,146.3,192.9,146.9,192.9z"/>
	<path class="st2" d="M153.8,183.7v1.3h-1.3v-1.3H153.8z M153.7,186.6v7.1h-1.2v-7.1H153.7z"/>
	<path class="st2" d="M158.5,193.8c-0.5,0-0.9-0.1-1.4-0.3s-0.7-0.4-1.1-0.7c-0.3-0.4-0.5-0.7-0.5-1.3h1.2c0.1,0.3,0.2,0.5,0.4,0.7
		s0.4,0.4,0.6,0.5c0.3,0.1,0.5,0.2,0.8,0.2c0.5,0,0.8-0.1,1.2-0.3c0.3-0.2,0.5-0.5,0.5-0.8c0-0.3-0.1-0.5-0.3-0.6
		c-0.2-0.2-0.4-0.3-0.7-0.4l-1.5-0.4c-0.5-0.2-1-0.4-1.4-0.6c-0.4-0.3-0.5-0.7-0.5-1.2s0.1-0.8,0.3-1.1s0.5-0.5,0.9-0.7
		c0.4-0.2,0.9-0.3,1.5-0.3c0.7,0,1.4,0.2,1.8,0.5s0.7,0.8,0.7,1.6h-1.1c0-0.4-0.2-0.6-0.5-0.8c-0.3-0.2-0.6-0.3-1-0.3
		c-0.5,0-0.8,0.1-1.1,0.3s-0.5,0.5-0.5,0.8c0,0.3,0.1,0.5,0.3,0.5c0.2,0.2,0.5,0.3,0.9,0.4l1.5,0.4c0.4,0.1,0.6,0.2,0.8,0.4
		s0.4,0.3,0.5,0.5c0.1,0.2,0.2,0.4,0.3,0.5s0.1,0.4,0.1,0.5c0,0.5-0.1,0.8-0.4,1.1c-0.2,0.3-0.5,0.5-0.9,0.7S159,193.8,158.5,193.8z
		"/>
	<path class="st2" d="M166.4,187.5h-1.6v4.4c0,0.3,0,0.5,0.1,0.5c0.1,0.1,0.2,0.2,0.3,0.2c0.1,0,0.3,0.1,0.5,0.1h0.7v0.8
		c-0.1,0-0.2,0.1-0.4,0.1s-0.4,0-0.6,0c-0.5,0-0.9-0.1-1.1-0.2s-0.5-0.4-0.5-0.5s-0.2-0.5-0.2-0.9v-4.5h-1.2v-0.9h1.2l0.3-2.1h0.9v2
		h1.6L166.4,187.5L166.4,187.5z"/>
	<path class="st2" d="M168.3,193.7v-7.1h1.2v1.4c0.1-0.4,0.3-0.6,0.5-0.8s0.5-0.4,0.7-0.5c0.3-0.1,0.5-0.2,0.8-0.2
		c0.1,0,0.2,0,0.3,0s0.2,0,0.3,0.1v1.2c-0.1,0-0.2-0.1-0.3-0.1s-0.2,0-0.3,0c-0.3,0-0.5,0-0.8,0.1c-0.3,0.1-0.5,0.2-0.6,0.3
		c-0.2,0.1-0.4,0.3-0.5,0.5c-0.1,0.2-0.2,0.5-0.2,0.7v4.4L168.3,193.7L168.3,193.7z"/>
	<path class="st2" d="M174.3,190.4c0,0.5,0.1,0.8,0.2,1.2c0.2,0.4,0.4,0.6,0.6,0.8c0.3,0.2,0.6,0.4,1.1,0.4s0.8-0.1,1.2-0.3
		c0.4-0.2,0.5-0.5,0.6-0.9h1.2c-0.1,0.5-0.3,0.9-0.5,1.2c-0.3,0.4-0.6,0.5-1.1,0.7s-0.8,0.3-1.3,0.3c-0.6,0-1.3-0.2-1.7-0.5
		c-0.5-0.3-0.9-0.7-1.2-1.3c-0.3-0.5-0.5-1.2-0.5-1.9c0-0.7,0.1-1.4,0.4-1.9c0.3-0.5,0.6-1,1.1-1.3s1.1-0.5,1.7-0.5s1.2,0.2,1.7,0.5
		c0.5,0.3,0.8,0.7,1.1,1.2c0.3,0.5,0.4,1.2,0.4,1.8v0.5H174.3z M174.3,189.6h3.8c0-0.4-0.1-0.7-0.2-1.1c-0.1-0.4-0.4-0.5-0.6-0.7
		s-0.6-0.3-1.1-0.3s-0.8,0.1-1.1,0.3c-0.3,0.2-0.5,0.5-0.6,0.8C174.4,188.9,174.3,189.2,174.3,189.6z"/>
	<path class="st2" d="M183.6,193.8c-0.5,0-0.9-0.1-1.4-0.3c-0.5-0.2-0.7-0.4-1.1-0.7c-0.4-0.4-0.5-0.7-0.5-1.3h1.2
		c0.1,0.3,0.2,0.5,0.4,0.7s0.4,0.4,0.6,0.5c0.3,0.1,0.5,0.2,0.8,0.2c0.5,0,0.8-0.1,1.2-0.3c0.3-0.2,0.5-0.5,0.5-0.8
		c0-0.3-0.1-0.5-0.3-0.6c-0.2-0.2-0.4-0.3-0.7-0.4l-1.5-0.4c-0.5-0.2-1-0.4-1.4-0.6c-0.4-0.3-0.5-0.7-0.5-1.2s0.1-0.8,0.3-1.1
		s0.5-0.5,0.9-0.7c0.4-0.2,0.9-0.3,1.5-0.3c0.7,0,1.4,0.2,1.8,0.5c0.5,0.4,0.7,0.8,0.7,1.6H185c0-0.4-0.2-0.6-0.5-0.8
		s-0.6-0.3-1-0.3c-0.5,0-0.8,0.1-1.1,0.3c-0.3,0.2-0.5,0.5-0.5,0.8c0,0.3,0.1,0.5,0.3,0.5c0.2,0.2,0.5,0.3,0.9,0.4l1.5,0.4
		c0.4,0.1,0.6,0.2,0.8,0.4c0.2,0.2,0.4,0.3,0.5,0.5c0.1,0.2,0.2,0.4,0.3,0.5s0.1,0.4,0.1,0.5c0,0.5-0.1,0.8-0.4,1.1
		c-0.2,0.3-0.5,0.5-0.9,0.7C184.7,193.8,184.2,193.8,183.6,193.8z"/>
	<path class="st2" d="M190.5,193.8c-0.5,0-0.9-0.1-1.4-0.3s-0.7-0.4-1.1-0.7c-0.4-0.4-0.5-0.7-0.5-1.3h1.2c0.1,0.3,0.2,0.5,0.4,0.7
		s0.4,0.4,0.6,0.5c0.3,0.1,0.5,0.2,0.8,0.2c0.5,0,0.8-0.1,1.2-0.3c0.3-0.2,0.5-0.5,0.5-0.8c0-0.3-0.1-0.5-0.3-0.6
		c-0.2-0.2-0.4-0.3-0.7-0.4l-1.5-0.4c-0.5-0.2-1-0.4-1.4-0.6c-0.4-0.3-0.5-0.7-0.5-1.2s0.1-0.8,0.3-1.1s0.5-0.5,0.9-0.7
		c0.4-0.2,0.9-0.3,1.5-0.3c0.7,0,1.4,0.2,1.8,0.5s0.7,0.8,0.7,1.6h-1.1c0-0.4-0.2-0.6-0.5-0.8c-0.3-0.2-0.6-0.3-1-0.3
		c-0.5,0-0.8,0.1-1.1,0.3s-0.5,0.5-0.5,0.8c0,0.3,0.1,0.5,0.3,0.5c0.2,0.2,0.5,0.3,0.9,0.4l1.5,0.4c0.4,0.1,0.6,0.2,0.8,0.4
		s0.4,0.3,0.5,0.5c0.1,0.2,0.2,0.4,0.3,0.5s0.1,0.4,0.1,0.5c0,0.5-0.1,0.8-0.4,1.1c-0.2,0.3-0.5,0.5-0.9,0.7
		S191.1,193.8,190.5,193.8z"/>
	<path class="st2" d="M194.7,193.7v-1.6h1.5v1.6H194.7z"/>
</g>
<line class="st3" x1="28" y1="122.5" x2="279" y2="122.5"/>
</svg>
