<?xml version="1.0" encoding="utf-8"?>
<!-- Generator: Adobe Illustrator 24.3.0, SVG Export Plug-In . SVG Version: 6.00 Build 0)  -->
<svg version="1.1" id="Layer_1" xmlns="http://www.w3.org/2000/svg" xmlns:xlink="http://www.w3.org/1999/xlink" x="0px" y="0px"
	 viewBox="0 0 307 137.4" style="enable-background:new 0 0 307 137.4;" xml:space="preserve">
<style type="text/css">
	.st0{fill:none;stroke:#DD7362;stroke-miterlimit:10;}
	.st1{fill:#1F4BA0;}
	.st2{fill:none;stroke:#1F4BA0;stroke-miterlimit:10;stroke-dasharray:3;}
</style>
<g>
	<circle class="st0" cx="153" cy="27.4" r="8.2"/>
	<path class="st0" d="M143.4,114.7c0,2.5,2.1,4.6,4.6,4.6s4.6-2.1,4.6-4.6V76.3h2v38.4c0,2.5,2,4.6,4.6,4.6s4.6-2.1,4.6-4.6V48.5h2
		v24.4c0,4.9,6.4,4.9,6.4,0V48c0-5.4-3.2-10.7-9.5-10.7h-18.3c-5.8,0-9.4,4.7-9.4,10.6v25c0,4.9,6.4,4.9,6.4,0V48.6h2L143.4,114.7z"
		/>
	<circle class="st0" cx="203" cy="27.4" r="8.2"/>
	<path class="st0" d="M193.4,114.7c0,2.5,2.1,4.6,4.6,4.6s4.6-2.1,4.6-4.6V76.3h2v38.4c0,2.5,2,4.6,4.6,4.6s4.6-2.1,4.6-4.6V48.5h2
		v24.4c0,4.9,6.4,4.9,6.4,0V48c0-5.4-3.2-10.7-9.5-10.7h-18.3c-5.8,0-9.4,4.7-9.4,10.6v25c0,4.9,6.4,4.9,6.4,0V48.6h2L193.4,114.7z"
		/>
	<circle class="st0" cx="103" cy="27.4" r="8.2"/>
	<path class="st0" d="M93.4,114.7c0,2.5,2.1,4.6,4.6,4.6s4.6-2.1,4.6-4.6V76.3h2v38.4c0,2.5,2,4.6,4.6,4.6c2.5,0,4.6-2.1,4.6-4.6
		V48.5h2v24.4c0,4.9,6.4,4.9,6.4,0V48c0-5.4-3.2-10.7-9.5-10.7H94.4c-5.8,0-9.4,4.7-9.4,10.6v25c0,4.9,6.4,4.9,6.4,0V48.6h2V114.7z"
		/>
	<ellipse transform="matrix(0.3755 -0.9268 0.9268 0.3755 132.6223 251.5942)" class="st1" cx="253" cy="27.4" rx="8.2" ry="8.2"/>
	<path class="st1" d="M243.4,114.7c0,2.5,2.1,4.6,4.6,4.6s4.6-2.1,4.6-4.6V76.3h2v38.4c0,2.5,2,4.6,4.6,4.6s4.6-2.1,4.6-4.6V48.5h2
		v24.4c0,4.9,6.4,4.9,6.4,0V48c0-5.4-3.2-10.7-9.5-10.7h-18.3c-5.8,0-9.4,4.7-9.4,10.6v25c0,4.9,6.4,4.9,6.4,0V48.6h2L243.4,114.7z"
		/>
	<circle class="st0" cx="53" cy="27.4" r="8.2"/>
	<path class="st0" d="M43.4,114.7c0,2.5,2,4.6,4.6,4.6c2.5,0,4.6-2.1,4.6-4.6V76.3h2v38.4c0,2.5,2,4.6,4.6,4.6
		c2.5,0,4.6-2.1,4.6-4.6V48.5h2v24.4c0,4.9,6.4,4.9,6.4,0V48c0-5.4-3.2-10.7-9.5-10.7H44.4c-5.8,0-9.4,4.7-9.4,10.6v25
		c0,4.9,6.4,4.9,6.4,0V48.6h2V114.7z"/>
</g>
<line class="st2" x1="28" y1="132.5" x2="279" y2="132.5"/>
</svg>
