<svg xmlns="http://www.w3.org/2000/svg" width="114.251" height="36.917" viewBox="0 0 114.251 36.917"><g transform="translate(-129.615 -199.181)"><path d="M131.666,213.971h-2.046l-.006-12.656a2.122,2.122,0,0,1,2.121-2.123h3.614l0,11.088A3.69,3.69,0,0,1,131.666,213.971Z" transform="translate(0 -0.007)" fill="#294c9b"/><path d="M135.377,265.077h-3.613a2.122,2.122,0,0,1-2.123-2.121l-.008-17.592h2.046a3.69,3.69,0,0,1,3.691,3.688Z" transform="translate(-0.011 -28.981)" fill="#294c9b"/><path d="M158.083,213.959H155.1a3.69,3.69,0,0,1-3.692-3.688l0-11.088,6.67,0c4.591,0,8.349,3.047,8.351,7.638v.346C166.43,211.757,162.674,213.957,158.083,213.959Z" transform="translate(-13.675 0)" fill="#294c9b"/><path d="M160.422,265.061l-8.983,0-.007-16.024a3.69,3.69,0,0,1,3.688-3.692l5.293,0a9.886,9.886,0,0,1,9.861,9.853h0A9.885,9.885,0,0,1,160.422,265.061Z" transform="translate(-13.69 -28.97)" fill="#294c9b"/><g transform="translate(164.501 206.709)"><path d="M223.272,219.689h3.272c2.416,0,3.607.882,3.607,2.489,0,.974-.434,1.672-1.7,2.166a2.18,2.18,0,0,1,1.928,2.3c0,1.738-1.185,2.567-3.706,2.567h-3.4Zm3.542,4.056c.876,0,1.791-.362,1.791-1.363,0-.954-.8-1.422-1.935-1.422h-1.8v2.785Zm-.119,4.186c1.35,0,2.06-.5,2.06-1.422,0-1-.843-1.468-1.941-1.468h-1.942v2.89Z" transform="translate(-223.272 -219.578)" fill="#294c9b"/><path d="M246.188,227.185v-7.794h1.566V227c0,.593.231.922.77.968l.342.013v1.007a2.408,2.408,0,0,1-.717.132C246.385,229.12,246.188,228.153,246.188,227.185Z" transform="translate(-237.652 -219.391)" fill="#294c9b"/><path d="M256.716,231.638v-4.667h1.607v4.483c0,.744.467,1.264,1.415,1.264a1.262,1.262,0,0,0,1.422-1.317v-4.43h1.593v6.807h-1.231l-.178-1.33a1.865,1.865,0,0,1-2.027,1.462A2.373,2.373,0,0,1,256.716,231.638Z" transform="translate(-244.258 -224.148)" fill="#294c9b"/><path d="M279.853,232.5a1.44,1.44,0,0,0,1.541-1.027h1.461a2.85,2.85,0,0,1-2.969,2.212,3.18,3.18,0,0,1-3.311-3.463c0-2.087,1.179-3.608,3.219-3.608,2.008,0,3.088,1.363,3.088,3.416v.487h-4.707C278.168,231.681,278.754,232.5,279.853,232.5Zm1.514-2.976a1.554,1.554,0,0,0-1.58-1.757,1.644,1.644,0,0,0-1.619,1.757Z" transform="translate(-256.72 -223.926)" fill="#294c9b"/><path d="M314.941,219.689v9.519H313.5l-4.786-6.985v6.985h-1.6v-9.519h1.567l4.661,6.8v-6.8Z" transform="translate(-275.884 -219.578)" fill="#294c9b"/><path d="M331.92,230.186c0-2.139,1.2-3.568,3.225-3.568,1.948,0,3.193,1.336,3.193,3.568,0,2.067-1.145,3.5-3.2,3.5C333.19,233.688,331.92,232.391,331.92,230.186Zm4.852-.045c0-1.251-.434-2.318-1.626-2.318-1.119,0-1.646.948-1.646,2.318,0,1.231.434,2.33,1.646,2.33C336.245,232.471,336.772,231.489,336.772,230.14Z" transform="translate(-291.45 -223.926)" fill="#294c9b"/><path d="M353.584,224.7l.007,3.9c0,.606.184.672.7.672h.843v1.014a3.251,3.251,0,0,1-1.113.138c-1.619,0-2.041-.671-2.041-1.764V224.7h-1.106v-1.133h1.152l.4-2.021h1.152v2.015H355.1V224.7Z" transform="translate(-303.346 -220.743)" fill="#294c9b"/><path d="M368.184,232.5a1.44,1.44,0,0,0,1.541-1.027h1.461a2.85,2.85,0,0,1-2.969,2.212,3.18,3.18,0,0,1-3.311-3.463c0-2.087,1.179-3.608,3.219-3.608,2.008,0,3.088,1.363,3.088,3.416v.487h-4.707C366.5,231.681,367.085,232.5,368.184,232.5Zm1.514-2.976a1.554,1.554,0,0,0-1.58-1.757,1.644,1.644,0,0,0-1.619,1.757Z" transform="translate(-312.149 -223.926)" fill="#294c9b"/></g><g transform="translate(164.468 224.182)"><path d="M223.183,266.655h7.426V268.1h-2.857v8.078h-1.606V268.1h-2.962Z" transform="translate(-223.183 -266.522)" fill="#294c9b"/><path d="M246.29,266.3h1.58v3.832a2.307,2.307,0,0,1,2.034-1.047,2.155,2.155,0,0,1,2.377,2.094v4.773h-1.607v-4.5c0-.7-.559-1.106-1.31-1.106s-1.474.395-1.474,1.172v4.437h-1.6Z" transform="translate(-237.683 -266.299)" fill="#294c9b"/><path d="M269.039,279.468a1.439,1.439,0,0,0,1.54-1.027h1.462a2.851,2.851,0,0,1-2.969,2.212,3.18,3.18,0,0,1-3.311-3.463c0-2.087,1.179-3.608,3.219-3.608,2.008,0,3.088,1.363,3.088,3.417v.487H267.36C267.354,278.646,267.939,279.468,269.039,279.468Zm1.514-2.975a1.554,1.554,0,0,0-1.58-1.758,1.644,1.644,0,0,0-1.619,1.758Z" transform="translate(-249.901 -270.87)" fill="#294c9b"/><path d="M286.4,273.715h1.534v1.474a2.162,2.162,0,0,1,2.093-1.606,1.028,1.028,0,0,1,.395.06v1.534a1.251,1.251,0,0,0-.388-.06c-1.316-.105-2.034.435-2.034,1.448v3.957h-1.6Z" transform="translate(-262.85 -270.87)" fill="#294c9b"/><path d="M298.908,278.626c0-1.5.89-2.258,3.26-2.3l1.02-.026v-.461c0-.718-.421-1.152-1.31-1.145a1.375,1.375,0,0,0-1.448.994h-1.363c.072-1.4,1.205-2.107,2.883-2.107,1.942,0,2.778.8,2.778,2.166v4.773h-1.35l-.132-1.224a2.22,2.22,0,0,1-2.212,1.356A1.911,1.911,0,0,1,298.908,278.626Zm4.28-.362v-1.073l-.836.013c-1.237.013-2.061.349-2.061,1.257a1.126,1.126,0,0,0,1.265,1.106A1.626,1.626,0,0,0,303.188,278.264Z" transform="translate(-270.701 -270.87)" fill="#294c9b"/><path d="M319.121,273.715h1.6l.013,1.073a2.5,2.5,0,0,1,2.166-1.205c1.574,0,2.686,1.1,2.686,3.463,0,2.409-1.139,3.608-2.831,3.608a2.265,2.265,0,0,1-2.028-1.251v3.239h-1.606Zm4.951,3.357c0-1.422-.626-2.3-1.672-2.3-1.126,0-1.685.961-1.685,2.3,0,1.291.56,2.383,1.685,2.383C323.361,279.455,324.072,278.718,324.072,277.072Z" transform="translate(-283.385 -270.87)" fill="#294c9b"/><path d="M342.47,279.468a1.439,1.439,0,0,0,1.541-1.027h1.461a2.851,2.851,0,0,1-2.969,2.212,3.18,3.18,0,0,1-3.311-3.463c0-2.087,1.179-3.608,3.219-3.608,2.008,0,3.088,1.363,3.088,3.417v.487h-4.707C340.785,278.646,341.371,279.468,342.47,279.468Zm1.514-2.975a1.554,1.554,0,0,0-1.58-1.758,1.644,1.644,0,0,0-1.62,1.758Z" transform="translate(-295.98 -270.87)" fill="#294c9b"/><path d="M359.862,278.6v-4.667h1.606v4.483c0,.744.467,1.264,1.415,1.264a1.262,1.262,0,0,0,1.422-1.317v-4.43H365.9v6.807h-1.231l-.177-1.33a1.866,1.866,0,0,1-2.027,1.462A2.373,2.373,0,0,1,359.862,278.6Z" transform="translate(-308.951 -271.092)" fill="#294c9b"/><path d="M382.126,271.664l.006,3.9c0,.606.184.672.7.672h.843v1.014a3.248,3.248,0,0,1-1.113.138c-1.619,0-2.041-.672-2.041-1.764v-3.963H379.42v-1.132h1.152l.4-2.021h1.152v2.014h1.521v1.139Z" transform="translate(-321.223 -267.687)" fill="#294c9b"/><path d="M396.394,268.187h-1.586v-1.514h1.586Zm-.026,8h-1.534v-6.807h1.534Z" transform="translate(-330.88 -266.534)" fill="#294c9b"/><path d="M408.6,276.045h-1.363a1.408,1.408,0,0,0-1.435-1.218c-1.021,0-1.718.75-1.718,2.3,0,1.442.625,2.356,1.744,2.356a1.438,1.438,0,0,0,1.422-1.218h1.33a2.624,2.624,0,0,1-2.791,2.383c-1.869,0-3.219-1.277-3.219-3.509,0-2.113,1.224-3.561,3.219-3.561A2.673,2.673,0,0,1,408.6,276.045Z" transform="translate(-335.748 -270.87)" fill="#294c9b"/><path d="M421.015,278.454h1.409a1.455,1.455,0,0,0,1.54,1.066c.816,0,1.363-.276,1.363-.862,0-.428-.263-.672-.882-.8l-1.29-.3c-1.158-.257-1.909-.8-1.916-1.876-.006-1.212.935-2.1,2.732-2.1,1.586,0,2.62.731,2.653,2.041h-1.363a1.169,1.169,0,0,0-1.3-.935c-.757,0-1.29.289-1.29.882,0,.415.361.632,1.106.79l1.225.3a1.965,1.965,0,0,1,1.725,1.909c0,1.317-1.073,2.087-2.752,2.087A2.684,2.684,0,0,1,421.015,278.454Z" transform="translate(-347.325 -270.87)" fill="#294c9b"/></g></g></svg>