<?xml version="1.0" encoding="utf-8"?>
<!-- Generator: Adobe Illustrator 24.1.3, SVG Export Plug-In . SVG Version: 6.00 Build 0)  -->
<svg version="1.1" xmlns="http://www.w3.org/2000/svg" xmlns:xlink="http://www.w3.org/1999/xlink" x="0px" y="0px"
	 viewBox="0 0 216 144" style="enable-background:new 0 0 216 144;" xml:space="preserve">
<style type="text/css">
	.st0{fill:#EAF2B6;}
	.st1{fill:#E0ED97;}
	.st2{fill:#C6E146;}
	.st3{fill:#B9DB01;}
	.st4{fill:#5B6670;}
	.st5{fill:#899199;}
</style>
<g id="Layer_1">
	<polygon class="st0" points="111,72.3 114.2,79.1 120.6,72.3 	"/>
	<polygon class="st1" points="145.5,72.3 124.2,94.7 144,94.7 164.9,72.3 	"/>
	<polygon class="st2" points="164.9,55.1 146.8,16.7 111,55.1 	"/>
	<polygon class="st3" points="131.1,72.3 120.6,72.3 114.2,79.1 129.1,110.8 144,94.7 124.2,94.7 145.5,72.3 	"/>
	<polygon class="st4" points="111,72.3 102.9,55.1 86.8,55.1 86.8,72.3 	"/>
	<g>
		<path class="st4" d="M46.9,113.7c17.5-1.8,27-10.9,27-23.8l0-34.8h0l-27.1,58.6H46.9z"/>
		<polygon class="st4" points="144,94.7 129.1,110.8 114.2,79.1 91.4,103.6 98.2,103.6 102.3,113.7 158.4,113.7 158.4,94.7 		"/>
		<polygon class="st4" points="145.5,72.3 161.8,55.1 158.8,55.1 131.1,55.1 131.1,72.3 		"/>
		<polygon class="st5" points="91.4,103.6 82,113.7 102.3,113.7 98.2,103.6 		"/>
		<path class="st5" d="M111,72.3H86.8V55.1H73.9l0,34.8c0,12.9-9.5,22-27,23.8h22.5l4.6-10.1h17.5l22.8-24.5L111,72.3z M79.8,90.2
			l7-16.1L93,90.2H79.8z"/>
		<path class="st5" d="M46.8,113.7l27.1-58.6H48.1l0,34.5c0,4.3-3.1,7-8.5,7c-7.2,0-15-2.9-19.5-6.7L9.9,103.6
			c6.9,7,15.8,10.5,30.5,10.5c2.3,0,4.4-0.1,6.5-0.3H46.8z"/>
		<polygon class="st5" points="206.1,55.1 203.2,55.1 161.8,55.1 145.5,72.3 164.9,72.3 144,94.7 158.4,94.7 158.4,113.7 
			202.7,113.7 202.7,94.7 168.5,94.7 		"/>
		<polygon class="st5" points="102.9,55.1 111,72.3 120.6,72.3 131.1,72.3 131.1,55.1 		"/>
	</g>
</g>
<g id="Layer_2">
	<g>
		<path class="st4" d="M55.3,118.3l-2.8,8.1h-1.6l-2.8-8.1h1.3l2.3,6.5l2.3-6.5H55.3z"/>
		<path class="st4" d="M58.9,126.4v-8.1h5.4l0,1.2h-4v2.3h3.5v1.2h-3.5v2.3l4.1,0v1.2H58.9z"/>
		<path class="st4" d="M73.5,118.3h1.4v8.1h-1.2l-4.1-5.9v5.9h-1.4v-8.1h1.3l4,5.8V118.3z"/>
		<path class="st4" d="M78.6,119.5v-1.2h6.3v1.2h-2.4v6.9h-1.4v-6.9H78.6z"/>
		<path class="st4" d="M94.8,123.4c0,0.6-0.1,1.2-0.3,1.6s-0.5,0.8-1,1.1c-0.5,0.2-1.1,0.4-1.8,0.4s-1.3-0.1-1.8-0.4
			c-0.5-0.2-0.8-0.6-1-1.1c-0.2-0.5-0.3-1-0.3-1.7v-5.1H90v5.2c0,0.6,0.2,1.1,0.5,1.4c0.3,0.3,0.7,0.4,1.3,0.4
			c0.4,0,0.7-0.1,0.9-0.2c0.3-0.1,0.5-0.3,0.6-0.6c0.1-0.3,0.2-0.6,0.2-1v-5.2h1.4V123.4z"/>
		<path class="st4" d="M105.1,126.4h-1.4l-1.4-3.3h-1.9v3.3H99v-8.1h3.3c0.6,0,1.1,0.1,1.5,0.3c0.4,0.2,0.7,0.5,0.9,0.8
			c0.2,0.3,0.3,0.8,0.3,1.2c0,0.4-0.1,0.8-0.2,1.1c-0.1,0.3-0.3,0.5-0.6,0.7s-0.5,0.3-0.7,0.5L105.1,126.4z M102,122
			c0.5,0,0.9-0.1,1.2-0.4c0.3-0.2,0.4-0.6,0.4-1c0-0.4-0.1-0.7-0.4-1c-0.3-0.2-0.6-0.3-1.1-0.3h-1.8v2.7H102z"/>
		<path class="st4" d="M109,126.4v-8.1h5.4l0,1.2h-4v2.3h3.5v1.2h-3.5v2.3l4.1,0v1.2H109z"/>
		<path class="st4" d="M127.4,126.4v-8.1h2.9c0.6,0,1.1,0.1,1.6,0.3c0.5,0.2,0.8,0.5,1.1,0.9c0.3,0.4,0.4,0.9,0.4,1.4
			c0,0.5-0.1,1-0.4,1.4c-0.2,0.4-0.6,0.7-1,0.9c-0.4,0.2-0.9,0.3-1.5,0.3h-1.7v2.9H127.4z M128.7,122.4h1.6c0.5,0,0.9-0.1,1.2-0.4
			c0.3-0.3,0.5-0.7,0.5-1.1c0-0.5-0.2-0.8-0.5-1.1s-0.7-0.4-1.2-0.4h-1.6V122.4z"/>
		<path class="st4" d="M135.9,126.4l2.9-8.1h1.5l2.9,8.1h-1.4l-0.7-2H138l-0.7,2H135.9z M138.3,123.1h2.4l-1.2-3.5L138.3,123.1z"/>
		<path class="st4" d="M152.9,126.4h-1.4l-1.4-3.3h-1.9v3.3h-1.4v-8.1h3.3c0.6,0,1.1,0.1,1.5,0.3c0.4,0.2,0.7,0.5,0.9,0.8
			c0.2,0.3,0.3,0.8,0.3,1.2c0,0.4-0.1,0.8-0.2,1.1s-0.3,0.5-0.6,0.7s-0.5,0.3-0.7,0.5L152.9,126.4z M149.8,122
			c0.5,0,0.9-0.1,1.2-0.4c0.3-0.2,0.4-0.6,0.4-1c0-0.4-0.1-0.7-0.4-1c-0.3-0.2-0.6-0.3-1.1-0.3h-1.8v2.7H149.8z"/>
		<path class="st4" d="M156.2,119.5v-1.2h6.3v1.2h-2.4v6.9h-1.4v-6.9H156.2z"/>
		<path class="st4" d="M171.5,118.3h1.4v8.1h-1.2l-4.1-5.9v5.9h-1.4v-8.1h1.3l4,5.8V118.3z"/>
		<path class="st4" d="M177.2,126.4v-8.1h5.4l0,1.2h-4v2.3h3.5v1.2h-3.5v2.3l4.1,0v1.2H177.2z"/>
		<path class="st4" d="M192.5,126.4h-1.4l-1.4-3.3h-1.9v3.3h-1.4v-8.1h3.3c0.6,0,1.1,0.1,1.5,0.3c0.4,0.2,0.7,0.5,0.9,0.8
			c0.2,0.3,0.3,0.8,0.3,1.2c0,0.4-0.1,0.8-0.2,1.1s-0.3,0.5-0.6,0.7s-0.5,0.3-0.7,0.5L192.5,126.4z M189.4,122
			c0.5,0,0.9-0.1,1.2-0.4c0.3-0.2,0.4-0.6,0.4-1c0-0.4-0.1-0.7-0.4-1c-0.3-0.2-0.6-0.3-1.1-0.3h-1.8v2.7H189.4z"/>
		<path class="st4" d="M199.4,126.5c-0.4,0-0.8,0-1.1-0.1c-0.4-0.1-0.7-0.2-1-0.4c-0.3-0.2-0.6-0.4-0.8-0.7c-0.2-0.3-0.3-0.6-0.4-1
			h1.4c0.1,0.3,0.2,0.5,0.4,0.7c0.2,0.2,0.4,0.3,0.7,0.4c0.3,0.1,0.6,0.1,0.9,0.1c0.3,0,0.6,0,0.9-0.1c0.3-0.1,0.5-0.2,0.6-0.4
			c0.2-0.2,0.2-0.4,0.2-0.6c0-0.2-0.1-0.4-0.2-0.6c-0.1-0.2-0.3-0.3-0.5-0.4s-0.4-0.2-0.7-0.2l-1.5-0.3c-0.6-0.1-1.1-0.4-1.4-0.7
			c-0.4-0.4-0.5-0.8-0.5-1.4c0-0.5,0.1-0.9,0.4-1.3c0.3-0.4,0.6-0.6,1.1-0.8c0.5-0.2,1-0.3,1.5-0.3c0.7,0,1.2,0.1,1.7,0.3
			c0.5,0.2,0.8,0.5,1,0.9c0.2,0.4,0.4,0.8,0.4,1.2h-1.4c0-0.3-0.1-0.6-0.3-0.8c-0.2-0.2-0.4-0.3-0.6-0.4c-0.2-0.1-0.5-0.1-0.8-0.1
			c-0.2,0-0.4,0-0.6,0.1c-0.2,0.1-0.4,0.1-0.5,0.2c-0.1,0.1-0.3,0.2-0.3,0.4c-0.1,0.1-0.1,0.3-0.1,0.5c0,0.3,0.1,0.5,0.3,0.6
			s0.5,0.3,1,0.4l1.5,0.3c0.5,0.1,0.8,0.2,1.1,0.4c0.3,0.2,0.5,0.4,0.6,0.6s0.2,0.5,0.3,0.7c0,0.2,0.1,0.5,0.1,0.7
			c0,0.4-0.1,0.8-0.4,1.1c-0.3,0.3-0.6,0.6-1.1,0.8C200.6,126.4,200.1,126.5,199.4,126.5z"/>
	</g>
</g>
</svg>
