<?xml version="1.0" encoding="utf-8"?>
<!-- Generator: Adobe Illustrator 24.3.0, SVG Export Plug-In . SVG Version: 6.00 Build 0)  -->
<svg version="1.1" id="layer" xmlns="http://www.w3.org/2000/svg" xmlns:xlink="http://www.w3.org/1999/xlink" x="0px" y="0px"
	 viewBox="0 0 652 228" style="enable-background:new 0 0 652 228;" xml:space="preserve">
<style type="text/css">
	.st0{clip-path:url(#SVGID_2_);fill:url(#SVGID_3_);}
	.st1{fill:#FFFFFF;}
</style>
<g>
	<g>
		<path d="M309.2,50.4c-0.8,0.5-1.7,0.7-3.1,0.7c-2.2,0-3.6-1.2-3.6-4c-2.4,2.8-5.6,4-9.2,4c-4.8,0-8.7-2.1-8.7-7.3
			c0-5.9,4.4-7.2,8.9-8c4.8-0.9,8.8-0.6,8.8-3.8c0-3.7-3.1-4.4-5.8-4.4c-3.6,0-6.3,1.1-6.5,5h-4.3c0.3-6.5,5.3-8.8,11.1-8.8
			c4.7,0,9.8,1.1,9.8,7.2v13.5c0,2,0,2.9,1.4,2.9c0.4,0,0.8-0.1,1.3-0.3L309.2,50.4L309.2,50.4z M302.2,37c-1.7,1.2-4.9,1.3-7.8,1.8
			c-2.8,0.5-5.3,1.5-5.3,4.7c0,2.8,2.4,3.8,5.1,3.8c5.7,0,8-3.5,8-5.9L302.2,37L302.2,37z"/>
		<path d="M321.1,24.3h5.2v3.8h-5.2v16.2c0,2,0.6,2.3,3.2,2.3h2v3.8H323c-4.5,0-6.2-0.9-6.2-5.7V28h-4.5v-3.8h4.5v-7.8h4.3V24.3z"/>
		<path d="M337.6,19.6h-4.3v-5.3h4.3V19.6z M333.3,24.3h4.3v26.2h-4.3V24.3z"/>
		<path d="M357.6,23.7c8.3,0,12.7,6,12.7,13.7c0,7.6-4.4,13.7-12.7,13.7c-8.3,0-12.7-6-12.7-13.7C344.9,29.7,349.3,23.7,357.6,23.7
			 M357.6,47.3c4.5,0,8.1-3.5,8.1-9.9s-3.6-9.9-8.1-9.9s-8.1,3.5-8.1,9.9C349.4,43.8,353.1,47.3,357.6,47.3"/>
		<path d="M377.3,24.3h4.1v4.2h0.1c1.8-3.2,4.8-4.8,8.5-4.8c6.9,0,9,3.9,9,9.6v17.2h-4.3V32.8c0-3.2-2-5.3-5.3-5.3
			c-5.2,0-7.7,3.5-7.7,8.2v14.8h-4.3V24.3H377.3z"/>
		<path d="M430.6,50.4c-0.8,0.5-1.7,0.7-3.1,0.7c-2.2,0-3.6-1.2-3.6-4c-2.4,2.8-5.6,4-9.2,4c-4.8,0-8.7-2.1-8.7-7.3
			c0-5.9,4.4-7.2,8.9-8c4.8-0.9,8.8-0.6,8.8-3.8c0-3.7-3.1-4.4-5.8-4.4c-3.6,0-6.3,1.1-6.5,5H407c0.3-6.5,5.3-8.8,11.1-8.8
			c4.7,0,9.8,1.1,9.8,7.2v13.5c0,2,0,2.9,1.4,2.9c0.4,0,0.8-0.1,1.3-0.3L430.6,50.4L430.6,50.4z M423.6,37c-1.7,1.2-4.9,1.3-7.8,1.8
			c-2.8,0.5-5.3,1.5-5.3,4.7c0,2.8,2.4,3.8,5.1,3.8c5.7,0,8-3.5,8-5.9L423.6,37L423.6,37z"/>
		<rect x="436.8" y="14.4" width="4.3" height="36.1"/>
		<path d="M273.6,78.1c-1-5.1-5.1-7.7-10.1-7.7c-8.6,0-12.3,7.1-12.3,14.6c0,8.3,3.6,15.1,12.3,15.1c6.3,0,10-4.5,10.4-10.4h4.8
			c-0.9,9-6.5,14.5-15.6,14.5c-11.2,0-16.7-8.3-16.7-18.8s6-19,17.1-19c7.5,0,13.8,4,14.9,11.7L273.6,78.1L273.6,78.1z"/>
		<path d="M297.3,76.6c8.3,0,12.7,6,12.7,13.7c0,7.6-4.4,13.7-12.7,13.7c-8.3,0-12.7-6-12.7-13.7C284.6,82.6,289,76.6,297.3,76.6
			 M297.3,100.2c4.5,0,8.1-3.5,8.1-9.9s-3.6-9.9-8.1-9.9s-8.1,3.5-8.1,9.9C289.2,96.7,292.8,100.2,297.3,100.2"/>
		<path d="M317,77.2h4.1V81h0.1c1.9-2.9,4.9-4.5,8.4-4.5c3.2,0,6.1,1.3,7.2,4.5c1.8-2.8,4.9-4.5,8.2-4.5c5.2,0,8.7,2.2,8.7,7.6v19.2
			h-4.3V86.1c0-3.2-0.9-5.8-5.1-5.8s-6.8,2.6-6.8,6.7v16.3h-4.3V86.1c0-3.4-1.1-5.8-4.9-5.8c-5.1,0-7,4.7-7,6.7v16.3H317V77.2z"/>
		<path d="M362.3,77.2h4.3v3.5h0.1c1.4-2.9,4.8-4.1,8.4-4.1c8,0,12,6.4,12,13.8s-3.9,13.6-11.9,13.6c-2.7,0-6.5-1-8.5-4.1h-0.1v13.5
			h-4.3V77.2z M374.5,80.4c-5.8,0-8,5-8,9.9c0,5.2,2.3,9.9,8.2,9.9c5.9,0,7.9-5,7.9-10.1C382.6,85.2,380,80.4,374.5,80.4"/>
		<path d="M394,77.2h4v5.5h0.1c2.1-4.2,5-6.3,9.6-6.1v4.6c-6.9,0-9.5,3.9-9.5,10.6v11.6H394V77.2z"/>
		<path d="M434.4,95.1c-1.2,5.8-5.3,8.9-11.2,8.9c-8.4,0-12.3-5.8-12.6-13.8c0-7.8,5.2-13.6,12.3-13.6c9.3,0,12.1,8.7,11.8,15h-19.6
			c-0.2,4.6,2.4,8.6,8.1,8.6c3.5,0,6-1.7,6.8-5.1H434.4z M430.2,87.8c-0.2-4.1-3.3-7.4-7.5-7.4c-4.5,0-7.2,3.4-7.5,7.4H430.2z"/>
		<path d="M441.2,67.3h4.3v13.8h0.1c1.4-3.1,5.1-4.5,8.3-4.5c6.9,0,9,3.9,9,9.6v17.2h-4.3V85.7c0-3.2-2-5.3-5.3-5.3
			c-5.2,0-7.7,3.5-7.7,8.2v14.8h-4.3V67.3H441.2z"/>
		<path d="M493.7,95.1c-1.2,5.8-5.3,8.9-11.2,8.9c-8.3,0-12.3-5.8-12.5-13.8c0-7.8,5.2-13.6,12.3-13.6c9.3,0,12.1,8.7,11.8,15h-19.6
			c-0.2,4.6,2.4,8.6,8.1,8.6c3.5,0,6-1.7,6.8-5.1H493.7z M489.5,87.8c-0.2-4.1-3.3-7.4-7.5-7.4c-4.5,0-7.2,3.4-7.5,7.4H489.5z"/>
		<path d="M500.5,77.2h4.1v4.2h0.1c1.8-3.2,4.8-4.8,8.5-4.8c6.9,0,9,3.9,9,9.6v17.2h-4.3V85.7c0-3.2-2-5.3-5.3-5.3
			c-5.2,0-7.7,3.5-7.7,8.2v14.8h-4.3V77.2H500.5z"/>
		<path d="M533.2,95.1c0.2,3.8,3.5,5.1,7,5.1c2.7,0,6.3-0.6,6.3-3.9s-4.3-3.9-8.6-4.9s-8.6-2.4-8.6-7.4c0-5.3,5.2-7.4,9.8-7.4
			c5.8,0,10.4,1.8,10.7,8.2h-4.3c-0.3-3.3-3.2-4.4-6.1-4.4c-2.6,0-5.6,0.7-5.6,3.3c0,3.1,4.6,3.6,8.6,4.6c4.3,1,8.5,2.4,8.5,7.4
			c0,6.2-5.8,8.3-11.1,8.3c-5.9,0-10.8-2.4-11.1-8.9L533.2,95.1L533.2,95.1z"/>
		<path d="M562.4,72.5h-4.3v-5.3h4.3V72.5z M558.1,77.2h4.3v26.2h-4.3V77.2z"/>
		<polygon points="582.9,103.4 578.3,103.4 568.5,77.2 573.4,77.2 580.7,99 580.8,99 587.9,77.2 592.4,77.2 		"/>
		<path d="M620.7,95.1c-1.2,5.8-5.3,8.9-11.2,8.9c-8.3,0-12.3-5.8-12.5-13.8c0-7.8,5.2-13.6,12.3-13.6c9.3,0,12.1,8.7,11.8,15h-19.6
			c-0.2,4.6,2.4,8.6,8.1,8.6c3.5,0,6-1.7,6.8-5.1H620.7z M616.5,87.8c-0.2-4.1-3.3-7.4-7.5-7.4c-4.5,0-7.2,3.4-7.5,7.4H616.5z"/>
		<path d="M273.6,131c-1-5.1-5.1-7.7-10.1-7.7c-8.6,0-12.3,7.1-12.3,14.6c0,8.3,3.6,15.1,12.3,15.1c6.3,0,10-4.5,10.4-10.4h4.8
			c-0.9,9-6.5,14.5-15.6,14.5c-11.2,0-16.7-8.3-16.7-18.8s6-19,17.1-19c7.5,0,13.8,4,14.9,11.7L273.6,131L273.6,131z"/>
		<path d="M309.2,156.2c-0.8,0.5-1.7,0.7-3.1,0.7c-2.2,0-3.6-1.2-3.6-4.1c-2.4,2.8-5.6,4.1-9.2,4.1c-4.8,0-8.7-2.1-8.7-7.3
			c0-5.9,4.4-7.2,8.9-8c4.8-0.9,8.8-0.6,8.8-3.8c0-3.7-3.1-4.4-5.8-4.4c-3.6,0-6.3,1.1-6.5,5h-4.3c0.3-6.5,5.3-8.8,11.1-8.8
			c4.7,0,9.8,1.1,9.8,7.2v13.5c0,2,0,2.9,1.4,2.9c0.4,0,0.8-0.1,1.3-0.3L309.2,156.2L309.2,156.2z M302.2,142.8
			c-1.7,1.2-4.9,1.3-7.8,1.8c-2.8,0.5-5.3,1.5-5.3,4.7c0,2.8,2.4,3.8,5.1,3.8c5.7,0,8-3.5,8-5.9L302.2,142.8L302.2,142.8z"/>
		<path d="M315.2,130.1h4.1v4.1h0.1c1.8-3.2,4.8-4.8,8.5-4.8c6.9,0,9,3.9,9,9.6v17.2h-4.3v-17.7c0-3.2-2-5.3-5.3-5.3
			c-5.2,0-7.7,3.5-7.7,8.2v14.8h-4.3v-26.1H315.2z"/>
		<path d="M363,138.5c-0.7-3.3-2.9-5.2-6.5-5.2c-6.2,0-8.1,4.9-8.1,10.2c0,4.8,2.2,9.6,7.6,9.6c4.1,0,6.6-2.4,7.2-6.4h4.4
			c-1,6.4-5,10.2-11.5,10.2c-8,0-12.2-5.6-12.2-13.4s4-14,12.3-14c5.9,0,10.7,2.8,11.3,9L363,138.5L363,138.5z"/>
		<path d="M396.7,148c-1.2,5.8-5.3,8.9-11.2,8.9c-8.4,0-12.3-5.8-12.6-13.8c0-7.8,5.2-13.6,12.3-13.6c9.3,0,12.1,8.7,11.8,15h-19.6
			c-0.2,4.6,2.4,8.6,8.1,8.6c3.5,0,6-1.7,6.8-5.1H396.7z M392.6,140.7c-0.2-4.1-3.3-7.4-7.5-7.4c-4.5,0-7.2,3.4-7.5,7.4H392.6z"/>
		<path d="M403.4,130.1h4v5.5h0.1c2.1-4.2,5-6.3,9.6-6.1v4.6c-6.9,0-9.5,3.9-9.5,10.6v11.6h-4.3L403.4,130.1L403.4,130.1z"/>
		<polygon points="248.2,173.1 253.3,173.1 272.3,202.4 272.4,202.4 272.4,173.1 277,173.1 277,209.2 271.7,209.2 252.8,180.2 
			252.7,180.2 252.7,209.2 248.2,209.2 		"/>
		<path d="M308.3,200.9c-1.2,5.8-5.3,8.9-11.2,8.9c-8.4,0-12.3-5.8-12.6-13.8c0-7.8,5.2-13.6,12.3-13.6c9.3,0,12.1,8.7,11.8,15H289
			c-0.2,4.6,2.4,8.6,8.1,8.6c3.5,0,6-1.7,6.8-5.1H308.3z M304.2,193.6c-0.2-4.1-3.3-7.4-7.5-7.4c-4.5,0-7.2,3.4-7.5,7.4H304.2z"/>
		<path d="M321.1,183h5.2v3.8h-5.2V203c0,2,0.6,2.3,3.2,2.3h2v3.8H323c-4.5,0-6.2-0.9-6.2-5.7v-16.7h-4.5V183h4.5v-7.8h4.3V183z"/>
		<polygon points="359,209.2 354.4,209.2 349.1,188.4 349,188.4 343.8,209.2 339.1,209.2 330.7,183 335.5,183 341.4,204.4 
			341.5,204.4 346.7,183 351.5,183 356.9,204.4 357,204.4 362.9,183 367.3,183 		"/>
		<path d="M384.7,182.4c8.3,0,12.7,6,12.7,13.7c0,7.6-4.4,13.7-12.7,13.7c-8.3,0-12.7-6-12.7-13.7
			C372,188.5,376.4,182.4,384.7,182.4 M384.7,206c4.5,0,8.1-3.5,8.1-9.9s-3.6-9.9-8.1-9.9s-8.1,3.5-8.1,9.9S380.2,206,384.7,206"/>
		<path d="M404.3,183h4v5.5h0.1c2.1-4.2,5-6.3,9.6-6.1v4.6c-6.9,0-9.5,3.9-9.5,10.6v11.6h-4.3L404.3,183L404.3,183z"/>
		<polygon points="423.5,173.1 427.8,173.1 427.8,194.5 439.8,183 445.5,183 435.2,192.6 446.3,209.2 440.8,209.2 431.9,195.5 
			427.8,199.3 427.8,209.2 423.5,209.2 		"/>
		<path d="M457.4,172.6c4.7,0,8.6,3.7,8.6,8.5c0,4.9-3.9,8.6-8.6,8.6s-8.6-3.7-8.6-8.6C448.8,176.3,452.7,172.6,457.4,172.6
			 M457.4,188.4c3.9,0,7-3.1,7-7.3c0-4.1-3.1-7.2-7-7.2c-4,0-7,3.1-7,7.2C450.4,185.3,453.4,188.4,457.4,188.4 M454.1,176.1h3.9
			c2.4,0,3.5,0.9,3.5,2.9c0,1.8-1.1,2.6-2.6,2.7l2.9,4.4H460l-2.7-4.3h-1.6v4.3h-1.5L454.1,176.1L454.1,176.1z M455.6,180.6h1.6
			c1.4,0,2.6-0.1,2.6-1.6c0-1.3-1.1-1.5-2.2-1.5h-2.1v3.1H455.6z"/>
		<polygon points="248.2,14.4 253.3,14.4 272.3,43.7 272.4,43.7 272.4,14.4 277,14.4 277,50.5 271.7,50.5 252.8,21.5 252.7,21.5 
			252.7,50.5 248.2,50.5 		"/>
	</g>
	<g>
		<g>
			<defs>
				<path id="SVGID_1_" d="M49.9,9.2C34.1,9.2,21.1,22.1,21.1,38v146.5c0,15.8,12.9,28.8,28.8,28.8h144c15.8,0,28.8-12.9,28.8-28.8
					V37.9c0-15.8-12.9-28.8-28.8-28.8h-144V9.2z"/>
			</defs>
			<clipPath id="SVGID_2_">
				<use xlink:href="#SVGID_1_"  style="overflow:visible;"/>
			</clipPath>
			
				<linearGradient id="SVGID_3_" gradientUnits="userSpaceOnUse" x1="95.0426" y1="-348.9886" x2="99.344" y2="-348.9886" gradientTransform="matrix(0 47.4263 -47.4263 0 -16429.3887 -4498.3179)">
				<stop  offset="0" style="stop-color:#27A8E0"/>
				<stop  offset="0.1223" style="stop-color:#209CD3"/>
				<stop  offset="0.4904" style="stop-color:#0F7BB2"/>
				<stop  offset="0.7962" style="stop-color:#04679D"/>
				<stop  offset="1" style="stop-color:#006096"/>
			</linearGradient>
			<rect x="21.1" y="9.2" class="st0" width="201.5" height="204"/>
		</g>
	</g>
	<g>
		<path class="st1" d="M76.7,151c0,3.4,0,6.8,0.1,8.5c-0.4,0.6-1.9,1.2-3.1,1.2c-0.1,0-1.8-2.7-4.3-5.8l-12.2-15.1
			c-3.1-3.8-4.8-6-5.8-6.8c-0.3,0.5-0.3,1.4-0.3,3.4v10.3c0,4.3,0.2,8.3,0.8,9.7c0.5,1.1,1.7,1.5,3.1,1.7l1.5,0.2
			c0.4,0.4,0.3,1.5,0,1.9c-2.9-0.1-5-0.2-7.1-0.2c-2,0-3.9,0.1-5.9,0.2c-0.3-0.3-0.4-1.4,0-1.9l0.9-0.2c1.4-0.3,2.5-0.6,2.9-1.7
			c0.6-1.4,0.7-5.4,0.7-9.7v-13.4c0-2.9-0.1-3.8-0.4-4.5c-0.4-0.9-1.2-1.5-3-1.8l-1.5-0.2c-0.4-0.4-0.3-1.7,0.2-1.8
			c2.5,0.1,5.1,0.2,7.3,0.2c1.8,0,3.3-0.1,4.4-0.2c0.5,2.4,4,6.4,8.7,12.1l4.4,5.2c2.3,2.8,3.9,4.6,5.1,5.8c0.2-0.5,0.2-1.4,0.2-2.4
			v-7.3c0-4.3-0.2-8.3-0.8-9.7c-0.5-1.1-1.6-1.5-3.1-1.7l-1.4-0.2c-0.4-0.4-0.3-1.5,0-1.8c2.9,0.1,4.9,0.2,7.1,0.2
			c2,0,3.9-0.1,5.9-0.2c0.3,0.3,0.4,1.4,0,1.8l-1,0.2c-1.4,0.2-2.4,0.6-2.9,1.7c-0.6,1.4-0.8,5.4-0.8,9.7V151H76.7z"/>
		<path class="st1" d="M118.5,125.7c0,1,0.2,5.2,0.6,8.3c-0.2,0.6-1.6,0.8-2,0.4c-1.4-4.9-4.8-7.6-9.9-7.6c-5.9,0-12.2,5-12.2,15.6
			c0,10.5,6.1,16.2,12.4,16.2c6.4,0,9.4-4.6,10.8-8.2c0.4-0.4,1.7-0.3,2,0.4c-0.4,3.9-1.3,7.1-2,8.3c-2.9,0.8-6.6,2-10.7,2
			c-5.2,0-10.5-1.2-14.2-4c-3.8-2.9-6.7-7.3-6.7-13.9c0-6.4,2.8-11,6.4-14c3.8-3.1,9.2-4.7,14.7-4.7
			C113,124.3,116.9,125.5,118.5,125.7"/>
		<path class="st1" d="M156.9,125.7c0,1,0.2,5.2,0.6,8.3c-0.2,0.6-1.6,0.8-2,0.4c-1.4-4.9-4.8-7.6-9.9-7.6c-5.9,0-12.2,5-12.2,15.6
			c0,10.5,6.1,16.2,12.4,16.2c6.4,0,9.4-4.6,10.8-8.2c0.4-0.4,1.7-0.3,2,0.4c-0.4,3.9-1.3,7.1-2,8.3c-2.9,0.8-6.6,2-10.7,2
			c-5.2,0-10.5-1.2-14.2-4c-3.8-2.9-6.7-7.3-6.7-13.9c0-6.4,2.8-11,6.4-14c3.8-3.1,9.2-4.7,14.7-4.7
			C151.4,124.3,155.3,125.5,156.9,125.7"/>
		<path class="st1" d="M196.4,151c0,3.4,0,6.8,0.1,8.5c-0.4,0.6-1.9,1.2-3.1,1.2c-0.1,0-1.8-2.7-4.3-5.8l-12.2-15.1
			c-3.1-3.8-4.8-6-5.8-6.8c-0.3,0.5-0.3,1.4-0.3,3.4v10.3c0,4.3,0.2,8.3,0.8,9.7c0.5,1.1,1.7,1.5,3.1,1.7l1.5,0.2
			c0.4,0.4,0.3,1.5,0,1.9c-2.9-0.1-5-0.2-7.1-0.2c-2,0-3.9,0.1-5.9,0.2c-0.3-0.3-0.4-1.4,0-1.9l0.9-0.2c1.4-0.3,2.5-0.6,2.9-1.7
			c0.6-1.4,0.7-5.4,0.7-9.7v-13.4c0-2.9-0.1-3.8-0.4-4.5c-0.4-0.9-1.2-1.5-3-1.8l-1.5-0.2c-0.4-0.4-0.3-1.7,0.2-1.8
			c2.5,0.1,5.1,0.2,7.3,0.2c1.8,0,3.3-0.1,4.4-0.2c0.5,2.4,4,6.4,8.7,12.1l4.4,5.2c2.3,2.8,3.9,4.6,5.1,5.8c0.2-0.5,0.2-1.4,0.2-2.4
			v-7.3c0-4.3-0.2-8.3-0.8-9.7c-0.5-1.1-1.6-1.5-3.1-1.7l-1.4-0.2c-0.4-0.4-0.3-1.5,0-1.8c2.9,0.1,4.9,0.2,7.1,0.2
			c2,0,3.9-0.1,5.9-0.2c0.3,0.3,0.4,1.4,0,1.8l-1,0.2c-1.4,0.2-2.4,0.6-2.9,1.7c-0.6,1.4-0.8,5.4-0.8,9.7V151H196.4z"/>
	</g>
</g>
</svg>
