<?xml version="1.0" encoding="utf-8"?>
<!-- Generator: Adobe Illustrator 24.3.0, SVG Export Plug-In . SVG Version: 6.00 Build 0)  -->
<svg version="1.1" id="Layer_1" xmlns="http://www.w3.org/2000/svg" xmlns:xlink="http://www.w3.org/1999/xlink" x="0px" y="0px"
	 viewBox="0 0 446 73" style="enable-background:new 0 0 446 73;" xml:space="preserve">
<style type="text/css">
	.st0{fill:#29487F;}
	.st1{clip-path:url(#SVGID_2_);fill:#5591CE;}
	.st2{clip-path:url(#SVGID_2_);fill:#3A6DAA;}
	.st3{clip-path:url(#SVGID_2_);fill:#29487F;}
	.st4{clip-path:url(#SVGID_2_);fill:#6EAAD3;}
	.st5{clip-path:url(#SVGID_2_);fill:#8AC8C4;}
	.st6{clip-path:url(#SVGID_2_);fill:#A9DCD9;}
</style>
<g>
	<g>
		<path class="st0" d="M139.3,66.1c-0.1-0.6-0.4-0.7-0.9-0.7h-0.3c-0.5,0-0.6,0-1.1,0.5c-3.1,2.9-7.5,6-16.5,6
			c-13.8,0-25.2-7.3-25.2-28.1c0-20.9,11.4-28.1,25.2-28.1c9,0,13.4,3.2,16.5,6.1c0.5,0.5,0.6,0.5,1.1,0.5h0.2c0.5,0,0.7,0,0.9-0.6
			l0.6-4c0.1-0.9,0.1-1.1,1-1.2c0.7-0.1,1.9-0.2,3.1-0.2c1.2,0,2.4,0.1,3.1,0.2c0.9,0.1,0.9,0.4,0.9,1.2v52.3c0,0.9-0.1,1-1,1.2
			c-0.7,0.1-1.8,0.2-2.9,0.2c-1.1,0-2.2-0.1-2.9-0.2c-0.9-0.2-1-0.4-1.1-1.2L139.3,66.1z M140.1,43.8c0-13.1-4.7-21.8-18.1-21.8
			c-13.4,0-18.1,8.7-18.1,21.8s4.7,21.7,18.1,21.7C135.4,65.5,140.1,56.9,140.1,43.8z"/>
		<path class="st0" d="M173.3,16.4h16c0.7,0,1,0,1.1,0.9c0.1,0.7,0.2,1.5,0.2,2.4c0,0.8-0.1,1.7-0.2,2.4c-0.1,0.9-0.4,0.9-1.1,0.9
			h-16c-0.9,0-1,0.2-1,1v29.3c0,10.3,4.8,11.6,11.3,11.6c3.4,0,6.3-0.6,7.5-0.9c0.2-0.1,0.4-0.1,0.6-0.1c0.3,0,0.5,0.1,0.6,0.7
			c0.2,0.8,0.3,2.3,0.3,3.6c0,0.4,0,0.9-0.1,1.2c-0.1,0.9-0.1,0.9-0.9,1.1c-1.2,0.4-5.2,1.1-9.5,1.1c-11.7,0-18.3-4.7-18.3-17.7V2.1
			c0-0.9,0-1.1,1-1.2c0.8-0.1,2-0.2,3.3-0.2c1.2,0,2.5,0.1,3.3,0.2c1,0.1,1,0.4,1,1.2v13.3C172.3,16.1,172.4,16.4,173.3,16.4z"/>
		<path class="st0" d="M211.5,16.4h16c0.7,0,1,0,1.1,0.9c0.1,0.7,0.2,1.5,0.2,2.4c0,0.8-0.1,1.7-0.2,2.4c-0.1,0.9-0.4,0.9-1.1,0.9
			h-16c-0.9,0-1,0.2-1,1v29.3c0,10.3,4.8,11.6,11.3,11.6c3.4,0,6.3-0.6,7.5-0.9c0.2-0.1,0.4-0.1,0.6-0.1c0.3,0,0.5,0.1,0.6,0.7
			c0.2,0.8,0.3,2.3,0.3,3.6c0,0.4,0,0.9-0.1,1.2c-0.1,0.9-0.1,0.9-0.9,1.1c-1.2,0.4-5.2,1.1-9.5,1.1c-11.7,0-18.3-4.7-18.3-17.7V2.1
			c0-0.9,0-1.1,1-1.2c0.8-0.1,2-0.2,3.3-0.2c1.2,0,2.5,0.1,3.3,0.2c1,0.1,1,0.4,1,1.2v13.3C210.5,16.1,210.6,16.4,211.5,16.4z"/>
		<path class="st0" d="M250.3,48.6c0,11.2,3.4,16.7,14.1,16.7c11,0,16.1-6.4,16.1-20.2V17.6c0-0.9,0-1.1,1-1.2
			c0.8-0.1,2-0.2,3.3-0.2s2.5,0.1,3.3,0.2c1,0.1,1,0.4,1,1.2v52.3c0,0.9-0.1,1-1,1.2c-0.7,0.1-1.8,0.2-2.9,0.2
			c-1.1,0-2.2-0.1-2.9-0.2c-0.9-0.2-1-0.4-1.1-1.2l-0.6-3.9c-0.1-0.5-0.3-0.7-0.8-0.7h-0.2c-0.5,0-0.6,0-1.1,0.5
			c-2.9,2.9-7.2,6.1-15.8,6.1c-12.2,0-20.8-5.8-20.8-21.3V17.6c0-0.9,0-1.1,1-1.2c0.8-0.1,2-0.2,3.3-0.2c1.2,0,2.5,0.1,3.3,0.2
			c1,0.1,1,0.4,1,1.2V48.6z"/>
		<path class="st0" d="M331.5,22.2c-9.5,0-16.8,4.9-16.8,19.3v28.5c0,0.9,0,1.1-1,1.2c-0.8,0.1-2,0.2-3.3,0.2
			c-1.2,0-2.5-0.1-3.3-0.2c-1-0.1-1-0.4-1-1.2V17.6c0-0.9,0.1-1,1-1.2c0.7-0.1,1.8-0.2,2.9-0.2c1.1,0,2.2,0.1,2.9,0.2
			c0.9,0.2,1,0.4,1.1,1.2l0.6,3.9c0.1,0.5,0.3,0.7,0.8,0.7h0.2c0.5,0,0.7,0,1.1-0.5c3-3.2,7.9-6.1,16.5-6.1
			c14.4,0,20.7,6.7,20.7,22.2v32.1c0,0.9,0,1.1-1,1.2c-0.8,0.1-2,0.2-3.3,0.2c-1.2,0-2.5-0.1-3.3-0.2c-1-0.1-1-0.4-1-1.2V39.2
			C345.5,27.8,342.3,22.2,331.5,22.2z"/>
		<path class="st0" d="M366.5,43.8c0-16.5,7.3-28.1,26.6-28.1c17.3,0,26.4,8.4,26.4,25.6c0,1.5-0.1,3.2-0.2,4.3
			c-0.1,1.1-0.5,1.4-1.6,1.4h-41.2c-0.6,0-0.9,0.2-0.9,0.9c0,14,10.9,17.7,21.3,17.7c9,0,15.5-2.3,17.7-3.1c0.2-0.1,0.5-0.1,0.7-0.1
			c0.4,0,0.6,0.1,0.7,0.6c0.2,1.2,0.4,3.6,0.4,4.9c0,0.7-0.1,1-0.7,1.2c-1.7,0.7-8.1,2.9-18.4,2.9C379.1,71.9,366.5,65.3,366.5,43.8
			z M409.6,40.6c0.9,0,1-0.4,1-1.2c0-11.6-6.5-17.6-17.5-17.6c-11.1,0-17.5,6-17.5,17.6c0,0.9,0.1,1.2,1,1.2H409.6z"/>
	</g>
	<g>
		<defs>
			<path id="SVGID_1_" d="M58.1,72.5H14c-7.7,0-14-6.3-14-14V14.4c0-7.7,6.3-14,14-14h44.1c7.7,0,14,6.3,14,14v44.1
				C72.2,66.2,65.8,72.5,58.1,72.5z"/>
		</defs>
		<clipPath id="SVGID_2_">
			<use xlink:href="#SVGID_1_"  style="overflow:visible;"/>
		</clipPath>
		<path class="st1" d="M17.2,23c5.7-5.2,11.1-10.8,16.7-16.2c2.5-2.4,5.2-4.5,8-6.3H33c-1.7,1.7-3.3,3.5-5,5.2
			c-5.8,6.1-12.6,11.1-20.1,14.9c-2.6,1.3-5.2,2.6-7.9,3.9v9.7C6.2,31.2,12.1,27.6,17.2,23z"/>
		<path class="st2" d="M0.1,13.1C0.1,13.6,0,14,0,14.5v8.8c6.4-3.1,12.6-6.6,18.4-10.9c4.8-3.5,8.9-7.7,12.9-11.9h-8
			c-4.6,3.4-9.5,6.3-14.8,8.8C5.8,10.5,2.9,11.8,0.1,13.1z"/>
		<path class="st3" d="M31.5,72.6h26.7c6.7,0,12.4-4.8,13.7-11.1c-8,2.1-16.1,4-24.2,5.9C42.1,68.6,36.7,70.4,31.5,72.6z"/>
		<path class="st4" d="M24.7,24.9c7.8-9.2,17.9-14.9,29-19.2c3.6-1.4,7.4-2.5,11.1-3.5c-2-1.1-4.2-1.7-6.6-1.7h-14
			c-6.9,4.2-12.7,9.8-18.1,16C18.8,24.8,9.8,30.8,0,35.6v9.2C6.5,41.2,12.5,37,18,32C20.4,29.8,22.6,27.4,24.7,24.9z"/>
		<path class="st5" d="M11.3,65c9-11,20.8-17.8,34.2-21.7c8.8-2.6,17.8-4.4,26.7-6.7V25.4c-1.5,0.4-3,0.7-4.5,1.1
			c-11.2,2.6-22.1,5.8-32.4,11.2C26.4,42.2,19.6,49,13,56.3c-3.3,3.7-7,6.8-10.9,9.7c1.1,1.7,2.5,3.2,4.1,4.3
			C8,68.6,9.7,66.9,11.3,65z"/>
		<path class="st5" d="M17,41.6c4.6-5,9.5-9.8,14.9-13.8c7.8-5.8,16.8-9.5,26.2-12c4.6-1.2,9.3-2.3,13.9-3.4c-0.6-3.9-2.8-7.4-6-9.5
			c-7.4,2-14.6,4.7-21.6,8.1c-9.6,4.7-16.9,12.1-23.9,19.9C14.7,37.4,7.6,42.3,0,46.5v9C6.2,51.6,12,47.1,17,41.6z"/>
		<path class="st2" d="M14,72.5C14,72.6,14,72.6,14,72.5C14,72.6,14,72.6,14,72.5l13.6,0.1c4.8-2.2,9.8-3.8,15-5.2
			c9.8-2.7,19.7-4.6,29.5-7.1c0.1-0.6,0.1-1.1,0.1-1.7v-9.2c-6,1.5-12.1,2.8-18.2,4.3C39.4,57.2,25.6,62.5,14,72.5z"/>
		<path class="st3" d="M20.8,0.5h-6.7c-6.9,0-12.7,5-13.8,11.6c2.5-1.2,5-2.4,7.5-3.6C12.3,6,16.7,3.4,20.8,0.5z"/>
		<path class="st1" d="M36.2,58c9.4-3.3,19.3-5.5,28.9-8.1c2.4-0.6,4.7-1.3,7.1-1.9V37.5c-3.9,1-7.7,1.9-11.6,2.7
			c-14.3,3.2-27.8,8-39.5,16.9c-3.5,2.6-6.5,6-9.4,9.3c-1.4,1.6-2.8,3.1-4.3,4.5c1.5,0.8,3.2,1.4,4.9,1.6
			C19.2,66.1,27.1,61.2,36.2,58z"/>
		<path class="st6" d="M13.5,54.1c4.3-4.1,8.4-8.7,13-12.4c7-5.6,15.3-9.4,23.9-11.8c7.2-2,14.5-3.7,21.8-5.4v-10c0-0.4,0-0.7,0-1.1
			c-3.2,0.7-6.4,1.5-9.5,2.3C50,19,38.1,23.8,28,32.2c-4.7,4-8.8,8.8-13.1,13.3C10.5,50.1,5.4,53.9,0,57.1v1.5
			c0,2.2,0.5,4.3,1.4,6.2c1-0.7,1.9-1.4,2.8-2.2C7.5,59.9,10.5,57,13.5,54.1z"/>
	</g>
	<g>
		<path class="st0" d="M423.6,2.1h-3.6c-0.1,0-0.2,0-0.2-0.2c0-0.1,0-0.3,0-0.5s0-0.4,0-0.5c0-0.2,0.1-0.2,0.2-0.2h9.3
			c0.1,0,0.2,0,0.2,0.2c0,0.1,0,0.3,0,0.5s0,0.4,0,0.5c0,0.2-0.1,0.2-0.2,0.2h-3.6c-0.1,0-0.2,0.1-0.2,0.2v9.3c0,0.2,0,0.2-0.2,0.3
			c-0.1,0-0.4,0-0.7,0s-0.5,0-0.7,0c-0.2,0-0.2-0.1-0.2-0.3V2.3C423.8,2.1,423.7,2.1,423.6,2.1z"/>
		<path class="st0" d="M441.5,0.7h2.1c0.2,0,0.4,0.1,0.4,0.4l0.7,10.6v0.1c0,0.1,0,0.1-0.2,0.2c-0.2,0-0.4,0-0.6,0
			c-0.3,0-0.5,0-0.7,0c-0.2,0-0.2-0.1-0.2-0.2l-0.5-9.3c0-0.1,0-0.1-0.1-0.1h-0.2c-0.1,0-0.1,0-0.1,0.1l-3.2,7.3
			c-0.1,0.2-0.1,0.3-0.4,0.3h-1.6c-0.2,0-0.3,0-0.4-0.3l-3.2-7.3c0-0.1,0-0.1-0.1-0.1H433c-0.1,0-0.1,0-0.1,0.1l-0.5,9.3
			c0,0.1,0,0.2-0.2,0.2c-0.2,0-0.4,0-0.7,0s-0.5,0-0.7,0c-0.2,0-0.2-0.1-0.2-0.2L431.4,1c0-0.3,0.1-0.4,0.4-0.4h2.1
			c0.2,0,0.4,0,0.4,0.3l3.1,7.2c0,0.1,0.1,0.1,0.1,0.1h0.1c0.1,0,0.1,0,0.1-0.1L441,1C441.1,0.7,441.2,0.7,441.5,0.7z"/>
	</g>
</g>
</svg>
